{
    "accessors": {
        "accessor_193": {
            "bufferView": "bufferView_223",
            "byteOffset": 0,
            "byteStride": 0,
            "componentType": 5123,
            "count": 84,
            "type": "SCALAR"
        },
        "accessor_196": {
            "bufferView": "bufferView_223",
            "byteOffset": 168,
            "byteStride": 0,
            "componentType": 5123,
            "count": 42,
            "type": "SCALAR"
        },
        "accessor_199": {
            "bufferView": "bufferView_223",
            "byteOffset": 252,
            "byteStride": 0,
            "componentType": 5123,
            "count": 12,
            "type": "SCALAR"
        },
        "accessor_202": {
            "bufferView": "bufferView_223",
            "byteOffset": 276,
            "byteStride": 0,
            "componentType": 5123,
            "count": 78,
            "type": "SCALAR"
        },
        "accessor_205": {
            "bufferView": "bufferView_223",
            "byteOffset": 432,
            "byteStride": 0,
            "componentType": 5123,
            "count": 504,
            "type": "SCALAR"
        },
        "accessor_208": {
            "bufferView": "bufferView_223",
            "byteOffset": 1440,
            "byteStride": 0,
            "componentType": 5123,
            "count": 1896,
            "type": "SCALAR"
        },
        "accessor_211": {
            "bufferView": "bufferView_223",
            "byteOffset": 5232,
            "byteStride": 0,
            "componentType": 5123,
            "count": 264,
            "type": "SCALAR"
        },
        "accessor_213": {
            "bufferView": "bufferView_224",
            "byteOffset": 0,
            "byteStride": 12,
            "componentType": 5126,
            "count": 2108,
            "max": [
                -12.5435,
                31.3253,
                8.23443
            ],
            "min": [
                -29.0146,
                -25.1852,
                -0.183277
            ],
            "type": "VEC3"
        },
        "accessor_215": {
            "bufferView": "bufferView_224",
            "byteOffset": 25296,
            "byteStride": 12,
            "componentType": 5126,
            "count": 2108,
            "max": [
                0.991383,
                0.991371,
                1
            ],
            "min": [
                -0.991365,
                -0.991364,
                -1
            ],
            "type": "VEC3"
        },
        "accessor_217": {
            "bufferView": "bufferView_224",
            "byteOffset": 50592,
            "byteStride": 8,
            "componentType": 5126,
            "count": 2108,
            "max": [
                4.9975,
                2.12068
            ],
            "min": [
                -1.12068,
                -3.9975
            ],
            "type": "VEC2"
        },
        "accessor_219": {
            "bufferView": "bufferView_224",
            "byteOffset": 67456,
            "byteStride": 12,
            "componentType": 5126,
            "count": 2108,
            "max": [
                0.991373,
                0.991364,
                1
            ],
            "min": [
                -0.991371,
                -0.991363,
                -1
            ],
            "type": "VEC3"
        },
        "accessor_221": {
            "bufferView": "bufferView_224",
            "byteOffset": 92752,
            "byteStride": 12,
            "componentType": 5126,
            "count": 2108,
            "max": [
                0.991362,
                0.991362,
                1
            ],
            "min": [
                -0.991362,
                -0.991367,
                -1
            ],
            "type": "VEC3"
        }
    },
    "animations": {},
    "asset": {
        "generator": "collada2gltf@11bf28f97f1b5380fbefacf862ce7c597873d368",
        "premultipliedAlpha": true,
        "profile": {
            "api": "WebGL",
            "version": "1.0.2"
        },
        "version": 1
    },
    "bufferViews": {
        "bufferView_223": {
            "buffer": "ht01",
            "byteLength": 5760,
            "byteOffset": 0,
            "target": 34963
        },
        "bufferView_224": {
            "buffer": "ht01",
            "byteLength": 118048,
            "byteOffset": 5760,
            "target": 34962
        }
    },
    "buffers": {
        "ht01": {
            "byteLength": 123808,
            "type": "arraybuffer",
            "uri": "data:application/octet-stream;base64,"
        }
    },
    "images": {
        "sy16051101_png": {
            "name": "sy16051101_png",
            "uri": "data:image/png;base64,"
        },
        "sy16051111_png": {
            "name": "sy16051111_png",
            "uri": "data:image/png;base64,"
        },
        "sy16051113_png": {
            "name": "sy16051113_png",
            "uri": "data:image/png;base64,"
        },
        "sy16051126_png": {
            "name": "sy16051126_png",
            "uri": "data:image/png;base64,"
        },
        "sy16051127_png": {
            "name": "sy16051127_png",
            "uri": "data:image/png;base64,"
        },
        "sy16051128_png": {
            "name": "sy16051128_png",
            "uri": "data:image/png;base64,"
        },
        "sy16051129_png": {
            "name": "sy16051129_png",
            "uri": "data:image/png;base64,"
        }
    },
    "materials": {
        "sy16051101": {
            "name": "sy16051101",
            "technique": "technique1",
            "values": {
                "ambient": "texture_sy16051101_png",
                "diffuse": "texture_sy16051101_png",
                "emission": [
                    0,
                    0,
                    0,
                    1
                ],
                "shininess": 0,
                "specular": [
                    0.9,
                    0.9,
                    0.9,
                    1
                ]
            }
        },
        "sy16051111": {
            "name": "sy16051111",
            "technique": "technique1",
            "values": {
                "ambient": "texture_sy16051111_png",
                "diffuse": "texture_sy16051111_png",
                "emission": [
                    0,
                    0,
                    0,
                    1
                ],
                "shininess": 0,
                "specular": [
                    0.9,
                    0.9,
                    0.9,
                    1
                ]
            }
        },
        "sy16051113": {
            "name": "sy16051113",
            "technique": "technique1",
            "values": {
                "ambient": "texture_sy16051113_png",
                "diffuse": "texture_sy16051113_png",
                "emission": [
                    0,
                    0,
                    0,
                    1
                ],
                "shininess": 0,
                "specular": [
                    0.9,
                    0.9,
                    0.9,
                    1
                ]
            }
        },
        "sy16051126": {
            "name": "sy16051126",
            "technique": "technique1",
            "values": {
                "ambient": "texture_sy16051126_png",
                "diffuse": "texture_sy16051126_png",
                "emission": [
                    0,
                    0,
                    0,
                    1
                ],
                "shininess": 0,
                "specular": [
                    0.9,
                    0.9,
                    0.9,
                    1
                ]
            }
        },
        "sy16051127": {
            "name": "sy16051127",
            "technique": "technique1",
            "values": {
                "ambient": "texture_sy16051127_png",
                "diffuse": "texture_sy16051127_png",
                "emission": [
                    0,
                    0,
                    0,
                    1
                ],
                "shininess": 0,
                "specular": [
                    0.9,
                    0.9,
                    0.9,
                    1
                ]
            }
        },
        "sy16051128": {
            "name": "sy16051128",
            "technique": "technique1",
            "values": {
                "ambient": "texture_sy16051128_png",
                "diffuse": "texture_sy16051128_png",
                "emission": [
                    0,
                    0,
                    0,
                    1
                ],
                "shininess": 0,
                "specular": [
                    0.9,
                    0.9,
                    0.9,
                    1
                ]
            }
        },
        "sy16051129": {
            "name": "sy16051129",
            "technique": "technique1",
            "values": {
                "ambient": "texture_sy16051129_png",
                "diffuse": "texture_sy16051129_png",
                "emission": [
                    0,
                    0,
                    0,
                    1
                ],
                "shininess": 0,
                "specular": [
                    0.9,
                    0.9,
                    0.9,
                    1
                ]
            }
        }
    },
    "meshes": {
        "geom-ht01": {
            "name": "ht01",
            "primitives": [
                {
                    "attributes": {
                        "NORMAL": "accessor_215",
                        "POSITION": "accessor_213",
                        "TEXBINORMAL": "accessor_221",
                        "TEXCOORD_0": "accessor_217",
                        "TEXTANGENT": "accessor_219"
                    },
                    "indices": "accessor_193",
                    "material": "sy16051128",
                    "mode": 4
                },
                {
                    "attributes": {
                        "NORMAL": "accessor_215",
                        "POSITION": "accessor_213",
                        "TEXBINORMAL": "accessor_221",
                        "TEXCOORD_0": "accessor_217",
                        "TEXTANGENT": "accessor_219"
                    },
                    "indices": "accessor_196",
                    "material": "sy16051129",
                    "mode": 4
                },
                {
                    "attributes": {
                        "NORMAL": "accessor_215",
                        "POSITION": "accessor_213",
                        "TEXBINORMAL": "accessor_221",
                        "TEXCOORD_0": "accessor_217",
                        "TEXTANGENT": "accessor_219"
                    },
                    "indices": "accessor_199",
                    "material": "sy16051127",
                    "mode": 4
                },
                {
                    "attributes": {
                        "NORMAL": "accessor_215",
                        "POSITION": "accessor_213",
                        "TEXBINORMAL": "accessor_221",
                        "TEXCOORD_0": "accessor_217",
                        "TEXTANGENT": "accessor_219"
                    },
                    "indices": "accessor_202",
                    "material": "sy16051126",
                    "mode": 4
                },
                {
                    "attributes": {
                        "NORMAL": "accessor_215",
                        "POSITION": "accessor_213",
                        "TEXBINORMAL": "accessor_221",
                        "TEXCOORD_0": "accessor_217",
                        "TEXTANGENT": "accessor_219"
                    },
                    "indices": "accessor_205",
                    "material": "sy16051111",
                    "mode": 4
                },
                {
                    "attributes": {
                        "NORMAL": "accessor_215",
                        "POSITION": "accessor_213",
                        "TEXBINORMAL": "accessor_221",
                        "TEXCOORD_0": "accessor_217",
                        "TEXTANGENT": "accessor_219"
                    },
                    "indices": "accessor_208",
                    "material": "sy16051113",
                    "mode": 4
                },
                {
                    "attributes": {
                        "NORMAL": "accessor_215",
                        "POSITION": "accessor_213",
                        "TEXBINORMAL": "accessor_221",
                        "TEXCOORD_0": "accessor_217",
                        "TEXTANGENT": "accessor_219"
                    },
                    "indices": "accessor_211",
                    "material": "sy16051101",
                    "mode": 4
                }
            ]
        }
    },
    "nodes": {
        "node-ht01": {
            "children": [
                "node_2"
            ],
            "matrix": [
                1,
                0,
                0,
                0,
                0,
                1,
                0,
                0,
                0,
                0,
                1,
                0,
                0,
                0,
                4.02558,
                1
            ],
            "name": "ht01"
        },
        "node_0": {
            "children": [],
            "matrix": [
                1,
                0,
                0,
                0,
                0,
                1,
                0,
                0,
                0,
                0,
                1,
                0,
                0,
                0,
                0,
                1
            ],
            "name": "EnvironmentAmbientLight"
        },
        "node_2": {
            "children": [],
            "matrix": [
                1,
                0,
                0,
                0,
                0,
                1,
                0,
                0,
                0,
                0,
                1,
                0,
                20.7791,
                -3.07004,
                -4.02558,
                1
            ],
            "meshes": [
                "geom-ht01"
            ],
            "name": ""
        },
        "node_3": {
            "children": [
                "node_0",
                "node-ht01"
            ],
            "matrix": [
                1,
                0,
                0,
                0,
                0,
                0,
                -1,
                0,
                0,
                1,
                0,
                0,
                0,
                0,
                0,
                1
            ],
            "name": "Y_UP_Transform"
        }
    },
    "programs": {
        "program_0": {
            "attributes": [
                "a_normal",
                "a_position",
                "a_texcoord0"
            ],
            "fragmentShader": "ht010FS",
            "vertexShader": "ht010VS"
        }
    },
    "samplers": {
        "sampler_0": {
            "magFilter": 9729,
            "minFilter": 9729,
            "wrapS": 10497,
            "wrapT": 10497
        }
    },
    "scene": "defaultScene",
    "scenes": {
        "defaultScene": {
            "nodes": [
                "node_3"
            ]
        }
    },
    "shaders": {
        "ht010FS": {
            "type": 35632,
            "uri": "data:text/plain;base64,"
        },
        "ht010VS": {
            "type": 35633,
            "uri": "data:text/plain;base64,"
        }
    },
    "skins": {},
    "techniques": {
        "technique1": {
            "attributes": {
                "a_normal": "normal",
                "a_position": "position",
                "a_texcoord0": "texcoord0"
            },
            "parameters": {
                "ambient": {
                    "type": 35678
                },
                "diffuse": {
                    "type": 35678
                },
                "emission": {
                    "type": 35666
                },
                "modelViewMatrix": {
                    "semantic": "MODELVIEW",
                    "type": 35676
                },
                "normal": {
                    "semantic": "NORMAL",
                    "type": 35665
                },
                "normalMatrix": {
                    "semantic": "MODELVIEWINVERSETRANSPOSE",
                    "type": 35675
                },
                "position": {
                    "semantic": "POSITION",
                    "type": 35665
                },
                "projectionMatrix": {
                    "semantic": "PROJECTION",
                    "type": 35676
                },
                "shininess": {
                    "type": 5126
                },
                "specular": {
                    "type": 35666
                },
                "texcoord0": {
                    "semantic": "TEXCOORD_0",
                    "type": 35664
                }
            },
            "program": "program_0",
            "states": {
                "enable": [
                    2929,
                    3042
                ],
                "functions": {
                    "blendEquationSeparate": [
                        32774,
                        32774
                    ],
                    "blendFuncSeparate": [
                        1,
                        771,
                        1,
                        771
                    ],
                    "depthMask": false
                }
            },
            "uniforms": {
                "u_ambient": "ambient",
                "u_diffuse": "diffuse",
                "u_emission": "emission",
                "u_modelViewMatrix": "modelViewMatrix",
                "u_normalMatrix": "normalMatrix",
                "u_projectionMatrix": "projectionMatrix",
                "u_shininess": "shininess",
                "u_specular": "specular"
            }
        }
    },
    "textures": {
        "texture_sy16051101_png": {
            "format": 6408,
            "internalFormat": 6408,
            "sampler": "sampler_0",
            "source": "sy16051101_png",
            "target": 3553,
            "type": 5121
        },
        "texture_sy16051111_png": {
            "format": 6408,
            "internalFormat": 6408,
            "sampler": "sampler_0",
            "source": "sy16051111_png",
            "target": 3553,
            "type": 5121
        },
        "texture_sy16051113_png": {
            "format": 6408,
            "internalFormat": 6408,
            "sampler": "sampler_0",
            "source": "sy16051113_png",
            "target": 3553,
            "type": 5121
        },
        "texture_sy16051126_png": {
            "format": 6408,
            "internalFormat": 6408,
            "sampler": "sampler_0",
            "source": "sy16051126_png",
            "target": 3553,
            "type": 5121
        },
        "texture_sy16051127_png": {
            "format": 6408,
            "internalFormat": 6408,
            "sampler": "sampler_0",
            "source": "sy16051127_png",
            "target": 3553,
            "type": 5121
        },
        "texture_sy16051128_png": {
            "format": 6408,
            "internalFormat": 6408,
            "sampler": "sampler_0",
            "source": "sy16051128_png",
            "target": 3553,
            "type": 5121
        },
        "texture_sy16051129_png": {
            "format": 6408,
            "internalFormat": 6408,
            "sampler": "sampler_0",
            "source": "sy16051129_png",
            "target": 3553,
            "type": 5121
        }
    }
}