{
    "accessors": {
        "accessor_247": {
            "bufferView": "bufferView_283",
            "byteOffset": 0,
            "byteStride": 0,
            "componentType": 5123,
            "count": 2253,
            "type": "SCALAR"
        },
        "accessor_250": {
            "bufferView": "bufferView_283",
            "byteOffset": 4506,
            "byteStride": 0,
            "componentType": 5123,
            "count": 24,
            "type": "SCALAR"
        },
        "accessor_253": {
            "bufferView": "bufferView_283",
            "byteOffset": 4554,
            "byteStride": 0,
            "componentType": 5123,
            "count": 4041,
            "type": "SCALAR"
        },
        "accessor_256": {
            "bufferView": "bufferView_283",
            "byteOffset": 12636,
            "byteStride": 0,
            "componentType": 5123,
            "count": 882,
            "type": "SCALAR"
        },
        "accessor_259": {
            "bufferView": "bufferView_283",
            "byteOffset": 14400,
            "byteStride": 0,
            "componentType": 5123,
            "count": 6480,
            "type": "SCALAR"
        },
        "accessor_262": {
            "bufferView": "bufferView_283",
            "byteOffset": 27360,
            "byteStride": 0,
            "componentType": 5123,
            "count": 234,
            "type": "SCALAR"
        },
        "accessor_265": {
            "bufferView": "bufferView_283",
            "byteOffset": 27828,
            "byteStride": 0,
            "componentType": 5123,
            "count": 162,
            "type": "SCALAR"
        },
        "accessor_268": {
            "bufferView": "bufferView_283",
            "byteOffset": 28152,
            "byteStride": 0,
            "componentType": 5123,
            "count": 666,
            "type": "SCALAR"
        },
        "accessor_271": {
            "bufferView": "bufferView_283",
            "byteOffset": 29484,
            "byteStride": 0,
            "componentType": 5123,
            "count": 462,
            "type": "SCALAR"
        },
        "accessor_273": {
            "bufferView": "bufferView_284",
            "byteOffset": 0,
            "byteStride": 12,
            "componentType": 5126,
            "count": 5968,
            "max": [
                23.5785,
                0.500618,
                17.6589
            ],
            "min": [
                -1.42743,
                -30.7734,
                -0.116314
            ],
            "type": "VEC3"
        },
        "accessor_275": {
            "bufferView": "bufferView_284",
            "byteOffset": 71616,
            "byteStride": 12,
            "componentType": 5126,
            "count": 5968,
            "max": [
                0.998582,
                0.999996,
                1
            ],
            "min": [
                -0.99871,
                -0.999882,
                -1
            ],
            "type": "VEC3"
        },
        "accessor_277": {
            "bufferView": "bufferView_284",
            "byteOffset": 143232,
            "byteStride": 8,
            "componentType": 5126,
            "count": 5968,
            "max": [
                9.5209,
                3.77151
            ],
            "min": [
                -4.48083,
                -9.55415
            ],
            "type": "VEC2"
        },
        "accessor_279": {
            "bufferView": "bufferView_284",
            "byteOffset": 190976,
            "byteStride": 12,
            "componentType": 5126,
            "count": 5968,
            "max": [
                0.999796,
                0.997086,
                1
            ],
            "min": [
                -0.999796,
                -0.99871,
                -1
            ],
            "type": "VEC3"
        },
        "accessor_281": {
            "bufferView": "bufferView_284",
            "byteOffset": 262592,
            "byteStride": 12,
            "componentType": 5126,
            "count": 5968,
            "max": [
                0.999948,
                0.999796,
                1
            ],
            "min": [
                -0.999762,
                -0.999796,
                -1
            ],
            "type": "VEC3"
        }
    },
    "animations": {},
    "asset": {
        "generator": "collada2gltf@11bf28f97f1b5380fbefacf862ce7c597873d368",
        "premultipliedAlpha": true,
        "profile": {
            "api": "WebGL",
            "version": "1.0.2"
        },
        "version": 1
    },
    "bufferViews": {
        "bufferView_283": {
            "buffer": "ht02",
            "byteLength": 30408,
            "byteOffset": 0,
            "target": 34963
        },
        "bufferView_284": {
            "buffer": "ht02",
            "byteLength": 334208,
            "byteOffset": 30408,
            "target": 34962
        }
    },
    "buffers": {
        "ht02": {
            "byteLength": 364616,
            "type": "arraybuffer",
            "uri": "data:application/octet-stream;base64,"
        }
    },
    "images": {
        "sy16051111_png": {
            "name": "sy16051111_png",
            "uri": "data:image/png;base64,"
        },
        "sy16051113_png": {
            "name": "sy16051113_png",
            "uri": "data:image/png;base64,"
        },
        "sy16051125_png": {
            "name": "sy16051125_png",
            "uri": "data:image/png;base64,"
        },
        "sy16051126_png": {
            "name": "sy16051126_png",
            "uri": "data:image/png;base64,"
        },
        "sy16051127_png": {
            "name": "sy16051127_png",
            "uri": "data:image/png;base64,"
        },
        "sy16051128_png": {
            "name": "sy16051128_png",
            "uri": "data:image/png;base64,"
        },
        "sy16051129_png": {
            "name": "sy16051129_png",
            "uri": "data:image/png;base64,"
        },
        "sy16051130_png": {
            "name": "sy16051130_png",
            "uri": "data:image/png;base64,"
        },
        "sy16051133_png": {
            "name": "sy16051133_png",
            "uri": "data:image/png;base64,"
        }
    },
    "materials": {
        "sy16051111": {
            "name": "sy16051111",
            "technique": "technique1",
            "values": {
                "ambient": "texture_sy16051111_png",
                "diffuse": "texture_sy16051111_png",
                "emission": [
                    0,
                    0,
                    0,
                    1
                ],
                "shininess": 0,
                "specular": [
                    0.9,
                    0.9,
                    0.9,
                    1
                ]
            }
        },
        "sy16051113": {
            "name": "sy16051113",
            "technique": "technique1",
            "values": {
                "ambient": "texture_sy16051113_png",
                "diffuse": "texture_sy16051113_png",
                "emission": [
                    0,
                    0,
                    0,
                    1
                ],
                "shininess": 0,
                "specular": [
                    0.9,
                    0.9,
                    0.9,
                    1
                ]
            }
        },
        "sy16051125": {
            "name": "sy16051125",
            "technique": "technique1",
            "values": {
                "ambient": "texture_sy16051125_png",
                "diffuse": "texture_sy16051125_png",
                "emission": [
                    0,
                    0,
                    0,
                    1
                ],
                "shininess": 0,
                "specular": [
                    0.9,
                    0.9,
                    0.9,
                    1
                ]
            }
        },
        "sy16051126": {
            "name": "sy16051126",
            "technique": "technique1",
            "values": {
                "ambient": "texture_sy16051126_png",
                "diffuse": "texture_sy16051126_png",
                "emission": [
                    0,
                    0,
                    0,
                    1
                ],
                "shininess": 0,
                "specular": [
                    0.9,
                    0.9,
                    0.9,
                    1
                ]
            }
        },
        "sy16051127": {
            "name": "sy16051127",
            "technique": "technique1",
            "values": {
                "ambient": "texture_sy16051127_png",
                "diffuse": "texture_sy16051127_png",
                "emission": [
                    0,
                    0,
                    0,
                    1
                ],
                "shininess": 0,
                "specular": [
                    0.9,
                    0.9,
                    0.9,
                    1
                ]
            }
        },
        "sy16051128": {
            "name": "sy16051128",
            "technique": "technique1",
            "values": {
                "ambient": "texture_sy16051128_png",
                "diffuse": "texture_sy16051128_png",
                "emission": [
                    0,
                    0,
                    0,
                    1
                ],
                "shininess": 0,
                "specular": [
                    0.9,
                    0.9,
                    0.9,
                    1
                ]
            }
        },
        "sy16051129": {
            "name": "sy16051129",
            "technique": "technique1",
            "values": {
                "ambient": "texture_sy16051129_png",
                "diffuse": "texture_sy16051129_png",
                "emission": [
                    0,
                    0,
                    0,
                    1
                ],
                "shininess": 0,
                "specular": [
                    0.9,
                    0.9,
                    0.9,
                    1
                ]
            }
        },
        "sy16051130": {
            "name": "sy16051130",
            "technique": "technique1",
            "values": {
                "ambient": "texture_sy16051130_png",
                "diffuse": "texture_sy16051130_png",
                "emission": [
                    0,
                    0,
                    0,
                    1
                ],
                "shininess": 0,
                "specular": [
                    0.9,
                    0.9,
                    0.9,
                    1
                ]
            }
        },
        "sy16051133": {
            "name": "sy16051133",
            "technique": "technique1",
            "values": {
                "ambient": "texture_sy16051133_png",
                "diffuse": "texture_sy16051133_png",
                "emission": [
                    0,
                    0,
                    0,
                    1
                ],
                "shininess": 0,
                "specular": [
                    0.9,
                    0.9,
                    0.9,
                    1
                ]
            }
        }
    },
    "meshes": {
        "geom-ht02": {
            "name": "ht02",
            "primitives": [
                {
                    "attributes": {
                        "NORMAL": "accessor_275",
                        "POSITION": "accessor_273",
                        "TEXBINORMAL": "accessor_281",
                        "TEXCOORD_0": "accessor_277",
                        "TEXTANGENT": "accessor_279"
                    },
                    "indices": "accessor_247",
                    "material": "sy16051130",
                    "mode": 4
                },
                {
                    "attributes": {
                        "NORMAL": "accessor_275",
                        "POSITION": "accessor_273",
                        "TEXBINORMAL": "accessor_281",
                        "TEXCOORD_0": "accessor_277",
                        "TEXTANGENT": "accessor_279"
                    },
                    "indices": "accessor_250",
                    "material": "sy16051127",
                    "mode": 4
                },
                {
                    "attributes": {
                        "NORMAL": "accessor_275",
                        "POSITION": "accessor_273",
                        "TEXBINORMAL": "accessor_281",
                        "TEXCOORD_0": "accessor_277",
                        "TEXTANGENT": "accessor_279"
                    },
                    "indices": "accessor_253",
                    "material": "sy16051133",
                    "mode": 4
                },
                {
                    "attributes": {
                        "NORMAL": "accessor_275",
                        "POSITION": "accessor_273",
                        "TEXBINORMAL": "accessor_281",
                        "TEXCOORD_0": "accessor_277",
                        "TEXTANGENT": "accessor_279"
                    },
                    "indices": "accessor_256",
                    "material": "sy16051111",
                    "mode": 4
                },
                {
                    "attributes": {
                        "NORMAL": "accessor_275",
                        "POSITION": "accessor_273",
                        "TEXBINORMAL": "accessor_281",
                        "TEXCOORD_0": "accessor_277",
                        "TEXTANGENT": "accessor_279"
                    },
                    "indices": "accessor_259",
                    "material": "sy16051113",
                    "mode": 4
                },
                {
                    "attributes": {
                        "NORMAL": "accessor_275",
                        "POSITION": "accessor_273",
                        "TEXBINORMAL": "accessor_281",
                        "TEXCOORD_0": "accessor_277",
                        "TEXTANGENT": "accessor_279"
                    },
                    "indices": "accessor_262",
                    "material": "sy16051126",
                    "mode": 4
                },
                {
                    "attributes": {
                        "NORMAL": "accessor_275",
                        "POSITION": "accessor_273",
                        "TEXBINORMAL": "accessor_281",
                        "TEXCOORD_0": "accessor_277",
                        "TEXTANGENT": "accessor_279"
                    },
                    "indices": "accessor_265",
                    "material": "sy16051129",
                    "mode": 4
                },
                {
                    "attributes": {
                        "NORMAL": "accessor_275",
                        "POSITION": "accessor_273",
                        "TEXBINORMAL": "accessor_281",
                        "TEXCOORD_0": "accessor_277",
                        "TEXTANGENT": "accessor_279"
                    },
                    "indices": "accessor_268",
                    "material": "sy16051128",
                    "mode": 4
                },
                {
                    "attributes": {
                        "NORMAL": "accessor_275",
                        "POSITION": "accessor_273",
                        "TEXBINORMAL": "accessor_281",
                        "TEXCOORD_0": "accessor_277",
                        "TEXTANGENT": "accessor_279"
                    },
                    "indices": "accessor_271",
                    "material": "sy16051125",
                    "mode": 4
                }
            ]
        }
    },
    "nodes": {
        "node-ht02": {
            "children": [
                "node_2"
            ],
            "matrix": [
                1,
                0,
                0,
                0,
                0,
                1,
                0,
                0,
                0,
                0,
                1,
                0,
                0,
                0,
                8.77127,
                1
            ],
            "name": "ht02"
        },
        "node_0": {
            "children": [],
            "matrix": [
                1,
                0,
                0,
                0,
                0,
                1,
                0,
                0,
                0,
                0,
                1,
                0,
                0,
                0,
                0,
                1
            ],
            "name": "EnvironmentAmbientLight"
        },
        "node_2": {
            "children": [],
            "matrix": [
                1,
                0,
                0,
                0,
                0,
                1,
                0,
                0,
                0,
                0,
                1,
                0,
                -11.0755,
                15.1364,
                -8.77127,
                1
            ],
            "meshes": [
                "geom-ht02"
            ],
            "name": ""
        },
        "node_3": {
            "children": [
                "node_0",
                "node-ht02"
            ],
            "matrix": [
                1,
                0,
                0,
                0,
                0,
                0,
                -1,
                0,
                0,
                1,
                0,
                0,
                0,
                0,
                0,
                1
            ],
            "name": "Y_UP_Transform"
        }
    },
    "programs": {
        "program_0": {
            "attributes": [
                "a_normal",
                "a_position",
                "a_texcoord0"
            ],
            "fragmentShader": "ht020FS",
            "vertexShader": "ht020VS"
        }
    },
    "samplers": {
        "sampler_0": {
            "magFilter": 9729,
            "minFilter": 9729,
            "wrapS": 10497,
            "wrapT": 10497
        }
    },
    "scene": "defaultScene",
    "scenes": {
        "defaultScene": {
            "nodes": [
                "node_3"
            ]
        }
    },
    "shaders": {
        "ht020FS": {
            "type": 35632,
            "uri": "data:text/plain;base64,"
        },
        "ht020VS": {
            "type": 35633,
            "uri": "data:text/plain;base64,"
        }
    },
    "skins": {},
    "techniques": {
        "technique1": {
            "attributes": {
                "a_normal": "normal",
                "a_position": "position",
                "a_texcoord0": "texcoord0"
            },
            "parameters": {
                "ambient": {
                    "type": 35678
                },
                "diffuse": {
                    "type": 35678
                },
                "emission": {
                    "type": 35666
                },
                "modelViewMatrix": {
                    "semantic": "MODELVIEW",
                    "type": 35676
                },
                "normal": {
                    "semantic": "NORMAL",
                    "type": 35665
                },
                "normalMatrix": {
                    "semantic": "MODELVIEWINVERSETRANSPOSE",
                    "type": 35675
                },
                "position": {
                    "semantic": "POSITION",
                    "type": 35665
                },
                "projectionMatrix": {
                    "semantic": "PROJECTION",
                    "type": 35676
                },
                "shininess": {
                    "type": 5126
                },
                "specular": {
                    "type": 35666
                },
                "texcoord0": {
                    "semantic": "TEXCOORD_0",
                    "type": 35664
                }
            },
            "program": "program_0",
            "states": {
                "enable": [
                    2929,
                    3042
                ],
                "functions": {
                    "blendEquationSeparate": [
                        32774,
                        32774
                    ],
                    "blendFuncSeparate": [
                        1,
                        771,
                        1,
                        771
                    ],
                    "depthMask": false
                }
            },
            "uniforms": {
                "u_ambient": "ambient",
                "u_diffuse": "diffuse",
                "u_emission": "emission",
                "u_modelViewMatrix": "modelViewMatrix",
                "u_normalMatrix": "normalMatrix",
                "u_projectionMatrix": "projectionMatrix",
                "u_shininess": "shininess",
                "u_specular": "specular"
            }
        }
    },
    "textures": {
        "texture_sy16051111_png": {
            "format": 6408,
            "internalFormat": 6408,
            "sampler": "sampler_0",
            "source": "sy16051111_png",
            "target": 3553,
            "type": 5121
        },
        "texture_sy16051113_png": {
            "format": 6408,
            "internalFormat": 6408,
            "sampler": "sampler_0",
            "source": "sy16051113_png",
            "target": 3553,
            "type": 5121
        },
        "texture_sy16051125_png": {
            "format": 6408,
            "internalFormat": 6408,
            "sampler": "sampler_0",
            "source": "sy16051125_png",
            "target": 3553,
            "type": 5121
        },
        "texture_sy16051126_png": {
            "format": 6408,
            "internalFormat": 6408,
            "sampler": "sampler_0",
            "source": "sy16051126_png",
            "target": 3553,
            "type": 5121
        },
        "texture_sy16051127_png": {
            "format": 6408,
            "internalFormat": 6408,
            "sampler": "sampler_0",
            "source": "sy16051127_png",
            "target": 3553,
            "type": 5121
        },
        "texture_sy16051128_png": {
            "format": 6408,
            "internalFormat": 6408,
            "sampler": "sampler_0",
            "source": "sy16051128_png",
            "target": 3553,
            "type": 5121
        },
        "texture_sy16051129_png": {
            "format": 6408,
            "internalFormat": 6408,
            "sampler": "sampler_0",
            "source": "sy16051129_png",
            "target": 3553,
            "type": 5121
        },
        "texture_sy16051130_png": {
            "format": 6408,
            "internalFormat": 6408,
            "sampler": "sampler_0",
            "source": "sy16051130_png",
            "target": 3553,
            "type": 5121
        },
        "texture_sy16051133_png": {
            "format": 6408,
            "internalFormat": 6408,
            "sampler": "sampler_0",
            "source": "sy16051133_png",
            "target": 3553,
            "type": 5121
        }
    }
}