{
    "accessors": {
        "accessor_123": {
            "bufferView": "bufferView_149",
            "byteOffset": 0,
            "byteStride": 0,
            "componentType": 5123,
            "count": 24,
            "type": "SCALAR"
        },
        "accessor_126": {
            "bufferView": "bufferView_149",
            "byteOffset": 48,
            "byteStride": 0,
            "componentType": 5123,
            "count": 4041,
            "type": "SCALAR"
        },
        "accessor_129": {
            "bufferView": "bufferView_149",
            "byteOffset": 8130,
            "byteStride": 0,
            "componentType": 5123,
            "count": 882,
            "type": "SCALAR"
        },
        "accessor_132": {
            "bufferView": "bufferView_149",
            "byteOffset": 9894,
            "byteStride": 0,
            "componentType": 5123,
            "count": 6480,
            "type": "SCALAR"
        },
        "accessor_135": {
            "bufferView": "bufferView_149",
            "byteOffset": 22854,
            "byteStride": 0,
            "componentType": 5123,
            "count": 216,
            "type": "SCALAR"
        },
        "accessor_138": {
            "bufferView": "bufferView_149",
            "byteOffset": 23286,
            "byteStride": 0,
            "componentType": 5123,
            "count": 150,
            "type": "SCALAR"
        },
        "accessor_141": {
            "bufferView": "bufferView_149",
            "byteOffset": 23586,
            "byteStride": 0,
            "componentType": 5123,
            "count": 210,
            "type": "SCALAR"
        },
        "accessor_143": {
            "bufferView": "bufferView_150",
            "byteOffset": 0,
            "byteStride": 12,
            "componentType": 5126,
            "count": 3441,
            "max": [
                -19.3888,
                13.221,
                16.6558
            ],
            "min": [
                -47.3345,
                -11.4736,
                -0.116315
            ],
            "type": "VEC3"
        },
        "accessor_145": {
            "bufferView": "bufferView_150",
            "byteOffset": 41292,
            "byteStride": 12,
            "componentType": 5126,
            "count": 3441,
            "max": [
                1,
                1,
                1
            ],
            "min": [
                -1,
                -1,
                -1
            ],
            "type": "VEC3"
        },
        "accessor_147": {
            "bufferView": "bufferView_150",
            "byteOffset": 82584,
            "byteStride": 8,
            "componentType": 5126,
            "count": 3441,
            "max": [
                9.5209,
                3.77151
            ],
            "min": [
                -4.48083,
                -9.55415
            ],
            "type": "VEC2"
        }
    },
    "animations": {},
    "asset": {
        "generator": "collada2gltf@11bf28f97f1b5380fbefacf862ce7c597873d368",
        "premultipliedAlpha": true,
        "profile": {
            "api": "WebGL",
            "version": "1.0.2"
        },
        "version": 1
    },
    "bufferViews": {
        "bufferView_149": {
            "buffer": "huati3",
            "byteLength": 24008,
            "byteOffset": 0,
            "target": 34963
        },
        "bufferView_150": {
            "buffer": "huati3",
            "byteLength": 110112,
            "byteOffset": 24008,
            "target": 34962
        }
    },
    "buffers": {
        "huati3": {
            "byteLength": 134120,
            "type": "arraybuffer",
            "uri": "data:application/octet-stream;base64,"
        }
    },
    "images": {
        "sy16051111_png": {
            "name": "sy16051111_png",
            "uri": "data:image/png;base64,"
        },
        "sy16051113_png": {
            "name": "sy16051113_png",
            "uri": "data:image/png;base64,"
        },
        "sy16051126_png": {
            "name": "sy16051126_png",
            "uri": "data:image/png;base64,"
        },
        "sy16051127_png": {
            "name": "sy16051127_png",
            "uri": "data:image/png;base64,"
        },
        "sy16051128_png": {
            "name": "sy16051128_png",
            "uri": "data:image/png;base64,"
        },
        "sy16051129_png": {
            "name": "sy16051129_png",
            "uri": "data:image/png;base64,"
        },
        "sy16051133_png": {
            "name": "sy16051133_png",
            "uri": "data:image/png;base64,"
        }
    },
    "materials": {
        "sy16051111": {
            "name": "sy16051111",
            "technique": "technique1",
            "values": {
                "ambient": "texture_sy16051111_png",
                "diffuse": "texture_sy16051111_png",
                "emission": [
                    0,
                    0,
                    0,
                    1
                ],
                "shininess": 0,
                "specular": [
                    0.9,
                    0.9,
                    0.9,
                    1
                ]
            }
        },
        "sy16051113": {
            "name": "sy16051113",
            "technique": "technique1",
            "values": {
                "ambient": "texture_sy16051113_png",
                "diffuse": "texture_sy16051113_png",
                "emission": [
                    0,
                    0,
                    0,
                    1
                ],
                "shininess": 0,
                "specular": [
                    0.9,
                    0.9,
                    0.9,
                    1
                ]
            }
        },
        "sy16051126": {
            "name": "sy16051126",
            "technique": "technique2",
            "values": {
                "ambient": "texture_sy16051126_png",
                "diffuse": "texture_sy16051126_png",
                "emission": [
                    0,
                    0,
                    0,
                    1
                ],
                "shininess": 0,
                "specular": [
                    0.9,
                    0.9,
                    0.9,
                    1
                ]
            }
        },
        "sy16051127": {
            "name": "sy16051127",
            "technique": "technique2",
            "values": {
                "ambient": "texture_sy16051127_png",
                "diffuse": "texture_sy16051127_png",
                "emission": [
                    0,
                    0,
                    0,
                    1
                ],
                "shininess": 0,
                "specular": [
                    0.9,
                    0.9,
                    0.9,
                    1
                ]
            }
        },
        "sy16051128": {
            "name": "sy16051128",
            "technique": "technique1",
            "values": {
                "ambient": "texture_sy16051128_png",
                "diffuse": "texture_sy16051128_png",
                "emission": [
                    0,
                    0,
                    0,
                    1
                ],
                "shininess": 0,
                "specular": [
                    0.9,
                    0.9,
                    0.9,
                    1
                ]
            }
        },
        "sy16051129": {
            "name": "sy16051129",
            "technique": "technique1",
            "values": {
                "ambient": "texture_sy16051129_png",
                "diffuse": "texture_sy16051129_png",
                "emission": [
                    0,
                    0,
                    0,
                    1
                ],
                "shininess": 0,
                "specular": [
                    0.9,
                    0.9,
                    0.9,
                    1
                ]
            }
        },
        "sy16051133": {
            "name": "sy16051133",
            "technique": "technique1",
            "values": {
                "ambient": "texture_sy16051133_png",
                "diffuse": "texture_sy16051133_png",
                "emission": [
                    0,
                    0,
                    0,
                    1
                ],
                "shininess": 0,
                "specular": [
                    0.9,
                    0.9,
                    0.9,
                    1
                ]
            }
        }
    },
    "meshes": {
        "geom-huati3": {
            "name": "huati3",
            "primitives": [
                {
                    "attributes": {
                        "NORMAL": "accessor_145",
                        "POSITION": "accessor_143",
                        "TEXCOORD_0": "accessor_147"
                    },
                    "indices": "accessor_123",
                    "material": "sy16051127",
                    "mode": 4
                },
                {
                    "attributes": {
                        "NORMAL": "accessor_145",
                        "POSITION": "accessor_143",
                        "TEXCOORD_0": "accessor_147"
                    },
                    "indices": "accessor_126",
                    "material": "sy16051133",
                    "mode": 4
                },
                {
                    "attributes": {
                        "NORMAL": "accessor_145",
                        "POSITION": "accessor_143",
                        "TEXCOORD_0": "accessor_147"
                    },
                    "indices": "accessor_129",
                    "material": "sy16051111",
                    "mode": 4
                },
                {
                    "attributes": {
                        "NORMAL": "accessor_145",
                        "POSITION": "accessor_143",
                        "TEXCOORD_0": "accessor_147"
                    },
                    "indices": "accessor_132",
                    "material": "sy16051113",
                    "mode": 4
                },
                {
                    "attributes": {
                        "NORMAL": "accessor_145",
                        "POSITION": "accessor_143",
                        "TEXCOORD_0": "accessor_147"
                    },
                    "indices": "accessor_135",
                    "material": "sy16051126",
                    "mode": 4
                },
                {
                    "attributes": {
                        "NORMAL": "accessor_145",
                        "POSITION": "accessor_143",
                        "TEXCOORD_0": "accessor_147"
                    },
                    "indices": "accessor_138",
                    "material": "sy16051129",
                    "mode": 4
                },
                {
                    "attributes": {
                        "NORMAL": "accessor_145",
                        "POSITION": "accessor_143",
                        "TEXCOORD_0": "accessor_147"
                    },
                    "indices": "accessor_141",
                    "material": "sy16051128",
                    "mode": 4
                }
            ]
        }
    },
    "nodes": {
        "node-huati3": {
            "children": [
                "node_2"
            ],
            "matrix": [
                1,
                0,
                0,
                0,
                0,
                1,
                0,
                0,
                0,
                0,
                1,
                0,
                0,
                0,
                8.26974,
                1
            ],
            "name": "huati3"
        },
        "node_0": {
            "children": [],
            "matrix": [
                1,
                0,
                0,
                0,
                0,
                1,
                0,
                0,
                0,
                0,
                1,
                0,
                0,
                0,
                0,
                1
            ],
            "name": "EnvironmentAmbientLight"
        },
        "node_2": {
            "children": [],
            "matrix": [
                1,
                0,
                0,
                0,
                0,
                1,
                0,
                0,
                0,
                0,
                1,
                0,
                33.3616,
                -0.873672,
                -8.26974,
                1
            ],
            "meshes": [
                "geom-huati3"
            ],
            "name": ""
        },
        "node_3": {
            "children": [
                "node_0",
                "node-huati3"
            ],
            "matrix": [
                1,
                0,
                0,
                0,
                0,
                0,
                -1,
                0,
                0,
                1,
                0,
                0,
                0,
                0,
                0,
                1
            ],
            "name": "Y_UP_Transform"
        }
    },
    "programs": {
        "program_0": {
            "attributes": [
                "a_normal",
                "a_position",
                "a_texcoord0"
            ],
            "fragmentShader": "huati30FS",
            "vertexShader": "huati30VS"
        },
        "program_1": {
            "attributes": [
                "a_normal",
                "a_position",
                "a_texcoord0"
            ],
            "fragmentShader": "huati31FS",
            "vertexShader": "huati31VS"
        }
    },
    "samplers": {
        "sampler_0": {
            "magFilter": 9729,
            "minFilter": 9729,
            "wrapS": 10497,
            "wrapT": 10497
        }
    },
    "scene": "defaultScene",
    "scenes": {
        "defaultScene": {
            "nodes": [
                "node_3"
            ]
        }
    },
    "shaders": {
        "huati30FS": {
            "type": 35632,
            "uri": "data:text/plain;base64,"
        },
        "huati30VS": {
            "type": 35633,
            "uri": "data:text/plain;base64,"
        },
        "huati31FS": {
            "type": 35632,
            "uri": "data:text/plain;base64,"
        },
        "huati31VS": {
            "type": 35633,
            "uri": "data:text/plain;base64,"
        }
    },
    "skins": {},
    "techniques": {
        "technique1": {
            "attributes": {
                "a_normal": "normal",
                "a_position": "position",
                "a_texcoord0": "texcoord0"
            },
            "parameters": {
                "ambient": {
                    "type": 35678
                },
                "diffuse": {
                    "type": 35678
                },
                "emission": {
                    "type": 35666
                },
                "modelViewMatrix": {
                    "semantic": "MODELVIEW",
                    "type": 35676
                },
                "normal": {
                    "semantic": "NORMAL",
                    "type": 35665
                },
                "normalMatrix": {
                    "semantic": "MODELVIEWINVERSETRANSPOSE",
                    "type": 35675
                },
                "position": {
                    "semantic": "POSITION",
                    "type": 35665
                },
                "projectionMatrix": {
                    "semantic": "PROJECTION",
                    "type": 35676
                },
                "shininess": {
                    "type": 5126
                },
                "specular": {
                    "type": 35666
                },
                "texcoord0": {
                    "semantic": "TEXCOORD_0",
                    "type": 35664
                }
            },
            "program": "program_0",
            "states": {
                "enable": [
                    2929,
                    2884
                ]
            },
            "uniforms": {
                "u_ambient": "ambient",
                "u_diffuse": "diffuse",
                "u_emission": "emission",
                "u_modelViewMatrix": "modelViewMatrix",
                "u_normalMatrix": "normalMatrix",
                "u_projectionMatrix": "projectionMatrix",
                "u_shininess": "shininess",
                "u_specular": "specular"
            }
        },
        "technique2": {
            "attributes": {
                "a_normal": "normal",
                "a_position": "position",
                "a_texcoord0": "texcoord0"
            },
            "parameters": {
                "ambient": {
                    "type": 35678
                },
                "diffuse": {
                    "type": 35678
                },
                "emission": {
                    "type": 35666
                },
                "modelViewMatrix": {
                    "semantic": "MODELVIEW",
                    "type": 35676
                },
                "normal": {
                    "semantic": "NORMAL",
                    "type": 35665
                },
                "normalMatrix": {
                    "semantic": "MODELVIEWINVERSETRANSPOSE",
                    "type": 35675
                },
                "position": {
                    "semantic": "POSITION",
                    "type": 35665
                },
                "projectionMatrix": {
                    "semantic": "PROJECTION",
                    "type": 35676
                },
                "shininess": {
                    "type": 5126
                },
                "specular": {
                    "type": 35666
                },
                "texcoord0": {
                    "semantic": "TEXCOORD_0",
                    "type": 35664
                }
            },
            "program": "program_1",
            "states": {
                "enable": [
                    2929,
                    3042
                ],
                "functions": {
                    "blendEquationSeparate": [
                        32774,
                        32774
                    ],
                    "blendFuncSeparate": [
                        1,
                        771,
                        1,
                        771
                    ],
                    "depthMask": false
                }
            },
            "uniforms": {
                "u_ambient": "ambient",
                "u_diffuse": "diffuse",
                "u_emission": "emission",
                "u_modelViewMatrix": "modelViewMatrix",
                "u_normalMatrix": "normalMatrix",
                "u_projectionMatrix": "projectionMatrix",
                "u_shininess": "shininess",
                "u_specular": "specular"
            }
        }
    },
    "textures": {
        "texture_sy16051111_png": {
            "format": 6408,
            "internalFormat": 6408,
            "sampler": "sampler_0",
            "source": "sy16051111_png",
            "target": 3553,
            "type": 5121
        },
        "texture_sy16051113_png": {
            "format": 6408,
            "internalFormat": 6408,
            "sampler": "sampler_0",
            "source": "sy16051113_png",
            "target": 3553,
            "type": 5121
        },
        "texture_sy16051126_png": {
            "format": 6408,
            "internalFormat": 6408,
            "sampler": "sampler_0",
            "source": "sy16051126_png",
            "target": 3553,
            "type": 5121
        },
        "texture_sy16051127_png": {
            "format": 6408,
            "internalFormat": 6408,
            "sampler": "sampler_0",
            "source": "sy16051127_png",
            "target": 3553,
            "type": 5121
        },
        "texture_sy16051128_png": {
            "format": 6408,
            "internalFormat": 6408,
            "sampler": "sampler_0",
            "source": "sy16051128_png",
            "target": 3553,
            "type": 5121
        },
        "texture_sy16051129_png": {
            "format": 6408,
            "internalFormat": 6408,
            "sampler": "sampler_0",
            "source": "sy16051129_png",
            "target": 3553,
            "type": 5121
        },
        "texture_sy16051133_png": {
            "format": 6408,
            "internalFormat": 6408,
            "sampler": "sampler_0",
            "source": "sy16051133_png",
            "target": 3553,
            "type": 5121
        }
    }
}