{
    "accessors": {
        "accessor_106": {
            "bufferView": "bufferView_129",
            "byteOffset": 0,
            "byteStride": 0,
            "componentType": 5123,
            "count": 324,
            "type": "SCALAR"
        },
        "accessor_109": {
            "bufferView": "bufferView_129",
            "byteOffset": 648,
            "byteStride": 0,
            "componentType": 5123,
            "count": 606,
            "type": "SCALAR"
        },
        "accessor_112": {
            "bufferView": "bufferView_129",
            "byteOffset": 1860,
            "byteStride": 0,
            "componentType": 5123,
            "count": 72,
            "type": "SCALAR"
        },
        "accessor_115": {
            "bufferView": "bufferView_129",
            "byteOffset": 2004,
            "byteStride": 0,
            "componentType": 5123,
            "count": 168,
            "type": "SCALAR"
        },
        "accessor_118": {
            "bufferView": "bufferView_129",
            "byteOffset": 2340,
            "byteStride": 0,
            "componentType": 5123,
            "count": 72,
            "type": "SCALAR"
        },
        "accessor_121": {
            "bufferView": "bufferView_129",
            "byteOffset": 2484,
            "byteStride": 0,
            "componentType": 5123,
            "count": 42,
            "type": "SCALAR"
        },
        "accessor_123": {
            "bufferView": "bufferView_130",
            "byteOffset": 0,
            "byteStride": 12,
            "componentType": 5126,
            "count": 1284,
            "max": [
                -3.50195,
                2.78109,
                6.06353
            ],
            "min": [
                -10.8877,
                -2.13259,
                -6.06354
            ],
            "type": "VEC3"
        },
        "accessor_125": {
            "bufferView": "bufferView_130",
            "byteOffset": 15408,
            "byteStride": 12,
            "componentType": 5126,
            "count": 1284,
            "max": [
                0.997662,
                1,
                0.997661
            ],
            "min": [
                -0.997661,
                -1,
                -0.997661
            ],
            "type": "VEC3"
        },
        "accessor_127": {
            "bufferView": "bufferView_130",
            "byteOffset": 30816,
            "byteStride": 8,
            "componentType": 5126,
            "count": 1284,
            "max": [
                10.1399,
                2.46654
            ],
            "min": [
                -9.1399,
                -1.46654
            ],
            "type": "VEC2"
        }
    },
    "animations": {},
    "asset": {
        "generator": "collada2gltf@11bf28f97f1b5380fbefacf862ce7c597873d368",
        "premultipliedAlpha": true,
        "profile": {
            "api": "WebGL",
            "version": "1.0.2"
        },
        "version": 1
    },
    "bufferViews": {
        "bufferView_129": {
            "buffer": "jianzhu29",
            "byteLength": 2568,
            "byteOffset": 0,
            "target": 34963
        },
        "bufferView_130": {
            "buffer": "jianzhu29",
            "byteLength": 41088,
            "byteOffset": 2568,
            "target": 34962
        }
    },
    "buffers": {
        "jianzhu29": {
            "byteLength": 43656,
            "type": "arraybuffer",
            "uri": "data:application/octet-stream;base64,"
        }
    },
    "images": {
        "sy16050902_png": {
            "name": "sy16050902_png",
            "uri": "data:image/png;base64,"
        },
        "sy16051101_png": {
            "name": "sy16051101_png",
            "uri": "data:image/png;base64,"
        },
        "sy16051102_png": {
            "name": "sy16051102_png",
            "uri": "data:image/png;base64,"
        },
        "sy16051103_png": {
            "name": "sy16051103_png",
            "uri": "data:image/png;base64,"
        },
        "sy16051106_png": {
            "name": "sy16051106_png",
            "uri": "data:image/png;base64,"
        },
        "sy16051109_png": {
            "name": "sy16051109_png",
            "uri": "data:image/png;base64,"
        }
    },
    "materials": {
        "sy16050902": {
            "name": "sy16050902",
            "technique": "technique1",
            "values": {
                "ambient": "texture_sy16050902_png",
                "diffuse": "texture_sy16050902_png",
                "emission": [
                    0,
                    0,
                    0,
                    1
                ],
                "shininess": 0,
                "specular": [
                    0.9,
                    0.9,
                    0.9,
                    1
                ]
            }
        },
        "sy16051101": {
            "name": "sy16051101",
            "technique": "technique1",
            "values": {
                "ambient": "texture_sy16051101_png",
                "diffuse": "texture_sy16051101_png",
                "emission": [
                    0,
                    0,
                    0,
                    1
                ],
                "shininess": 0,
                "specular": [
                    0.9,
                    0.9,
                    0.9,
                    1
                ]
            }
        },
        "sy16051102": {
            "name": "sy16051102",
            "technique": "technique1",
            "values": {
                "ambient": "texture_sy16051102_png",
                "diffuse": "texture_sy16051102_png",
                "emission": [
                    0,
                    0,
                    0,
                    1
                ],
                "shininess": 0,
                "specular": [
                    0.9,
                    0.9,
                    0.9,
                    1
                ]
            }
        },
        "sy16051103": {
            "name": "sy16051103",
            "technique": "technique1",
            "values": {
                "ambient": "texture_sy16051103_png",
                "diffuse": "texture_sy16051103_png",
                "emission": [
                    0,
                    0,
                    0,
                    1
                ],
                "shininess": 0,
                "specular": [
                    0.9,
                    0.9,
                    0.9,
                    1
                ]
            }
        },
        "sy16051106": {
            "name": "sy16051106",
            "technique": "technique1",
            "values": {
                "ambient": "texture_sy16051106_png",
                "diffuse": "texture_sy16051106_png",
                "emission": [
                    0,
                    0,
                    0,
                    1
                ],
                "shininess": 0,
                "specular": [
                    0.9,
                    0.9,
                    0.9,
                    1
                ]
            }
        },
        "sy16051109": {
            "name": "sy16051109",
            "technique": "technique1",
            "values": {
                "ambient": "texture_sy16051109_png",
                "diffuse": "texture_sy16051109_png",
                "emission": [
                    0,
                    0,
                    0,
                    1
                ],
                "shininess": 0,
                "specular": [
                    0.9,
                    0.9,
                    0.9,
                    1
                ]
            }
        }
    },
    "meshes": {
        "geom-jianzhu29": {
            "name": "jianzhu29",
            "primitives": [
                {
                    "attributes": {
                        "NORMAL": "accessor_125",
                        "POSITION": "accessor_123",
                        "TEXCOORD_0": "accessor_127"
                    },
                    "indices": "accessor_106",
                    "material": "sy16051103",
                    "mode": 4
                },
                {
                    "attributes": {
                        "NORMAL": "accessor_125",
                        "POSITION": "accessor_123",
                        "TEXCOORD_0": "accessor_127"
                    },
                    "indices": "accessor_109",
                    "material": "sy16051102",
                    "mode": 4
                },
                {
                    "attributes": {
                        "NORMAL": "accessor_125",
                        "POSITION": "accessor_123",
                        "TEXCOORD_0": "accessor_127"
                    },
                    "indices": "accessor_112",
                    "material": "sy16051106",
                    "mode": 4
                },
                {
                    "attributes": {
                        "NORMAL": "accessor_125",
                        "POSITION": "accessor_123",
                        "TEXCOORD_0": "accessor_127"
                    },
                    "indices": "accessor_115",
                    "material": "sy16051101",
                    "mode": 4
                },
                {
                    "attributes": {
                        "NORMAL": "accessor_125",
                        "POSITION": "accessor_123",
                        "TEXCOORD_0": "accessor_127"
                    },
                    "indices": "accessor_118",
                    "material": "sy16050902",
                    "mode": 4
                },
                {
                    "attributes": {
                        "NORMAL": "accessor_125",
                        "POSITION": "accessor_123",
                        "TEXCOORD_0": "accessor_127"
                    },
                    "indices": "accessor_121",
                    "material": "sy16051109",
                    "mode": 4
                }
            ]
        }
    },
    "nodes": {
        "node-jianzhu29": {
            "children": [
                "node_2"
            ],
            "matrix": [
                1,
                0,
                0,
                0,
                0,
                4.48966e-11,
                1,
                0,
                0,
                -1,
                4.48966e-11,
                0,
                -2.86102e-06,
                6.05284e-06,
                2.45684,
                1
            ],
            "name": "jianzhu29"
        },
        "node_0": {
            "children": [],
            "matrix": [
                1,
                0,
                0,
                0,
                0,
                1,
                0,
                0,
                0,
                0,
                1,
                0,
                0,
                0,
                0,
                1
            ],
            "name": "EnvironmentAmbientLight"
        },
        "node_2": {
            "children": [],
            "matrix": [
                1,
                0,
                0,
                0,
                0,
                1,
                0,
                0,
                0,
                0,
                1,
                0,
                7.19483,
                -0.324248,
                6.19888e-06,
                1
            ],
            "meshes": [
                "geom-jianzhu29"
            ],
            "name": ""
        },
        "node_3": {
            "children": [
                "node_0",
                "node-jianzhu29"
            ],
            "matrix": [
                1,
                0,
                0,
                0,
                0,
                0,
                -1,
                0,
                0,
                1,
                0,
                0,
                0,
                0,
                0,
                1
            ],
            "name": "Y_UP_Transform"
        }
    },
    "programs": {
        "program_0": {
            "attributes": [
                "a_normal",
                "a_position",
                "a_texcoord0"
            ],
            "fragmentShader": "jianzhu290FS",
            "vertexShader": "jianzhu290VS"
        }
    },
    "samplers": {
        "sampler_0": {
            "magFilter": 9729,
            "minFilter": 9729,
            "wrapS": 10497,
            "wrapT": 10497
        }
    },
    "scene": "defaultScene",
    "scenes": {
        "defaultScene": {
            "nodes": [
                "node_3"
            ]
        }
    },
    "shaders": {
        "jianzhu290FS": {
            "type": 35632,
            "uri": "data:text/plain;base64,"
        },
        "jianzhu290VS": {
            "type": 35633,
            "uri": "data:text/plain;base64,"
        }
    },
    "skins": {},
    "techniques": {
        "technique1": {
            "attributes": {
                "a_normal": "normal",
                "a_position": "position",
                "a_texcoord0": "texcoord0"
            },
            "parameters": {
                "ambient": {
                    "type": 35678
                },
                "diffuse": {
                    "type": 35678
                },
                "emission": {
                    "type": 35666
                },
                "modelViewMatrix": {
                    "semantic": "MODELVIEW",
                    "type": 35676
                },
                "normal": {
                    "semantic": "NORMAL",
                    "type": 35665
                },
                "normalMatrix": {
                    "semantic": "MODELVIEWINVERSETRANSPOSE",
                    "type": 35675
                },
                "position": {
                    "semantic": "POSITION",
                    "type": 35665
                },
                "projectionMatrix": {
                    "semantic": "PROJECTION",
                    "type": 35676
                },
                "shininess": {
                    "type": 5126
                },
                "specular": {
                    "type": 35666
                },
                "texcoord0": {
                    "semantic": "TEXCOORD_0",
                    "type": 35664
                }
            },
            "program": "program_0",
            "states": {
                "enable": [
                    2929,
                    2884
                ]
            },
            "uniforms": {
                "u_ambient": "ambient",
                "u_diffuse": "diffuse",
                "u_emission": "emission",
                "u_modelViewMatrix": "modelViewMatrix",
                "u_normalMatrix": "normalMatrix",
                "u_projectionMatrix": "projectionMatrix",
                "u_shininess": "shininess",
                "u_specular": "specular"
            }
        }
    },
    "textures": {
        "texture_sy16050902_png": {
            "format": 6408,
            "internalFormat": 6408,
            "sampler": "sampler_0",
            "source": "sy16050902_png",
            "target": 3553,
            "type": 5121
        },
        "texture_sy16051101_png": {
            "format": 6408,
            "internalFormat": 6408,
            "sampler": "sampler_0",
            "source": "sy16051101_png",
            "target": 3553,
            "type": 5121
        },
        "texture_sy16051102_png": {
            "format": 6408,
            "internalFormat": 6408,
            "sampler": "sampler_0",
            "source": "sy16051102_png",
            "target": 3553,
            "type": 5121
        },
        "texture_sy16051103_png": {
            "format": 6408,
            "internalFormat": 6408,
            "sampler": "sampler_0",
            "source": "sy16051103_png",
            "target": 3553,
            "type": 5121
        },
        "texture_sy16051106_png": {
            "format": 6408,
            "internalFormat": 6408,
            "sampler": "sampler_0",
            "source": "sy16051106_png",
            "target": 3553,
            "type": 5121
        },
        "texture_sy16051109_png": {
            "format": 6408,
            "internalFormat": 6408,
            "sampler": "sampler_0",
            "source": "sy16051109_png",
            "target": 3553,
            "type": 5121
        }
    }
}