{
    "accessors": {
        "accessor_123": {
            "bufferView": "bufferView_149",
            "byteOffset": 0,
            "byteStride": 0,
            "componentType": 5123,
            "count": 7383,
            "type": "SCALAR"
        },
        "accessor_126": {
            "bufferView": "bufferView_149",
            "byteOffset": 14766,
            "byteStride": 0,
            "componentType": 5123,
            "count": 216,
            "type": "SCALAR"
        },
        "accessor_129": {
            "bufferView": "bufferView_149",
            "byteOffset": 15198,
            "byteStride": 0,
            "componentType": 5123,
            "count": 1332,
            "type": "SCALAR"
        },
        "accessor_132": {
            "bufferView": "bufferView_149",
            "byteOffset": 17862,
            "byteStride": 0,
            "componentType": 5123,
            "count": 1179,
            "type": "SCALAR"
        },
        "accessor_135": {
            "bufferView": "bufferView_149",
            "byteOffset": 20220,
            "byteStride": 0,
            "componentType": 5123,
            "count": 138,
            "type": "SCALAR"
        },
        "accessor_138": {
            "bufferView": "bufferView_149",
            "byteOffset": 20496,
            "byteStride": 0,
            "componentType": 5123,
            "count": 1056,
            "type": "SCALAR"
        },
        "accessor_141": {
            "bufferView": "bufferView_149",
            "byteOffset": 22608,
            "byteStride": 0,
            "componentType": 5123,
            "count": 375,
            "type": "SCALAR"
        },
        "accessor_143": {
            "bufferView": "bufferView_150",
            "byteOffset": 0,
            "byteStride": 12,
            "componentType": 5126,
            "count": 11601,
            "max": [
                2.14128,
                97.3218,
                125.034
            ],
            "min": [
                -95.9699,
                21.6631,
                -4.52995e-06
            ],
            "type": "VEC3"
        },
        "accessor_145": {
            "bufferView": "bufferView_150",
            "byteOffset": 139212,
            "byteStride": 12,
            "componentType": 5126,
            "count": 11601,
            "max": [
                1,
                1,
                1
            ],
            "min": [
                -1,
                -1,
                -1
            ],
            "type": "VEC3"
        },
        "accessor_147": {
            "bufferView": "bufferView_150",
            "byteOffset": 278424,
            "byteStride": 8,
            "componentType": 5126,
            "count": 11601,
            "max": [
                3.02233,
                3.2808
            ],
            "min": [
                -2.01499,
                -9.30486
            ],
            "type": "VEC2"
        }
    },
    "animations": {},
    "asset": {
        "generator": "collada2gltf@11bf28f97f1b5380fbefacf862ce7c597873d368",
        "premultipliedAlpha": true,
        "profile": {
            "api": "WebGL",
            "version": "1.0.2"
        },
        "version": 1
    },
    "bufferViews": {
        "bufferView_149": {
            "buffer": "jianzhu47",
            "byteLength": 23360,
            "byteOffset": 0,
            "target": 34963
        },
        "bufferView_150": {
            "buffer": "jianzhu47",
            "byteLength": 371232,
            "byteOffset": 23360,
            "target": 34962
        }
    },
    "buffers": {
        "jianzhu47": {
            "byteLength": 394592,
            "type": "arraybuffer",
            "uri": "data:application/octet-stream;base64,"
        }
    },
    "images": {
        "sy16050902_png": {
            "name": "sy16050902_png",
            "uri": "data:image/png;base64,"
        },
        "sy16051101_png": {
            "name": "sy16051101_png",
            "uri": "data:image/png;base64,"
        },
        "sy16051102_png": {
            "name": "sy16051102_png",
            "uri": "data:image/png;base64,"
        },
        "sy16051103_png": {
            "name": "sy16051103_png",
            "uri": "data:image/png;base64,"
        },
        "sy16051104_png": {
            "name": "sy16051104_png",
            "uri": "data:image/png;base64,"
        },
        "sy16051106_png": {
            "name": "sy16051106_png",
            "uri": "data:image/png;base64,"
        },
        "sy16051122_png": {
            "name": "sy16051122_png",
            "uri": "data:image/png;base64,"
        }
    },
    "materials": {
        "sy16050902": {
            "name": "sy16050902",
            "technique": "technique1",
            "values": {
                "ambient": "texture_sy16050902_png",
                "diffuse": "texture_sy16050902_png",
                "emission": [
                    0,
                    0,
                    0,
                    1
                ],
                "shininess": 0,
                "specular": [
                    0.9,
                    0.9,
                    0.9,
                    1
                ]
            }
        },
        "sy16051101": {
            "name": "sy16051101",
            "technique": "technique1",
            "values": {
                "ambient": "texture_sy16051101_png",
                "diffuse": "texture_sy16051101_png",
                "emission": [
                    0,
                    0,
                    0,
                    1
                ],
                "shininess": 0,
                "specular": [
                    0.9,
                    0.9,
                    0.9,
                    1
                ]
            }
        },
        "sy16051102": {
            "name": "sy16051102",
            "technique": "technique1",
            "values": {
                "ambient": "texture_sy16051102_png",
                "diffuse": "texture_sy16051102_png",
                "emission": [
                    0,
                    0,
                    0,
                    1
                ],
                "shininess": 0,
                "specular": [
                    0.9,
                    0.9,
                    0.9,
                    1
                ]
            }
        },
        "sy16051103": {
            "name": "sy16051103",
            "technique": "technique1",
            "values": {
                "ambient": "texture_sy16051103_png",
                "diffuse": "texture_sy16051103_png",
                "emission": [
                    0,
                    0,
                    0,
                    1
                ],
                "shininess": 0,
                "specular": [
                    0.9,
                    0.9,
                    0.9,
                    1
                ]
            }
        },
        "sy16051104": {
            "name": "sy16051104",
            "technique": "technique1",
            "values": {
                "ambient": "texture_sy16051104_png",
                "diffuse": "texture_sy16051104_png",
                "emission": [
                    0,
                    0,
                    0,
                    1
                ],
                "shininess": 0,
                "specular": [
                    0.9,
                    0.9,
                    0.9,
                    1
                ]
            }
        },
        "sy16051106": {
            "name": "sy16051106",
            "technique": "technique1",
            "values": {
                "ambient": "texture_sy16051106_png",
                "diffuse": "texture_sy16051106_png",
                "emission": [
                    0,
                    0,
                    0,
                    1
                ],
                "shininess": 0,
                "specular": [
                    0.9,
                    0.9,
                    0.9,
                    1
                ]
            }
        },
        "sy16051122": {
            "name": "sy16051122",
            "technique": "technique1",
            "values": {
                "ambient": "texture_sy16051122_png",
                "diffuse": "texture_sy16051122_png",
                "emission": [
                    0,
                    0,
                    0,
                    1
                ],
                "shininess": 0,
                "specular": [
                    0.9,
                    0.9,
                    0.9,
                    1
                ]
            }
        }
    },
    "meshes": {
        "geom-jianzhu47": {
            "name": "jianzhu47",
            "primitives": [
                {
                    "attributes": {
                        "NORMAL": "accessor_145",
                        "POSITION": "accessor_143",
                        "TEXCOORD_0": "accessor_147"
                    },
                    "indices": "accessor_123",
                    "material": "sy16051104",
                    "mode": 4
                },
                {
                    "attributes": {
                        "NORMAL": "accessor_145",
                        "POSITION": "accessor_143",
                        "TEXCOORD_0": "accessor_147"
                    },
                    "indices": "accessor_126",
                    "material": "sy16051122",
                    "mode": 4
                },
                {
                    "attributes": {
                        "NORMAL": "accessor_145",
                        "POSITION": "accessor_143",
                        "TEXCOORD_0": "accessor_147"
                    },
                    "indices": "accessor_129",
                    "material": "sy16051106",
                    "mode": 4
                },
                {
                    "attributes": {
                        "NORMAL": "accessor_145",
                        "POSITION": "accessor_143",
                        "TEXCOORD_0": "accessor_147"
                    },
                    "indices": "accessor_132",
                    "material": "sy16051102",
                    "mode": 4
                },
                {
                    "attributes": {
                        "NORMAL": "accessor_145",
                        "POSITION": "accessor_143",
                        "TEXCOORD_0": "accessor_147"
                    },
                    "indices": "accessor_135",
                    "material": "sy16050902",
                    "mode": 4
                },
                {
                    "attributes": {
                        "NORMAL": "accessor_145",
                        "POSITION": "accessor_143",
                        "TEXCOORD_0": "accessor_147"
                    },
                    "indices": "accessor_138",
                    "material": "sy16051103",
                    "mode": 4
                },
                {
                    "attributes": {
                        "NORMAL": "accessor_145",
                        "POSITION": "accessor_143",
                        "TEXCOORD_0": "accessor_147"
                    },
                    "indices": "accessor_141",
                    "material": "sy16051101",
                    "mode": 4
                }
            ]
        }
    },
    "nodes": {
        "node-jianzhu47": {
            "children": [
                "node_2"
            ],
            "matrix": [
                1,
                0,
                0,
                0,
                0,
                1,
                0,
                0,
                0,
                0,
                1,
                0,
                -7.62939e-06,
                0,
                62.517,
                1
            ],
            "name": "jianzhu47"
        },
        "node_0": {
            "children": [],
            "matrix": [
                1,
                0,
                0,
                0,
                0,
                1,
                0,
                0,
                0,
                0,
                1,
                0,
                0,
                0,
                0,
                1
            ],
            "name": "EnvironmentAmbientLight"
        },
        "node_2": {
            "children": [],
            "matrix": [
                1,
                0,
                0,
                0,
                0,
                1,
                0,
                0,
                0,
                0,
                1,
                0,
                46.9143,
                -59.4924,
                -62.517,
                1
            ],
            "meshes": [
                "geom-jianzhu47"
            ],
            "name": ""
        },
        "node_3": {
            "children": [
                "node_0",
                "node-jianzhu47"
            ],
            "matrix": [
                1,
                0,
                0,
                0,
                0,
                0,
                -1,
                0,
                0,
                1,
                0,
                0,
                0,
                0,
                0,
                1
            ],
            "name": "Y_UP_Transform"
        }
    },
    "programs": {
        "program_0": {
            "attributes": [
                "a_normal",
                "a_position",
                "a_texcoord0"
            ],
            "fragmentShader": "jianzhu470FS",
            "vertexShader": "jianzhu470VS"
        }
    },
    "samplers": {
        "sampler_0": {
            "magFilter": 9729,
            "minFilter": 9729,
            "wrapS": 10497,
            "wrapT": 10497
        }
    },
    "scene": "defaultScene",
    "scenes": {
        "defaultScene": {
            "nodes": [
                "node_3"
            ]
        }
    },
    "shaders": {
        "jianzhu470FS": {
            "type": 35632,
            "uri": "data:text/plain;base64,"
        },
        "jianzhu470VS": {
            "type": 35633,
            "uri": "data:text/plain;base64,"
        }
    },
    "skins": {},
    "techniques": {
        "technique1": {
            "attributes": {
                "a_normal": "normal",
                "a_position": "position",
                "a_texcoord0": "texcoord0"
            },
            "parameters": {
                "ambient": {
                    "type": 35678
                },
                "diffuse": {
                    "type": 35678
                },
                "emission": {
                    "type": 35666
                },
                "modelViewMatrix": {
                    "semantic": "MODELVIEW",
                    "type": 35676
                },
                "normal": {
                    "semantic": "NORMAL",
                    "type": 35665
                },
                "normalMatrix": {
                    "semantic": "MODELVIEWINVERSETRANSPOSE",
                    "type": 35675
                },
                "position": {
                    "semantic": "POSITION",
                    "type": 35665
                },
                "projectionMatrix": {
                    "semantic": "PROJECTION",
                    "type": 35676
                },
                "shininess": {
                    "type": 5126
                },
                "specular": {
                    "type": 35666
                },
                "texcoord0": {
                    "semantic": "TEXCOORD_0",
                    "type": 35664
                }
            },
            "program": "program_0",
            "states": {
                "enable": [
                    2929,
                    2884
                ]
            },
            "uniforms": {
                "u_ambient": "ambient",
                "u_diffuse": "diffuse",
                "u_emission": "emission",
                "u_modelViewMatrix": "modelViewMatrix",
                "u_normalMatrix": "normalMatrix",
                "u_projectionMatrix": "projectionMatrix",
                "u_shininess": "shininess",
                "u_specular": "specular"
            }
        }
    },
    "textures": {
        "texture_sy16050902_png": {
            "format": 6408,
            "internalFormat": 6408,
            "sampler": "sampler_0",
            "source": "sy16050902_png",
            "target": 3553,
            "type": 5121
        },
        "texture_sy16051101_png": {
            "format": 6408,
            "internalFormat": 6408,
            "sampler": "sampler_0",
            "source": "sy16051101_png",
            "target": 3553,
            "type": 5121
        },
        "texture_sy16051102_png": {
            "format": 6408,
            "internalFormat": 6408,
            "sampler": "sampler_0",
            "source": "sy16051102_png",
            "target": 3553,
            "type": 5121
        },
        "texture_sy16051103_png": {
            "format": 6408,
            "internalFormat": 6408,
            "sampler": "sampler_0",
            "source": "sy16051103_png",
            "target": 3553,
            "type": 5121
        },
        "texture_sy16051104_png": {
            "format": 6408,
            "internalFormat": 6408,
            "sampler": "sampler_0",
            "source": "sy16051104_png",
            "target": 3553,
            "type": 5121
        },
        "texture_sy16051106_png": {
            "format": 6408,
            "internalFormat": 6408,
            "sampler": "sampler_0",
            "source": "sy16051106_png",
            "target": 3553,
            "type": 5121
        },
        "texture_sy16051122_png": {
            "format": 6408,
            "internalFormat": 6408,
            "sampler": "sampler_0",
            "source": "sy16051122_png",
            "target": 3553,
            "type": 5121
        }
    }
}