{
    "accessors": {
        "accessor_58": {
            "bufferView": "bufferView_73",
            "byteOffset": 0,
            "byteStride": 0,
            "componentType": 5123,
            "count": 31044,
            "type": "SCALAR"
        },
        "accessor_61": {
            "bufferView": "bufferView_73",
            "byteOffset": 62088,
            "byteStride": 0,
            "componentType": 5123,
            "count": 6,
            "type": "SCALAR"
        },
        "accessor_63": {
            "bufferView": "bufferView_74",
            "byteOffset": 0,
            "byteStride": 12,
            "componentType": 5126,
            "count": 7184,
            "max": [
                14.5763,
                -8.11913,
                22.0313
            ],
            "min": [
                -20.7845,
                -23.7892,
                -4.69156
            ],
            "type": "VEC3"
        },
        "accessor_65": {
            "bufferView": "bufferView_74",
            "byteOffset": 86208,
            "byteStride": 12,
            "componentType": 5126,
            "count": 7184,
            "max": [
                0.999268,
                0.999948,
                1
            ],
            "min": [
                -0.999281,
                -0.999641,
                -1
            ],
            "type": "VEC3"
        },
        "accessor_67": {
            "bufferView": "bufferView_74",
            "byteOffset": 172416,
            "byteStride": 8,
            "componentType": 5126,
            "count": 7184,
            "max": [
                1.7725,
                1.7725
            ],
            "min": [
                -0.772504,
                -0.772504
            ],
            "type": "VEC2"
        },
        "accessor_69": {
            "bufferView": "bufferView_74",
            "byteOffset": 229888,
            "byteStride": 12,
            "componentType": 5126,
            "count": 7184,
            "max": [
                0.999599,
                0.999652,
                0.893105
            ],
            "min": [
                -0.999807,
                -0.999614,
                -0.797459
            ],
            "type": "VEC3"
        },
        "accessor_71": {
            "bufferView": "bufferView_74",
            "byteOffset": 316096,
            "byteStride": 12,
            "componentType": 5126,
            "count": 7184,
            "max": [
                0.992304,
                0.993813,
                0.977659
            ],
            "min": [
                -0.977023,
                -0.997386,
                -1
            ],
            "type": "VEC3"
        }
    },
    "animations": {},
    "asset": {
        "generator": "collada2gltf@11bf28f97f1b5380fbefacf862ce7c597873d368",
        "premultipliedAlpha": true,
        "profile": {
            "api": "WebGL",
            "version": "1.0.2"
        },
        "version": 1
    },
    "bufferViews": {
        "bufferView_73": {
            "buffer": "js02",
            "byteLength": 62100,
            "byteOffset": 0,
            "target": 34963
        },
        "bufferView_74": {
            "buffer": "js02",
            "byteLength": 402304,
            "byteOffset": 62100,
            "target": 34962
        }
    },
    "buffers": {
        "js02": {
            "byteLength": 464404,
            "type": "arraybuffer",
            "uri": "data:application/octet-stream;base64,"
        }
    },
    "images": {
        "sy16051130_png": {
            "name": "sy16051130_png",
            "uri": "data:image/png;base64,"
        },
        "sy16051134_png": {
            "name": "sy16051134_png",
            "uri": "data:image/png;base64,"
        }
    },
    "materials": {
        "sy16051130": {
            "name": "sy16051130",
            "technique": "technique1",
            "values": {
                "ambient": "texture_sy16051130_png",
                "diffuse": "texture_sy16051130_png",
                "emission": [
                    0,
                    0,
                    0,
                    1
                ],
                "shininess": 0,
                "specular": [
                    0.9,
                    0.9,
                    0.9,
                    1
                ]
            }
        },
        "sy16051134": {
            "name": "sy16051134",
            "technique": "technique1",
            "values": {
                "ambient": "texture_sy16051134_png",
                "diffuse": "texture_sy16051134_png",
                "emission": [
                    0,
                    0,
                    0,
                    1
                ],
                "shininess": 0,
                "specular": [
                    0.9,
                    0.9,
                    0.9,
                    1
                ]
            }
        }
    },
    "meshes": {
        "geom-jiashan02": {
            "name": "jiashan02",
            "primitives": [
                {
                    "attributes": {
                        "NORMAL": "accessor_65",
                        "POSITION": "accessor_63",
                        "TEXBINORMAL": "accessor_71",
                        "TEXCOORD_0": "accessor_67",
                        "TEXTANGENT": "accessor_69"
                    },
                    "indices": "accessor_58",
                    "material": "sy16051130",
                    "mode": 4
                },
                {
                    "attributes": {
                        "NORMAL": "accessor_65",
                        "POSITION": "accessor_63",
                        "TEXBINORMAL": "accessor_71",
                        "TEXCOORD_0": "accessor_67",
                        "TEXTANGENT": "accessor_69"
                    },
                    "indices": "accessor_61",
                    "material": "sy16051134",
                    "mode": 4
                }
            ]
        }
    },
    "nodes": {
        "node-jiashan02": {
            "children": [
                "node_2"
            ],
            "matrix": [
                1,
                0,
                0,
                0,
                0,
                1,
                0,
                0,
                0,
                0,
                1,
                0,
                0,
                0,
                8.66986,
                1
            ],
            "name": "jiashan02"
        },
        "node_0": {
            "children": [],
            "matrix": [
                1,
                0,
                0,
                0,
                0,
                1,
                0,
                0,
                0,
                0,
                1,
                0,
                0,
                0,
                0,
                1
            ],
            "name": "EnvironmentAmbientLight"
        },
        "node_2": {
            "children": [],
            "matrix": [
                1,
                0,
                0,
                0,
                0,
                1,
                0,
                0,
                0,
                0,
                1,
                0,
                3.10408,
                15.9542,
                -8.66986,
                1
            ],
            "meshes": [
                "geom-jiashan02"
            ],
            "name": ""
        },
        "node_3": {
            "children": [
                "node_0",
                "node-jiashan02"
            ],
            "matrix": [
                1,
                0,
                0,
                0,
                0,
                0,
                -1,
                0,
                0,
                1,
                0,
                0,
                0,
                0,
                0,
                1
            ],
            "name": "Y_UP_Transform"
        }
    },
    "programs": {
        "program_0": {
            "attributes": [
                "a_normal",
                "a_position",
                "a_texcoord0"
            ],
            "fragmentShader": "js020FS",
            "vertexShader": "js020VS"
        }
    },
    "samplers": {
        "sampler_0": {
            "magFilter": 9729,
            "minFilter": 9729,
            "wrapS": 10497,
            "wrapT": 10497
        }
    },
    "scene": "defaultScene",
    "scenes": {
        "defaultScene": {
            "nodes": [
                "node_3"
            ]
        }
    },
    "shaders": {
        "js020FS": {
            "type": 35632,
            "uri": "data:text/plain;base64,"
        },
        "js020VS": {
            "type": 35633,
            "uri": "data:text/plain;base64,"
        }
    },
    "skins": {},
    "techniques": {
        "technique1": {
            "attributes": {
                "a_normal": "normal",
                "a_position": "position",
                "a_texcoord0": "texcoord0"
            },
            "parameters": {
                "ambient": {
                    "type": 35678
                },
                "diffuse": {
                    "type": 35678
                },
                "emission": {
                    "type": 35666
                },
                "modelViewMatrix": {
                    "semantic": "MODELVIEW",
                    "type": 35676
                },
                "normal": {
                    "semantic": "NORMAL",
                    "type": 35665
                },
                "normalMatrix": {
                    "semantic": "MODELVIEWINVERSETRANSPOSE",
                    "type": 35675
                },
                "position": {
                    "semantic": "POSITION",
                    "type": 35665
                },
                "projectionMatrix": {
                    "semantic": "PROJECTION",
                    "type": 35676
                },
                "shininess": {
                    "type": 5126
                },
                "specular": {
                    "type": 35666
                },
                "texcoord0": {
                    "semantic": "TEXCOORD_0",
                    "type": 35664
                }
            },
            "program": "program_0",
            "states": {
                "enable": [
                    2929,
                    3042
                ],
                "functions": {
                    "blendEquationSeparate": [
                        32774,
                        32774
                    ],
                    "blendFuncSeparate": [
                        1,
                        771,
                        1,
                        771
                    ],
                    "depthMask": false
                }
            },
            "uniforms": {
                "u_ambient": "ambient",
                "u_diffuse": "diffuse",
                "u_emission": "emission",
                "u_modelViewMatrix": "modelViewMatrix",
                "u_normalMatrix": "normalMatrix",
                "u_projectionMatrix": "projectionMatrix",
                "u_shininess": "shininess",
                "u_specular": "specular"
            }
        }
    },
    "textures": {
        "texture_sy16051130_png": {
            "format": 6408,
            "internalFormat": 6408,
            "sampler": "sampler_0",
            "source": "sy16051130_png",
            "target": 3553,
            "type": 5121
        },
        "texture_sy16051134_png": {
            "format": 6408,
            "internalFormat": 6408,
            "sampler": "sampler_0",
            "source": "sy16051134_png",
            "target": 3553,
            "type": 5121
        }
    }
}