{
    "accessors": {
        "accessor_139": {
            "bufferView": "bufferView_163",
            "byteOffset": 0,
            "byteStride": 0,
            "componentType": 5123,
            "count": 96,
            "type": "SCALAR"
        },
        "accessor_142": {
            "bufferView": "bufferView_163",
            "byteOffset": 192,
            "byteStride": 0,
            "componentType": 5123,
            "count": 288,
            "type": "SCALAR"
        },
        "accessor_145": {
            "bufferView": "bufferView_163",
            "byteOffset": 768,
            "byteStride": 0,
            "componentType": 5123,
            "count": 312,
            "type": "SCALAR"
        },
        "accessor_148": {
            "bufferView": "bufferView_163",
            "byteOffset": 1392,
            "byteStride": 0,
            "componentType": 5123,
            "count": 288,
            "type": "SCALAR"
        },
        "accessor_151": {
            "bufferView": "bufferView_163",
            "byteOffset": 1968,
            "byteStride": 0,
            "componentType": 5123,
            "count": 132,
            "type": "SCALAR"
        },
        "accessor_153": {
            "bufferView": "bufferView_164",
            "byteOffset": 0,
            "byteStride": 12,
            "componentType": 5126,
            "count": 1116,
            "max": [
                -4.70508,
                2.87732,
                9.84009
            ],
            "min": [
                -16.0754,
                -8.49297,
                0.0172465
            ],
            "type": "VEC3"
        },
        "accessor_155": {
            "bufferView": "bufferView_164",
            "byteOffset": 13392,
            "byteStride": 12,
            "componentType": 5126,
            "count": 1116,
            "max": [
                0.944909,
                0.94836,
                0.854916
            ],
            "min": [
                -0.944859,
                -0.94836,
                -0.854917
            ],
            "type": "VEC3"
        },
        "accessor_157": {
            "bufferView": "bufferView_164",
            "byteOffset": 26784,
            "byteStride": 8,
            "componentType": 5126,
            "count": 1116,
            "max": [
                41.2821,
                6.4833
            ],
            "min": [
                -5.4833,
                -5.4833
            ],
            "type": "VEC2"
        },
        "accessor_159": {
            "bufferView": "bufferView_164",
            "byteOffset": 35712,
            "byteStride": 12,
            "componentType": 5126,
            "count": 1116,
            "max": [
                0.94836,
                0.944909,
                0.935362
            ],
            "min": [
                -0.94836,
                -0.944858,
                -0.935362
            ],
            "type": "VEC3"
        },
        "accessor_161": {
            "bufferView": "bufferView_164",
            "byteOffset": 49104,
            "byteStride": 12,
            "componentType": 5126,
            "count": 1116,
            "max": [
                0.883783,
                0.883782,
                1
            ],
            "min": [
                -0.883781,
                -0.944858,
                -1
            ],
            "type": "VEC3"
        }
    },
    "animations": {},
    "asset": {
        "generator": "collada2gltf@11bf28f97f1b5380fbefacf862ce7c597873d368",
        "premultipliedAlpha": true,
        "profile": {
            "api": "WebGL",
            "version": "1.0.2"
        },
        "version": 1
    },
    "bufferViews": {
        "bufferView_163": {
            "buffer": "jz01",
            "byteLength": 2232,
            "byteOffset": 0,
            "target": 34963
        },
        "bufferView_164": {
            "buffer": "jz01",
            "byteLength": 62496,
            "byteOffset": 2232,
            "target": 34962
        }
    },
    "buffers": {
        "jz01": {
            "byteLength": 64728,
            "type": "arraybuffer",
            "uri": "data:application/octet-stream;base64,"
        }
    },
    "images": {
        "sy16062019_png": {
            "name": "sy16062019_png",
            "uri": "data:image/png;base64,"
        },
        "sy16062023_png": {
            "name": "sy16062023_png",
            "uri": "data:image/png;base64,"
        },
        "sy16062048_png": {
            "name": "sy16062048_png",
            "uri": "data:image/png;base64,"
        },
        "sy16062049_png": {
            "name": "sy16062049_png",
            "uri": "data:image/png;base64,"
        },
        "sy16062052_png": {
            "name": "sy16062052_png",
            "uri": "data:image/png;base64,"
        }
    },
    "materials": {
        "sy16062019": {
            "name": "sy16062019",
            "technique": "technique1",
            "values": {
                "ambient": "texture_sy16062019_png",
                "diffuse": "texture_sy16062019_png",
                "emission": [
                    0,
                    0,
                    0,
                    1
                ],
                "shininess": 0,
                "specular": [
                    0.9,
                    0.9,
                    0.9,
                    1
                ]
            }
        },
        "sy16062023": {
            "name": "sy16062023",
            "technique": "technique2",
            "values": {
                "ambient": "texture_sy16062023_png",
                "diffuse": "texture_sy16062023_png",
                "emission": [
                    0,
                    0,
                    0,
                    1
                ],
                "shininess": 0,
                "specular": [
                    0.9,
                    0.9,
                    0.9,
                    1
                ]
            }
        },
        "sy16062048": {
            "name": "sy16062048",
            "technique": "technique1",
            "values": {
                "ambient": "texture_sy16062048_png",
                "diffuse": "texture_sy16062048_png",
                "emission": [
                    0,
                    0,
                    0,
                    1
                ],
                "shininess": 0,
                "specular": [
                    0.9,
                    0.9,
                    0.9,
                    1
                ]
            }
        },
        "sy16062049": {
            "name": "sy16062049",
            "technique": "technique1",
            "values": {
                "ambient": "texture_sy16062049_png",
                "diffuse": "texture_sy16062049_png",
                "emission": [
                    0,
                    0,
                    0,
                    1
                ],
                "shininess": 0,
                "specular": [
                    0.9,
                    0.9,
                    0.9,
                    1
                ]
            }
        },
        "sy16062052": {
            "name": "sy16062052",
            "technique": "technique1",
            "values": {
                "ambient": "texture_sy16062052_png",
                "diffuse": "texture_sy16062052_png",
                "emission": [
                    0,
                    0,
                    0,
                    1
                ],
                "shininess": 0,
                "specular": [
                    0.9,
                    0.9,
                    0.9,
                    1
                ]
            }
        }
    },
    "meshes": {
        "geom-jz01": {
            "name": "jz01",
            "primitives": [
                {
                    "attributes": {
                        "NORMAL": "accessor_155",
                        "POSITION": "accessor_153",
                        "TEXBINORMAL": "accessor_161",
                        "TEXCOORD_0": "accessor_157",
                        "TEXTANGENT": "accessor_159"
                    },
                    "indices": "accessor_139",
                    "material": "sy16062052",
                    "mode": 4
                },
                {
                    "attributes": {
                        "NORMAL": "accessor_155",
                        "POSITION": "accessor_153",
                        "TEXBINORMAL": "accessor_161",
                        "TEXCOORD_0": "accessor_157",
                        "TEXTANGENT": "accessor_159"
                    },
                    "indices": "accessor_142",
                    "material": "sy16062019",
                    "mode": 4
                },
                {
                    "attributes": {
                        "NORMAL": "accessor_155",
                        "POSITION": "accessor_153",
                        "TEXBINORMAL": "accessor_161",
                        "TEXCOORD_0": "accessor_157",
                        "TEXTANGENT": "accessor_159"
                    },
                    "indices": "accessor_145",
                    "material": "sy16062023",
                    "mode": 4
                },
                {
                    "attributes": {
                        "NORMAL": "accessor_155",
                        "POSITION": "accessor_153",
                        "TEXBINORMAL": "accessor_161",
                        "TEXCOORD_0": "accessor_157",
                        "TEXTANGENT": "accessor_159"
                    },
                    "indices": "accessor_148",
                    "material": "sy16062048",
                    "mode": 4
                },
                {
                    "attributes": {
                        "NORMAL": "accessor_155",
                        "POSITION": "accessor_153",
                        "TEXBINORMAL": "accessor_161",
                        "TEXCOORD_0": "accessor_157",
                        "TEXTANGENT": "accessor_159"
                    },
                    "indices": "accessor_151",
                    "material": "sy16062049",
                    "mode": 4
                }
            ]
        }
    },
    "nodes": {
        "node-jz01": {
            "children": [
                "node_2"
            ],
            "matrix": [
                1,
                0,
                0,
                0,
                0,
                1,
                0,
                0,
                0,
                0,
                1,
                0,
                0,
                0,
                4.92867,
                1
            ],
            "name": "jz01"
        },
        "node_0": {
            "children": [],
            "matrix": [
                1,
                0,
                0,
                0,
                0,
                1,
                0,
                0,
                0,
                0,
                1,
                0,
                0,
                0,
                0,
                1
            ],
            "name": "EnvironmentAmbientLight"
        },
        "node_2": {
            "children": [],
            "matrix": [
                1,
                0,
                0,
                0,
                0,
                1,
                0,
                0,
                0,
                0,
                1,
                0,
                10.3902,
                2.80783,
                -4.92867,
                1
            ],
            "meshes": [
                "geom-jz01"
            ],
            "name": ""
        },
        "node_3": {
            "children": [
                "node_0",
                "node-jz01"
            ],
            "matrix": [
                1,
                0,
                0,
                0,
                0,
                0,
                -1,
                0,
                0,
                1,
                0,
                0,
                0,
                0,
                0,
                1
            ],
            "name": "Y_UP_Transform"
        }
    },
    "programs": {
        "program_0": {
            "attributes": [
                "a_normal",
                "a_position",
                "a_texcoord0"
            ],
            "fragmentShader": "jz010FS",
            "vertexShader": "jz010VS"
        },
        "program_1": {
            "attributes": [
                "a_normal",
                "a_position",
                "a_texcoord0"
            ],
            "fragmentShader": "jz011FS",
            "vertexShader": "jz011VS"
        }
    },
    "samplers": {
        "sampler_0": {
            "magFilter": 9729,
            "minFilter": 9729,
            "wrapS": 10497,
            "wrapT": 10497
        }
    },
    "scene": "defaultScene",
    "scenes": {
        "defaultScene": {
            "nodes": [
                "node_3"
            ]
        }
    },
    "shaders": {
        "jz010FS": {
            "type": 35632,
            "uri": "data:text/plain;base64,"
        },
        "jz010VS": {
            "type": 35633,
            "uri": "data:text/plain;base64,"
        },
        "jz011FS": {
            "type": 35632,
            "uri": "data:text/plain;base64,"
        },
        "jz011VS": {
            "type": 35633,
            "uri": "data:text/plain;base64,"
        }
    },
    "skins": {},
    "techniques": {
        "technique1": {
            "attributes": {
                "a_normal": "normal",
                "a_position": "position",
                "a_texcoord0": "texcoord0"
            },
            "parameters": {
                "ambient": {
                    "type": 35678
                },
                "diffuse": {
                    "type": 35678
                },
                "emission": {
                    "type": 35666
                },
                "modelViewMatrix": {
                    "semantic": "MODELVIEW",
                    "type": 35676
                },
                "normal": {
                    "semantic": "NORMAL",
                    "type": 35665
                },
                "normalMatrix": {
                    "semantic": "MODELVIEWINVERSETRANSPOSE",
                    "type": 35675
                },
                "position": {
                    "semantic": "POSITION",
                    "type": 35665
                },
                "projectionMatrix": {
                    "semantic": "PROJECTION",
                    "type": 35676
                },
                "shininess": {
                    "type": 5126
                },
                "specular": {
                    "type": 35666
                },
                "texcoord0": {
                    "semantic": "TEXCOORD_0",
                    "type": 35664
                }
            },
            "program": "program_0",
            "states": {
                "enable": [
                    2929,
                    3042
                ],
                "functions": {
                    "blendEquationSeparate": [
                        32774,
                        32774
                    ],
                    "blendFuncSeparate": [
                        1,
                        771,
                        1,
                        771
                    ],
                    "depthMask": false
                }
            },
            "uniforms": {
                "u_ambient": "ambient",
                "u_diffuse": "diffuse",
                "u_emission": "emission",
                "u_modelViewMatrix": "modelViewMatrix",
                "u_normalMatrix": "normalMatrix",
                "u_projectionMatrix": "projectionMatrix",
                "u_shininess": "shininess",
                "u_specular": "specular"
            }
        },
        "technique2": {
            "attributes": {
                "a_normal": "normal",
                "a_position": "position",
                "a_texcoord0": "texcoord0"
            },
            "parameters": {
                "ambient": {
                    "type": 35678
                },
                "diffuse": {
                    "type": 35678
                },
                "emission": {
                    "type": 35666
                },
                "modelViewMatrix": {
                    "semantic": "MODELVIEW",
                    "type": 35676
                },
                "normal": {
                    "semantic": "NORMAL",
                    "type": 35665
                },
                "normalMatrix": {
                    "semantic": "MODELVIEWINVERSETRANSPOSE",
                    "type": 35675
                },
                "position": {
                    "semantic": "POSITION",
                    "type": 35665
                },
                "projectionMatrix": {
                    "semantic": "PROJECTION",
                    "type": 35676
                },
                "shininess": {
                    "type": 5126
                },
                "specular": {
                    "type": 35666
                },
                "texcoord0": {
                    "semantic": "TEXCOORD_0",
                    "type": 35664
                }
            },
            "program": "program_1",
            "states": {
                "enable": [
                    2929,
                    2884
                ]
            },
            "uniforms": {
                "u_ambient": "ambient",
                "u_diffuse": "diffuse",
                "u_emission": "emission",
                "u_modelViewMatrix": "modelViewMatrix",
                "u_normalMatrix": "normalMatrix",
                "u_projectionMatrix": "projectionMatrix",
                "u_shininess": "shininess",
                "u_specular": "specular"
            }
        }
    },
    "textures": {
        "texture_sy16062019_png": {
            "format": 6408,
            "internalFormat": 6408,
            "sampler": "sampler_0",
            "source": "sy16062019_png",
            "target": 3553,
            "type": 5121
        },
        "texture_sy16062023_png": {
            "format": 6408,
            "internalFormat": 6408,
            "sampler": "sampler_0",
            "source": "sy16062023_png",
            "target": 3553,
            "type": 5121
        },
        "texture_sy16062048_png": {
            "format": 6408,
            "internalFormat": 6408,
            "sampler": "sampler_0",
            "source": "sy16062048_png",
            "target": 3553,
            "type": 5121
        },
        "texture_sy16062049_png": {
            "format": 6408,
            "internalFormat": 6408,
            "sampler": "sampler_0",
            "source": "sy16062049_png",
            "target": 3553,
            "type": 5121
        },
        "texture_sy16062052_png": {
            "format": 6408,
            "internalFormat": 6408,
            "sampler": "sampler_0",
            "source": "sy16062052_png",
            "target": 3553,
            "type": 5121
        }
    }
}