{
    "accessors": {
        "accessor_166": {
            "bufferView": "bufferView_193",
            "byteOffset": 0,
            "byteStride": 0,
            "componentType": 5123,
            "count": 24,
            "type": "SCALAR"
        },
        "accessor_169": {
            "bufferView": "bufferView_193",
            "byteOffset": 48,
            "byteStride": 0,
            "componentType": 5123,
            "count": 108,
            "type": "SCALAR"
        },
        "accessor_172": {
            "bufferView": "bufferView_193",
            "byteOffset": 264,
            "byteStride": 0,
            "componentType": 5123,
            "count": 78,
            "type": "SCALAR"
        },
        "accessor_175": {
            "bufferView": "bufferView_193",
            "byteOffset": 420,
            "byteStride": 0,
            "componentType": 5123,
            "count": 36,
            "type": "SCALAR"
        },
        "accessor_178": {
            "bufferView": "bufferView_193",
            "byteOffset": 492,
            "byteStride": 0,
            "componentType": 5123,
            "count": 1656,
            "type": "SCALAR"
        },
        "accessor_181": {
            "bufferView": "bufferView_193",
            "byteOffset": 3804,
            "byteStride": 0,
            "componentType": 5123,
            "count": 108,
            "type": "SCALAR"
        },
        "accessor_183": {
            "bufferView": "bufferView_194",
            "byteOffset": 0,
            "byteStride": 12,
            "componentType": 5126,
            "count": 2010,
            "max": [
                -3.23964,
                9.92669,
                10.6515
            ],
            "min": [
                -22.2265,
                -14.2748,
                -0.00548339
            ],
            "type": "VEC3"
        },
        "accessor_185": {
            "bufferView": "bufferView_194",
            "byteOffset": 24120,
            "byteStride": 12,
            "componentType": 5126,
            "count": 2010,
            "max": [
                0.935752,
                0.935961,
                0.977271
            ],
            "min": [
                -0.935753,
                -0.936284,
                -1
            ],
            "type": "VEC3"
        },
        "accessor_187": {
            "bufferView": "bufferView_194",
            "byteOffset": 48240,
            "byteStride": 8,
            "componentType": 5126,
            "count": 2010,
            "max": [
                17.991,
                0.999501
            ],
            "min": [
                0.000495911,
                -1.9985
            ],
            "type": "VEC2"
        },
        "accessor_189": {
            "bufferView": "bufferView_194",
            "byteOffset": 64320,
            "byteStride": 12,
            "componentType": 5126,
            "count": 2010,
            "max": [
                0.942693,
                0.935754,
                0.909257
            ],
            "min": [
                -0.937313,
                -0.935761,
                -0.960254
            ],
            "type": "VEC3"
        },
        "accessor_191": {
            "bufferView": "bufferView_194",
            "byteOffset": 88440,
            "byteStride": 12,
            "componentType": 5126,
            "count": 2010,
            "max": [
                0.935753,
                0.921131,
                1
            ],
            "min": [
                -0.900901,
                -0.921131,
                -1
            ],
            "type": "VEC3"
        }
    },
    "animations": {},
    "asset": {
        "generator": "collada2gltf@11bf28f97f1b5380fbefacf862ce7c597873d368",
        "premultipliedAlpha": true,
        "profile": {
            "api": "WebGL",
            "version": "1.0.2"
        },
        "version": 1
    },
    "bufferViews": {
        "bufferView_193": {
            "buffer": "jz02",
            "byteLength": 4020,
            "byteOffset": 0,
            "target": 34963
        },
        "bufferView_194": {
            "buffer": "jz02",
            "byteLength": 112560,
            "byteOffset": 4020,
            "target": 34962
        }
    },
    "buffers": {
        "jz02": {
            "byteLength": 116580,
            "type": "arraybuffer",
            "uri": "data:application/octet-stream;base64,"
        }
    },
    "images": {
        "sy16062019_png": {
            "name": "sy16062019_png",
            "uri": "data:image/png;base64,"
        },
        "sy16062023_png": {
            "name": "sy16062023_png",
            "uri": "data:image/png;base64,"
        },
        "sy16062048_png": {
            "name": "sy16062048_png",
            "uri": "data:image/png;base64,"
        },
        "sy16062049_png": {
            "name": "sy16062049_png",
            "uri": "data:image/png;base64,"
        },
        "sy16062050_png": {
            "name": "sy16062050_png",
            "uri": "data:image/png;base64,"
        },
        "sy16062051_png": {
            "name": "sy16062051_png",
            "uri": "data:image/png;base64,"
        }
    },
    "materials": {
        "sy16062019": {
            "name": "sy16062019",
            "technique": "technique1",
            "values": {
                "ambient": "texture_sy16062019_png",
                "diffuse": "texture_sy16062019_png",
                "emission": [
                    0,
                    0,
                    0,
                    1
                ],
                "shininess": 0,
                "specular": [
                    0.9,
                    0.9,
                    0.9,
                    1
                ]
            }
        },
        "sy16062023": {
            "name": "sy16062023",
            "technique": "technique2",
            "values": {
                "ambient": "texture_sy16062023_png",
                "diffuse": "texture_sy16062023_png",
                "emission": [
                    0,
                    0,
                    0,
                    1
                ],
                "shininess": 0,
                "specular": [
                    0.9,
                    0.9,
                    0.9,
                    1
                ]
            }
        },
        "sy16062048": {
            "name": "sy16062048",
            "technique": "technique1",
            "values": {
                "ambient": "texture_sy16062048_png",
                "diffuse": "texture_sy16062048_png",
                "emission": [
                    0,
                    0,
                    0,
                    1
                ],
                "shininess": 0,
                "specular": [
                    0.9,
                    0.9,
                    0.9,
                    1
                ]
            }
        },
        "sy16062049": {
            "name": "sy16062049",
            "technique": "technique1",
            "values": {
                "ambient": "texture_sy16062049_png",
                "diffuse": "texture_sy16062049_png",
                "emission": [
                    0,
                    0,
                    0,
                    1
                ],
                "shininess": 0,
                "specular": [
                    0.9,
                    0.9,
                    0.9,
                    1
                ]
            }
        },
        "sy16062050": {
            "name": "sy16062050",
            "technique": "technique1",
            "values": {
                "ambient": "texture_sy16062050_png",
                "diffuse": "texture_sy16062050_png",
                "emission": [
                    0,
                    0,
                    0,
                    1
                ],
                "shininess": 0,
                "specular": [
                    0.9,
                    0.9,
                    0.9,
                    1
                ]
            }
        },
        "sy16062051": {
            "name": "sy16062051",
            "technique": "technique1",
            "values": {
                "ambient": "texture_sy16062051_png",
                "diffuse": "texture_sy16062051_png",
                "emission": [
                    0,
                    0,
                    0,
                    1
                ],
                "shininess": 0,
                "specular": [
                    0.9,
                    0.9,
                    0.9,
                    1
                ]
            }
        }
    },
    "meshes": {
        "geom-jz02": {
            "name": "jz02",
            "primitives": [
                {
                    "attributes": {
                        "NORMAL": "accessor_185",
                        "POSITION": "accessor_183",
                        "TEXBINORMAL": "accessor_191",
                        "TEXCOORD_0": "accessor_187",
                        "TEXTANGENT": "accessor_189"
                    },
                    "indices": "accessor_166",
                    "material": "sy16062051",
                    "mode": 4
                },
                {
                    "attributes": {
                        "NORMAL": "accessor_185",
                        "POSITION": "accessor_183",
                        "TEXBINORMAL": "accessor_191",
                        "TEXCOORD_0": "accessor_187",
                        "TEXTANGENT": "accessor_189"
                    },
                    "indices": "accessor_169",
                    "material": "sy16062019",
                    "mode": 4
                },
                {
                    "attributes": {
                        "NORMAL": "accessor_185",
                        "POSITION": "accessor_183",
                        "TEXBINORMAL": "accessor_191",
                        "TEXCOORD_0": "accessor_187",
                        "TEXTANGENT": "accessor_189"
                    },
                    "indices": "accessor_172",
                    "material": "sy16062049",
                    "mode": 4
                },
                {
                    "attributes": {
                        "NORMAL": "accessor_185",
                        "POSITION": "accessor_183",
                        "TEXBINORMAL": "accessor_191",
                        "TEXCOORD_0": "accessor_187",
                        "TEXTANGENT": "accessor_189"
                    },
                    "indices": "accessor_175",
                    "material": "sy16062023",
                    "mode": 4
                },
                {
                    "attributes": {
                        "NORMAL": "accessor_185",
                        "POSITION": "accessor_183",
                        "TEXBINORMAL": "accessor_191",
                        "TEXCOORD_0": "accessor_187",
                        "TEXTANGENT": "accessor_189"
                    },
                    "indices": "accessor_178",
                    "material": "sy16062050",
                    "mode": 4
                },
                {
                    "attributes": {
                        "NORMAL": "accessor_185",
                        "POSITION": "accessor_183",
                        "TEXBINORMAL": "accessor_191",
                        "TEXCOORD_0": "accessor_187",
                        "TEXTANGENT": "accessor_189"
                    },
                    "indices": "accessor_181",
                    "material": "sy16062048",
                    "mode": 4
                }
            ]
        }
    },
    "nodes": {
        "node-jz02": {
            "children": [
                "node_2"
            ],
            "matrix": [
                1,
                0,
                0,
                0,
                0,
                1,
                0,
                0,
                0,
                0,
                1,
                0,
                0,
                0,
                5.32298,
                1
            ],
            "name": "jz02"
        },
        "node_0": {
            "children": [],
            "matrix": [
                1,
                0,
                0,
                0,
                0,
                1,
                0,
                0,
                0,
                0,
                1,
                0,
                0,
                0,
                0,
                1
            ],
            "name": "EnvironmentAmbientLight"
        },
        "node_2": {
            "children": [],
            "matrix": [
                1,
                0,
                0,
                0,
                0,
                1,
                0,
                0,
                0,
                0,
                1,
                0,
                12.7331,
                2.17407,
                -5.32298,
                1
            ],
            "meshes": [
                "geom-jz02"
            ],
            "name": ""
        },
        "node_3": {
            "children": [
                "node_0",
                "node-jz02"
            ],
            "matrix": [
                1,
                0,
                0,
                0,
                0,
                0,
                -1,
                0,
                0,
                1,
                0,
                0,
                0,
                0,
                0,
                1
            ],
            "name": "Y_UP_Transform"
        }
    },
    "programs": {
        "program_0": {
            "attributes": [
                "a_normal",
                "a_position",
                "a_texcoord0"
            ],
            "fragmentShader": "jz020FS",
            "vertexShader": "jz020VS"
        },
        "program_1": {
            "attributes": [
                "a_normal",
                "a_position",
                "a_texcoord0"
            ],
            "fragmentShader": "jz021FS",
            "vertexShader": "jz021VS"
        }
    },
    "samplers": {
        "sampler_0": {
            "magFilter": 9729,
            "minFilter": 9729,
            "wrapS": 10497,
            "wrapT": 10497
        }
    },
    "scene": "defaultScene",
    "scenes": {
        "defaultScene": {
            "nodes": [
                "node_3"
            ]
        }
    },
    "shaders": {
        "jz020FS": {
            "type": 35632,
            "uri": "data:text/plain;base64,"
        },
        "jz020VS": {
            "type": 35633,
            "uri": "data:text/plain;base64,"
        },
        "jz021FS": {
            "type": 35632,
            "uri": "data:text/plain;base64,"
        },
        "jz021VS": {
            "type": 35633,
            "uri": "data:text/plain;base64,"
        }
    },
    "skins": {},
    "techniques": {
        "technique1": {
            "attributes": {
                "a_normal": "normal",
                "a_position": "position",
                "a_texcoord0": "texcoord0"
            },
            "parameters": {
                "ambient": {
                    "type": 35678
                },
                "diffuse": {
                    "type": 35678
                },
                "emission": {
                    "type": 35666
                },
                "modelViewMatrix": {
                    "semantic": "MODELVIEW",
                    "type": 35676
                },
                "normal": {
                    "semantic": "NORMAL",
                    "type": 35665
                },
                "normalMatrix": {
                    "semantic": "MODELVIEWINVERSETRANSPOSE",
                    "type": 35675
                },
                "position": {
                    "semantic": "POSITION",
                    "type": 35665
                },
                "projectionMatrix": {
                    "semantic": "PROJECTION",
                    "type": 35676
                },
                "shininess": {
                    "type": 5126
                },
                "specular": {
                    "type": 35666
                },
                "texcoord0": {
                    "semantic": "TEXCOORD_0",
                    "type": 35664
                }
            },
            "program": "program_0",
            "states": {
                "enable": [
                    2929,
                    3042
                ],
                "functions": {
                    "blendEquationSeparate": [
                        32774,
                        32774
                    ],
                    "blendFuncSeparate": [
                        1,
                        771,
                        1,
                        771
                    ],
                    "depthMask": false
                }
            },
            "uniforms": {
                "u_ambient": "ambient",
                "u_diffuse": "diffuse",
                "u_emission": "emission",
                "u_modelViewMatrix": "modelViewMatrix",
                "u_normalMatrix": "normalMatrix",
                "u_projectionMatrix": "projectionMatrix",
                "u_shininess": "shininess",
                "u_specular": "specular"
            }
        },
        "technique2": {
            "attributes": {
                "a_normal": "normal",
                "a_position": "position",
                "a_texcoord0": "texcoord0"
            },
            "parameters": {
                "ambient": {
                    "type": 35678
                },
                "diffuse": {
                    "type": 35678
                },
                "emission": {
                    "type": 35666
                },
                "modelViewMatrix": {
                    "semantic": "MODELVIEW",
                    "type": 35676
                },
                "normal": {
                    "semantic": "NORMAL",
                    "type": 35665
                },
                "normalMatrix": {
                    "semantic": "MODELVIEWINVERSETRANSPOSE",
                    "type": 35675
                },
                "position": {
                    "semantic": "POSITION",
                    "type": 35665
                },
                "projectionMatrix": {
                    "semantic": "PROJECTION",
                    "type": 35676
                },
                "shininess": {
                    "type": 5126
                },
                "specular": {
                    "type": 35666
                },
                "texcoord0": {
                    "semantic": "TEXCOORD_0",
                    "type": 35664
                }
            },
            "program": "program_1",
            "states": {
                "enable": [
                    2929,
                    2884
                ]
            },
            "uniforms": {
                "u_ambient": "ambient",
                "u_diffuse": "diffuse",
                "u_emission": "emission",
                "u_modelViewMatrix": "modelViewMatrix",
                "u_normalMatrix": "normalMatrix",
                "u_projectionMatrix": "projectionMatrix",
                "u_shininess": "shininess",
                "u_specular": "specular"
            }
        }
    },
    "textures": {
        "texture_sy16062019_png": {
            "format": 6408,
            "internalFormat": 6408,
            "sampler": "sampler_0",
            "source": "sy16062019_png",
            "target": 3553,
            "type": 5121
        },
        "texture_sy16062023_png": {
            "format": 6408,
            "internalFormat": 6408,
            "sampler": "sampler_0",
            "source": "sy16062023_png",
            "target": 3553,
            "type": 5121
        },
        "texture_sy16062048_png": {
            "format": 6408,
            "internalFormat": 6408,
            "sampler": "sampler_0",
            "source": "sy16062048_png",
            "target": 3553,
            "type": 5121
        },
        "texture_sy16062049_png": {
            "format": 6408,
            "internalFormat": 6408,
            "sampler": "sampler_0",
            "source": "sy16062049_png",
            "target": 3553,
            "type": 5121
        },
        "texture_sy16062050_png": {
            "format": 6408,
            "internalFormat": 6408,
            "sampler": "sampler_0",
            "source": "sy16062050_png",
            "target": 3553,
            "type": 5121
        },
        "texture_sy16062051_png": {
            "format": 6408,
            "internalFormat": 6408,
            "sampler": "sampler_0",
            "source": "sy16062051_png",
            "target": 3553,
            "type": 5121
        }
    }
}