{
    "accessors": {
        "accessor_106": {
            "bufferView": "bufferView_129",
            "byteOffset": 0,
            "byteStride": 0,
            "componentType": 5123,
            "count": 5886,
            "type": "SCALAR"
        },
        "accessor_109": {
            "bufferView": "bufferView_129",
            "byteOffset": 11772,
            "byteStride": 0,
            "componentType": 5123,
            "count": 4590,
            "type": "SCALAR"
        },
        "accessor_112": {
            "bufferView": "bufferView_129",
            "byteOffset": 20952,
            "byteStride": 0,
            "componentType": 5123,
            "count": 2076,
            "type": "SCALAR"
        },
        "accessor_115": {
            "bufferView": "bufferView_129",
            "byteOffset": 25104,
            "byteStride": 0,
            "componentType": 5123,
            "count": 1290,
            "type": "SCALAR"
        },
        "accessor_118": {
            "bufferView": "bufferView_129",
            "byteOffset": 27684,
            "byteStride": 0,
            "componentType": 5123,
            "count": 294,
            "type": "SCALAR"
        },
        "accessor_121": {
            "bufferView": "bufferView_129",
            "byteOffset": 28272,
            "byteStride": 0,
            "componentType": 5123,
            "count": 54,
            "type": "SCALAR"
        },
        "accessor_123": {
            "bufferView": "bufferView_130",
            "byteOffset": 0,
            "byteStride": 12,
            "componentType": 5126,
            "count": 13740,
            "max": [
                170.129,
                15.829,
                116.295
            ],
            "min": [
                33.9841,
                -123.027,
                -0.0131196
            ],
            "type": "VEC3"
        },
        "accessor_125": {
            "bufferView": "bufferView_130",
            "byteOffset": 164880,
            "byteStride": 12,
            "componentType": 5126,
            "count": 13740,
            "max": [
                0.930566,
                0.966964,
                1
            ],
            "min": [
                -0.99679,
                -0.973962,
                -1
            ],
            "type": "VEC3"
        },
        "accessor_127": {
            "bufferView": "bufferView_130",
            "byteOffset": 329760,
            "byteStride": 8,
            "componentType": 5126,
            "count": 13740,
            "max": [
                34.0971,
                70.8989
            ],
            "min": [
                -102.048,
                -67.9573
            ],
            "type": "VEC2"
        }
    },
    "animations": {},
    "asset": {
        "generator": "collada2gltf@11bf28f97f1b5380fbefacf862ce7c597873d368",
        "premultipliedAlpha": true,
        "profile": {
            "api": "WebGL",
            "version": "1.0.2"
        },
        "version": 1
    },
    "bufferViews": {
        "bufferView_129": {
            "buffer": "jz06",
            "byteLength": 28380,
            "byteOffset": 0,
            "target": 34963
        },
        "bufferView_130": {
            "buffer": "jz06",
            "byteLength": 439680,
            "byteOffset": 28380,
            "target": 34962
        }
    },
    "buffers": {
        "jz06": {
            "byteLength": 468060,
            "type": "arraybuffer",
            "uri": "data:application/octet-stream;base64,"
        }
    },
    "images": {
        "sy16051101_png": {
            "name": "sy16051101_png",
            "uri": "data:image/png;base64,"
        },
        "sy16051102_png": {
            "name": "sy16051102_png",
            "uri": "data:image/png;base64,"
        },
        "sy16051103_png": {
            "name": "sy16051103_png",
            "uri": "data:image/png;base64,"
        },
        "sy16051104_png": {
            "name": "sy16051104_png",
            "uri": "data:image/png;base64,"
        },
        "sy16051106_png": {
            "name": "sy16051106_png",
            "uri": "data:image/png;base64,"
        },
        "sy16051142_png": {
            "name": "sy16051142_png",
            "uri": "data:image/png;base64,"
        }
    },
    "materials": {
        "sy16051101": {
            "name": "sy16051101",
            "technique": "technique1",
            "values": {
                "ambient": "texture_sy16051101_png",
                "diffuse": "texture_sy16051101_png",
                "emission": [
                    0,
                    0,
                    0,
                    1
                ],
                "shininess": 0,
                "specular": [
                    0.9,
                    0.9,
                    0.9,
                    1
                ]
            }
        },
        "sy16051102": {
            "name": "sy16051102",
            "technique": "technique1",
            "values": {
                "ambient": "texture_sy16051102_png",
                "diffuse": "texture_sy16051102_png",
                "emission": [
                    0,
                    0,
                    0,
                    1
                ],
                "shininess": 0,
                "specular": [
                    0.9,
                    0.9,
                    0.9,
                    1
                ]
            }
        },
        "sy16051103": {
            "name": "sy16051103",
            "technique": "technique1",
            "values": {
                "ambient": "texture_sy16051103_png",
                "diffuse": "texture_sy16051103_png",
                "emission": [
                    0,
                    0,
                    0,
                    1
                ],
                "shininess": 0,
                "specular": [
                    0.9,
                    0.9,
                    0.9,
                    1
                ]
            }
        },
        "sy16051104": {
            "name": "sy16051104",
            "technique": "technique1",
            "values": {
                "ambient": "texture_sy16051104_png",
                "diffuse": "texture_sy16051104_png",
                "emission": [
                    0,
                    0,
                    0,
                    1
                ],
                "shininess": 0,
                "specular": [
                    0.9,
                    0.9,
                    0.9,
                    1
                ]
            }
        },
        "sy16051106": {
            "name": "sy16051106",
            "technique": "technique1",
            "values": {
                "ambient": "texture_sy16051106_png",
                "diffuse": "texture_sy16051106_png",
                "emission": [
                    0,
                    0,
                    0,
                    1
                ],
                "shininess": 0,
                "specular": [
                    0.9,
                    0.9,
                    0.9,
                    1
                ]
            }
        },
        "sy16051142": {
            "name": "sy16051142",
            "technique": "technique1",
            "values": {
                "ambient": "texture_sy16051142_png",
                "diffuse": "texture_sy16051142_png",
                "emission": [
                    0,
                    0,
                    0,
                    1
                ],
                "shininess": 0,
                "specular": [
                    0.9,
                    0.9,
                    0.9,
                    1
                ]
            }
        }
    },
    "meshes": {
        "geom-jz06": {
            "name": "jz06",
            "primitives": [
                {
                    "attributes": {
                        "NORMAL": "accessor_125",
                        "POSITION": "accessor_123",
                        "TEXCOORD_0": "accessor_127"
                    },
                    "indices": "accessor_106",
                    "material": "sy16051104",
                    "mode": 4
                },
                {
                    "attributes": {
                        "NORMAL": "accessor_125",
                        "POSITION": "accessor_123",
                        "TEXCOORD_0": "accessor_127"
                    },
                    "indices": "accessor_109",
                    "material": "sy16051103",
                    "mode": 4
                },
                {
                    "attributes": {
                        "NORMAL": "accessor_125",
                        "POSITION": "accessor_123",
                        "TEXCOORD_0": "accessor_127"
                    },
                    "indices": "accessor_112",
                    "material": "sy16051106",
                    "mode": 4
                },
                {
                    "attributes": {
                        "NORMAL": "accessor_125",
                        "POSITION": "accessor_123",
                        "TEXCOORD_0": "accessor_127"
                    },
                    "indices": "accessor_115",
                    "material": "sy16051102",
                    "mode": 4
                },
                {
                    "attributes": {
                        "NORMAL": "accessor_125",
                        "POSITION": "accessor_123",
                        "TEXCOORD_0": "accessor_127"
                    },
                    "indices": "accessor_118",
                    "material": "sy16051101",
                    "mode": 4
                },
                {
                    "attributes": {
                        "NORMAL": "accessor_125",
                        "POSITION": "accessor_123",
                        "TEXCOORD_0": "accessor_127"
                    },
                    "indices": "accessor_121",
                    "material": "sy16051142",
                    "mode": 4
                }
            ]
        }
    },
    "nodes": {
        "node-jz06": {
            "children": [
                "node_2"
            ],
            "matrix": [
                1,
                -4.23039e-14,
                0.000418663,
                0,
                -1.43037e-07,
                1,
                0.000341653,
                0,
                -0.000418663,
                -0.000341653,
                1,
                0,
                7.62939e-06,
                7.62939e-06,
                58.1172,
                1
            ],
            "name": "jz06"
        },
        "node_0": {
            "children": [],
            "matrix": [
                1,
                0,
                0,
                0,
                0,
                1,
                0,
                0,
                0,
                0,
                1,
                0,
                0,
                0,
                0,
                1
            ],
            "name": "EnvironmentAmbientLight"
        },
        "node_2": {
            "children": [],
            "matrix": [
                1,
                0,
                0,
                0,
                0,
                1,
                0,
                0,
                0,
                0,
                1,
                0,
                -102.057,
                53.5992,
                -58.1408,
                1
            ],
            "meshes": [
                "geom-jz06"
            ],
            "name": ""
        },
        "node_3": {
            "children": [
                "node_0",
                "node-jz06"
            ],
            "matrix": [
                1,
                0,
                0,
                0,
                0,
                0,
                -1,
                0,
                0,
                1,
                0,
                0,
                0,
                0,
                0,
                1
            ],
            "name": "Y_UP_Transform"
        }
    },
    "programs": {
        "program_0": {
            "attributes": [
                "a_normal",
                "a_position",
                "a_texcoord0"
            ],
            "fragmentShader": "jz060FS",
            "vertexShader": "jz060VS"
        }
    },
    "samplers": {
        "sampler_0": {
            "magFilter": 9729,
            "minFilter": 9729,
            "wrapS": 10497,
            "wrapT": 10497
        }
    },
    "scene": "defaultScene",
    "scenes": {
        "defaultScene": {
            "nodes": [
                "node_3"
            ]
        }
    },
    "shaders": {
        "jz060FS": {
            "type": 35632,
            "uri": "data:text/plain;base64,"
        },
        "jz060VS": {
            "type": 35633,
            "uri": "data:text/plain;base64,"
        }
    },
    "skins": {},
    "techniques": {
        "technique1": {
            "attributes": {
                "a_normal": "normal",
                "a_position": "position",
                "a_texcoord0": "texcoord0"
            },
            "parameters": {
                "ambient": {
                    "type": 35678
                },
                "diffuse": {
                    "type": 35678
                },
                "emission": {
                    "type": 35666
                },
                "modelViewMatrix": {
                    "semantic": "MODELVIEW",
                    "type": 35676
                },
                "normal": {
                    "semantic": "NORMAL",
                    "type": 35665
                },
                "normalMatrix": {
                    "semantic": "MODELVIEWINVERSETRANSPOSE",
                    "type": 35675
                },
                "position": {
                    "semantic": "POSITION",
                    "type": 35665
                },
                "projectionMatrix": {
                    "semantic": "PROJECTION",
                    "type": 35676
                },
                "shininess": {
                    "type": 5126
                },
                "specular": {
                    "type": 35666
                },
                "texcoord0": {
                    "semantic": "TEXCOORD_0",
                    "type": 35664
                }
            },
            "program": "program_0",
            "states": {
                "enable": [
                    2929,
                    2884
                ]
            },
            "uniforms": {
                "u_ambient": "ambient",
                "u_diffuse": "diffuse",
                "u_emission": "emission",
                "u_modelViewMatrix": "modelViewMatrix",
                "u_normalMatrix": "normalMatrix",
                "u_projectionMatrix": "projectionMatrix",
                "u_shininess": "shininess",
                "u_specular": "specular"
            }
        }
    },
    "textures": {
        "texture_sy16051101_png": {
            "format": 6408,
            "internalFormat": 6408,
            "sampler": "sampler_0",
            "source": "sy16051101_png",
            "target": 3553,
            "type": 5121
        },
        "texture_sy16051102_png": {
            "format": 6408,
            "internalFormat": 6408,
            "sampler": "sampler_0",
            "source": "sy16051102_png",
            "target": 3553,
            "type": 5121
        },
        "texture_sy16051103_png": {
            "format": 6408,
            "internalFormat": 6408,
            "sampler": "sampler_0",
            "source": "sy16051103_png",
            "target": 3553,
            "type": 5121
        },
        "texture_sy16051104_png": {
            "format": 6408,
            "internalFormat": 6408,
            "sampler": "sampler_0",
            "source": "sy16051104_png",
            "target": 3553,
            "type": 5121
        },
        "texture_sy16051106_png": {
            "format": 6408,
            "internalFormat": 6408,
            "sampler": "sampler_0",
            "source": "sy16051106_png",
            "target": 3553,
            "type": 5121
        },
        "texture_sy16051142_png": {
            "format": 6408,
            "internalFormat": 6408,
            "sampler": "sampler_0",
            "source": "sy16051142_png",
            "target": 3553,
            "type": 5121
        }
    }
}