{
    "accessors": {
        "accessor_174": {
            "bufferView": "bufferView_209",
            "byteOffset": 0,
            "byteStride": 0,
            "componentType": 5123,
            "count": 7092,
            "type": "SCALAR"
        },
        "accessor_177": {
            "bufferView": "bufferView_209",
            "byteOffset": 14184,
            "byteStride": 0,
            "componentType": 5123,
            "count": 2139,
            "type": "SCALAR"
        },
        "accessor_180": {
            "bufferView": "bufferView_209",
            "byteOffset": 18462,
            "byteStride": 0,
            "componentType": 5123,
            "count": 2019,
            "type": "SCALAR"
        },
        "accessor_183": {
            "bufferView": "bufferView_209",
            "byteOffset": 22500,
            "byteStride": 0,
            "componentType": 5123,
            "count": 3192,
            "type": "SCALAR"
        },
        "accessor_186": {
            "bufferView": "bufferView_209",
            "byteOffset": 28884,
            "byteStride": 0,
            "componentType": 5123,
            "count": 5442,
            "type": "SCALAR"
        },
        "accessor_189": {
            "bufferView": "bufferView_209",
            "byteOffset": 39768,
            "byteStride": 0,
            "componentType": 5123,
            "count": 282,
            "type": "SCALAR"
        },
        "accessor_192": {
            "bufferView": "bufferView_209",
            "byteOffset": 40332,
            "byteStride": 0,
            "componentType": 5123,
            "count": 63,
            "type": "SCALAR"
        },
        "accessor_195": {
            "bufferView": "bufferView_209",
            "byteOffset": 40458,
            "byteStride": 0,
            "componentType": 5123,
            "count": 222,
            "type": "SCALAR"
        },
        "accessor_198": {
            "bufferView": "bufferView_209",
            "byteOffset": 40902,
            "byteStride": 0,
            "componentType": 5123,
            "count": 186,
            "type": "SCALAR"
        },
        "accessor_201": {
            "bufferView": "bufferView_209",
            "byteOffset": 41274,
            "byteStride": 0,
            "componentType": 5123,
            "count": 168,
            "type": "SCALAR"
        },
        "accessor_203": {
            "bufferView": "bufferView_210",
            "byteOffset": 0,
            "byteStride": 12,
            "componentType": 5126,
            "count": 20739,
            "max": [
                -11.7838,
                10.7615,
                101.087
            ],
            "min": [
                -113.39,
                -168.357,
                -7.7486e-06
            ],
            "type": "VEC3"
        },
        "accessor_205": {
            "bufferView": "bufferView_210",
            "byteOffset": 248868,
            "byteStride": 12,
            "componentType": 5126,
            "count": 20739,
            "max": [
                1,
                0.999984,
                1
            ],
            "min": [
                -1,
                -0.999985,
                -1
            ],
            "type": "VEC3"
        },
        "accessor_207": {
            "bufferView": "bufferView_210",
            "byteOffset": 497736,
            "byteStride": 8,
            "componentType": 5126,
            "count": 20739,
            "max": [
                57.8468,
                41.0388
            ],
            "min": [
                -80.3248,
                -72.3389
            ],
            "type": "VEC2"
        }
    },
    "animations": {},
    "asset": {
        "generator": "collada2gltf@11bf28f97f1b5380fbefacf862ce7c597873d368",
        "premultipliedAlpha": true,
        "profile": {
            "api": "WebGL",
            "version": "1.0.2"
        },
        "version": 1
    },
    "bufferViews": {
        "bufferView_209": {
            "buffer": "jz07",
            "byteLength": 41612,
            "byteOffset": 0,
            "target": 34963
        },
        "bufferView_210": {
            "buffer": "jz07",
            "byteLength": 663648,
            "byteOffset": 41612,
            "target": 34962
        }
    },
    "buffers": {
        "jz07": {
            "byteLength": 705260,
            "type": "arraybuffer",
            "uri": "data:application/octet-stream;base64,"
        }
    },
    "images": {
        "sy16050902_png": {
            "name": "sy16050902_png",
            "uri": "data:image/png;base64,"
        },
        "sy16051101_png": {
            "name": "sy16051101_png",
            "uri": "data:image/png;base64,"
        },
        "sy16051102_png": {
            "name": "sy16051102_png",
            "uri": "data:image/png;base64,"
        },
        "sy16051103_png": {
            "name": "sy16051103_png",
            "uri": "data:image/png;base64,"
        },
        "sy16051104_png": {
            "name": "sy16051104_png",
            "uri": "data:image/png;base64,"
        },
        "sy16051106_png": {
            "name": "sy16051106_png",
            "uri": "data:image/png;base64,"
        },
        "sy16051119_png": {
            "name": "sy16051119_png",
            "uri": "data:image/png;base64,"
        },
        "sy16051121_png": {
            "name": "sy16051121_png",
            "uri": "data:image/png;base64,"
        },
        "sy16051122_png": {
            "name": "sy16051122_png",
            "uri": "data:image/png;base64,"
        },
        "sy16051123_png": {
            "name": "sy16051123_png",
            "uri": "data:image/png;base64,"
        }
    },
    "materials": {
        "sy16050902": {
            "name": "sy16050902",
            "technique": "technique1",
            "values": {
                "ambient": "texture_sy16050902_png",
                "diffuse": "texture_sy16050902_png",
                "emission": [
                    0,
                    0,
                    0,
                    1
                ],
                "shininess": 0,
                "specular": [
                    0.9,
                    0.9,
                    0.9,
                    1
                ]
            }
        },
        "sy16051101": {
            "name": "sy16051101",
            "technique": "technique1",
            "values": {
                "ambient": "texture_sy16051101_png",
                "diffuse": "texture_sy16051101_png",
                "emission": [
                    0,
                    0,
                    0,
                    1
                ],
                "shininess": 0,
                "specular": [
                    0.9,
                    0.9,
                    0.9,
                    1
                ]
            }
        },
        "sy16051102": {
            "name": "sy16051102",
            "technique": "technique1",
            "values": {
                "ambient": "texture_sy16051102_png",
                "diffuse": "texture_sy16051102_png",
                "emission": [
                    0,
                    0,
                    0,
                    1
                ],
                "shininess": 0,
                "specular": [
                    0.9,
                    0.9,
                    0.9,
                    1
                ]
            }
        },
        "sy16051103": {
            "name": "sy16051103",
            "technique": "technique1",
            "values": {
                "ambient": "texture_sy16051103_png",
                "diffuse": "texture_sy16051103_png",
                "emission": [
                    0,
                    0,
                    0,
                    1
                ],
                "shininess": 0,
                "specular": [
                    0.9,
                    0.9,
                    0.9,
                    1
                ]
            }
        },
        "sy16051104": {
            "name": "sy16051104",
            "technique": "technique1",
            "values": {
                "ambient": "texture_sy16051104_png",
                "diffuse": "texture_sy16051104_png",
                "emission": [
                    0,
                    0,
                    0,
                    1
                ],
                "shininess": 0,
                "specular": [
                    0.9,
                    0.9,
                    0.9,
                    1
                ]
            }
        },
        "sy16051106": {
            "name": "sy16051106",
            "technique": "technique1",
            "values": {
                "ambient": "texture_sy16051106_png",
                "diffuse": "texture_sy16051106_png",
                "emission": [
                    0,
                    0,
                    0,
                    1
                ],
                "shininess": 0,
                "specular": [
                    0.9,
                    0.9,
                    0.9,
                    1
                ]
            }
        },
        "sy16051119": {
            "name": "sy16051119",
            "technique": "technique1",
            "values": {
                "ambient": "texture_sy16051119_png",
                "diffuse": "texture_sy16051119_png",
                "emission": [
                    0,
                    0,
                    0,
                    1
                ],
                "shininess": 0,
                "specular": [
                    0.9,
                    0.9,
                    0.9,
                    1
                ]
            }
        },
        "sy16051121": {
            "name": "sy16051121",
            "technique": "technique1",
            "values": {
                "ambient": "texture_sy16051121_png",
                "diffuse": "texture_sy16051121_png",
                "emission": [
                    0,
                    0,
                    0,
                    1
                ],
                "shininess": 0,
                "specular": [
                    0.9,
                    0.9,
                    0.9,
                    1
                ]
            }
        },
        "sy16051122": {
            "name": "sy16051122",
            "technique": "technique1",
            "values": {
                "ambient": "texture_sy16051122_png",
                "diffuse": "texture_sy16051122_png",
                "emission": [
                    0,
                    0,
                    0,
                    1
                ],
                "shininess": 0,
                "specular": [
                    0.9,
                    0.9,
                    0.9,
                    1
                ]
            }
        },
        "sy16051123": {
            "name": "sy16051123",
            "technique": "technique1",
            "values": {
                "ambient": "texture_sy16051123_png",
                "diffuse": "texture_sy16051123_png",
                "emission": [
                    0,
                    0,
                    0,
                    1
                ],
                "shininess": 0,
                "specular": [
                    0.9,
                    0.9,
                    0.9,
                    1
                ]
            }
        }
    },
    "meshes": {
        "geom-jz07": {
            "name": "jz07",
            "primitives": [
                {
                    "attributes": {
                        "NORMAL": "accessor_205",
                        "POSITION": "accessor_203",
                        "TEXCOORD_0": "accessor_207"
                    },
                    "indices": "accessor_174",
                    "material": "sy16051104",
                    "mode": 4
                },
                {
                    "attributes": {
                        "NORMAL": "accessor_205",
                        "POSITION": "accessor_203",
                        "TEXCOORD_0": "accessor_207"
                    },
                    "indices": "accessor_177",
                    "material": "sy16051101",
                    "mode": 4
                },
                {
                    "attributes": {
                        "NORMAL": "accessor_205",
                        "POSITION": "accessor_203",
                        "TEXCOORD_0": "accessor_207"
                    },
                    "indices": "accessor_180",
                    "material": "sy16051102",
                    "mode": 4
                },
                {
                    "attributes": {
                        "NORMAL": "accessor_205",
                        "POSITION": "accessor_203",
                        "TEXCOORD_0": "accessor_207"
                    },
                    "indices": "accessor_183",
                    "material": "sy16051106",
                    "mode": 4
                },
                {
                    "attributes": {
                        "NORMAL": "accessor_205",
                        "POSITION": "accessor_203",
                        "TEXCOORD_0": "accessor_207"
                    },
                    "indices": "accessor_186",
                    "material": "sy16051103",
                    "mode": 4
                },
                {
                    "attributes": {
                        "NORMAL": "accessor_205",
                        "POSITION": "accessor_203",
                        "TEXCOORD_0": "accessor_207"
                    },
                    "indices": "accessor_189",
                    "material": "sy16051123",
                    "mode": 4
                },
                {
                    "attributes": {
                        "NORMAL": "accessor_205",
                        "POSITION": "accessor_203",
                        "TEXCOORD_0": "accessor_207"
                    },
                    "indices": "accessor_192",
                    "material": "sy16051119",
                    "mode": 4
                },
                {
                    "attributes": {
                        "NORMAL": "accessor_205",
                        "POSITION": "accessor_203",
                        "TEXCOORD_0": "accessor_207"
                    },
                    "indices": "accessor_195",
                    "material": "sy16051121",
                    "mode": 4
                },
                {
                    "attributes": {
                        "NORMAL": "accessor_205",
                        "POSITION": "accessor_203",
                        "TEXCOORD_0": "accessor_207"
                    },
                    "indices": "accessor_198",
                    "material": "sy16051122",
                    "mode": 4
                },
                {
                    "attributes": {
                        "NORMAL": "accessor_205",
                        "POSITION": "accessor_203",
                        "TEXCOORD_0": "accessor_207"
                    },
                    "indices": "accessor_201",
                    "material": "sy16050902",
                    "mode": 4
                }
            ]
        }
    },
    "nodes": {
        "node-jz07": {
            "children": [
                "node_2"
            ],
            "matrix": [
                1,
                0,
                0,
                0,
                0,
                1,
                0,
                0,
                0,
                0,
                1,
                0,
                0,
                0,
                50.5434,
                1
            ],
            "name": "jz07"
        },
        "node_0": {
            "children": [],
            "matrix": [
                1,
                0,
                0,
                0,
                0,
                1,
                0,
                0,
                0,
                0,
                1,
                0,
                0,
                0,
                0,
                1
            ],
            "name": "EnvironmentAmbientLight"
        },
        "node_2": {
            "children": [],
            "matrix": [
                1,
                0,
                0,
                0,
                0,
                1,
                0,
                0,
                0,
                0,
                1,
                0,
                62.5868,
                78.7978,
                -50.5434,
                1
            ],
            "meshes": [
                "geom-jz07"
            ],
            "name": ""
        },
        "node_3": {
            "children": [
                "node_0",
                "node-jz07"
            ],
            "matrix": [
                1,
                0,
                0,
                0,
                0,
                0,
                -1,
                0,
                0,
                1,
                0,
                0,
                0,
                0,
                0,
                1
            ],
            "name": "Y_UP_Transform"
        }
    },
    "programs": {
        "program_0": {
            "attributes": [
                "a_normal",
                "a_position",
                "a_texcoord0"
            ],
            "fragmentShader": "jz070FS",
            "vertexShader": "jz070VS"
        }
    },
    "samplers": {
        "sampler_0": {
            "magFilter": 9729,
            "minFilter": 9729,
            "wrapS": 10497,
            "wrapT": 10497
        }
    },
    "scene": "defaultScene",
    "scenes": {
        "defaultScene": {
            "nodes": [
                "node_3"
            ]
        }
    },
    "shaders": {
        "jz070FS": {
            "type": 35632,
            "uri": "data:text/plain;base64,"
        },
        "jz070VS": {
            "type": 35633,
            "uri": "data:text/plain;base64,"
        }
    },
    "skins": {},
    "techniques": {
        "technique1": {
            "attributes": {
                "a_normal": "normal",
                "a_position": "position",
                "a_texcoord0": "texcoord0"
            },
            "parameters": {
                "ambient": {
                    "type": 35678
                },
                "diffuse": {
                    "type": 35678
                },
                "emission": {
                    "type": 35666
                },
                "modelViewMatrix": {
                    "semantic": "MODELVIEW",
                    "type": 35676
                },
                "normal": {
                    "semantic": "NORMAL",
                    "type": 35665
                },
                "normalMatrix": {
                    "semantic": "MODELVIEWINVERSETRANSPOSE",
                    "type": 35675
                },
                "position": {
                    "semantic": "POSITION",
                    "type": 35665
                },
                "projectionMatrix": {
                    "semantic": "PROJECTION",
                    "type": 35676
                },
                "shininess": {
                    "type": 5126
                },
                "specular": {
                    "type": 35666
                },
                "texcoord0": {
                    "semantic": "TEXCOORD_0",
                    "type": 35664
                }
            },
            "program": "program_0",
            "states": {
                "enable": [
                    2929,
                    2884
                ]
            },
            "uniforms": {
                "u_ambient": "ambient",
                "u_diffuse": "diffuse",
                "u_emission": "emission",
                "u_modelViewMatrix": "modelViewMatrix",
                "u_normalMatrix": "normalMatrix",
                "u_projectionMatrix": "projectionMatrix",
                "u_shininess": "shininess",
                "u_specular": "specular"
            }
        }
    },
    "textures": {
        "texture_sy16050902_png": {
            "format": 6408,
            "internalFormat": 6408,
            "sampler": "sampler_0",
            "source": "sy16050902_png",
            "target": 3553,
            "type": 5121
        },
        "texture_sy16051101_png": {
            "format": 6408,
            "internalFormat": 6408,
            "sampler": "sampler_0",
            "source": "sy16051101_png",
            "target": 3553,
            "type": 5121
        },
        "texture_sy16051102_png": {
            "format": 6408,
            "internalFormat": 6408,
            "sampler": "sampler_0",
            "source": "sy16051102_png",
            "target": 3553,
            "type": 5121
        },
        "texture_sy16051103_png": {
            "format": 6408,
            "internalFormat": 6408,
            "sampler": "sampler_0",
            "source": "sy16051103_png",
            "target": 3553,
            "type": 5121
        },
        "texture_sy16051104_png": {
            "format": 6408,
            "internalFormat": 6408,
            "sampler": "sampler_0",
            "source": "sy16051104_png",
            "target": 3553,
            "type": 5121
        },
        "texture_sy16051106_png": {
            "format": 6408,
            "internalFormat": 6408,
            "sampler": "sampler_0",
            "source": "sy16051106_png",
            "target": 3553,
            "type": 5121
        },
        "texture_sy16051119_png": {
            "format": 6408,
            "internalFormat": 6408,
            "sampler": "sampler_0",
            "source": "sy16051119_png",
            "target": 3553,
            "type": 5121
        },
        "texture_sy16051121_png": {
            "format": 6408,
            "internalFormat": 6408,
            "sampler": "sampler_0",
            "source": "sy16051121_png",
            "target": 3553,
            "type": 5121
        },
        "texture_sy16051122_png": {
            "format": 6408,
            "internalFormat": 6408,
            "sampler": "sampler_0",
            "source": "sy16051122_png",
            "target": 3553,
            "type": 5121
        },
        "texture_sy16051123_png": {
            "format": 6408,
            "internalFormat": 6408,
            "sampler": "sampler_0",
            "source": "sy16051123_png",
            "target": 3553,
            "type": 5121
        }
    }
}