{
    "accessors": {
        "accessor_193": {
            "bufferView": "bufferView_223",
            "byteOffset": 0,
            "byteStride": 0,
            "componentType": 5123,
            "count": 234,
            "type": "SCALAR"
        },
        "accessor_196": {
            "bufferView": "bufferView_223",
            "byteOffset": 468,
            "byteStride": 0,
            "componentType": 5123,
            "count": 126,
            "type": "SCALAR"
        },
        "accessor_199": {
            "bufferView": "bufferView_223",
            "byteOffset": 720,
            "byteStride": 0,
            "componentType": 5123,
            "count": 14112,
            "type": "SCALAR"
        },
        "accessor_202": {
            "bufferView": "bufferView_223",
            "byteOffset": 28944,
            "byteStride": 0,
            "componentType": 5123,
            "count": 288,
            "type": "SCALAR"
        },
        "accessor_205": {
            "bufferView": "bufferView_223",
            "byteOffset": 29520,
            "byteStride": 0,
            "componentType": 5123,
            "count": 30,
            "type": "SCALAR"
        },
        "accessor_208": {
            "bufferView": "bufferView_223",
            "byteOffset": 29580,
            "byteStride": 0,
            "componentType": 5123,
            "count": 6,
            "type": "SCALAR"
        },
        "accessor_211": {
            "bufferView": "bufferView_223",
            "byteOffset": 29592,
            "byteStride": 0,
            "componentType": 5123,
            "count": 12,
            "type": "SCALAR"
        },
        "accessor_213": {
            "bufferView": "bufferView_224",
            "byteOffset": 0,
            "byteStride": 12,
            "componentType": 5126,
            "count": 4978,
            "max": [
                169.595,
                126.501,
                44.3999
            ],
            "min": [
                9.12025,
                -34.5586,
                -6.69062e-06
            ],
            "type": "VEC3"
        },
        "accessor_215": {
            "bufferView": "bufferView_224",
            "byteOffset": 59736,
            "byteStride": 12,
            "componentType": 5126,
            "count": 4978,
            "max": [
                0.963083,
                0.999136,
                1
            ],
            "min": [
                -0.963087,
                -0.999136,
                -1
            ],
            "type": "VEC3"
        },
        "accessor_217": {
            "bufferView": "bufferView_224",
            "byteOffset": 119472,
            "byteStride": 8,
            "componentType": 5126,
            "count": 4978,
            "max": [
                1.05,
                1
            ],
            "min": [
                0,
                0
            ],
            "type": "VEC2"
        },
        "accessor_219": {
            "bufferView": "bufferView_224",
            "byteOffset": 159296,
            "byteStride": 12,
            "componentType": 5126,
            "count": 4978,
            "max": [
                0.950252,
                0.916038,
                1
            ],
            "min": [
                -0.950255,
                -0.916042,
                -1
            ],
            "type": "VEC3"
        },
        "accessor_221": {
            "bufferView": "bufferView_224",
            "byteOffset": 219032,
            "byteStride": 12,
            "componentType": 5126,
            "count": 4978,
            "max": [
                0.783887,
                0.783918,
                1
            ],
            "min": [
                -0.783887,
                -0.7839,
                -1
            ],
            "type": "VEC3"
        }
    },
    "animations": {},
    "asset": {
        "generator": "collada2gltf@11bf28f97f1b5380fbefacf862ce7c597873d368",
        "premultipliedAlpha": true,
        "profile": {
            "api": "WebGL",
            "version": "1.0.2"
        },
        "version": 1
    },
    "bufferViews": {
        "bufferView_223": {
            "buffer": "jz09",
            "byteLength": 29616,
            "byteOffset": 0,
            "target": 34963
        },
        "bufferView_224": {
            "buffer": "jz09",
            "byteLength": 278768,
            "byteOffset": 29616,
            "target": 34962
        }
    },
    "buffers": {
        "jz09": {
            "byteLength": 308384,
            "type": "arraybuffer",
            "uri": "data:application/octet-stream;base64,"
        }
    },
    "images": {
        "sy16051101_png": {
            "name": "sy16051101_png",
            "uri": "data:image/png;base64,"
        },
        "sy16051102_png": {
            "name": "sy16051102_png",
            "uri": "data:image/png;base64,"
        },
        "sy16051104_png": {
            "name": "sy16051104_png",
            "uri": "data:image/png;base64,"
        },
        "sy16051106_png": {
            "name": "sy16051106_png",
            "uri": "data:image/png;base64,"
        },
        "sy16062052_png": {
            "name": "sy16062052_png",
            "uri": "data:image/png;base64,"
        },
        "sy16062092_png": {
            "name": "sy16062092_png",
            "uri": "data:image/png;base64,"
        },
        "sy16062093_png": {
            "name": "sy16062093_png",
            "uri": "data:image/png;base64,"
        }
    },
    "materials": {
        "Material__8114": {
            "name": "Material__8114",
            "technique": "technique1",
            "values": {
                "ambient": "texture_sy16062052_png",
                "diffuse": "texture_sy16062052_png",
                "emission": [
                    0,
                    0,
                    0,
                    1
                ],
                "shininess": 0,
                "specular": [
                    0.9,
                    0.9,
                    0.9,
                    1
                ]
            }
        },
        "sy16051101": {
            "name": "sy16051101",
            "technique": "technique1",
            "values": {
                "ambient": "texture_sy16051101_png",
                "diffuse": "texture_sy16051101_png",
                "emission": [
                    0,
                    0,
                    0,
                    1
                ],
                "shininess": 0,
                "specular": [
                    0.9,
                    0.9,
                    0.9,
                    1
                ]
            }
        },
        "sy16051102": {
            "name": "sy16051102",
            "technique": "technique1",
            "values": {
                "ambient": "texture_sy16051102_png",
                "diffuse": "texture_sy16051102_png",
                "emission": [
                    0,
                    0,
                    0,
                    1
                ],
                "shininess": 0,
                "specular": [
                    0.9,
                    0.9,
                    0.9,
                    1
                ]
            }
        },
        "sy16051104": {
            "name": "sy16051104",
            "technique": "technique1",
            "values": {
                "ambient": "texture_sy16051104_png",
                "diffuse": "texture_sy16051104_png",
                "emission": [
                    0,
                    0,
                    0,
                    1
                ],
                "shininess": 0,
                "specular": [
                    0.9,
                    0.9,
                    0.9,
                    1
                ]
            }
        },
        "sy16051106": {
            "name": "sy16051106",
            "technique": "technique1",
            "values": {
                "ambient": "texture_sy16051106_png",
                "diffuse": "texture_sy16051106_png",
                "emission": [
                    0,
                    0,
                    0,
                    1
                ],
                "shininess": 0,
                "specular": [
                    0.9,
                    0.9,
                    0.9,
                    1
                ]
            }
        },
        "sy16062092": {
            "name": "sy16062092",
            "technique": "technique1",
            "values": {
                "ambient": "texture_sy16062092_png",
                "diffuse": "texture_sy16062092_png",
                "emission": [
                    0,
                    0,
                    0,
                    1
                ],
                "shininess": 0,
                "specular": [
                    0.9,
                    0.9,
                    0.9,
                    1
                ]
            }
        },
        "sy16062093": {
            "name": "sy16062093",
            "technique": "technique1",
            "values": {
                "ambient": "texture_sy16062093_png",
                "diffuse": "texture_sy16062093_png",
                "emission": [
                    0,
                    0,
                    0,
                    1
                ],
                "shininess": 0,
                "specular": [
                    0.9,
                    0.9,
                    0.9,
                    1
                ]
            }
        }
    },
    "meshes": {
        "geom-jz09": {
            "name": "jz09",
            "primitives": [
                {
                    "attributes": {
                        "NORMAL": "accessor_215",
                        "POSITION": "accessor_213",
                        "TEXBINORMAL": "accessor_221",
                        "TEXCOORD_0": "accessor_217",
                        "TEXTANGENT": "accessor_219"
                    },
                    "indices": "accessor_193",
                    "material": "Material__8114",
                    "mode": 4
                },
                {
                    "attributes": {
                        "NORMAL": "accessor_215",
                        "POSITION": "accessor_213",
                        "TEXBINORMAL": "accessor_221",
                        "TEXCOORD_0": "accessor_217",
                        "TEXTANGENT": "accessor_219"
                    },
                    "indices": "accessor_196",
                    "material": "sy16051104",
                    "mode": 4
                },
                {
                    "attributes": {
                        "NORMAL": "accessor_215",
                        "POSITION": "accessor_213",
                        "TEXBINORMAL": "accessor_221",
                        "TEXCOORD_0": "accessor_217",
                        "TEXTANGENT": "accessor_219"
                    },
                    "indices": "accessor_199",
                    "material": "sy16051101",
                    "mode": 4
                },
                {
                    "attributes": {
                        "NORMAL": "accessor_215",
                        "POSITION": "accessor_213",
                        "TEXBINORMAL": "accessor_221",
                        "TEXCOORD_0": "accessor_217",
                        "TEXTANGENT": "accessor_219"
                    },
                    "indices": "accessor_202",
                    "material": "sy16051106",
                    "mode": 4
                },
                {
                    "attributes": {
                        "NORMAL": "accessor_215",
                        "POSITION": "accessor_213",
                        "TEXBINORMAL": "accessor_221",
                        "TEXCOORD_0": "accessor_217",
                        "TEXTANGENT": "accessor_219"
                    },
                    "indices": "accessor_205",
                    "material": "sy16051102",
                    "mode": 4
                },
                {
                    "attributes": {
                        "NORMAL": "accessor_215",
                        "POSITION": "accessor_213",
                        "TEXBINORMAL": "accessor_221",
                        "TEXCOORD_0": "accessor_217",
                        "TEXTANGENT": "accessor_219"
                    },
                    "indices": "accessor_208",
                    "material": "sy16062092",
                    "mode": 4
                },
                {
                    "attributes": {
                        "NORMAL": "accessor_215",
                        "POSITION": "accessor_213",
                        "TEXBINORMAL": "accessor_221",
                        "TEXCOORD_0": "accessor_217",
                        "TEXTANGENT": "accessor_219"
                    },
                    "indices": "accessor_211",
                    "material": "sy16062093",
                    "mode": 4
                }
            ]
        }
    },
    "nodes": {
        "node-jz09": {
            "children": [
                "node_2"
            ],
            "matrix": [
                1,
                0,
                0,
                0,
                0,
                1,
                0,
                0,
                0,
                0,
                1,
                0,
                0,
                0,
                22.1999,
                1
            ],
            "name": "jz09"
        },
        "node_0": {
            "children": [],
            "matrix": [
                1,
                0,
                0,
                0,
                0,
                1,
                0,
                0,
                0,
                0,
                1,
                0,
                0,
                0,
                0,
                1
            ],
            "name": "EnvironmentAmbientLight"
        },
        "node_2": {
            "children": [],
            "matrix": [
                1,
                0,
                0,
                0,
                0,
                1,
                0,
                0,
                0,
                0,
                1,
                0,
                -89.3575,
                -45.971,
                -22.1999,
                1
            ],
            "meshes": [
                "geom-jz09"
            ],
            "name": ""
        },
        "node_3": {
            "children": [
                "node_0",
                "node-jz09"
            ],
            "matrix": [
                1,
                0,
                0,
                0,
                0,
                0,
                -1,
                0,
                0,
                1,
                0,
                0,
                0,
                0,
                0,
                1
            ],
            "name": "Y_UP_Transform"
        }
    },
    "programs": {
        "program_0": {
            "attributes": [
                "a_normal",
                "a_position",
                "a_texcoord0"
            ],
            "fragmentShader": "jz090FS",
            "vertexShader": "jz090VS"
        }
    },
    "samplers": {
        "sampler_0": {
            "magFilter": 9729,
            "minFilter": 9729,
            "wrapS": 10497,
            "wrapT": 10497
        }
    },
    "scene": "defaultScene",
    "scenes": {
        "defaultScene": {
            "nodes": [
                "node_3"
            ]
        }
    },
    "shaders": {
        "jz090FS": {
            "type": 35632,
            "uri": "data:text/plain;base64,"
        },
        "jz090VS": {
            "type": 35633,
            "uri": "data:text/plain;base64,"
        }
    },
    "skins": {},
    "techniques": {
        "technique1": {
            "attributes": {
                "a_normal": "normal",
                "a_position": "position",
                "a_texcoord0": "texcoord0"
            },
            "parameters": {
                "ambient": {
                    "type": 35678
                },
                "diffuse": {
                    "type": 35678
                },
                "emission": {
                    "type": 35666
                },
                "modelViewMatrix": {
                    "semantic": "MODELVIEW",
                    "type": 35676
                },
                "normal": {
                    "semantic": "NORMAL",
                    "type": 35665
                },
                "normalMatrix": {
                    "semantic": "MODELVIEWINVERSETRANSPOSE",
                    "type": 35675
                },
                "position": {
                    "semantic": "POSITION",
                    "type": 35665
                },
                "projectionMatrix": {
                    "semantic": "PROJECTION",
                    "type": 35676
                },
                "shininess": {
                    "type": 5126
                },
                "specular": {
                    "type": 35666
                },
                "texcoord0": {
                    "semantic": "TEXCOORD_0",
                    "type": 35664
                }
            },
            "program": "program_0",
            "states": {
                "enable": [
                    2929,
                    3042
                ],
                "functions": {
                    "blendEquationSeparate": [
                        32774,
                        32774
                    ],
                    "blendFuncSeparate": [
                        1,
                        771,
                        1,
                        771
                    ],
                    "depthMask": false
                }
            },
            "uniforms": {
                "u_ambient": "ambient",
                "u_diffuse": "diffuse",
                "u_emission": "emission",
                "u_modelViewMatrix": "modelViewMatrix",
                "u_normalMatrix": "normalMatrix",
                "u_projectionMatrix": "projectionMatrix",
                "u_shininess": "shininess",
                "u_specular": "specular"
            }
        }
    },
    "textures": {
        "texture_sy16051101_png": {
            "format": 6408,
            "internalFormat": 6408,
            "sampler": "sampler_0",
            "source": "sy16051101_png",
            "target": 3553,
            "type": 5121
        },
        "texture_sy16051102_png": {
            "format": 6408,
            "internalFormat": 6408,
            "sampler": "sampler_0",
            "source": "sy16051102_png",
            "target": 3553,
            "type": 5121
        },
        "texture_sy16051104_png": {
            "format": 6408,
            "internalFormat": 6408,
            "sampler": "sampler_0",
            "source": "sy16051104_png",
            "target": 3553,
            "type": 5121
        },
        "texture_sy16051106_png": {
            "format": 6408,
            "internalFormat": 6408,
            "sampler": "sampler_0",
            "source": "sy16051106_png",
            "target": 3553,
            "type": 5121
        },
        "texture_sy16062052_png": {
            "format": 6408,
            "internalFormat": 6408,
            "sampler": "sampler_0",
            "source": "sy16062052_png",
            "target": 3553,
            "type": 5121
        },
        "texture_sy16062092_png": {
            "format": 6408,
            "internalFormat": 6408,
            "sampler": "sampler_0",
            "source": "sy16062092_png",
            "target": 3553,
            "type": 5121
        },
        "texture_sy16062093_png": {
            "format": 6408,
            "internalFormat": 6408,
            "sampler": "sampler_0",
            "source": "sy16062093_png",
            "target": 3553,
            "type": 5121
        }
    }
}