{
    "accessors": {
        "accessor_166": {
            "bufferView": "bufferView_193",
            "byteOffset": 0,
            "byteStride": 0,
            "componentType": 5123,
            "count": 324,
            "type": "SCALAR"
        },
        "accessor_169": {
            "bufferView": "bufferView_193",
            "byteOffset": 648,
            "byteStride": 0,
            "componentType": 5123,
            "count": 606,
            "type": "SCALAR"
        },
        "accessor_172": {
            "bufferView": "bufferView_193",
            "byteOffset": 1860,
            "byteStride": 0,
            "componentType": 5123,
            "count": 72,
            "type": "SCALAR"
        },
        "accessor_175": {
            "bufferView": "bufferView_193",
            "byteOffset": 2004,
            "byteStride": 0,
            "componentType": 5123,
            "count": 168,
            "type": "SCALAR"
        },
        "accessor_178": {
            "bufferView": "bufferView_193",
            "byteOffset": 2340,
            "byteStride": 0,
            "componentType": 5123,
            "count": 72,
            "type": "SCALAR"
        },
        "accessor_181": {
            "bufferView": "bufferView_193",
            "byteOffset": 2484,
            "byteStride": 0,
            "componentType": 5123,
            "count": 42,
            "type": "SCALAR"
        },
        "accessor_183": {
            "bufferView": "bufferView_194",
            "byteOffset": 0,
            "byteStride": 12,
            "componentType": 5126,
            "count": 1284,
            "max": [
                33.6581,
                7.72652,
                12.2604
            ],
            "min": [
                3.42127,
                -24.9617,
                0.200003
            ],
            "type": "VEC3"
        },
        "accessor_185": {
            "bufferView": "bufferView_194",
            "byteOffset": 15408,
            "byteStride": 12,
            "componentType": 5126,
            "count": 1284,
            "max": [
                0.798187,
                0.798185,
                1
            ],
            "min": [
                -0.798186,
                -0.798186,
                -1
            ],
            "type": "VEC3"
        },
        "accessor_187": {
            "bufferView": "bufferView_194",
            "byteOffset": 30816,
            "byteStride": 8,
            "componentType": 5126,
            "count": 1284,
            "max": [
                10.1399,
                2.46654
            ],
            "min": [
                -9.1399,
                -1.46654
            ],
            "type": "VEC2"
        },
        "accessor_189": {
            "bufferView": "bufferView_194",
            "byteOffset": 41088,
            "byteStride": 12,
            "componentType": 5126,
            "count": 1284,
            "max": [
                0.798181,
                0.798187,
                1
            ],
            "min": [
                -0.798181,
                -0.849826,
                -1
            ],
            "type": "VEC3"
        },
        "accessor_191": {
            "bufferView": "bufferView_194",
            "byteOffset": 56496,
            "byteStride": 12,
            "componentType": 5126,
            "count": 1284,
            "max": [
                0.849826,
                0.798181,
                1
            ],
            "min": [
                -0.798181,
                -0.798181,
                -1
            ],
            "type": "VEC3"
        }
    },
    "animations": {},
    "asset": {
        "generator": "collada2gltf@11bf28f97f1b5380fbefacf862ce7c597873d368",
        "premultipliedAlpha": true,
        "profile": {
            "api": "WebGL",
            "version": "1.0.2"
        },
        "version": 1
    },
    "bufferViews": {
        "bufferView_193": {
            "buffer": "jz21",
            "byteLength": 2568,
            "byteOffset": 0,
            "target": 34963
        },
        "bufferView_194": {
            "buffer": "jz21",
            "byteLength": 71904,
            "byteOffset": 2568,
            "target": 34962
        }
    },
    "buffers": {
        "jz21": {
            "byteLength": 74472,
            "type": "arraybuffer",
            "uri": "data:application/octet-stream;base64,"
        }
    },
    "images": {
        "sy16050902_png": {
            "name": "sy16050902_png",
            "uri": "data:image/png;base64,"
        },
        "sy16051101_png": {
            "name": "sy16051101_png",
            "uri": "data:image/png;base64,"
        },
        "sy16051102_png": {
            "name": "sy16051102_png",
            "uri": "data:image/png;base64,"
        },
        "sy16051103_png": {
            "name": "sy16051103_png",
            "uri": "data:image/png;base64,"
        },
        "sy16051106_png": {
            "name": "sy16051106_png",
            "uri": "data:image/png;base64,"
        },
        "sy16051109_png": {
            "name": "sy16051109_png",
            "uri": "data:image/png;base64,"
        }
    },
    "materials": {
        "sy16050902": {
            "name": "sy16050902",
            "technique": "technique1",
            "values": {
                "ambient": "texture_sy16050902_png",
                "diffuse": "texture_sy16050902_png",
                "emission": [
                    0,
                    0,
                    0,
                    1
                ],
                "shininess": 0,
                "specular": [
                    0.9,
                    0.9,
                    0.9,
                    1
                ]
            }
        },
        "sy16051101": {
            "name": "sy16051101",
            "technique": "technique1",
            "values": {
                "ambient": "texture_sy16051101_png",
                "diffuse": "texture_sy16051101_png",
                "emission": [
                    0,
                    0,
                    0,
                    1
                ],
                "shininess": 0,
                "specular": [
                    0.9,
                    0.9,
                    0.9,
                    1
                ]
            }
        },
        "sy16051102": {
            "name": "sy16051102",
            "technique": "technique1",
            "values": {
                "ambient": "texture_sy16051102_png",
                "diffuse": "texture_sy16051102_png",
                "emission": [
                    0,
                    0,
                    0,
                    1
                ],
                "shininess": 0,
                "specular": [
                    0.9,
                    0.9,
                    0.9,
                    1
                ]
            }
        },
        "sy16051103": {
            "name": "sy16051103",
            "technique": "technique1",
            "values": {
                "ambient": "texture_sy16051103_png",
                "diffuse": "texture_sy16051103_png",
                "emission": [
                    0,
                    0,
                    0,
                    1
                ],
                "shininess": 0,
                "specular": [
                    0.9,
                    0.9,
                    0.9,
                    1
                ]
            }
        },
        "sy16051106": {
            "name": "sy16051106",
            "technique": "technique1",
            "values": {
                "ambient": "texture_sy16051106_png",
                "diffuse": "texture_sy16051106_png",
                "emission": [
                    0,
                    0,
                    0,
                    1
                ],
                "shininess": 0,
                "specular": [
                    0.9,
                    0.9,
                    0.9,
                    1
                ]
            }
        },
        "sy16051109": {
            "name": "sy16051109",
            "technique": "technique1",
            "values": {
                "ambient": "texture_sy16051109_png",
                "diffuse": "texture_sy16051109_png",
                "emission": [
                    0,
                    0,
                    0,
                    1
                ],
                "shininess": 0,
                "specular": [
                    0.9,
                    0.9,
                    0.9,
                    1
                ]
            }
        }
    },
    "meshes": {
        "geom-jz21": {
            "name": "jz21",
            "primitives": [
                {
                    "attributes": {
                        "NORMAL": "accessor_185",
                        "POSITION": "accessor_183",
                        "TEXBINORMAL": "accessor_191",
                        "TEXCOORD_0": "accessor_187",
                        "TEXTANGENT": "accessor_189"
                    },
                    "indices": "accessor_166",
                    "material": "sy16051103",
                    "mode": 4
                },
                {
                    "attributes": {
                        "NORMAL": "accessor_185",
                        "POSITION": "accessor_183",
                        "TEXBINORMAL": "accessor_191",
                        "TEXCOORD_0": "accessor_187",
                        "TEXTANGENT": "accessor_189"
                    },
                    "indices": "accessor_169",
                    "material": "sy16051102",
                    "mode": 4
                },
                {
                    "attributes": {
                        "NORMAL": "accessor_185",
                        "POSITION": "accessor_183",
                        "TEXBINORMAL": "accessor_191",
                        "TEXCOORD_0": "accessor_187",
                        "TEXTANGENT": "accessor_189"
                    },
                    "indices": "accessor_172",
                    "material": "sy16051106",
                    "mode": 4
                },
                {
                    "attributes": {
                        "NORMAL": "accessor_185",
                        "POSITION": "accessor_183",
                        "TEXBINORMAL": "accessor_191",
                        "TEXCOORD_0": "accessor_187",
                        "TEXTANGENT": "accessor_189"
                    },
                    "indices": "accessor_175",
                    "material": "sy16051101",
                    "mode": 4
                },
                {
                    "attributes": {
                        "NORMAL": "accessor_185",
                        "POSITION": "accessor_183",
                        "TEXBINORMAL": "accessor_191",
                        "TEXCOORD_0": "accessor_187",
                        "TEXTANGENT": "accessor_189"
                    },
                    "indices": "accessor_178",
                    "material": "sy16050902",
                    "mode": 4
                },
                {
                    "attributes": {
                        "NORMAL": "accessor_185",
                        "POSITION": "accessor_183",
                        "TEXBINORMAL": "accessor_191",
                        "TEXCOORD_0": "accessor_187",
                        "TEXTANGENT": "accessor_189"
                    },
                    "indices": "accessor_181",
                    "material": "sy16051109",
                    "mode": 4
                }
            ]
        }
    },
    "nodes": {
        "node-jz21": {
            "children": [
                "node_2"
            ],
            "matrix": [
                1,
                0,
                0,
                0,
                0,
                1,
                0,
                0,
                0,
                0,
                1,
                0,
                0,
                0,
                6.23018,
                1
            ],
            "name": "jz21"
        },
        "node_0": {
            "children": [],
            "matrix": [
                1,
                0,
                0,
                0,
                0,
                1,
                0,
                0,
                0,
                0,
                1,
                0,
                0,
                0,
                0,
                1
            ],
            "name": "EnvironmentAmbientLight"
        },
        "node_2": {
            "children": [],
            "matrix": [
                1,
                0,
                0,
                0,
                0,
                1,
                0,
                0,
                0,
                0,
                1,
                0,
                -18.5397,
                8.61758,
                -6.23018,
                1
            ],
            "meshes": [
                "geom-jz21"
            ],
            "name": ""
        },
        "node_3": {
            "children": [
                "node_0",
                "node-jz21"
            ],
            "matrix": [
                1,
                0,
                0,
                0,
                0,
                0,
                -1,
                0,
                0,
                1,
                0,
                0,
                0,
                0,
                0,
                1
            ],
            "name": "Y_UP_Transform"
        }
    },
    "programs": {
        "program_0": {
            "attributes": [
                "a_normal",
                "a_position",
                "a_texcoord0"
            ],
            "fragmentShader": "jz210FS",
            "vertexShader": "jz210VS"
        }
    },
    "samplers": {
        "sampler_0": {
            "magFilter": 9729,
            "minFilter": 9729,
            "wrapS": 10497,
            "wrapT": 10497
        }
    },
    "scene": "defaultScene",
    "scenes": {
        "defaultScene": {
            "nodes": [
                "node_3"
            ]
        }
    },
    "shaders": {
        "jz210FS": {
            "type": 35632,
            "uri": "data:text/plain;base64,"
        },
        "jz210VS": {
            "type": 35633,
            "uri": "data:text/plain;base64,"
        }
    },
    "skins": {},
    "techniques": {
        "technique1": {
            "attributes": {
                "a_normal": "normal",
                "a_position": "position",
                "a_texcoord0": "texcoord0"
            },
            "parameters": {
                "ambient": {
                    "type": 35678
                },
                "diffuse": {
                    "type": 35678
                },
                "emission": {
                    "type": 35666
                },
                "modelViewMatrix": {
                    "semantic": "MODELVIEW",
                    "type": 35676
                },
                "normal": {
                    "semantic": "NORMAL",
                    "type": 35665
                },
                "normalMatrix": {
                    "semantic": "MODELVIEWINVERSETRANSPOSE",
                    "type": 35675
                },
                "position": {
                    "semantic": "POSITION",
                    "type": 35665
                },
                "projectionMatrix": {
                    "semantic": "PROJECTION",
                    "type": 35676
                },
                "shininess": {
                    "type": 5126
                },
                "specular": {
                    "type": 35666
                },
                "texcoord0": {
                    "semantic": "TEXCOORD_0",
                    "type": 35664
                }
            },
            "program": "program_0",
            "states": {
                "enable": [
                    2929,
                    3042
                ],
                "functions": {
                    "blendEquationSeparate": [
                        32774,
                        32774
                    ],
                    "blendFuncSeparate": [
                        1,
                        771,
                        1,
                        771
                    ],
                    "depthMask": false
                }
            },
            "uniforms": {
                "u_ambient": "ambient",
                "u_diffuse": "diffuse",
                "u_emission": "emission",
                "u_modelViewMatrix": "modelViewMatrix",
                "u_normalMatrix": "normalMatrix",
                "u_projectionMatrix": "projectionMatrix",
                "u_shininess": "shininess",
                "u_specular": "specular"
            }
        }
    },
    "textures": {
        "texture_sy16050902_png": {
            "format": 6408,
            "internalFormat": 6408,
            "sampler": "sampler_0",
            "source": "sy16050902_png",
            "target": 3553,
            "type": 5121
        },
        "texture_sy16051101_png": {
            "format": 6408,
            "internalFormat": 6408,
            "sampler": "sampler_0",
            "source": "sy16051101_png",
            "target": 3553,
            "type": 5121
        },
        "texture_sy16051102_png": {
            "format": 6408,
            "internalFormat": 6408,
            "sampler": "sampler_0",
            "source": "sy16051102_png",
            "target": 3553,
            "type": 5121
        },
        "texture_sy16051103_png": {
            "format": 6408,
            "internalFormat": 6408,
            "sampler": "sampler_0",
            "source": "sy16051103_png",
            "target": 3553,
            "type": 5121
        },
        "texture_sy16051106_png": {
            "format": 6408,
            "internalFormat": 6408,
            "sampler": "sampler_0",
            "source": "sy16051106_png",
            "target": 3553,
            "type": 5121
        },
        "texture_sy16051109_png": {
            "format": 6408,
            "internalFormat": 6408,
            "sampler": "sampler_0",
            "source": "sy16051109_png",
            "target": 3553,
            "type": 5121
        }
    }
}