{
    "accessors": {
        "accessor_139": {
            "bufferView": "bufferView_163",
            "byteOffset": 0,
            "byteStride": 0,
            "componentType": 5123,
            "count": 42,
            "type": "SCALAR"
        },
        "accessor_142": {
            "bufferView": "bufferView_163",
            "byteOffset": 84,
            "byteStride": 0,
            "componentType": 5123,
            "count": 30,
            "type": "SCALAR"
        },
        "accessor_145": {
            "bufferView": "bufferView_163",
            "byteOffset": 144,
            "byteStride": 0,
            "componentType": 5123,
            "count": 1479,
            "type": "SCALAR"
        },
        "accessor_148": {
            "bufferView": "bufferView_163",
            "byteOffset": 3102,
            "byteStride": 0,
            "componentType": 5123,
            "count": 396,
            "type": "SCALAR"
        },
        "accessor_151": {
            "bufferView": "bufferView_163",
            "byteOffset": 3894,
            "byteStride": 0,
            "componentType": 5123,
            "count": 54,
            "type": "SCALAR"
        },
        "accessor_153": {
            "bufferView": "bufferView_164",
            "byteOffset": 0,
            "byteStride": 12,
            "componentType": 5126,
            "count": 2001,
            "max": [
                34.5716,
                17.3518,
                18.3714
            ],
            "min": [
                14.6691,
                -12.7184,
                0.200007
            ],
            "type": "VEC3"
        },
        "accessor_155": {
            "bufferView": "bufferView_164",
            "byteOffset": 24012,
            "byteStride": 12,
            "componentType": 5126,
            "count": 2001,
            "max": [
                0.999639,
                0.999639,
                1
            ],
            "min": [
                -0.999639,
                -0.99964,
                -1
            ],
            "type": "VEC3"
        },
        "accessor_157": {
            "bufferView": "bufferView_164",
            "byteOffset": 48024,
            "byteStride": 8,
            "componentType": 5126,
            "count": 2001,
            "max": [
                331793,
                16.9073
            ],
            "min": [
                -17.4521,
                -17.0823
            ],
            "type": "VEC2"
        },
        "accessor_159": {
            "bufferView": "bufferView_164",
            "byteOffset": 64032,
            "byteStride": 12,
            "componentType": 5126,
            "count": 2001,
            "max": [
                0.999639,
                0.999639,
                1
            ],
            "min": [
                -0.99964,
                -0.999639,
                -1
            ],
            "type": "VEC3"
        },
        "accessor_161": {
            "bufferView": "bufferView_164",
            "byteOffset": 88044,
            "byteStride": 12,
            "componentType": 5126,
            "count": 2001,
            "max": [
                0.999639,
                0.999639,
                1
            ],
            "min": [
                -0.999639,
                -0.999639,
                -1
            ],
            "type": "VEC3"
        }
    },
    "animations": {},
    "asset": {
        "generator": "collada2gltf@11bf28f97f1b5380fbefacf862ce7c597873d368",
        "premultipliedAlpha": true,
        "profile": {
            "api": "WebGL",
            "version": "1.0.2"
        },
        "version": 1
    },
    "bufferViews": {
        "bufferView_163": {
            "buffer": "jz32",
            "byteLength": 4004,
            "byteOffset": 0,
            "target": 34963
        },
        "bufferView_164": {
            "buffer": "jz32",
            "byteLength": 112056,
            "byteOffset": 4004,
            "target": 34962
        }
    },
    "buffers": {
        "jz32": {
            "byteLength": 116060,
            "type": "arraybuffer",
            "uri": "data:application/octet-stream;base64,"
        }
    },
    "images": {
        "sy16050902_png": {
            "name": "sy16050902_png",
            "uri": "data:image/png;base64,"
        },
        "sy16051101_png": {
            "name": "sy16051101_png",
            "uri": "data:image/png;base64,"
        },
        "sy16051102_png": {
            "name": "sy16051102_png",
            "uri": "data:image/png;base64,"
        },
        "sy16051104_png": {
            "name": "sy16051104_png",
            "uri": "data:image/png;base64,"
        },
        "sy16051106_png": {
            "name": "sy16051106_png",
            "uri": "data:image/png;base64,"
        }
    },
    "materials": {
        "sy16050902": {
            "name": "sy16050902",
            "technique": "technique1",
            "values": {
                "ambient": "texture_sy16050902_png",
                "diffuse": "texture_sy16050902_png",
                "emission": [
                    0,
                    0,
                    0,
                    1
                ],
                "shininess": 0,
                "specular": [
                    0.9,
                    0.9,
                    0.9,
                    1
                ]
            }
        },
        "sy16051101": {
            "name": "sy16051101",
            "technique": "technique1",
            "values": {
                "ambient": "texture_sy16051101_png",
                "diffuse": "texture_sy16051101_png",
                "emission": [
                    0,
                    0,
                    0,
                    1
                ],
                "shininess": 0,
                "specular": [
                    0.9,
                    0.9,
                    0.9,
                    1
                ]
            }
        },
        "sy16051102": {
            "name": "sy16051102",
            "technique": "technique1",
            "values": {
                "ambient": "texture_sy16051102_png",
                "diffuse": "texture_sy16051102_png",
                "emission": [
                    0,
                    0,
                    0,
                    1
                ],
                "shininess": 0,
                "specular": [
                    0.9,
                    0.9,
                    0.9,
                    1
                ]
            }
        },
        "sy16051104": {
            "name": "sy16051104",
            "technique": "technique1",
            "values": {
                "ambient": "texture_sy16051104_png",
                "diffuse": "texture_sy16051104_png",
                "emission": [
                    0,
                    0,
                    0,
                    1
                ],
                "shininess": 0,
                "specular": [
                    0.9,
                    0.9,
                    0.9,
                    1
                ]
            }
        },
        "sy16051106": {
            "name": "sy16051106",
            "technique": "technique1",
            "values": {
                "ambient": "texture_sy16051106_png",
                "diffuse": "texture_sy16051106_png",
                "emission": [
                    0,
                    0,
                    0,
                    1
                ],
                "shininess": 0,
                "specular": [
                    0.9,
                    0.9,
                    0.9,
                    1
                ]
            }
        }
    },
    "meshes": {
        "geom-jz32": {
            "name": "jz32",
            "primitives": [
                {
                    "attributes": {
                        "NORMAL": "accessor_155",
                        "POSITION": "accessor_153",
                        "TEXBINORMAL": "accessor_161",
                        "TEXCOORD_0": "accessor_157",
                        "TEXTANGENT": "accessor_159"
                    },
                    "indices": "accessor_139",
                    "material": "sy16050902",
                    "mode": 4
                },
                {
                    "attributes": {
                        "NORMAL": "accessor_155",
                        "POSITION": "accessor_153",
                        "TEXBINORMAL": "accessor_161",
                        "TEXCOORD_0": "accessor_157",
                        "TEXTANGENT": "accessor_159"
                    },
                    "indices": "accessor_142",
                    "material": "sy16051102",
                    "mode": 4
                },
                {
                    "attributes": {
                        "NORMAL": "accessor_155",
                        "POSITION": "accessor_153",
                        "TEXBINORMAL": "accessor_161",
                        "TEXCOORD_0": "accessor_157",
                        "TEXTANGENT": "accessor_159"
                    },
                    "indices": "accessor_145",
                    "material": "sy16051104",
                    "mode": 4
                },
                {
                    "attributes": {
                        "NORMAL": "accessor_155",
                        "POSITION": "accessor_153",
                        "TEXBINORMAL": "accessor_161",
                        "TEXCOORD_0": "accessor_157",
                        "TEXTANGENT": "accessor_159"
                    },
                    "indices": "accessor_148",
                    "material": "sy16051106",
                    "mode": 4
                },
                {
                    "attributes": {
                        "NORMAL": "accessor_155",
                        "POSITION": "accessor_153",
                        "TEXBINORMAL": "accessor_161",
                        "TEXCOORD_0": "accessor_157",
                        "TEXTANGENT": "accessor_159"
                    },
                    "indices": "accessor_151",
                    "material": "sy16051101",
                    "mode": 4
                }
            ]
        }
    },
    "nodes": {
        "node-jz32": {
            "children": [
                "node_2"
            ],
            "matrix": [
                1,
                0,
                0,
                0,
                0,
                1,
                0,
                0,
                0,
                0,
                1,
                0,
                0,
                0,
                9.28572,
                1
            ],
            "name": "jz32"
        },
        "node_0": {
            "children": [],
            "matrix": [
                1,
                0,
                0,
                0,
                0,
                1,
                0,
                0,
                0,
                0,
                1,
                0,
                0,
                0,
                0,
                1
            ],
            "name": "EnvironmentAmbientLight"
        },
        "node_2": {
            "children": [],
            "matrix": [
                1,
                0,
                0,
                0,
                0,
                1,
                0,
                0,
                0,
                0,
                1,
                0,
                -24.6204,
                -2.31673,
                -9.28572,
                1
            ],
            "meshes": [
                "geom-jz32"
            ],
            "name": ""
        },
        "node_3": {
            "children": [
                "node_0",
                "node-jz32"
            ],
            "matrix": [
                1,
                0,
                0,
                0,
                0,
                0,
                -1,
                0,
                0,
                1,
                0,
                0,
                0,
                0,
                0,
                1
            ],
            "name": "Y_UP_Transform"
        }
    },
    "programs": {
        "program_0": {
            "attributes": [
                "a_normal",
                "a_position",
                "a_texcoord0"
            ],
            "fragmentShader": "jz320FS",
            "vertexShader": "jz320VS"
        }
    },
    "samplers": {
        "sampler_0": {
            "magFilter": 9729,
            "minFilter": 9729,
            "wrapS": 10497,
            "wrapT": 10497
        }
    },
    "scene": "defaultScene",
    "scenes": {
        "defaultScene": {
            "nodes": [
                "node_3"
            ]
        }
    },
    "shaders": {
        "jz320FS": {
            "type": 35632,
            "uri": "data:text/plain;base64,"
        },
        "jz320VS": {
            "type": 35633,
            "uri": "data:text/plain;base64,"
        }
    },
    "skins": {},
    "techniques": {
        "technique1": {
            "attributes": {
                "a_normal": "normal",
                "a_position": "position",
                "a_texcoord0": "texcoord0"
            },
            "parameters": {
                "ambient": {
                    "type": 35678
                },
                "diffuse": {
                    "type": 35678
                },
                "emission": {
                    "type": 35666
                },
                "modelViewMatrix": {
                    "semantic": "MODELVIEW",
                    "type": 35676
                },
                "normal": {
                    "semantic": "NORMAL",
                    "type": 35665
                },
                "normalMatrix": {
                    "semantic": "MODELVIEWINVERSETRANSPOSE",
                    "type": 35675
                },
                "position": {
                    "semantic": "POSITION",
                    "type": 35665
                },
                "projectionMatrix": {
                    "semantic": "PROJECTION",
                    "type": 35676
                },
                "shininess": {
                    "type": 5126
                },
                "specular": {
                    "type": 35666
                },
                "texcoord0": {
                    "semantic": "TEXCOORD_0",
                    "type": 35664
                }
            },
            "program": "program_0",
            "states": {
                "enable": [
                    2929,
                    3042
                ],
                "functions": {
                    "blendEquationSeparate": [
                        32774,
                        32774
                    ],
                    "blendFuncSeparate": [
                        1,
                        771,
                        1,
                        771
                    ],
                    "depthMask": false
                }
            },
            "uniforms": {
                "u_ambient": "ambient",
                "u_diffuse": "diffuse",
                "u_emission": "emission",
                "u_modelViewMatrix": "modelViewMatrix",
                "u_normalMatrix": "normalMatrix",
                "u_projectionMatrix": "projectionMatrix",
                "u_shininess": "shininess",
                "u_specular": "specular"
            }
        }
    },
    "textures": {
        "texture_sy16050902_png": {
            "format": 6408,
            "internalFormat": 6408,
            "sampler": "sampler_0",
            "source": "sy16050902_png",
            "target": 3553,
            "type": 5121
        },
        "texture_sy16051101_png": {
            "format": 6408,
            "internalFormat": 6408,
            "sampler": "sampler_0",
            "source": "sy16051101_png",
            "target": 3553,
            "type": 5121
        },
        "texture_sy16051102_png": {
            "format": 6408,
            "internalFormat": 6408,
            "sampler": "sampler_0",
            "source": "sy16051102_png",
            "target": 3553,
            "type": 5121
        },
        "texture_sy16051104_png": {
            "format": 6408,
            "internalFormat": 6408,
            "sampler": "sampler_0",
            "source": "sy16051104_png",
            "target": 3553,
            "type": 5121
        },
        "texture_sy16051106_png": {
            "format": 6408,
            "internalFormat": 6408,
            "sampler": "sampler_0",
            "source": "sy16051106_png",
            "target": 3553,
            "type": 5121
        }
    }
}