{
    "accessors": {
        "accessor_193": {
            "bufferView": "bufferView_223",
            "byteOffset": 0,
            "byteStride": 0,
            "componentType": 5123,
            "count": 192,
            "type": "SCALAR"
        },
        "accessor_196": {
            "bufferView": "bufferView_223",
            "byteOffset": 384,
            "byteStride": 0,
            "componentType": 5123,
            "count": 831,
            "type": "SCALAR"
        },
        "accessor_199": {
            "bufferView": "bufferView_223",
            "byteOffset": 2046,
            "byteStride": 0,
            "componentType": 5123,
            "count": 96,
            "type": "SCALAR"
        },
        "accessor_202": {
            "bufferView": "bufferView_223",
            "byteOffset": 2238,
            "byteStride": 0,
            "componentType": 5123,
            "count": 24,
            "type": "SCALAR"
        },
        "accessor_205": {
            "bufferView": "bufferView_223",
            "byteOffset": 2286,
            "byteStride": 0,
            "componentType": 5123,
            "count": 30,
            "type": "SCALAR"
        },
        "accessor_208": {
            "bufferView": "bufferView_223",
            "byteOffset": 2346,
            "byteStride": 0,
            "componentType": 5123,
            "count": 51,
            "type": "SCALAR"
        },
        "accessor_211": {
            "bufferView": "bufferView_223",
            "byteOffset": 2448,
            "byteStride": 0,
            "componentType": 5123,
            "count": 24,
            "type": "SCALAR"
        },
        "accessor_213": {
            "bufferView": "bufferView_224",
            "byteOffset": 0,
            "byteStride": 12,
            "componentType": 5126,
            "count": 1172,
            "max": [
                15.3798,
                -6.5706,
                12.5955
            ],
            "min": [
                -6.29538,
                -33.5694,
                -1.99082e-05
            ],
            "type": "VEC3"
        },
        "accessor_215": {
            "bufferView": "bufferView_224",
            "byteOffset": 14064,
            "byteStride": 12,
            "componentType": 5126,
            "count": 1172,
            "max": [
                0.999971,
                0.999971,
                1
            ],
            "min": [
                -0.999971,
                -0.999971,
                -4.87016e-06
            ],
            "type": "VEC3"
        },
        "accessor_217": {
            "bufferView": "bufferView_224",
            "byteOffset": 28128,
            "byteStride": 8,
            "componentType": 5126,
            "count": 1172,
            "max": [
                5.17741,
                1.33586
            ],
            "min": [
                -0.841798,
                -0.377431
            ],
            "type": "VEC2"
        },
        "accessor_219": {
            "bufferView": "bufferView_224",
            "byteOffset": 37504,
            "byteStride": 12,
            "componentType": 5126,
            "count": 1172,
            "max": [
                0.999999,
                0.999971,
                1
            ],
            "min": [
                -0.999971,
                -0.999971,
                -1
            ],
            "type": "VEC3"
        },
        "accessor_221": {
            "bufferView": "bufferView_224",
            "byteOffset": 51568,
            "byteStride": 12,
            "componentType": 5126,
            "count": 1172,
            "max": [
                0.999971,
                0.999971,
                1
            ],
            "min": [
                -0.999971,
                -0.999999,
                -1
            ],
            "type": "VEC3"
        }
    },
    "animations": {},
    "asset": {
        "generator": "collada2gltf@11bf28f97f1b5380fbefacf862ce7c597873d368",
        "premultipliedAlpha": true,
        "profile": {
            "api": "WebGL",
            "version": "1.0.2"
        },
        "version": 1
    },
    "bufferViews": {
        "bufferView_223": {
            "buffer": "jz41",
            "byteLength": 2496,
            "byteOffset": 0,
            "target": 34963
        },
        "bufferView_224": {
            "buffer": "jz41",
            "byteLength": 65632,
            "byteOffset": 2496,
            "target": 34962
        }
    },
    "buffers": {
        "jz41": {
            "byteLength": 68128,
            "type": "arraybuffer",
            "uri": "data:application/octet-stream;base64,"
        }
    },
    "images": {
        "sy16062059_png": {
            "name": "sy16062059_png",
            "uri": "data:image/png;base64,"
        },
        "sy16062060_png": {
            "name": "sy16062060_png",
            "uri": "data:image/png;base64,"
        },
        "sy16062061_png": {
            "name": "sy16062061_png",
            "uri": "data:image/png;base64,"
        },
        "sy16062062_png": {
            "name": "sy16062062_png",
            "uri": "data:image/png;base64,"
        },
        "sy16062063_png": {
            "name": "sy16062063_png",
            "uri": "data:image/png;base64,"
        },
        "sy16062064_png": {
            "name": "sy16062064_png",
            "uri": "data:image/png;base64,"
        },
        "sy16062065_png": {
            "name": "sy16062065_png",
            "uri": "data:image/png;base64,"
        }
    },
    "materials": {
        "sy16062059": {
            "name": "sy16062059",
            "technique": "technique1",
            "values": {
                "ambient": "texture_sy16062059_png",
                "diffuse": "texture_sy16062059_png",
                "emission": [
                    0,
                    0,
                    0,
                    1
                ],
                "shininess": 0,
                "specular": [
                    0.9,
                    0.9,
                    0.9,
                    1
                ]
            }
        },
        "sy16062060": {
            "name": "sy16062060",
            "technique": "technique1",
            "values": {
                "ambient": "texture_sy16062060_png",
                "diffuse": "texture_sy16062060_png",
                "emission": [
                    0,
                    0,
                    0,
                    1
                ],
                "shininess": 0,
                "specular": [
                    0.9,
                    0.9,
                    0.9,
                    1
                ]
            }
        },
        "sy16062061": {
            "name": "sy16062061",
            "technique": "technique1",
            "values": {
                "ambient": "texture_sy16062061_png",
                "diffuse": "texture_sy16062061_png",
                "emission": [
                    0,
                    0,
                    0,
                    1
                ],
                "shininess": 0,
                "specular": [
                    0.9,
                    0.9,
                    0.9,
                    1
                ]
            }
        },
        "sy16062062": {
            "name": "sy16062062",
            "technique": "technique1",
            "values": {
                "ambient": "texture_sy16062062_png",
                "diffuse": "texture_sy16062062_png",
                "emission": [
                    0,
                    0,
                    0,
                    1
                ],
                "shininess": 0,
                "specular": [
                    0.9,
                    0.9,
                    0.9,
                    1
                ]
            }
        },
        "sy16062063": {
            "name": "sy16062063",
            "technique": "technique1",
            "values": {
                "ambient": "texture_sy16062063_png",
                "diffuse": "texture_sy16062063_png",
                "emission": [
                    0,
                    0,
                    0,
                    1
                ],
                "shininess": 0,
                "specular": [
                    0.9,
                    0.9,
                    0.9,
                    1
                ]
            }
        },
        "sy16062064": {
            "name": "sy16062064",
            "technique": "technique1",
            "values": {
                "ambient": "texture_sy16062064_png",
                "diffuse": "texture_sy16062064_png",
                "emission": [
                    0,
                    0,
                    0,
                    1
                ],
                "shininess": 0,
                "specular": [
                    0.9,
                    0.9,
                    0.9,
                    1
                ]
            }
        },
        "sy16062065": {
            "name": "sy16062065",
            "technique": "technique1",
            "values": {
                "ambient": "texture_sy16062065_png",
                "diffuse": "texture_sy16062065_png",
                "emission": [
                    0,
                    0,
                    0,
                    1
                ],
                "shininess": 0,
                "specular": [
                    0.9,
                    0.9,
                    0.9,
                    1
                ]
            }
        }
    },
    "meshes": {
        "geom-jz41": {
            "name": "jz41",
            "primitives": [
                {
                    "attributes": {
                        "NORMAL": "accessor_215",
                        "POSITION": "accessor_213",
                        "TEXBINORMAL": "accessor_221",
                        "TEXCOORD_0": "accessor_217",
                        "TEXTANGENT": "accessor_219"
                    },
                    "indices": "accessor_193",
                    "material": "sy16062059",
                    "mode": 4
                },
                {
                    "attributes": {
                        "NORMAL": "accessor_215",
                        "POSITION": "accessor_213",
                        "TEXBINORMAL": "accessor_221",
                        "TEXCOORD_0": "accessor_217",
                        "TEXTANGENT": "accessor_219"
                    },
                    "indices": "accessor_196",
                    "material": "sy16062062",
                    "mode": 4
                },
                {
                    "attributes": {
                        "NORMAL": "accessor_215",
                        "POSITION": "accessor_213",
                        "TEXBINORMAL": "accessor_221",
                        "TEXCOORD_0": "accessor_217",
                        "TEXTANGENT": "accessor_219"
                    },
                    "indices": "accessor_199",
                    "material": "sy16062063",
                    "mode": 4
                },
                {
                    "attributes": {
                        "NORMAL": "accessor_215",
                        "POSITION": "accessor_213",
                        "TEXBINORMAL": "accessor_221",
                        "TEXCOORD_0": "accessor_217",
                        "TEXTANGENT": "accessor_219"
                    },
                    "indices": "accessor_202",
                    "material": "sy16062060",
                    "mode": 4
                },
                {
                    "attributes": {
                        "NORMAL": "accessor_215",
                        "POSITION": "accessor_213",
                        "TEXBINORMAL": "accessor_221",
                        "TEXCOORD_0": "accessor_217",
                        "TEXTANGENT": "accessor_219"
                    },
                    "indices": "accessor_205",
                    "material": "sy16062061",
                    "mode": 4
                },
                {
                    "attributes": {
                        "NORMAL": "accessor_215",
                        "POSITION": "accessor_213",
                        "TEXBINORMAL": "accessor_221",
                        "TEXCOORD_0": "accessor_217",
                        "TEXTANGENT": "accessor_219"
                    },
                    "indices": "accessor_208",
                    "material": "sy16062064",
                    "mode": 4
                },
                {
                    "attributes": {
                        "NORMAL": "accessor_215",
                        "POSITION": "accessor_213",
                        "TEXBINORMAL": "accessor_221",
                        "TEXCOORD_0": "accessor_217",
                        "TEXTANGENT": "accessor_219"
                    },
                    "indices": "accessor_211",
                    "material": "sy16062065",
                    "mode": 4
                }
            ]
        }
    },
    "nodes": {
        "node-jz41": {
            "children": [
                "node_2"
            ],
            "matrix": [
                1,
                0,
                0,
                0,
                0,
                1,
                0,
                0,
                0,
                0,
                1,
                0,
                0,
                0,
                6.29775,
                1
            ],
            "name": "jz41"
        },
        "node_0": {
            "children": [],
            "matrix": [
                1,
                0,
                0,
                0,
                0,
                1,
                0,
                0,
                0,
                0,
                1,
                0,
                0,
                0,
                0,
                1
            ],
            "name": "EnvironmentAmbientLight"
        },
        "node_2": {
            "children": [],
            "matrix": [
                1,
                0,
                0,
                0,
                0,
                1,
                0,
                0,
                0,
                0,
                1,
                0,
                -4.54221,
                20.07,
                -6.29775,
                1
            ],
            "meshes": [
                "geom-jz41"
            ],
            "name": ""
        },
        "node_3": {
            "children": [
                "node_0",
                "node-jz41"
            ],
            "matrix": [
                1,
                0,
                0,
                0,
                0,
                0,
                -1,
                0,
                0,
                1,
                0,
                0,
                0,
                0,
                0,
                1
            ],
            "name": "Y_UP_Transform"
        }
    },
    "programs": {
        "program_0": {
            "attributes": [
                "a_normal",
                "a_position",
                "a_texcoord0"
            ],
            "fragmentShader": "jz410FS",
            "vertexShader": "jz410VS"
        }
    },
    "samplers": {
        "sampler_0": {
            "magFilter": 9729,
            "minFilter": 9729,
            "wrapS": 10497,
            "wrapT": 10497
        }
    },
    "scene": "defaultScene",
    "scenes": {
        "defaultScene": {
            "nodes": [
                "node_3"
            ]
        }
    },
    "shaders": {
        "jz410FS": {
            "type": 35632,
            "uri": "data:text/plain;base64,"
        },
        "jz410VS": {
            "type": 35633,
            "uri": "data:text/plain;base64,"
        }
    },
    "skins": {},
    "techniques": {
        "technique1": {
            "attributes": {
                "a_normal": "normal",
                "a_position": "position",
                "a_texcoord0": "texcoord0"
            },
            "parameters": {
                "ambient": {
                    "type": 35678
                },
                "diffuse": {
                    "type": 35678
                },
                "emission": {
                    "type": 35666
                },
                "modelViewMatrix": {
                    "semantic": "MODELVIEW",
                    "type": 35676
                },
                "normal": {
                    "semantic": "NORMAL",
                    "type": 35665
                },
                "normalMatrix": {
                    "semantic": "MODELVIEWINVERSETRANSPOSE",
                    "type": 35675
                },
                "position": {
                    "semantic": "POSITION",
                    "type": 35665
                },
                "projectionMatrix": {
                    "semantic": "PROJECTION",
                    "type": 35676
                },
                "shininess": {
                    "type": 5126
                },
                "specular": {
                    "type": 35666
                },
                "texcoord0": {
                    "semantic": "TEXCOORD_0",
                    "type": 35664
                }
            },
            "program": "program_0",
            "states": {
                "enable": [
                    2929,
                    3042
                ],
                "functions": {
                    "blendEquationSeparate": [
                        32774,
                        32774
                    ],
                    "blendFuncSeparate": [
                        1,
                        771,
                        1,
                        771
                    ],
                    "depthMask": false
                }
            },
            "uniforms": {
                "u_ambient": "ambient",
                "u_diffuse": "diffuse",
                "u_emission": "emission",
                "u_modelViewMatrix": "modelViewMatrix",
                "u_normalMatrix": "normalMatrix",
                "u_projectionMatrix": "projectionMatrix",
                "u_shininess": "shininess",
                "u_specular": "specular"
            }
        }
    },
    "textures": {
        "texture_sy16062059_png": {
            "format": 6408,
            "internalFormat": 6408,
            "sampler": "sampler_0",
            "source": "sy16062059_png",
            "target": 3553,
            "type": 5121
        },
        "texture_sy16062060_png": {
            "format": 6408,
            "internalFormat": 6408,
            "sampler": "sampler_0",
            "source": "sy16062060_png",
            "target": 3553,
            "type": 5121
        },
        "texture_sy16062061_png": {
            "format": 6408,
            "internalFormat": 6408,
            "sampler": "sampler_0",
            "source": "sy16062061_png",
            "target": 3553,
            "type": 5121
        },
        "texture_sy16062062_png": {
            "format": 6408,
            "internalFormat": 6408,
            "sampler": "sampler_0",
            "source": "sy16062062_png",
            "target": 3553,
            "type": 5121
        },
        "texture_sy16062063_png": {
            "format": 6408,
            "internalFormat": 6408,
            "sampler": "sampler_0",
            "source": "sy16062063_png",
            "target": 3553,
            "type": 5121
        },
        "texture_sy16062064_png": {
            "format": 6408,
            "internalFormat": 6408,
            "sampler": "sampler_0",
            "source": "sy16062064_png",
            "target": 3553,
            "type": 5121
        },
        "texture_sy16062065_png": {
            "format": 6408,
            "internalFormat": 6408,
            "sampler": "sampler_0",
            "source": "sy16062065_png",
            "target": 3553,
            "type": 5121
        }
    }
}