{
    "accessors": {
        "accessor_140": {
            "bufferView": "bufferView_169",
            "byteOffset": 0,
            "byteStride": 0,
            "componentType": 5123,
            "count": 7395,
            "type": "SCALAR"
        },
        "accessor_143": {
            "bufferView": "bufferView_169",
            "byteOffset": 14790,
            "byteStride": 0,
            "componentType": 5123,
            "count": 216,
            "type": "SCALAR"
        },
        "accessor_146": {
            "bufferView": "bufferView_169",
            "byteOffset": 15222,
            "byteStride": 0,
            "componentType": 5123,
            "count": 1332,
            "type": "SCALAR"
        },
        "accessor_149": {
            "bufferView": "bufferView_169",
            "byteOffset": 17886,
            "byteStride": 0,
            "componentType": 5123,
            "count": 1311,
            "type": "SCALAR"
        },
        "accessor_152": {
            "bufferView": "bufferView_169",
            "byteOffset": 20508,
            "byteStride": 0,
            "componentType": 5123,
            "count": 69,
            "type": "SCALAR"
        },
        "accessor_155": {
            "bufferView": "bufferView_169",
            "byteOffset": 20646,
            "byteStride": 0,
            "componentType": 5123,
            "count": 138,
            "type": "SCALAR"
        },
        "accessor_158": {
            "bufferView": "bufferView_169",
            "byteOffset": 20922,
            "byteStride": 0,
            "componentType": 5123,
            "count": 1056,
            "type": "SCALAR"
        },
        "accessor_161": {
            "bufferView": "bufferView_169",
            "byteOffset": 23034,
            "byteStride": 0,
            "componentType": 5123,
            "count": 183,
            "type": "SCALAR"
        },
        "accessor_163": {
            "bufferView": "bufferView_170",
            "byteOffset": 0,
            "byteStride": 12,
            "componentType": 5126,
            "count": 11374,
            "max": [
                41.1781,
                -16.4338,
                125.008
            ],
            "min": [
                -59.283,
                -114.022,
                -0.0376937
            ],
            "type": "VEC3"
        },
        "accessor_165": {
            "bufferView": "bufferView_170",
            "byteOffset": 136488,
            "byteStride": 12,
            "componentType": 5126,
            "count": 11374,
            "max": [
                1,
                0.999848,
                1
            ],
            "min": [
                -0.999848,
                -1,
                -1
            ],
            "type": "VEC3"
        },
        "accessor_167": {
            "bufferView": "bufferView_170",
            "byteOffset": 272976,
            "byteStride": 8,
            "componentType": 5126,
            "count": 11374,
            "max": [
                3.02233,
                3.2808
            ],
            "min": [
                -2.01499,
                -9.30486
            ],
            "type": "VEC2"
        }
    },
    "animations": {},
    "asset": {
        "generator": "collada2gltf@11bf28f97f1b5380fbefacf862ce7c597873d368",
        "premultipliedAlpha": true,
        "profile": {
            "api": "WebGL",
            "version": "1.0.2"
        },
        "version": 1
    },
    "bufferViews": {
        "bufferView_169": {
            "buffer": "jz44",
            "byteLength": 23400,
            "byteOffset": 0,
            "target": 34963
        },
        "bufferView_170": {
            "buffer": "jz44",
            "byteLength": 363968,
            "byteOffset": 23400,
            "target": 34962
        }
    },
    "buffers": {
        "jz44": {
            "byteLength": 387368,
            "type": "arraybuffer",
            "uri": "data:application/octet-stream;base64,"
        }
    },
    "images": {
        "sy16050902_png": {
            "name": "sy16050902_png",
            "uri": "data:image/png;base64,"
        },
        "sy16051101_png": {
            "name": "sy16051101_png",
            "uri": "data:image/png;base64,"
        },
        "sy16051102_png": {
            "name": "sy16051102_png",
            "uri": "data:image/png;base64,"
        },
        "sy16051103_png": {
            "name": "sy16051103_png",
            "uri": "data:image/png;base64,"
        },
        "sy16051104_png": {
            "name": "sy16051104_png",
            "uri": "data:image/png;base64,"
        },
        "sy16051106_png": {
            "name": "sy16051106_png",
            "uri": "data:image/png;base64,"
        },
        "sy16051122_png": {
            "name": "sy16051122_png",
            "uri": "data:image/png;base64,"
        },
        "sy16051142_png": {
            "name": "sy16051142_png",
            "uri": "data:image/png;base64,"
        }
    },
    "materials": {
        "sy16050902": {
            "name": "sy16050902",
            "technique": "technique1",
            "values": {
                "ambient": "texture_sy16050902_png",
                "diffuse": "texture_sy16050902_png",
                "emission": [
                    0,
                    0,
                    0,
                    1
                ],
                "shininess": 0,
                "specular": [
                    0.9,
                    0.9,
                    0.9,
                    1
                ]
            }
        },
        "sy16051101": {
            "name": "sy16051101",
            "technique": "technique1",
            "values": {
                "ambient": "texture_sy16051101_png",
                "diffuse": "texture_sy16051101_png",
                "emission": [
                    0,
                    0,
                    0,
                    1
                ],
                "shininess": 0,
                "specular": [
                    0.9,
                    0.9,
                    0.9,
                    1
                ]
            }
        },
        "sy16051102": {
            "name": "sy16051102",
            "technique": "technique1",
            "values": {
                "ambient": "texture_sy16051102_png",
                "diffuse": "texture_sy16051102_png",
                "emission": [
                    0,
                    0,
                    0,
                    1
                ],
                "shininess": 0,
                "specular": [
                    0.9,
                    0.9,
                    0.9,
                    1
                ]
            }
        },
        "sy16051103": {
            "name": "sy16051103",
            "technique": "technique1",
            "values": {
                "ambient": "texture_sy16051103_png",
                "diffuse": "texture_sy16051103_png",
                "emission": [
                    0,
                    0,
                    0,
                    1
                ],
                "shininess": 0,
                "specular": [
                    0.9,
                    0.9,
                    0.9,
                    1
                ]
            }
        },
        "sy16051104": {
            "name": "sy16051104",
            "technique": "technique1",
            "values": {
                "ambient": "texture_sy16051104_png",
                "diffuse": "texture_sy16051104_png",
                "emission": [
                    0,
                    0,
                    0,
                    1
                ],
                "shininess": 0,
                "specular": [
                    0.9,
                    0.9,
                    0.9,
                    1
                ]
            }
        },
        "sy16051106": {
            "name": "sy16051106",
            "technique": "technique1",
            "values": {
                "ambient": "texture_sy16051106_png",
                "diffuse": "texture_sy16051106_png",
                "emission": [
                    0,
                    0,
                    0,
                    1
                ],
                "shininess": 0,
                "specular": [
                    0.9,
                    0.9,
                    0.9,
                    1
                ]
            }
        },
        "sy16051122": {
            "name": "sy16051122",
            "technique": "technique1",
            "values": {
                "ambient": "texture_sy16051122_png",
                "diffuse": "texture_sy16051122_png",
                "emission": [
                    0,
                    0,
                    0,
                    1
                ],
                "shininess": 0,
                "specular": [
                    0.9,
                    0.9,
                    0.9,
                    1
                ]
            }
        },
        "sy16051142": {
            "name": "sy16051142",
            "technique": "technique1",
            "values": {
                "ambient": "texture_sy16051142_png",
                "diffuse": "texture_sy16051142_png",
                "emission": [
                    0,
                    0,
                    0,
                    1
                ],
                "shininess": 0,
                "specular": [
                    0.9,
                    0.9,
                    0.9,
                    1
                ]
            }
        }
    },
    "meshes": {
        "geom-jz44": {
            "name": "jz44",
            "primitives": [
                {
                    "attributes": {
                        "NORMAL": "accessor_165",
                        "POSITION": "accessor_163",
                        "TEXCOORD_0": "accessor_167"
                    },
                    "indices": "accessor_140",
                    "material": "sy16051104",
                    "mode": 4
                },
                {
                    "attributes": {
                        "NORMAL": "accessor_165",
                        "POSITION": "accessor_163",
                        "TEXCOORD_0": "accessor_167"
                    },
                    "indices": "accessor_143",
                    "material": "sy16051122",
                    "mode": 4
                },
                {
                    "attributes": {
                        "NORMAL": "accessor_165",
                        "POSITION": "accessor_163",
                        "TEXCOORD_0": "accessor_167"
                    },
                    "indices": "accessor_146",
                    "material": "sy16051106",
                    "mode": 4
                },
                {
                    "attributes": {
                        "NORMAL": "accessor_165",
                        "POSITION": "accessor_163",
                        "TEXCOORD_0": "accessor_167"
                    },
                    "indices": "accessor_149",
                    "material": "sy16051102",
                    "mode": 4
                },
                {
                    "attributes": {
                        "NORMAL": "accessor_165",
                        "POSITION": "accessor_163",
                        "TEXCOORD_0": "accessor_167"
                    },
                    "indices": "accessor_152",
                    "material": "sy16051142",
                    "mode": 4
                },
                {
                    "attributes": {
                        "NORMAL": "accessor_165",
                        "POSITION": "accessor_163",
                        "TEXCOORD_0": "accessor_167"
                    },
                    "indices": "accessor_155",
                    "material": "sy16050902",
                    "mode": 4
                },
                {
                    "attributes": {
                        "NORMAL": "accessor_165",
                        "POSITION": "accessor_163",
                        "TEXCOORD_0": "accessor_167"
                    },
                    "indices": "accessor_158",
                    "material": "sy16051103",
                    "mode": 4
                },
                {
                    "attributes": {
                        "NORMAL": "accessor_165",
                        "POSITION": "accessor_163",
                        "TEXCOORD_0": "accessor_167"
                    },
                    "indices": "accessor_161",
                    "material": "sy16051101",
                    "mode": 4
                }
            ]
        }
    },
    "nodes": {
        "node-jz44": {
            "children": [
                "node_2"
            ],
            "matrix": [
                1,
                -9.79e-15,
                0.000196457,
                0,
                -3.14938e-08,
                1,
                0.000160309,
                0,
                -0.000196457,
                -0.000160309,
                1,
                0,
                0,
                0,
                62.509,
                1
            ],
            "name": "jz44"
        },
        "node_0": {
            "children": [],
            "matrix": [
                1,
                0,
                0,
                0,
                0,
                1,
                0,
                0,
                0,
                0,
                1,
                0,
                0,
                0,
                0,
                1
            ],
            "name": "EnvironmentAmbientLight"
        },
        "node_2": {
            "children": [],
            "matrix": [
                1,
                0,
                0,
                0,
                0,
                1,
                0,
                0,
                0,
                0,
                1,
                0,
                9.05243,
                65.228,
                -62.4852,
                1
            ],
            "meshes": [
                "geom-jz44"
            ],
            "name": ""
        },
        "node_3": {
            "children": [
                "node_0",
                "node-jz44"
            ],
            "matrix": [
                1,
                0,
                0,
                0,
                0,
                0,
                -1,
                0,
                0,
                1,
                0,
                0,
                0,
                0,
                0,
                1
            ],
            "name": "Y_UP_Transform"
        }
    },
    "programs": {
        "program_0": {
            "attributes": [
                "a_normal",
                "a_position",
                "a_texcoord0"
            ],
            "fragmentShader": "jz440FS",
            "vertexShader": "jz440VS"
        }
    },
    "samplers": {
        "sampler_0": {
            "magFilter": 9729,
            "minFilter": 9729,
            "wrapS": 10497,
            "wrapT": 10497
        }
    },
    "scene": "defaultScene",
    "scenes": {
        "defaultScene": {
            "nodes": [
                "node_3"
            ]
        }
    },
    "shaders": {
        "jz440FS": {
            "type": 35632,
            "uri": "data:text/plain;base64,"
        },
        "jz440VS": {
            "type": 35633,
            "uri": "data:text/plain;base64,"
        }
    },
    "skins": {},
    "techniques": {
        "technique1": {
            "attributes": {
                "a_normal": "normal",
                "a_position": "position",
                "a_texcoord0": "texcoord0"
            },
            "parameters": {
                "ambient": {
                    "type": 35678
                },
                "diffuse": {
                    "type": 35678
                },
                "emission": {
                    "type": 35666
                },
                "modelViewMatrix": {
                    "semantic": "MODELVIEW",
                    "type": 35676
                },
                "normal": {
                    "semantic": "NORMAL",
                    "type": 35665
                },
                "normalMatrix": {
                    "semantic": "MODELVIEWINVERSETRANSPOSE",
                    "type": 35675
                },
                "position": {
                    "semantic": "POSITION",
                    "type": 35665
                },
                "projectionMatrix": {
                    "semantic": "PROJECTION",
                    "type": 35676
                },
                "shininess": {
                    "type": 5126
                },
                "specular": {
                    "type": 35666
                },
                "texcoord0": {
                    "semantic": "TEXCOORD_0",
                    "type": 35664
                }
            },
            "program": "program_0",
            "states": {
                "enable": [
                    2929,
                    2884
                ]
            },
            "uniforms": {
                "u_ambient": "ambient",
                "u_diffuse": "diffuse",
                "u_emission": "emission",
                "u_modelViewMatrix": "modelViewMatrix",
                "u_normalMatrix": "normalMatrix",
                "u_projectionMatrix": "projectionMatrix",
                "u_shininess": "shininess",
                "u_specular": "specular"
            }
        }
    },
    "textures": {
        "texture_sy16050902_png": {
            "format": 6408,
            "internalFormat": 6408,
            "sampler": "sampler_0",
            "source": "sy16050902_png",
            "target": 3553,
            "type": 5121
        },
        "texture_sy16051101_png": {
            "format": 6408,
            "internalFormat": 6408,
            "sampler": "sampler_0",
            "source": "sy16051101_png",
            "target": 3553,
            "type": 5121
        },
        "texture_sy16051102_png": {
            "format": 6408,
            "internalFormat": 6408,
            "sampler": "sampler_0",
            "source": "sy16051102_png",
            "target": 3553,
            "type": 5121
        },
        "texture_sy16051103_png": {
            "format": 6408,
            "internalFormat": 6408,
            "sampler": "sampler_0",
            "source": "sy16051103_png",
            "target": 3553,
            "type": 5121
        },
        "texture_sy16051104_png": {
            "format": 6408,
            "internalFormat": 6408,
            "sampler": "sampler_0",
            "source": "sy16051104_png",
            "target": 3553,
            "type": 5121
        },
        "texture_sy16051106_png": {
            "format": 6408,
            "internalFormat": 6408,
            "sampler": "sampler_0",
            "source": "sy16051106_png",
            "target": 3553,
            "type": 5121
        },
        "texture_sy16051122_png": {
            "format": 6408,
            "internalFormat": 6408,
            "sampler": "sampler_0",
            "source": "sy16051122_png",
            "target": 3553,
            "type": 5121
        },
        "texture_sy16051142_png": {
            "format": 6408,
            "internalFormat": 6408,
            "sampler": "sampler_0",
            "source": "sy16051142_png",
            "target": 3553,
            "type": 5121
        }
    }
}