{
    "accessors": {
        "accessor_139": {
            "bufferView": "bufferView_163",
            "byteOffset": 0,
            "byteStride": 0,
            "componentType": 5123,
            "count": 102,
            "type": "SCALAR"
        },
        "accessor_142": {
            "bufferView": "bufferView_163",
            "byteOffset": 204,
            "byteStride": 0,
            "componentType": 5123,
            "count": 24,
            "type": "SCALAR"
        },
        "accessor_145": {
            "bufferView": "bufferView_163",
            "byteOffset": 252,
            "byteStride": 0,
            "componentType": 5123,
            "count": 6,
            "type": "SCALAR"
        },
        "accessor_148": {
            "bufferView": "bufferView_163",
            "byteOffset": 264,
            "byteStride": 0,
            "componentType": 5123,
            "count": 24,
            "type": "SCALAR"
        },
        "accessor_151": {
            "bufferView": "bufferView_163",
            "byteOffset": 312,
            "byteStride": 0,
            "componentType": 5123,
            "count": 120,
            "type": "SCALAR"
        },
        "accessor_153": {
            "bufferView": "bufferView_164",
            "byteOffset": 0,
            "byteStride": 12,
            "componentType": 5126,
            "count": 276,
            "max": [
                22.603,
                10.0977,
                19.3562
            ],
            "min": [
                4.27599,
                -8.2293,
                -7.83481e-07
            ],
            "type": "VEC3"
        },
        "accessor_155": {
            "bufferView": "bufferView_164",
            "byteOffset": 3312,
            "byteStride": 12,
            "componentType": 5126,
            "count": 276,
            "max": [
                0.991012,
                0.991012,
                1
            ],
            "min": [
                -0.991012,
                -0.991013,
                -1
            ],
            "type": "VEC3"
        },
        "accessor_157": {
            "bufferView": "bufferView_164",
            "byteOffset": 6624,
            "byteStride": 8,
            "componentType": 5126,
            "count": 276,
            "max": [
                11.994,
                0.999501
            ],
            "min": [
                -0.014996,
                -3.9975
            ],
            "type": "VEC2"
        },
        "accessor_159": {
            "bufferView": "bufferView_164",
            "byteOffset": 8832,
            "byteStride": 12,
            "componentType": 5126,
            "count": 276,
            "max": [
                0.991013,
                0.991012,
                4.84958e-06
            ],
            "min": [
                -0.991011,
                -0.991011,
                -2.64198e-06
            ],
            "type": "VEC3"
        },
        "accessor_161": {
            "bufferView": "bufferView_164",
            "byteOffset": 12144,
            "byteStride": 12,
            "componentType": 5126,
            "count": 276,
            "max": [
                0.779772,
                0.779772,
                1
            ],
            "min": [
                -0.779772,
                -0.991011,
                -1
            ],
            "type": "VEC3"
        }
    },
    "animations": {},
    "asset": {
        "generator": "collada2gltf@11bf28f97f1b5380fbefacf862ce7c597873d368",
        "premultipliedAlpha": true,
        "profile": {
            "api": "WebGL",
            "version": "1.0.2"
        },
        "version": 1
    },
    "bufferViews": {
        "bufferView_163": {
            "buffer": "jz50",
            "byteLength": 552,
            "byteOffset": 0,
            "target": 34963
        },
        "bufferView_164": {
            "buffer": "jz50",
            "byteLength": 15456,
            "byteOffset": 552,
            "target": 34962
        }
    },
    "buffers": {
        "jz50": {
            "byteLength": 16008,
            "type": "arraybuffer",
            "uri": "data:application/octet-stream;base64,"
        }
    },
    "images": {
        "sy16062023_png": {
            "name": "sy16062023_png",
            "uri": "data:image/png;base64,"
        },
        "sy16062050_png": {
            "name": "sy16062050_png",
            "uri": "data:image/png;base64,"
        },
        "sy16062052_png": {
            "name": "sy16062052_png",
            "uri": "data:image/png;base64,"
        },
        "sy16062057_png": {
            "name": "sy16062057_png",
            "uri": "data:image/png;base64,"
        },
        "sy16062058_png": {
            "name": "sy16062058_png",
            "uri": "data:image/png;base64,"
        }
    },
    "materials": {
        "sy16062023": {
            "name": "sy16062023",
            "technique": "technique1",
            "values": {
                "ambient": "texture_sy16062023_png",
                "diffuse": "texture_sy16062023_png",
                "emission": [
                    0,
                    0,
                    0,
                    1
                ],
                "shininess": 0,
                "specular": [
                    0.9,
                    0.9,
                    0.9,
                    1
                ]
            }
        },
        "sy16062050": {
            "name": "sy16062050",
            "technique": "technique2",
            "values": {
                "ambient": "texture_sy16062050_png",
                "diffuse": "texture_sy16062050_png",
                "emission": [
                    0,
                    0,
                    0,
                    1
                ],
                "shininess": 0,
                "specular": [
                    0.9,
                    0.9,
                    0.9,
                    1
                ]
            }
        },
        "sy16062052": {
            "name": "sy16062052",
            "technique": "technique2",
            "values": {
                "ambient": "texture_sy16062052_png",
                "diffuse": "texture_sy16062052_png",
                "emission": [
                    0,
                    0,
                    0,
                    1
                ],
                "shininess": 0,
                "specular": [
                    0.9,
                    0.9,
                    0.9,
                    1
                ]
            }
        },
        "sy16062057": {
            "name": "sy16062057",
            "technique": "technique2",
            "values": {
                "ambient": "texture_sy16062057_png",
                "diffuse": "texture_sy16062057_png",
                "emission": [
                    0,
                    0,
                    0,
                    1
                ],
                "shininess": 0,
                "specular": [
                    0.9,
                    0.9,
                    0.9,
                    1
                ]
            }
        },
        "sy16062058": {
            "name": "sy16062058",
            "technique": "technique2",
            "values": {
                "ambient": "texture_sy16062058_png",
                "diffuse": "texture_sy16062058_png",
                "emission": [
                    0,
                    0,
                    0,
                    1
                ],
                "shininess": 0,
                "specular": [
                    0.9,
                    0.9,
                    0.9,
                    1
                ]
            }
        }
    },
    "meshes": {
        "geom-jz50": {
            "name": "jz50",
            "primitives": [
                {
                    "attributes": {
                        "NORMAL": "accessor_155",
                        "POSITION": "accessor_153",
                        "TEXBINORMAL": "accessor_161",
                        "TEXCOORD_0": "accessor_157",
                        "TEXTANGENT": "accessor_159"
                    },
                    "indices": "accessor_139",
                    "material": "sy16062052",
                    "mode": 4
                },
                {
                    "attributes": {
                        "NORMAL": "accessor_155",
                        "POSITION": "accessor_153",
                        "TEXBINORMAL": "accessor_161",
                        "TEXCOORD_0": "accessor_157",
                        "TEXTANGENT": "accessor_159"
                    },
                    "indices": "accessor_142",
                    "material": "sy16062057",
                    "mode": 4
                },
                {
                    "attributes": {
                        "NORMAL": "accessor_155",
                        "POSITION": "accessor_153",
                        "TEXBINORMAL": "accessor_161",
                        "TEXCOORD_0": "accessor_157",
                        "TEXTANGENT": "accessor_159"
                    },
                    "indices": "accessor_145",
                    "material": "sy16062050",
                    "mode": 4
                },
                {
                    "attributes": {
                        "NORMAL": "accessor_155",
                        "POSITION": "accessor_153",
                        "TEXBINORMAL": "accessor_161",
                        "TEXCOORD_0": "accessor_157",
                        "TEXTANGENT": "accessor_159"
                    },
                    "indices": "accessor_148",
                    "material": "sy16062023",
                    "mode": 4
                },
                {
                    "attributes": {
                        "NORMAL": "accessor_155",
                        "POSITION": "accessor_153",
                        "TEXBINORMAL": "accessor_161",
                        "TEXCOORD_0": "accessor_157",
                        "TEXTANGENT": "accessor_159"
                    },
                    "indices": "accessor_151",
                    "material": "sy16062058",
                    "mode": 4
                }
            ]
        }
    },
    "nodes": {
        "node-jz50": {
            "children": [
                "node_2"
            ],
            "matrix": [
                1,
                0,
                0,
                0,
                0,
                1,
                0,
                0,
                0,
                0,
                1,
                0,
                0,
                0,
                9.67809,
                1
            ],
            "name": "jz50"
        },
        "node_0": {
            "children": [],
            "matrix": [
                1,
                0,
                0,
                0,
                0,
                1,
                0,
                0,
                0,
                0,
                1,
                0,
                0,
                0,
                0,
                1
            ],
            "name": "EnvironmentAmbientLight"
        },
        "node_2": {
            "children": [],
            "matrix": [
                1,
                0,
                0,
                0,
                0,
                1,
                0,
                0,
                0,
                0,
                1,
                0,
                -13.4395,
                -0.934214,
                -9.67809,
                1
            ],
            "meshes": [
                "geom-jz50"
            ],
            "name": ""
        },
        "node_3": {
            "children": [
                "node_0",
                "node-jz50"
            ],
            "matrix": [
                1,
                0,
                0,
                0,
                0,
                0,
                -1,
                0,
                0,
                1,
                0,
                0,
                0,
                0,
                0,
                1
            ],
            "name": "Y_UP_Transform"
        }
    },
    "programs": {
        "program_0": {
            "attributes": [
                "a_normal",
                "a_position",
                "a_texcoord0"
            ],
            "fragmentShader": "jz500FS",
            "vertexShader": "jz500VS"
        },
        "program_1": {
            "attributes": [
                "a_normal",
                "a_position",
                "a_texcoord0"
            ],
            "fragmentShader": "jz501FS",
            "vertexShader": "jz501VS"
        }
    },
    "samplers": {
        "sampler_0": {
            "magFilter": 9729,
            "minFilter": 9729,
            "wrapS": 10497,
            "wrapT": 10497
        }
    },
    "scene": "defaultScene",
    "scenes": {
        "defaultScene": {
            "nodes": [
                "node_3"
            ]
        }
    },
    "shaders": {
        "jz500FS": {
            "type": 35632,
            "uri": "data:text/plain;base64,"
        },
        "jz500VS": {
            "type": 35633,
            "uri": "data:text/plain;base64,"
        },
        "jz501FS": {
            "type": 35632,
            "uri": "data:text/plain;base64,"
        },
        "jz501VS": {
            "type": 35633,
            "uri": "data:text/plain;base64,"
        }
    },
    "skins": {},
    "techniques": {
        "technique1": {
            "attributes": {
                "a_normal": "normal",
                "a_position": "position",
                "a_texcoord0": "texcoord0"
            },
            "parameters": {
                "ambient": {
                    "type": 35678
                },
                "diffuse": {
                    "type": 35678
                },
                "emission": {
                    "type": 35666
                },
                "modelViewMatrix": {
                    "semantic": "MODELVIEW",
                    "type": 35676
                },
                "normal": {
                    "semantic": "NORMAL",
                    "type": 35665
                },
                "normalMatrix": {
                    "semantic": "MODELVIEWINVERSETRANSPOSE",
                    "type": 35675
                },
                "position": {
                    "semantic": "POSITION",
                    "type": 35665
                },
                "projectionMatrix": {
                    "semantic": "PROJECTION",
                    "type": 35676
                },
                "shininess": {
                    "type": 5126
                },
                "specular": {
                    "type": 35666
                },
                "texcoord0": {
                    "semantic": "TEXCOORD_0",
                    "type": 35664
                }
            },
            "program": "program_0",
            "states": {
                "enable": [
                    2929,
                    2884
                ]
            },
            "uniforms": {
                "u_ambient": "ambient",
                "u_diffuse": "diffuse",
                "u_emission": "emission",
                "u_modelViewMatrix": "modelViewMatrix",
                "u_normalMatrix": "normalMatrix",
                "u_projectionMatrix": "projectionMatrix",
                "u_shininess": "shininess",
                "u_specular": "specular"
            }
        },
        "technique2": {
            "attributes": {
                "a_normal": "normal",
                "a_position": "position",
                "a_texcoord0": "texcoord0"
            },
            "parameters": {
                "ambient": {
                    "type": 35678
                },
                "diffuse": {
                    "type": 35678
                },
                "emission": {
                    "type": 35666
                },
                "modelViewMatrix": {
                    "semantic": "MODELVIEW",
                    "type": 35676
                },
                "normal": {
                    "semantic": "NORMAL",
                    "type": 35665
                },
                "normalMatrix": {
                    "semantic": "MODELVIEWINVERSETRANSPOSE",
                    "type": 35675
                },
                "position": {
                    "semantic": "POSITION",
                    "type": 35665
                },
                "projectionMatrix": {
                    "semantic": "PROJECTION",
                    "type": 35676
                },
                "shininess": {
                    "type": 5126
                },
                "specular": {
                    "type": 35666
                },
                "texcoord0": {
                    "semantic": "TEXCOORD_0",
                    "type": 35664
                }
            },
            "program": "program_1",
            "states": {
                "enable": [
                    2929,
                    3042
                ],
                "functions": {
                    "blendEquationSeparate": [
                        32774,
                        32774
                    ],
                    "blendFuncSeparate": [
                        1,
                        771,
                        1,
                        771
                    ],
                    "depthMask": false
                }
            },
            "uniforms": {
                "u_ambient": "ambient",
                "u_diffuse": "diffuse",
                "u_emission": "emission",
                "u_modelViewMatrix": "modelViewMatrix",
                "u_normalMatrix": "normalMatrix",
                "u_projectionMatrix": "projectionMatrix",
                "u_shininess": "shininess",
                "u_specular": "specular"
            }
        }
    },
    "textures": {
        "texture_sy16062023_png": {
            "format": 6408,
            "internalFormat": 6408,
            "sampler": "sampler_0",
            "source": "sy16062023_png",
            "target": 3553,
            "type": 5121
        },
        "texture_sy16062050_png": {
            "format": 6408,
            "internalFormat": 6408,
            "sampler": "sampler_0",
            "source": "sy16062050_png",
            "target": 3553,
            "type": 5121
        },
        "texture_sy16062052_png": {
            "format": 6408,
            "internalFormat": 6408,
            "sampler": "sampler_0",
            "source": "sy16062052_png",
            "target": 3553,
            "type": 5121
        },
        "texture_sy16062057_png": {
            "format": 6408,
            "internalFormat": 6408,
            "sampler": "sampler_0",
            "source": "sy16062057_png",
            "target": 3553,
            "type": 5121
        },
        "texture_sy16062058_png": {
            "format": 6408,
            "internalFormat": 6408,
            "sampler": "sampler_0",
            "source": "sy16062058_png",
            "target": 3553,
            "type": 5121
        }
    }
}