{
    "accessors": {
        "accessor_112": {
            "bufferView": "bufferView_133",
            "byteOffset": 0,
            "byteStride": 0,
            "componentType": 5123,
            "count": 480,
            "type": "SCALAR"
        },
        "accessor_115": {
            "bufferView": "bufferView_133",
            "byteOffset": 960,
            "byteStride": 0,
            "componentType": 5123,
            "count": 1014,
            "type": "SCALAR"
        },
        "accessor_118": {
            "bufferView": "bufferView_133",
            "byteOffset": 2988,
            "byteStride": 0,
            "componentType": 5123,
            "count": 588,
            "type": "SCALAR"
        },
        "accessor_121": {
            "bufferView": "bufferView_133",
            "byteOffset": 4164,
            "byteStride": 0,
            "componentType": 5123,
            "count": 60,
            "type": "SCALAR"
        },
        "accessor_123": {
            "bufferView": "bufferView_134",
            "byteOffset": 0,
            "byteStride": 12,
            "componentType": 5126,
            "count": 1646,
            "max": [
                -1.91613,
                -3.33633,
                7.21805
            ],
            "min": [
                -31.1232,
                -31.6232,
                3.93391e-06
            ],
            "type": "VEC3"
        },
        "accessor_125": {
            "bufferView": "bufferView_134",
            "byteOffset": 19752,
            "byteStride": 12,
            "componentType": 5126,
            "count": 1646,
            "max": [
                0.99944,
                0.99944,
                0.817773
            ],
            "min": [
                -0.99944,
                -0.99944,
                -1
            ],
            "type": "VEC3"
        },
        "accessor_127": {
            "bufferView": "bufferView_134",
            "byteOffset": 39504,
            "byteStride": 8,
            "componentType": 5126,
            "count": 1646,
            "max": [
                6.49111,
                4.23531
            ],
            "min": [
                -3.75799,
                -2.57959
            ],
            "type": "VEC2"
        },
        "accessor_129": {
            "bufferView": "bufferView_134",
            "byteOffset": 52672,
            "byteStride": 12,
            "componentType": 5126,
            "count": 1646,
            "max": [
                0.999104,
                0.999104,
                0.999723
            ],
            "min": [
                -0.999104,
                -0.999104,
                -0.837088
            ],
            "type": "VEC3"
        },
        "accessor_131": {
            "bufferView": "bufferView_134",
            "byteOffset": 72424,
            "byteStride": 12,
            "componentType": 5126,
            "count": 1646,
            "max": [
                0.99944,
                0.99944,
                1
            ],
            "min": [
                -0.99944,
                -0.99944,
                -1
            ],
            "type": "VEC3"
        }
    },
    "animations": {},
    "asset": {
        "generator": "collada2gltf@11bf28f97f1b5380fbefacf862ce7c597873d368",
        "premultipliedAlpha": true,
        "profile": {
            "api": "WebGL",
            "version": "1.0.2"
        },
        "version": 1
    },
    "bufferViews": {
        "bufferView_133": {
            "buffer": "jz52",
            "byteLength": 4284,
            "byteOffset": 0,
            "target": 34963
        },
        "bufferView_134": {
            "buffer": "jz52",
            "byteLength": 92176,
            "byteOffset": 4284,
            "target": 34962
        }
    },
    "buffers": {
        "jz52": {
            "byteLength": 96460,
            "type": "arraybuffer",
            "uri": "data:application/octet-stream;base64,"
        }
    },
    "images": {
        "sy16050902_png": {
            "name": "sy16050902_png",
            "uri": "data:image/png;base64,"
        },
        "sy16051102_png": {
            "name": "sy16051102_png",
            "uri": "data:image/png;base64,"
        },
        "sy16051103_png": {
            "name": "sy16051103_png",
            "uri": "data:image/png;base64,"
        },
        "sy16051114_png": {
            "name": "sy16051114_png",
            "uri": "data:image/png;base64,"
        }
    },
    "materials": {
        "sy16050902": {
            "name": "sy16050902",
            "technique": "technique1",
            "values": {
                "ambient": "texture_sy16050902_png",
                "diffuse": "texture_sy16050902_png",
                "emission": [
                    0,
                    0,
                    0,
                    1
                ],
                "shininess": 0,
                "specular": [
                    0.9,
                    0.9,
                    0.9,
                    1
                ]
            }
        },
        "sy16051102": {
            "name": "sy16051102",
            "technique": "technique1",
            "values": {
                "ambient": "texture_sy16051102_png",
                "diffuse": "texture_sy16051102_png",
                "emission": [
                    0,
                    0,
                    0,
                    1
                ],
                "shininess": 0,
                "specular": [
                    0.9,
                    0.9,
                    0.9,
                    1
                ]
            }
        },
        "sy16051103": {
            "name": "sy16051103",
            "technique": "technique1",
            "values": {
                "ambient": "texture_sy16051103_png",
                "diffuse": "texture_sy16051103_png",
                "emission": [
                    0,
                    0,
                    0,
                    1
                ],
                "shininess": 0,
                "specular": [
                    0.9,
                    0.9,
                    0.9,
                    1
                ]
            }
        },
        "sy16051114": {
            "name": "sy16051114",
            "technique": "technique1",
            "values": {
                "ambient": "texture_sy16051114_png",
                "diffuse": "texture_sy16051114_png",
                "emission": [
                    0,
                    0,
                    0,
                    1
                ],
                "shininess": 0,
                "specular": [
                    0.9,
                    0.9,
                    0.9,
                    1
                ]
            }
        }
    },
    "meshes": {
        "geom-jz52": {
            "name": "jz52",
            "primitives": [
                {
                    "attributes": {
                        "NORMAL": "accessor_125",
                        "POSITION": "accessor_123",
                        "TEXBINORMAL": "accessor_131",
                        "TEXCOORD_0": "accessor_127",
                        "TEXTANGENT": "accessor_129"
                    },
                    "indices": "accessor_112",
                    "material": "sy16051103",
                    "mode": 4
                },
                {
                    "attributes": {
                        "NORMAL": "accessor_125",
                        "POSITION": "accessor_123",
                        "TEXBINORMAL": "accessor_131",
                        "TEXCOORD_0": "accessor_127",
                        "TEXTANGENT": "accessor_129"
                    },
                    "indices": "accessor_115",
                    "material": "sy16051102",
                    "mode": 4
                },
                {
                    "attributes": {
                        "NORMAL": "accessor_125",
                        "POSITION": "accessor_123",
                        "TEXBINORMAL": "accessor_131",
                        "TEXCOORD_0": "accessor_127",
                        "TEXTANGENT": "accessor_129"
                    },
                    "indices": "accessor_118",
                    "material": "sy16050902",
                    "mode": 4
                },
                {
                    "attributes": {
                        "NORMAL": "accessor_125",
                        "POSITION": "accessor_123",
                        "TEXBINORMAL": "accessor_131",
                        "TEXCOORD_0": "accessor_127",
                        "TEXTANGENT": "accessor_129"
                    },
                    "indices": "accessor_121",
                    "material": "sy16051114",
                    "mode": 4
                }
            ]
        }
    },
    "nodes": {
        "node-jz52": {
            "children": [
                "node_2"
            ],
            "matrix": [
                1,
                0,
                0,
                0,
                0,
                1,
                0,
                0,
                0,
                0,
                1,
                0,
                0,
                0,
                3.60903,
                1
            ],
            "name": "jz52"
        },
        "node_0": {
            "children": [],
            "matrix": [
                1,
                0,
                0,
                0,
                0,
                1,
                0,
                0,
                0,
                0,
                1,
                0,
                0,
                0,
                0,
                1
            ],
            "name": "EnvironmentAmbientLight"
        },
        "node_2": {
            "children": [],
            "matrix": [
                1,
                0,
                0,
                0,
                0,
                1,
                0,
                0,
                0,
                0,
                1,
                0,
                16.5197,
                17.4797,
                -3.60903,
                1
            ],
            "meshes": [
                "geom-jz52"
            ],
            "name": ""
        },
        "node_3": {
            "children": [
                "node_0",
                "node-jz52"
            ],
            "matrix": [
                1,
                0,
                0,
                0,
                0,
                0,
                -1,
                0,
                0,
                1,
                0,
                0,
                0,
                0,
                0,
                1
            ],
            "name": "Y_UP_Transform"
        }
    },
    "programs": {
        "program_0": {
            "attributes": [
                "a_normal",
                "a_position",
                "a_texcoord0"
            ],
            "fragmentShader": "jz520FS",
            "vertexShader": "jz520VS"
        }
    },
    "samplers": {
        "sampler_0": {
            "magFilter": 9729,
            "minFilter": 9729,
            "wrapS": 10497,
            "wrapT": 10497
        }
    },
    "scene": "defaultScene",
    "scenes": {
        "defaultScene": {
            "nodes": [
                "node_3"
            ]
        }
    },
    "shaders": {
        "jz520FS": {
            "type": 35632,
            "uri": "data:text/plain;base64,"
        },
        "jz520VS": {
            "type": 35633,
            "uri": "data:text/plain;base64,"
        }
    },
    "skins": {},
    "techniques": {
        "technique1": {
            "attributes": {
                "a_normal": "normal",
                "a_position": "position",
                "a_texcoord0": "texcoord0"
            },
            "parameters": {
                "ambient": {
                    "type": 35678
                },
                "diffuse": {
                    "type": 35678
                },
                "emission": {
                    "type": 35666
                },
                "modelViewMatrix": {
                    "semantic": "MODELVIEW",
                    "type": 35676
                },
                "normal": {
                    "semantic": "NORMAL",
                    "type": 35665
                },
                "normalMatrix": {
                    "semantic": "MODELVIEWINVERSETRANSPOSE",
                    "type": 35675
                },
                "position": {
                    "semantic": "POSITION",
                    "type": 35665
                },
                "projectionMatrix": {
                    "semantic": "PROJECTION",
                    "type": 35676
                },
                "shininess": {
                    "type": 5126
                },
                "specular": {
                    "type": 35666
                },
                "texcoord0": {
                    "semantic": "TEXCOORD_0",
                    "type": 35664
                }
            },
            "program": "program_0",
            "states": {
                "enable": [
                    2929,
                    3042
                ],
                "functions": {
                    "blendEquationSeparate": [
                        32774,
                        32774
                    ],
                    "blendFuncSeparate": [
                        1,
                        771,
                        1,
                        771
                    ],
                    "depthMask": false
                }
            },
            "uniforms": {
                "u_ambient": "ambient",
                "u_diffuse": "diffuse",
                "u_emission": "emission",
                "u_modelViewMatrix": "modelViewMatrix",
                "u_normalMatrix": "normalMatrix",
                "u_projectionMatrix": "projectionMatrix",
                "u_shininess": "shininess",
                "u_specular": "specular"
            }
        }
    },
    "textures": {
        "texture_sy16050902_png": {
            "format": 6408,
            "internalFormat": 6408,
            "sampler": "sampler_0",
            "source": "sy16050902_png",
            "target": 3553,
            "type": 5121
        },
        "texture_sy16051102_png": {
            "format": 6408,
            "internalFormat": 6408,
            "sampler": "sampler_0",
            "source": "sy16051102_png",
            "target": 3553,
            "type": 5121
        },
        "texture_sy16051103_png": {
            "format": 6408,
            "internalFormat": 6408,
            "sampler": "sampler_0",
            "source": "sy16051103_png",
            "target": 3553,
            "type": 5121
        },
        "texture_sy16051114_png": {
            "format": 6408,
            "internalFormat": 6408,
            "sampler": "sampler_0",
            "source": "sy16051114_png",
            "target": 3553,
            "type": 5121
        }
    }
}