{
    "accessors": {
        "accessor_166": {
            "bufferView": "bufferView_193",
            "byteOffset": 0,
            "byteStride": 0,
            "componentType": 5123,
            "count": 1674,
            "type": "SCALAR"
        },
        "accessor_169": {
            "bufferView": "bufferView_193",
            "byteOffset": 3348,
            "byteStride": 0,
            "componentType": 5123,
            "count": 294,
            "type": "SCALAR"
        },
        "accessor_172": {
            "bufferView": "bufferView_193",
            "byteOffset": 3936,
            "byteStride": 0,
            "componentType": 5123,
            "count": 516,
            "type": "SCALAR"
        },
        "accessor_175": {
            "bufferView": "bufferView_193",
            "byteOffset": 4968,
            "byteStride": 0,
            "componentType": 5123,
            "count": 396,
            "type": "SCALAR"
        },
        "accessor_178": {
            "bufferView": "bufferView_193",
            "byteOffset": 5760,
            "byteStride": 0,
            "componentType": 5123,
            "count": 210,
            "type": "SCALAR"
        },
        "accessor_181": {
            "bufferView": "bufferView_193",
            "byteOffset": 6180,
            "byteStride": 0,
            "componentType": 5123,
            "count": 348,
            "type": "SCALAR"
        },
        "accessor_183": {
            "bufferView": "bufferView_194",
            "byteOffset": 0,
            "byteStride": 12,
            "componentType": 5126,
            "count": 3430,
            "max": [
                41.3509,
                2.79862,
                14.5416
            ],
            "min": [
                6.11217,
                -49.9665,
                -5.72205e-06
            ],
            "type": "VEC3"
        },
        "accessor_185": {
            "bufferView": "bufferView_194",
            "byteOffset": 41160,
            "byteStride": 12,
            "componentType": 5126,
            "count": 3430,
            "max": [
                0.800039,
                0.800042,
                1
            ],
            "min": [
                -0.801611,
                -0.812696,
                -1
            ],
            "type": "VEC3"
        },
        "accessor_187": {
            "bufferView": "bufferView_194",
            "byteOffset": 82320,
            "byteStride": 8,
            "componentType": 5126,
            "count": 3430,
            "max": [
                41.2821,
                6.4833
            ],
            "min": [
                -5.85329,
                -5.4833
            ],
            "type": "VEC2"
        },
        "accessor_189": {
            "bufferView": "bufferView_194",
            "byteOffset": 109760,
            "byteStride": 12,
            "componentType": 5126,
            "count": 3430,
            "max": [
                0.999377,
                0.99009,
                1
            ],
            "min": [
                -0.989955,
                -0.99009,
                -1
            ],
            "type": "VEC3"
        },
        "accessor_191": {
            "bufferView": "bufferView_194",
            "byteOffset": 150920,
            "byteStride": 12,
            "componentType": 5126,
            "count": 3430,
            "max": [
                0.99009,
                0.999377,
                1
            ],
            "min": [
                -0.99009,
                -0.989955,
                -1
            ],
            "type": "VEC3"
        }
    },
    "animations": {},
    "asset": {
        "generator": "collada2gltf@11bf28f97f1b5380fbefacf862ce7c597873d368",
        "premultipliedAlpha": true,
        "profile": {
            "api": "WebGL",
            "version": "1.0.2"
        },
        "version": 1
    },
    "bufferViews": {
        "bufferView_193": {
            "buffer": "jz53",
            "byteLength": 6876,
            "byteOffset": 0,
            "target": 34963
        },
        "bufferView_194": {
            "buffer": "jz53",
            "byteLength": 192080,
            "byteOffset": 6876,
            "target": 34962
        }
    },
    "buffers": {
        "jz53": {
            "byteLength": 198956,
            "type": "arraybuffer",
            "uri": "data:application/octet-stream;base64,"
        }
    },
    "images": {
        "sy16062019_png": {
            "name": "sy16062019_png",
            "uri": "data:image/png;base64,"
        },
        "sy16062023_png": {
            "name": "sy16062023_png",
            "uri": "data:image/png;base64,"
        },
        "sy16062048_png": {
            "name": "sy16062048_png",
            "uri": "data:image/png;base64,"
        },
        "sy16062049_png": {
            "name": "sy16062049_png",
            "uri": "data:image/png;base64,"
        },
        "sy16062052_png": {
            "name": "sy16062052_png",
            "uri": "data:image/png;base64,"
        },
        "sy16062057_png": {
            "name": "sy16062057_png",
            "uri": "data:image/png;base64,"
        }
    },
    "materials": {
        "sy16062019": {
            "name": "sy16062019",
            "technique": "technique1",
            "values": {
                "ambient": "texture_sy16062019_png",
                "diffuse": "texture_sy16062019_png",
                "emission": [
                    0,
                    0,
                    0,
                    1
                ],
                "shininess": 0,
                "specular": [
                    0.9,
                    0.9,
                    0.9,
                    1
                ]
            }
        },
        "sy16062023": {
            "name": "sy16062023",
            "technique": "technique2",
            "values": {
                "ambient": "texture_sy16062023_png",
                "diffuse": "texture_sy16062023_png",
                "emission": [
                    0,
                    0,
                    0,
                    1
                ],
                "shininess": 0,
                "specular": [
                    0.9,
                    0.9,
                    0.9,
                    1
                ]
            }
        },
        "sy16062048": {
            "name": "sy16062048",
            "technique": "technique1",
            "values": {
                "ambient": "texture_sy16062048_png",
                "diffuse": "texture_sy16062048_png",
                "emission": [
                    0,
                    0,
                    0,
                    1
                ],
                "shininess": 0,
                "specular": [
                    0.9,
                    0.9,
                    0.9,
                    1
                ]
            }
        },
        "sy16062049": {
            "name": "sy16062049",
            "technique": "technique1",
            "values": {
                "ambient": "texture_sy16062049_png",
                "diffuse": "texture_sy16062049_png",
                "emission": [
                    0,
                    0,
                    0,
                    1
                ],
                "shininess": 0,
                "specular": [
                    0.9,
                    0.9,
                    0.9,
                    1
                ]
            }
        },
        "sy16062052": {
            "name": "sy16062052",
            "technique": "technique1",
            "values": {
                "ambient": "texture_sy16062052_png",
                "diffuse": "texture_sy16062052_png",
                "emission": [
                    0,
                    0,
                    0,
                    1
                ],
                "shininess": 0,
                "specular": [
                    0.9,
                    0.9,
                    0.9,
                    1
                ]
            }
        },
        "sy16062057": {
            "name": "sy16062057",
            "technique": "technique1",
            "values": {
                "ambient": "texture_sy16062057_png",
                "diffuse": "texture_sy16062057_png",
                "emission": [
                    0,
                    0,
                    0,
                    1
                ],
                "shininess": 0,
                "specular": [
                    0.9,
                    0.9,
                    0.9,
                    1
                ]
            }
        }
    },
    "meshes": {
        "geom-jz53": {
            "name": "jz53",
            "primitives": [
                {
                    "attributes": {
                        "NORMAL": "accessor_185",
                        "POSITION": "accessor_183",
                        "TEXBINORMAL": "accessor_191",
                        "TEXCOORD_0": "accessor_187",
                        "TEXTANGENT": "accessor_189"
                    },
                    "indices": "accessor_166",
                    "material": "sy16062052",
                    "mode": 4
                },
                {
                    "attributes": {
                        "NORMAL": "accessor_185",
                        "POSITION": "accessor_183",
                        "TEXBINORMAL": "accessor_191",
                        "TEXCOORD_0": "accessor_187",
                        "TEXTANGENT": "accessor_189"
                    },
                    "indices": "accessor_169",
                    "material": "sy16062057",
                    "mode": 4
                },
                {
                    "attributes": {
                        "NORMAL": "accessor_185",
                        "POSITION": "accessor_183",
                        "TEXBINORMAL": "accessor_191",
                        "TEXCOORD_0": "accessor_187",
                        "TEXTANGENT": "accessor_189"
                    },
                    "indices": "accessor_172",
                    "material": "sy16062023",
                    "mode": 4
                },
                {
                    "attributes": {
                        "NORMAL": "accessor_185",
                        "POSITION": "accessor_183",
                        "TEXBINORMAL": "accessor_191",
                        "TEXCOORD_0": "accessor_187",
                        "TEXTANGENT": "accessor_189"
                    },
                    "indices": "accessor_175",
                    "material": "sy16062019",
                    "mode": 4
                },
                {
                    "attributes": {
                        "NORMAL": "accessor_185",
                        "POSITION": "accessor_183",
                        "TEXBINORMAL": "accessor_191",
                        "TEXCOORD_0": "accessor_187",
                        "TEXTANGENT": "accessor_189"
                    },
                    "indices": "accessor_178",
                    "material": "sy16062049",
                    "mode": 4
                },
                {
                    "attributes": {
                        "NORMAL": "accessor_185",
                        "POSITION": "accessor_183",
                        "TEXBINORMAL": "accessor_191",
                        "TEXCOORD_0": "accessor_187",
                        "TEXTANGENT": "accessor_189"
                    },
                    "indices": "accessor_181",
                    "material": "sy16062048",
                    "mode": 4
                }
            ]
        }
    },
    "nodes": {
        "node-jz53": {
            "children": [
                "node_2"
            ],
            "matrix": [
                1,
                0,
                0,
                0,
                0,
                1,
                0,
                0,
                0,
                0,
                1,
                0,
                0,
                0,
                7.27078,
                1
            ],
            "name": "jz53"
        },
        "node_0": {
            "children": [],
            "matrix": [
                1,
                0,
                0,
                0,
                0,
                1,
                0,
                0,
                0,
                0,
                1,
                0,
                0,
                0,
                0,
                1
            ],
            "name": "EnvironmentAmbientLight"
        },
        "node_2": {
            "children": [],
            "matrix": [
                1,
                0,
                0,
                0,
                0,
                1,
                0,
                0,
                0,
                0,
                1,
                0,
                -23.7316,
                23.5839,
                -7.27078,
                1
            ],
            "meshes": [
                "geom-jz53"
            ],
            "name": ""
        },
        "node_3": {
            "children": [
                "node_0",
                "node-jz53"
            ],
            "matrix": [
                1,
                0,
                0,
                0,
                0,
                0,
                -1,
                0,
                0,
                1,
                0,
                0,
                0,
                0,
                0,
                1
            ],
            "name": "Y_UP_Transform"
        }
    },
    "programs": {
        "program_0": {
            "attributes": [
                "a_normal",
                "a_position",
                "a_texcoord0"
            ],
            "fragmentShader": "jz530FS",
            "vertexShader": "jz530VS"
        },
        "program_1": {
            "attributes": [
                "a_normal",
                "a_position",
                "a_texcoord0"
            ],
            "fragmentShader": "jz531FS",
            "vertexShader": "jz531VS"
        }
    },
    "samplers": {
        "sampler_0": {
            "magFilter": 9729,
            "minFilter": 9729,
            "wrapS": 10497,
            "wrapT": 10497
        }
    },
    "scene": "defaultScene",
    "scenes": {
        "defaultScene": {
            "nodes": [
                "node_3"
            ]
        }
    },
    "shaders": {
        "jz530FS": {
            "type": 35632,
            "uri": "data:text/plain;base64,"
        },
        "jz530VS": {
            "type": 35633,
            "uri": "data:text/plain;base64,"
        },
        "jz531FS": {
            "type": 35632,
            "uri": "data:text/plain;base64,"
        },
        "jz531VS": {
            "type": 35633,
            "uri": "data:text/plain;base64,"
        }
    },
    "skins": {},
    "techniques": {
        "technique1": {
            "attributes": {
                "a_normal": "normal",
                "a_position": "position",
                "a_texcoord0": "texcoord0"
            },
            "parameters": {
                "ambient": {
                    "type": 35678
                },
                "diffuse": {
                    "type": 35678
                },
                "emission": {
                    "type": 35666
                },
                "modelViewMatrix": {
                    "semantic": "MODELVIEW",
                    "type": 35676
                },
                "normal": {
                    "semantic": "NORMAL",
                    "type": 35665
                },
                "normalMatrix": {
                    "semantic": "MODELVIEWINVERSETRANSPOSE",
                    "type": 35675
                },
                "position": {
                    "semantic": "POSITION",
                    "type": 35665
                },
                "projectionMatrix": {
                    "semantic": "PROJECTION",
                    "type": 35676
                },
                "shininess": {
                    "type": 5126
                },
                "specular": {
                    "type": 35666
                },
                "texcoord0": {
                    "semantic": "TEXCOORD_0",
                    "type": 35664
                }
            },
            "program": "program_0",
            "states": {
                "enable": [
                    2929,
                    3042
                ],
                "functions": {
                    "blendEquationSeparate": [
                        32774,
                        32774
                    ],
                    "blendFuncSeparate": [
                        1,
                        771,
                        1,
                        771
                    ],
                    "depthMask": false
                }
            },
            "uniforms": {
                "u_ambient": "ambient",
                "u_diffuse": "diffuse",
                "u_emission": "emission",
                "u_modelViewMatrix": "modelViewMatrix",
                "u_normalMatrix": "normalMatrix",
                "u_projectionMatrix": "projectionMatrix",
                "u_shininess": "shininess",
                "u_specular": "specular"
            }
        },
        "technique2": {
            "attributes": {
                "a_normal": "normal",
                "a_position": "position",
                "a_texcoord0": "texcoord0"
            },
            "parameters": {
                "ambient": {
                    "type": 35678
                },
                "diffuse": {
                    "type": 35678
                },
                "emission": {
                    "type": 35666
                },
                "modelViewMatrix": {
                    "semantic": "MODELVIEW",
                    "type": 35676
                },
                "normal": {
                    "semantic": "NORMAL",
                    "type": 35665
                },
                "normalMatrix": {
                    "semantic": "MODELVIEWINVERSETRANSPOSE",
                    "type": 35675
                },
                "position": {
                    "semantic": "POSITION",
                    "type": 35665
                },
                "projectionMatrix": {
                    "semantic": "PROJECTION",
                    "type": 35676
                },
                "shininess": {
                    "type": 5126
                },
                "specular": {
                    "type": 35666
                },
                "texcoord0": {
                    "semantic": "TEXCOORD_0",
                    "type": 35664
                }
            },
            "program": "program_1",
            "states": {
                "enable": [
                    2929,
                    2884
                ]
            },
            "uniforms": {
                "u_ambient": "ambient",
                "u_diffuse": "diffuse",
                "u_emission": "emission",
                "u_modelViewMatrix": "modelViewMatrix",
                "u_normalMatrix": "normalMatrix",
                "u_projectionMatrix": "projectionMatrix",
                "u_shininess": "shininess",
                "u_specular": "specular"
            }
        }
    },
    "textures": {
        "texture_sy16062019_png": {
            "format": 6408,
            "internalFormat": 6408,
            "sampler": "sampler_0",
            "source": "sy16062019_png",
            "target": 3553,
            "type": 5121
        },
        "texture_sy16062023_png": {
            "format": 6408,
            "internalFormat": 6408,
            "sampler": "sampler_0",
            "source": "sy16062023_png",
            "target": 3553,
            "type": 5121
        },
        "texture_sy16062048_png": {
            "format": 6408,
            "internalFormat": 6408,
            "sampler": "sampler_0",
            "source": "sy16062048_png",
            "target": 3553,
            "type": 5121
        },
        "texture_sy16062049_png": {
            "format": 6408,
            "internalFormat": 6408,
            "sampler": "sampler_0",
            "source": "sy16062049_png",
            "target": 3553,
            "type": 5121
        },
        "texture_sy16062052_png": {
            "format": 6408,
            "internalFormat": 6408,
            "sampler": "sampler_0",
            "source": "sy16062052_png",
            "target": 3553,
            "type": 5121
        },
        "texture_sy16062057_png": {
            "format": 6408,
            "internalFormat": 6408,
            "sampler": "sampler_0",
            "source": "sy16062057_png",
            "target": 3553,
            "type": 5121
        }
    }
}