{
    "accessors": {
        "accessor_112": {
            "bufferView": "bufferView_133",
            "byteOffset": 0,
            "byteStride": 0,
            "componentType": 5123,
            "count": 504,
            "type": "SCALAR"
        },
        "accessor_115": {
            "bufferView": "bufferView_133",
            "byteOffset": 1008,
            "byteStride": 0,
            "componentType": 5123,
            "count": 120,
            "type": "SCALAR"
        },
        "accessor_118": {
            "bufferView": "bufferView_133",
            "byteOffset": 1248,
            "byteStride": 0,
            "componentType": 5123,
            "count": 66,
            "type": "SCALAR"
        },
        "accessor_121": {
            "bufferView": "bufferView_133",
            "byteOffset": 1380,
            "byteStride": 0,
            "componentType": 5123,
            "count": 18,
            "type": "SCALAR"
        },
        "accessor_123": {
            "bufferView": "bufferView_134",
            "byteOffset": 0,
            "byteStride": 12,
            "componentType": 5126,
            "count": 504,
            "max": [
                23.4761,
                13.1338,
                5.88146
            ],
            "min": [
                12.8065,
                2.46421,
                0.322798
            ],
            "type": "VEC3"
        },
        "accessor_125": {
            "bufferView": "bufferView_134",
            "byteOffset": 6048,
            "byteStride": 12,
            "componentType": 5126,
            "count": 504,
            "max": [
                0.990632,
                0.990632,
                1
            ],
            "min": [
                -0.990633,
                -0.990632,
                -1
            ],
            "type": "VEC3"
        },
        "accessor_127": {
            "bufferView": "bufferView_134",
            "byteOffset": 12096,
            "byteStride": 8,
            "componentType": 5126,
            "count": 504,
            "max": [
                5.5,
                3.18334
            ],
            "min": [
                -4.5,
                -2.18334
            ],
            "type": "VEC2"
        },
        "accessor_129": {
            "bufferView": "bufferView_134",
            "byteOffset": 16128,
            "byteStride": 12,
            "componentType": 5126,
            "count": 504,
            "max": [
                0.999707,
                0.999943,
                1
            ],
            "min": [
                -0.999707,
                -0.990632,
                -1
            ],
            "type": "VEC3"
        },
        "accessor_131": {
            "bufferView": "bufferView_134",
            "byteOffset": 22176,
            "byteStride": 12,
            "componentType": 5126,
            "count": 504,
            "max": [
                0.990633,
                0.999707,
                1
            ],
            "min": [
                -0.999943,
                -0.990632,
                -1
            ],
            "type": "VEC3"
        }
    },
    "animations": {},
    "asset": {
        "generator": "collada2gltf@11bf28f97f1b5380fbefacf862ce7c597873d368",
        "premultipliedAlpha": true,
        "profile": {
            "api": "WebGL",
            "version": "1.0.2"
        },
        "version": 1
    },
    "bufferViews": {
        "bufferView_133": {
            "buffer": "jz55",
            "byteLength": 1416,
            "byteOffset": 0,
            "target": 34963
        },
        "bufferView_134": {
            "buffer": "jz55",
            "byteLength": 28224,
            "byteOffset": 1416,
            "target": 34962
        }
    },
    "buffers": {
        "jz55": {
            "byteLength": 29640,
            "type": "arraybuffer",
            "uri": "data:application/octet-stream;base64,"
        }
    },
    "images": {
        "sy16050902_png": {
            "name": "sy16050902_png",
            "uri": "data:image/png;base64,"
        },
        "sy16051102_png": {
            "name": "sy16051102_png",
            "uri": "data:image/png;base64,"
        },
        "sy16051104_png": {
            "name": "sy16051104_png",
            "uri": "data:image/png;base64,"
        },
        "sy16051106_png": {
            "name": "sy16051106_png",
            "uri": "data:image/png;base64,"
        }
    },
    "materials": {
        "sy16050902": {
            "name": "sy16050902",
            "technique": "technique1",
            "values": {
                "ambient": "texture_sy16050902_png",
                "diffuse": "texture_sy16050902_png",
                "emission": [
                    0,
                    0,
                    0,
                    1
                ],
                "shininess": 0,
                "specular": [
                    0.9,
                    0.9,
                    0.9,
                    1
                ]
            }
        },
        "sy16051102": {
            "name": "sy16051102",
            "technique": "technique1",
            "values": {
                "ambient": "texture_sy16051102_png",
                "diffuse": "texture_sy16051102_png",
                "emission": [
                    0,
                    0,
                    0,
                    1
                ],
                "shininess": 0,
                "specular": [
                    0.9,
                    0.9,
                    0.9,
                    1
                ]
            }
        },
        "sy16051104": {
            "name": "sy16051104",
            "technique": "technique1",
            "values": {
                "ambient": "texture_sy16051104_png",
                "diffuse": "texture_sy16051104_png",
                "emission": [
                    0,
                    0,
                    0,
                    1
                ],
                "shininess": 0,
                "specular": [
                    0.9,
                    0.9,
                    0.9,
                    1
                ]
            }
        },
        "sy16051106": {
            "name": "sy16051106",
            "technique": "technique1",
            "values": {
                "ambient": "texture_sy16051106_png",
                "diffuse": "texture_sy16051106_png",
                "emission": [
                    0,
                    0,
                    0,
                    1
                ],
                "shininess": 0,
                "specular": [
                    0.9,
                    0.9,
                    0.9,
                    1
                ]
            }
        }
    },
    "meshes": {
        "geom-jz55": {
            "name": "jz55",
            "primitives": [
                {
                    "attributes": {
                        "NORMAL": "accessor_125",
                        "POSITION": "accessor_123",
                        "TEXBINORMAL": "accessor_131",
                        "TEXCOORD_0": "accessor_127",
                        "TEXTANGENT": "accessor_129"
                    },
                    "indices": "accessor_112",
                    "material": "sy16051104",
                    "mode": 4
                },
                {
                    "attributes": {
                        "NORMAL": "accessor_125",
                        "POSITION": "accessor_123",
                        "TEXBINORMAL": "accessor_131",
                        "TEXCOORD_0": "accessor_127",
                        "TEXTANGENT": "accessor_129"
                    },
                    "indices": "accessor_115",
                    "material": "sy16051106",
                    "mode": 4
                },
                {
                    "attributes": {
                        "NORMAL": "accessor_125",
                        "POSITION": "accessor_123",
                        "TEXBINORMAL": "accessor_131",
                        "TEXCOORD_0": "accessor_127",
                        "TEXTANGENT": "accessor_129"
                    },
                    "indices": "accessor_118",
                    "material": "sy16051102",
                    "mode": 4
                },
                {
                    "attributes": {
                        "NORMAL": "accessor_125",
                        "POSITION": "accessor_123",
                        "TEXBINORMAL": "accessor_131",
                        "TEXCOORD_0": "accessor_127",
                        "TEXTANGENT": "accessor_129"
                    },
                    "indices": "accessor_121",
                    "material": "sy16050902",
                    "mode": 4
                }
            ]
        }
    },
    "nodes": {
        "node-jz55": {
            "children": [
                "node_2"
            ],
            "matrix": [
                1,
                0,
                0,
                0,
                0,
                1,
                0,
                0,
                0,
                0,
                1,
                0,
                0,
                0,
                3.10213,
                1
            ],
            "name": "jz55"
        },
        "node_0": {
            "children": [],
            "matrix": [
                1,
                0,
                0,
                0,
                0,
                1,
                0,
                0,
                0,
                0,
                1,
                0,
                0,
                0,
                0,
                1
            ],
            "name": "EnvironmentAmbientLight"
        },
        "node_2": {
            "children": [],
            "matrix": [
                1,
                0,
                0,
                0,
                0,
                1,
                0,
                0,
                0,
                0,
                1,
                0,
                -18.1413,
                -7.79899,
                -3.10213,
                1
            ],
            "meshes": [
                "geom-jz55"
            ],
            "name": ""
        },
        "node_3": {
            "children": [
                "node_0",
                "node-jz55"
            ],
            "matrix": [
                1,
                0,
                0,
                0,
                0,
                0,
                -1,
                0,
                0,
                1,
                0,
                0,
                0,
                0,
                0,
                1
            ],
            "name": "Y_UP_Transform"
        }
    },
    "programs": {
        "program_0": {
            "attributes": [
                "a_normal",
                "a_position",
                "a_texcoord0"
            ],
            "fragmentShader": "jz550FS",
            "vertexShader": "jz550VS"
        }
    },
    "samplers": {
        "sampler_0": {
            "magFilter": 9729,
            "minFilter": 9729,
            "wrapS": 10497,
            "wrapT": 10497
        }
    },
    "scene": "defaultScene",
    "scenes": {
        "defaultScene": {
            "nodes": [
                "node_3"
            ]
        }
    },
    "shaders": {
        "jz550FS": {
            "type": 35632,
            "uri": "data:text/plain;base64,"
        },
        "jz550VS": {
            "type": 35633,
            "uri": "data:text/plain;base64,"
        }
    },
    "skins": {},
    "techniques": {
        "technique1": {
            "attributes": {
                "a_normal": "normal",
                "a_position": "position",
                "a_texcoord0": "texcoord0"
            },
            "parameters": {
                "ambient": {
                    "type": 35678
                },
                "diffuse": {
                    "type": 35678
                },
                "emission": {
                    "type": 35666
                },
                "modelViewMatrix": {
                    "semantic": "MODELVIEW",
                    "type": 35676
                },
                "normal": {
                    "semantic": "NORMAL",
                    "type": 35665
                },
                "normalMatrix": {
                    "semantic": "MODELVIEWINVERSETRANSPOSE",
                    "type": 35675
                },
                "position": {
                    "semantic": "POSITION",
                    "type": 35665
                },
                "projectionMatrix": {
                    "semantic": "PROJECTION",
                    "type": 35676
                },
                "shininess": {
                    "type": 5126
                },
                "specular": {
                    "type": 35666
                },
                "texcoord0": {
                    "semantic": "TEXCOORD_0",
                    "type": 35664
                }
            },
            "program": "program_0",
            "states": {
                "enable": [
                    2929,
                    3042
                ],
                "functions": {
                    "blendEquationSeparate": [
                        32774,
                        32774
                    ],
                    "blendFuncSeparate": [
                        1,
                        771,
                        1,
                        771
                    ],
                    "depthMask": false
                }
            },
            "uniforms": {
                "u_ambient": "ambient",
                "u_diffuse": "diffuse",
                "u_emission": "emission",
                "u_modelViewMatrix": "modelViewMatrix",
                "u_normalMatrix": "normalMatrix",
                "u_projectionMatrix": "projectionMatrix",
                "u_shininess": "shininess",
                "u_specular": "specular"
            }
        }
    },
    "textures": {
        "texture_sy16050902_png": {
            "format": 6408,
            "internalFormat": 6408,
            "sampler": "sampler_0",
            "source": "sy16050902_png",
            "target": 3553,
            "type": 5121
        },
        "texture_sy16051102_png": {
            "format": 6408,
            "internalFormat": 6408,
            "sampler": "sampler_0",
            "source": "sy16051102_png",
            "target": 3553,
            "type": 5121
        },
        "texture_sy16051104_png": {
            "format": 6408,
            "internalFormat": 6408,
            "sampler": "sampler_0",
            "source": "sy16051104_png",
            "target": 3553,
            "type": 5121
        },
        "texture_sy16051106_png": {
            "format": 6408,
            "internalFormat": 6408,
            "sampler": "sampler_0",
            "source": "sy16051106_png",
            "target": 3553,
            "type": 5121
        }
    }
}