{
    "accessors": {
        "accessor_220": {
            "bufferView": "bufferView_253",
            "byteOffset": 0,
            "byteStride": 0,
            "componentType": 5123,
            "count": 348,
            "type": "SCALAR"
        },
        "accessor_223": {
            "bufferView": "bufferView_253",
            "byteOffset": 696,
            "byteStride": 0,
            "componentType": 5123,
            "count": 162,
            "type": "SCALAR"
        },
        "accessor_226": {
            "bufferView": "bufferView_253",
            "byteOffset": 1020,
            "byteStride": 0,
            "componentType": 5123,
            "count": 312,
            "type": "SCALAR"
        },
        "accessor_229": {
            "bufferView": "bufferView_253",
            "byteOffset": 1644,
            "byteStride": 0,
            "componentType": 5123,
            "count": 48,
            "type": "SCALAR"
        },
        "accessor_232": {
            "bufferView": "bufferView_253",
            "byteOffset": 1740,
            "byteStride": 0,
            "componentType": 5123,
            "count": 612,
            "type": "SCALAR"
        },
        "accessor_235": {
            "bufferView": "bufferView_253",
            "byteOffset": 2964,
            "byteStride": 0,
            "componentType": 5123,
            "count": 54,
            "type": "SCALAR"
        },
        "accessor_238": {
            "bufferView": "bufferView_253",
            "byteOffset": 3072,
            "byteStride": 0,
            "componentType": 5123,
            "count": 24,
            "type": "SCALAR"
        },
        "accessor_241": {
            "bufferView": "bufferView_253",
            "byteOffset": 3120,
            "byteStride": 0,
            "componentType": 5123,
            "count": 54,
            "type": "SCALAR"
        },
        "accessor_243": {
            "bufferView": "bufferView_254",
            "byteOffset": 0,
            "byteStride": 12,
            "componentType": 5126,
            "count": 1598,
            "max": [
                14.5352,
                16.6564,
                6.03439
            ],
            "min": [
                4.41933,
                6.54053,
                -1.78814e-07
            ],
            "type": "VEC3"
        },
        "accessor_245": {
            "bufferView": "bufferView_254",
            "byteOffset": 19176,
            "byteStride": 12,
            "componentType": 5126,
            "count": 1598,
            "max": [
                0.796115,
                0.79612,
                1
            ],
            "min": [
                -0.796112,
                -0.796101,
                -1
            ],
            "type": "VEC3"
        },
        "accessor_247": {
            "bufferView": "bufferView_254",
            "byteOffset": 38352,
            "byteStride": 8,
            "componentType": 5126,
            "count": 1598,
            "max": [
                6.9965,
                1.99139
            ],
            "min": [
                -1.85511,
                -5.9965
            ],
            "type": "VEC2"
        },
        "accessor_249": {
            "bufferView": "bufferView_254",
            "byteOffset": 51136,
            "byteStride": 12,
            "componentType": 5126,
            "count": 1598,
            "max": [
                0.889751,
                0.949681,
                1
            ],
            "min": [
                -0.949685,
                -0.949681,
                -0.632551
            ],
            "type": "VEC3"
        },
        "accessor_251": {
            "bufferView": "bufferView_254",
            "byteOffset": 70312,
            "byteStride": 12,
            "componentType": 5126,
            "count": 1598,
            "max": [
                0.949681,
                0.949685,
                1
            ],
            "min": [
                -0.949681,
                -0.889751,
                -1
            ],
            "type": "VEC3"
        }
    },
    "animations": {},
    "asset": {
        "generator": "collada2gltf@11bf28f97f1b5380fbefacf862ce7c597873d368",
        "premultipliedAlpha": true,
        "profile": {
            "api": "WebGL",
            "version": "1.0.2"
        },
        "version": 1
    },
    "bufferViews": {
        "bufferView_253": {
            "buffer": "jz58",
            "byteLength": 3228,
            "byteOffset": 0,
            "target": 34963
        },
        "bufferView_254": {
            "buffer": "jz58",
            "byteLength": 89488,
            "byteOffset": 3228,
            "target": 34962
        }
    },
    "buffers": {
        "jz58": {
            "byteLength": 92716,
            "type": "arraybuffer",
            "uri": "data:application/octet-stream;base64,"
        }
    },
    "images": {
        "sy16051137_png": {
            "name": "sy16051137_png",
            "uri": "data:image/png;base64,"
        },
        "sy16062023_png": {
            "name": "sy16062023_png",
            "uri": "data:image/png;base64,"
        },
        "sy16062027_png": {
            "name": "sy16062027_png",
            "uri": "data:image/png;base64,"
        },
        "sy16062043_png": {
            "name": "sy16062043_png",
            "uri": "data:image/png;base64,"
        },
        "sy16062045_png": {
            "name": "sy16062045_png",
            "uri": "data:image/png;base64,"
        },
        "sy16062046_png": {
            "name": "sy16062046_png",
            "uri": "data:image/png;base64,"
        },
        "sy16062047_png": {
            "name": "sy16062047_png",
            "uri": "data:image/png;base64,"
        },
        "sy16062048_png": {
            "name": "sy16062048_png",
            "uri": "data:image/png;base64,"
        }
    },
    "materials": {
        "sy16051137": {
            "name": "sy16051137",
            "technique": "technique1",
            "values": {
                "ambient": "texture_sy16051137_png",
                "diffuse": "texture_sy16051137_png",
                "emission": [
                    0,
                    0,
                    0,
                    1
                ],
                "shininess": 0,
                "specular": [
                    0.9,
                    0.9,
                    0.9,
                    1
                ]
            }
        },
        "sy16062023": {
            "name": "sy16062023",
            "technique": "technique2",
            "values": {
                "ambient": "texture_sy16062023_png",
                "diffuse": "texture_sy16062023_png",
                "emission": [
                    0,
                    0,
                    0,
                    1
                ],
                "shininess": 0,
                "specular": [
                    0.9,
                    0.9,
                    0.9,
                    1
                ]
            }
        },
        "sy16062027": {
            "name": "sy16062027",
            "technique": "technique1",
            "values": {
                "ambient": "texture_sy16062027_png",
                "diffuse": "texture_sy16062027_png",
                "emission": [
                    0,
                    0,
                    0,
                    1
                ],
                "shininess": 0,
                "specular": [
                    0.9,
                    0.9,
                    0.9,
                    1
                ]
            }
        },
        "sy16062043": {
            "name": "sy16062043",
            "technique": "technique1",
            "values": {
                "ambient": "texture_sy16062043_png",
                "diffuse": "texture_sy16062043_png",
                "emission": [
                    0,
                    0,
                    0,
                    1
                ],
                "shininess": 0,
                "specular": [
                    0.9,
                    0.9,
                    0.9,
                    1
                ]
            }
        },
        "sy16062045": {
            "name": "sy16062045",
            "technique": "technique1",
            "values": {
                "ambient": "texture_sy16062045_png",
                "diffuse": "texture_sy16062045_png",
                "emission": [
                    0,
                    0,
                    0,
                    1
                ],
                "shininess": 0,
                "specular": [
                    0.9,
                    0.9,
                    0.9,
                    1
                ]
            }
        },
        "sy16062046": {
            "name": "sy16062046",
            "technique": "technique1",
            "values": {
                "ambient": "texture_sy16062046_png",
                "diffuse": "texture_sy16062046_png",
                "emission": [
                    0,
                    0,
                    0,
                    1
                ],
                "shininess": 0,
                "specular": [
                    0.9,
                    0.9,
                    0.9,
                    1
                ]
            }
        },
        "sy16062047": {
            "name": "sy16062047",
            "technique": "technique1",
            "values": {
                "ambient": "texture_sy16062047_png",
                "diffuse": "texture_sy16062047_png",
                "emission": [
                    0,
                    0,
                    0,
                    1
                ],
                "shininess": 0,
                "specular": [
                    0.9,
                    0.9,
                    0.9,
                    1
                ]
            }
        },
        "sy16062048": {
            "name": "sy16062048",
            "technique": "technique1",
            "values": {
                "ambient": "texture_sy16062048_png",
                "diffuse": "texture_sy16062048_png",
                "emission": [
                    0,
                    0,
                    0,
                    1
                ],
                "shininess": 0,
                "specular": [
                    0.9,
                    0.9,
                    0.9,
                    1
                ]
            }
        }
    },
    "meshes": {
        "geom-jz58": {
            "name": "jz58",
            "primitives": [
                {
                    "attributes": {
                        "NORMAL": "accessor_245",
                        "POSITION": "accessor_243",
                        "TEXBINORMAL": "accessor_251",
                        "TEXCOORD_0": "accessor_247",
                        "TEXTANGENT": "accessor_249"
                    },
                    "indices": "accessor_220",
                    "material": "sy16062045",
                    "mode": 4
                },
                {
                    "attributes": {
                        "NORMAL": "accessor_245",
                        "POSITION": "accessor_243",
                        "TEXBINORMAL": "accessor_251",
                        "TEXCOORD_0": "accessor_247",
                        "TEXTANGENT": "accessor_249"
                    },
                    "indices": "accessor_223",
                    "material": "sy16051137",
                    "mode": 4
                },
                {
                    "attributes": {
                        "NORMAL": "accessor_245",
                        "POSITION": "accessor_243",
                        "TEXBINORMAL": "accessor_251",
                        "TEXCOORD_0": "accessor_247",
                        "TEXTANGENT": "accessor_249"
                    },
                    "indices": "accessor_226",
                    "material": "sy16062027",
                    "mode": 4
                },
                {
                    "attributes": {
                        "NORMAL": "accessor_245",
                        "POSITION": "accessor_243",
                        "TEXBINORMAL": "accessor_251",
                        "TEXCOORD_0": "accessor_247",
                        "TEXTANGENT": "accessor_249"
                    },
                    "indices": "accessor_229",
                    "material": "sy16062043",
                    "mode": 4
                },
                {
                    "attributes": {
                        "NORMAL": "accessor_245",
                        "POSITION": "accessor_243",
                        "TEXBINORMAL": "accessor_251",
                        "TEXCOORD_0": "accessor_247",
                        "TEXTANGENT": "accessor_249"
                    },
                    "indices": "accessor_232",
                    "material": "sy16062046",
                    "mode": 4
                },
                {
                    "attributes": {
                        "NORMAL": "accessor_245",
                        "POSITION": "accessor_243",
                        "TEXBINORMAL": "accessor_251",
                        "TEXCOORD_0": "accessor_247",
                        "TEXTANGENT": "accessor_249"
                    },
                    "indices": "accessor_235",
                    "material": "sy16062047",
                    "mode": 4
                },
                {
                    "attributes": {
                        "NORMAL": "accessor_245",
                        "POSITION": "accessor_243",
                        "TEXBINORMAL": "accessor_251",
                        "TEXCOORD_0": "accessor_247",
                        "TEXTANGENT": "accessor_249"
                    },
                    "indices": "accessor_238",
                    "material": "sy16062023",
                    "mode": 4
                },
                {
                    "attributes": {
                        "NORMAL": "accessor_245",
                        "POSITION": "accessor_243",
                        "TEXBINORMAL": "accessor_251",
                        "TEXCOORD_0": "accessor_247",
                        "TEXTANGENT": "accessor_249"
                    },
                    "indices": "accessor_241",
                    "material": "sy16062048",
                    "mode": 4
                }
            ]
        }
    },
    "nodes": {
        "node-jz58": {
            "children": [
                "node_2"
            ],
            "matrix": [
                1,
                0,
                0,
                0,
                0,
                1,
                0,
                0,
                0,
                0,
                1,
                0,
                0,
                0,
                3.0172,
                1
            ],
            "name": "jz58"
        },
        "node_0": {
            "children": [],
            "matrix": [
                1,
                0,
                0,
                0,
                0,
                1,
                0,
                0,
                0,
                0,
                1,
                0,
                0,
                0,
                0,
                1
            ],
            "name": "EnvironmentAmbientLight"
        },
        "node_2": {
            "children": [],
            "matrix": [
                1,
                0,
                0,
                0,
                0,
                1,
                0,
                0,
                0,
                0,
                1,
                0,
                -9.47725,
                -11.5984,
                -3.0172,
                1
            ],
            "meshes": [
                "geom-jz58"
            ],
            "name": ""
        },
        "node_3": {
            "children": [
                "node_0",
                "node-jz58"
            ],
            "matrix": [
                1,
                0,
                0,
                0,
                0,
                0,
                -1,
                0,
                0,
                1,
                0,
                0,
                0,
                0,
                0,
                1
            ],
            "name": "Y_UP_Transform"
        }
    },
    "programs": {
        "program_0": {
            "attributes": [
                "a_normal",
                "a_position",
                "a_texcoord0"
            ],
            "fragmentShader": "jz580FS",
            "vertexShader": "jz580VS"
        },
        "program_1": {
            "attributes": [
                "a_normal",
                "a_position",
                "a_texcoord0"
            ],
            "fragmentShader": "jz581FS",
            "vertexShader": "jz581VS"
        }
    },
    "samplers": {
        "sampler_0": {
            "magFilter": 9729,
            "minFilter": 9729,
            "wrapS": 10497,
            "wrapT": 10497
        }
    },
    "scene": "defaultScene",
    "scenes": {
        "defaultScene": {
            "nodes": [
                "node_3"
            ]
        }
    },
    "shaders": {
        "jz580FS": {
            "type": 35632,
            "uri": "data:text/plain;base64,"
        },
        "jz580VS": {
            "type": 35633,
            "uri": "data:text/plain;base64,"
        },
        "jz581FS": {
            "type": 35632,
            "uri": "data:text/plain;base64,"
        },
        "jz581VS": {
            "type": 35633,
            "uri": "data:text/plain;base64,"
        }
    },
    "skins": {},
    "techniques": {
        "technique1": {
            "attributes": {
                "a_normal": "normal",
                "a_position": "position",
                "a_texcoord0": "texcoord0"
            },
            "parameters": {
                "ambient": {
                    "type": 35678
                },
                "diffuse": {
                    "type": 35678
                },
                "emission": {
                    "type": 35666
                },
                "modelViewMatrix": {
                    "semantic": "MODELVIEW",
                    "type": 35676
                },
                "normal": {
                    "semantic": "NORMAL",
                    "type": 35665
                },
                "normalMatrix": {
                    "semantic": "MODELVIEWINVERSETRANSPOSE",
                    "type": 35675
                },
                "position": {
                    "semantic": "POSITION",
                    "type": 35665
                },
                "projectionMatrix": {
                    "semantic": "PROJECTION",
                    "type": 35676
                },
                "shininess": {
                    "type": 5126
                },
                "specular": {
                    "type": 35666
                },
                "texcoord0": {
                    "semantic": "TEXCOORD_0",
                    "type": 35664
                }
            },
            "program": "program_0",
            "states": {
                "enable": [
                    2929,
                    3042
                ],
                "functions": {
                    "blendEquationSeparate": [
                        32774,
                        32774
                    ],
                    "blendFuncSeparate": [
                        1,
                        771,
                        1,
                        771
                    ],
                    "depthMask": false
                }
            },
            "uniforms": {
                "u_ambient": "ambient",
                "u_diffuse": "diffuse",
                "u_emission": "emission",
                "u_modelViewMatrix": "modelViewMatrix",
                "u_normalMatrix": "normalMatrix",
                "u_projectionMatrix": "projectionMatrix",
                "u_shininess": "shininess",
                "u_specular": "specular"
            }
        },
        "technique2": {
            "attributes": {
                "a_normal": "normal",
                "a_position": "position",
                "a_texcoord0": "texcoord0"
            },
            "parameters": {
                "ambient": {
                    "type": 35678
                },
                "diffuse": {
                    "type": 35678
                },
                "emission": {
                    "type": 35666
                },
                "modelViewMatrix": {
                    "semantic": "MODELVIEW",
                    "type": 35676
                },
                "normal": {
                    "semantic": "NORMAL",
                    "type": 35665
                },
                "normalMatrix": {
                    "semantic": "MODELVIEWINVERSETRANSPOSE",
                    "type": 35675
                },
                "position": {
                    "semantic": "POSITION",
                    "type": 35665
                },
                "projectionMatrix": {
                    "semantic": "PROJECTION",
                    "type": 35676
                },
                "shininess": {
                    "type": 5126
                },
                "specular": {
                    "type": 35666
                },
                "texcoord0": {
                    "semantic": "TEXCOORD_0",
                    "type": 35664
                }
            },
            "program": "program_1",
            "states": {
                "enable": [
                    2929,
                    2884
                ]
            },
            "uniforms": {
                "u_ambient": "ambient",
                "u_diffuse": "diffuse",
                "u_emission": "emission",
                "u_modelViewMatrix": "modelViewMatrix",
                "u_normalMatrix": "normalMatrix",
                "u_projectionMatrix": "projectionMatrix",
                "u_shininess": "shininess",
                "u_specular": "specular"
            }
        }
    },
    "textures": {
        "texture_sy16051137_png": {
            "format": 6408,
            "internalFormat": 6408,
            "sampler": "sampler_0",
            "source": "sy16051137_png",
            "target": 3553,
            "type": 5121
        },
        "texture_sy16062023_png": {
            "format": 6408,
            "internalFormat": 6408,
            "sampler": "sampler_0",
            "source": "sy16062023_png",
            "target": 3553,
            "type": 5121
        },
        "texture_sy16062027_png": {
            "format": 6408,
            "internalFormat": 6408,
            "sampler": "sampler_0",
            "source": "sy16062027_png",
            "target": 3553,
            "type": 5121
        },
        "texture_sy16062043_png": {
            "format": 6408,
            "internalFormat": 6408,
            "sampler": "sampler_0",
            "source": "sy16062043_png",
            "target": 3553,
            "type": 5121
        },
        "texture_sy16062045_png": {
            "format": 6408,
            "internalFormat": 6408,
            "sampler": "sampler_0",
            "source": "sy16062045_png",
            "target": 3553,
            "type": 5121
        },
        "texture_sy16062046_png": {
            "format": 6408,
            "internalFormat": 6408,
            "sampler": "sampler_0",
            "source": "sy16062046_png",
            "target": 3553,
            "type": 5121
        },
        "texture_sy16062047_png": {
            "format": 6408,
            "internalFormat": 6408,
            "sampler": "sampler_0",
            "source": "sy16062047_png",
            "target": 3553,
            "type": 5121
        },
        "texture_sy16062048_png": {
            "format": 6408,
            "internalFormat": 6408,
            "sampler": "sampler_0",
            "source": "sy16062048_png",
            "target": 3553,
            "type": 5121
        }
    }
}