{
    "accessors": {
        "accessor_123": {
            "bufferView": "bufferView_149",
            "byteOffset": 0,
            "byteStride": 0,
            "componentType": 5123,
            "count": 3120,
            "type": "SCALAR"
        },
        "accessor_126": {
            "bufferView": "bufferView_149",
            "byteOffset": 6240,
            "byteStride": 0,
            "componentType": 5123,
            "count": 1320,
            "type": "SCALAR"
        },
        "accessor_129": {
            "bufferView": "bufferView_149",
            "byteOffset": 8880,
            "byteStride": 0,
            "componentType": 5123,
            "count": 1056,
            "type": "SCALAR"
        },
        "accessor_132": {
            "bufferView": "bufferView_149",
            "byteOffset": 10992,
            "byteStride": 0,
            "componentType": 5123,
            "count": 528,
            "type": "SCALAR"
        },
        "accessor_135": {
            "bufferView": "bufferView_149",
            "byteOffset": 12048,
            "byteStride": 0,
            "componentType": 5123,
            "count": 6,
            "type": "SCALAR"
        },
        "accessor_138": {
            "bufferView": "bufferView_149",
            "byteOffset": 12060,
            "byteStride": 0,
            "componentType": 5123,
            "count": 375,
            "type": "SCALAR"
        },
        "accessor_141": {
            "bufferView": "bufferView_149",
            "byteOffset": 12810,
            "byteStride": 0,
            "componentType": 5123,
            "count": 216,
            "type": "SCALAR"
        },
        "accessor_143": {
            "bufferView": "bufferView_150",
            "byteOffset": 0,
            "byteStride": 12,
            "componentType": 5126,
            "count": 6335,
            "max": [
                19.9624,
                82.0974,
                112.515
            ],
            "min": [
                -26.6014,
                36.1367,
                -0.519184
            ],
            "type": "VEC3"
        },
        "accessor_145": {
            "bufferView": "bufferView_150",
            "byteOffset": 76020,
            "byteStride": 12,
            "componentType": 5126,
            "count": 6335,
            "max": [
                0.978012,
                0.978018,
                1
            ],
            "min": [
                -0.978012,
                -0.978018,
                -1
            ],
            "type": "VEC3"
        },
        "accessor_147": {
            "bufferView": "bufferView_150",
            "byteOffset": 152040,
            "byteStride": 8,
            "componentType": 5126,
            "count": 6335,
            "max": [
                1,
                1
            ],
            "min": [
                0,
                -9.30486
            ],
            "type": "VEC2"
        }
    },
    "animations": {},
    "asset": {
        "generator": "collada2gltf@11bf28f97f1b5380fbefacf862ce7c597873d368",
        "premultipliedAlpha": true,
        "profile": {
            "api": "WebGL",
            "version": "1.0.2"
        },
        "version": 1
    },
    "bufferViews": {
        "bufferView_149": {
            "buffer": "test03",
            "byteLength": 13244,
            "byteOffset": 0,
            "target": 34963
        },
        "bufferView_150": {
            "buffer": "test03",
            "byteLength": 202720,
            "byteOffset": 13244,
            "target": 34962
        }
    },
    "buffers": {
        "test03": {
            "byteLength": 215964,
            "type": "arraybuffer",
            "uri": "data:application/octet-stream;base64,"
        }
    },
    "images": {
        "sy16051101_png": {
            "name": "sy16051101_png",
            "uri": "data:image/png;base64,"
        },
        "sy16051102_png": {
            "name": "sy16051102_png",
            "uri": "data:image/png;base64,"
        },
        "sy16051103_png": {
            "name": "sy16051103_png",
            "uri": "data:image/png;base64,"
        },
        "sy16051104_png": {
            "name": "sy16051104_png",
            "uri": "data:image/png;base64,"
        },
        "sy16051106_png": {
            "name": "sy16051106_png",
            "uri": "data:image/png;base64,"
        }
    },
    "materials": {
        "Material__4031": {
            "name": "Material__4031",
            "technique": "technique1",
            "values": {
                "ambient": "texture_sy16051106_png",
                "diffuse": "texture_sy16051106_png",
                "emission": [
                    0,
                    0,
                    0,
                    1
                ],
                "shininess": 0,
                "specular": [
                    0.9,
                    0.9,
                    0.9,
                    1
                ]
            }
        },
        "Material__4044": {
            "name": "Material__4044",
            "technique": "technique1",
            "values": {
                "ambient": "texture_sy16051104_png",
                "diffuse": "texture_sy16051104_png",
                "emission": [
                    0,
                    0,
                    0,
                    1
                ],
                "shininess": 0,
                "specular": [
                    0.9,
                    0.9,
                    0.9,
                    1
                ]
            }
        },
        "Material__4045": {
            "name": "Material__4045",
            "technique": "technique1",
            "values": {
                "ambient": "texture_sy16051103_png",
                "diffuse": "texture_sy16051103_png",
                "emission": [
                    0,
                    0,
                    0,
                    1
                ],
                "shininess": 0,
                "specular": [
                    0.9,
                    0.9,
                    0.9,
                    1
                ]
            }
        },
        "Material__4130": {
            "name": "Material__4130",
            "technique": "technique1",
            "values": {
                "ambient": "texture_sy16051101_png",
                "diffuse": "texture_sy16051101_png",
                "emission": [
                    0,
                    0,
                    0,
                    1
                ],
                "shininess": 0,
                "specular": [
                    0.9,
                    0.9,
                    0.9,
                    1
                ]
            }
        },
        "Material__4142": {
            "name": "Material__4142",
            "technique": "technique1",
            "values": {
                "ambient": "texture_sy16051102_png",
                "diffuse": "texture_sy16051102_png",
                "emission": [
                    0,
                    0,
                    0,
                    1
                ],
                "shininess": 0,
                "specular": [
                    0.9,
                    0.9,
                    0.9,
                    1
                ]
            }
        },
        "Standard_3": {
            "name": "Standard_3",
            "technique": "technique2",
            "values": {
                "ambient": [
                    0.588,
                    0.588,
                    0.588,
                    1
                ],
                "diffuse": [
                    0.588,
                    0.588,
                    0.588,
                    1
                ],
                "emission": [
                    0,
                    0,
                    0,
                    1
                ],
                "shininess": 0,
                "specular": [
                    0.9,
                    0.9,
                    0.9,
                    1
                ]
            }
        },
        "Standard_5": {
            "name": "Standard_5",
            "technique": "technique2",
            "values": {
                "ambient": [
                    0.866667,
                    0.866667,
                    0.866667,
                    1
                ],
                "diffuse": [
                    0.866667,
                    0.866667,
                    0.866667,
                    1
                ],
                "emission": [
                    0,
                    0,
                    0,
                    1
                ],
                "shininess": 0,
                "specular": [
                    0.9,
                    0.9,
                    0.9,
                    1
                ]
            }
        }
    },
    "meshes": {
        "geom-test03": {
            "name": "test03",
            "primitives": [
                {
                    "attributes": {
                        "NORMAL": "accessor_145",
                        "POSITION": "accessor_143",
                        "TEXCOORD_0": "accessor_147"
                    },
                    "indices": "accessor_123",
                    "material": "Material__4044",
                    "mode": 4
                },
                {
                    "attributes": {
                        "NORMAL": "accessor_145",
                        "POSITION": "accessor_143",
                        "TEXCOORD_0": "accessor_147"
                    },
                    "indices": "accessor_126",
                    "material": "Material__4031",
                    "mode": 4
                },
                {
                    "attributes": {
                        "NORMAL": "accessor_145",
                        "POSITION": "accessor_143",
                        "TEXCOORD_0": "accessor_147"
                    },
                    "indices": "accessor_129",
                    "material": "Material__4045",
                    "mode": 4
                },
                {
                    "attributes": {
                        "NORMAL": "accessor_145",
                        "POSITION": "accessor_143",
                        "TEXCOORD_0": "accessor_147"
                    },
                    "indices": "accessor_132",
                    "material": "Standard_3",
                    "mode": 4
                },
                {
                    "attributes": {
                        "NORMAL": "accessor_145",
                        "POSITION": "accessor_143",
                        "TEXCOORD_0": "accessor_147"
                    },
                    "indices": "accessor_135",
                    "material": "Standard_5",
                    "mode": 4
                },
                {
                    "attributes": {
                        "NORMAL": "accessor_145",
                        "POSITION": "accessor_143",
                        "TEXCOORD_0": "accessor_147"
                    },
                    "indices": "accessor_138",
                    "material": "Material__4130",
                    "mode": 4
                },
                {
                    "attributes": {
                        "NORMAL": "accessor_145",
                        "POSITION": "accessor_143",
                        "TEXCOORD_0": "accessor_147"
                    },
                    "indices": "accessor_141",
                    "material": "Material__4142",
                    "mode": 4
                }
            ]
        }
    },
    "nodes": {
        "node-test03": {
            "children": [
                "node_2"
            ],
            "matrix": [
                1,
                0,
                0,
                0,
                0,
                1,
                0,
                0,
                0,
                0,
                1,
                0,
                188.902,
                317.61,
                55.9978,
                1
            ],
            "name": "test03"
        },
        "node_0": {
            "children": [],
            "matrix": [
                1,
                0,
                0,
                0,
                0,
                1,
                0,
                0,
                0,
                0,
                1,
                0,
                0,
                0,
                0,
                1
            ],
            "name": "EnvironmentAmbientLight"
        },
        "node_2": {
            "children": [],
            "matrix": [
                1,
                0,
                0,
                0,
                0,
                1,
                0,
                0,
                0,
                0,
                1,
                0,
                3.31947,
                -59.1171,
                -55.9978,
                1
            ],
            "meshes": [
                "geom-test03"
            ],
            "name": ""
        },
        "node_3": {
            "children": [
                "node_0",
                "node-test03"
            ],
            "matrix": [
                1,
                0,
                0,
                0,
                0,
                0,
                -1,
                0,
                0,
                1,
                0,
                0,
                0,
                0,
                0,
                1
            ],
            "name": "Y_UP_Transform"
        }
    },
    "programs": {
        "program_0": {
            "attributes": [
                "a_normal",
                "a_position",
                "a_texcoord0"
            ],
            "fragmentShader": "test030FS",
            "vertexShader": "test030VS"
        },
        "program_1": {
            "attributes": [
                "a_normal",
                "a_position"
            ],
            "fragmentShader": "test031FS",
            "vertexShader": "test031VS"
        }
    },
    "samplers": {
        "sampler_0": {
            "magFilter": 9729,
            "minFilter": 9729,
            "wrapS": 10497,
            "wrapT": 10497
        }
    },
    "scene": "defaultScene",
    "scenes": {
        "defaultScene": {
            "nodes": [
                "node_3"
            ]
        }
    },
    "shaders": {
        "test030FS": {
            "type": 35632,
            "uri": "data:text/plain;base64,"
        },
        "test030VS": {
            "type": 35633,
            "uri": "data:text/plain;base64,"
        },
        "test031FS": {
            "type": 35632,
            "uri": "data:text/plain;base64,"
        },
        "test031VS": {
            "type": 35633,
            "uri": "data:text/plain;base64,"
        }
    },
    "skins": {},
    "techniques": {
        "technique1": {
            "attributes": {
                "a_normal": "normal",
                "a_position": "position",
                "a_texcoord0": "texcoord0"
            },
            "parameters": {
                "ambient": {
                    "type": 35678
                },
                "diffuse": {
                    "type": 35678
                },
                "emission": {
                    "type": 35666
                },
                "modelViewMatrix": {
                    "semantic": "MODELVIEW",
                    "type": 35676
                },
                "normal": {
                    "semantic": "NORMAL",
                    "type": 35665
                },
                "normalMatrix": {
                    "semantic": "MODELVIEWINVERSETRANSPOSE",
                    "type": 35675
                },
                "position": {
                    "semantic": "POSITION",
                    "type": 35665
                },
                "projectionMatrix": {
                    "semantic": "PROJECTION",
                    "type": 35676
                },
                "shininess": {
                    "type": 5126
                },
                "specular": {
                    "type": 35666
                },
                "texcoord0": {
                    "semantic": "TEXCOORD_0",
                    "type": 35664
                }
            },
            "program": "program_0",
            "states": {
                "enable": [
                    2929,
                    2884
                ]
            },
            "uniforms": {
                "u_ambient": "ambient",
                "u_diffuse": "diffuse",
                "u_emission": "emission",
                "u_modelViewMatrix": "modelViewMatrix",
                "u_normalMatrix": "normalMatrix",
                "u_projectionMatrix": "projectionMatrix",
                "u_shininess": "shininess",
                "u_specular": "specular"
            }
        },
        "technique2": {
            "attributes": {
                "a_normal": "normal",
                "a_position": "position"
            },
            "parameters": {
                "ambient": {
                    "type": 35666
                },
                "diffuse": {
                    "type": 35666
                },
                "emission": {
                    "type": 35666
                },
                "modelViewMatrix": {
                    "semantic": "MODELVIEW",
                    "type": 35676
                },
                "normal": {
                    "semantic": "NORMAL",
                    "type": 35665
                },
                "normalMatrix": {
                    "semantic": "MODELVIEWINVERSETRANSPOSE",
                    "type": 35675
                },
                "position": {
                    "semantic": "POSITION",
                    "type": 35665
                },
                "projectionMatrix": {
                    "semantic": "PROJECTION",
                    "type": 35676
                },
                "shininess": {
                    "type": 5126
                },
                "specular": {
                    "type": 35666
                }
            },
            "program": "program_1",
            "states": {
                "enable": [
                    2929,
                    2884
                ]
            },
            "uniforms": {
                "u_ambient": "ambient",
                "u_diffuse": "diffuse",
                "u_emission": "emission",
                "u_modelViewMatrix": "modelViewMatrix",
                "u_normalMatrix": "normalMatrix",
                "u_projectionMatrix": "projectionMatrix",
                "u_shininess": "shininess",
                "u_specular": "specular"
            }
        }
    },
    "textures": {
        "texture_sy16051101_png": {
            "format": 6408,
            "internalFormat": 6408,
            "sampler": "sampler_0",
            "source": "sy16051101_png",
            "target": 3553,
            "type": 5121
        },
        "texture_sy16051102_png": {
            "format": 6408,
            "internalFormat": 6408,
            "sampler": "sampler_0",
            "source": "sy16051102_png",
            "target": 3553,
            "type": 5121
        },
        "texture_sy16051103_png": {
            "format": 6408,
            "internalFormat": 6408,
            "sampler": "sampler_0",
            "source": "sy16051103_png",
            "target": 3553,
            "type": 5121
        },
        "texture_sy16051104_png": {
            "format": 6408,
            "internalFormat": 6408,
            "sampler": "sampler_0",
            "source": "sy16051104_png",
            "target": 3553,
            "type": 5121
        },
        "texture_sy16051106_png": {
            "format": 6408,
            "internalFormat": 6408,
            "sampler": "sampler_0",
            "source": "sy16051106_png",
            "target": 3553,
            "type": 5121
        }
    }
}