{
    "accessors": {
        "accessor_106": {
            "bufferView": "bufferView_129",
            "byteOffset": 0,
            "byteStride": 0,
            "componentType": 5123,
            "count": 3846,
            "type": "SCALAR"
        },
        "accessor_109": {
            "bufferView": "bufferView_129",
            "byteOffset": 7692,
            "byteStride": 0,
            "componentType": 5123,
            "count": 4842,
            "type": "SCALAR"
        },
        "accessor_112": {
            "bufferView": "bufferView_129",
            "byteOffset": 17376,
            "byteStride": 0,
            "componentType": 5123,
            "count": 1716,
            "type": "SCALAR"
        },
        "accessor_115": {
            "bufferView": "bufferView_129",
            "byteOffset": 20808,
            "byteStride": 0,
            "componentType": 5123,
            "count": 762,
            "type": "SCALAR"
        },
        "accessor_118": {
            "bufferView": "bufferView_129",
            "byteOffset": 22332,
            "byteStride": 0,
            "componentType": 5123,
            "count": 174,
            "type": "SCALAR"
        },
        "accessor_121": {
            "bufferView": "bufferView_129",
            "byteOffset": 22680,
            "byteStride": 0,
            "componentType": 5123,
            "count": 120,
            "type": "SCALAR"
        },
        "accessor_123": {
            "bufferView": "bufferView_130",
            "byteOffset": 0,
            "byteStride": 12,
            "componentType": 5126,
            "count": 11044,
            "max": [
                52.4202,
                13.2047,
                102.889
            ],
            "min": [
                30.1401,
                -70.4621,
                -1.17701
            ],
            "type": "VEC3"
        },
        "accessor_125": {
            "bufferView": "bufferView_130",
            "byteOffset": 132528,
            "byteStride": 12,
            "componentType": 5126,
            "count": 11044,
            "max": [
                1,
                1,
                1
            ],
            "min": [
                -1,
                -1,
                -1
            ],
            "type": "VEC3"
        },
        "accessor_127": {
            "bufferView": "bufferView_130",
            "byteOffset": 265056,
            "byteStride": 8,
            "componentType": 5126,
            "count": 11044,
            "max": [
                2.77337,
                1
            ],
            "min": [
                0,
                -16.7362
            ],
            "type": "VEC2"
        }
    },
    "animations": {},
    "asset": {
        "generator": "collada2gltf@11bf28f97f1b5380fbefacf862ce7c597873d368",
        "premultipliedAlpha": true,
        "profile": {
            "api": "WebGL",
            "version": "1.0.2"
        },
        "version": 1
    },
    "bufferViews": {
        "bufferView_129": {
            "buffer": "test08",
            "byteLength": 22920,
            "byteOffset": 0,
            "target": 34963
        },
        "bufferView_130": {
            "buffer": "test08",
            "byteLength": 353408,
            "byteOffset": 22920,
            "target": 34962
        }
    },
    "buffers": {
        "test08": {
            "byteLength": 376328,
            "type": "arraybuffer",
            "uri": "data:application/octet-stream;base64,"
        }
    },
    "images": {
        "sy16051101_png": {
            "name": "sy16051101_png",
            "uri": "data:image/png;base64,"
        },
        "sy16051102_png": {
            "name": "sy16051102_png",
            "uri": "data:image/png;base64,"
        },
        "sy16051103_png": {
            "name": "sy16051103_png",
            "uri": "data:image/png;base64,"
        },
        "sy16051104_png": {
            "name": "sy16051104_png",
            "uri": "data:image/png;base64,"
        },
        "sy16051106_png": {
            "name": "sy16051106_png",
            "uri": "data:image/png;base64,"
        }
    },
    "materials": {
        "Material__4142": {
            "name": "Material__4142",
            "technique": "technique1",
            "values": {
                "ambient": "texture_sy16051102_png",
                "diffuse": "texture_sy16051102_png",
                "emission": [
                    0,
                    0,
                    0,
                    1
                ],
                "shininess": 0,
                "specular": [
                    0.9,
                    0.9,
                    0.9,
                    1
                ]
            }
        },
        "Material__4144": {
            "name": "Material__4144",
            "technique": "technique1",
            "values": {
                "ambient": "texture_sy16051101_png",
                "diffuse": "texture_sy16051101_png",
                "emission": [
                    0,
                    0,
                    0,
                    1
                ],
                "shininess": 0,
                "specular": [
                    0.9,
                    0.9,
                    0.9,
                    1
                ]
            }
        },
        "Standard_3": {
            "name": "Standard_3",
            "technique": "technique2",
            "values": {
                "ambient": [
                    0.588,
                    0.588,
                    0.588,
                    1
                ],
                "diffuse": [
                    0.588,
                    0.588,
                    0.588,
                    1
                ],
                "emission": [
                    0,
                    0,
                    0,
                    1
                ],
                "shininess": 0,
                "specular": [
                    0.9,
                    0.9,
                    0.9,
                    1
                ]
            }
        },
        "sy16051103": {
            "name": "sy16051103",
            "technique": "technique1",
            "values": {
                "ambient": "texture_sy16051103_png",
                "diffuse": "texture_sy16051103_png",
                "emission": [
                    0,
                    0,
                    0,
                    1
                ],
                "shininess": 0,
                "specular": [
                    0.9,
                    0.9,
                    0.9,
                    1
                ]
            }
        },
        "sy16051104": {
            "name": "sy16051104",
            "technique": "technique1",
            "values": {
                "ambient": "texture_sy16051104_png",
                "diffuse": "texture_sy16051104_png",
                "emission": [
                    0,
                    0,
                    0,
                    1
                ],
                "shininess": 0,
                "specular": [
                    0.9,
                    0.9,
                    0.9,
                    1
                ]
            }
        },
        "sy16051106": {
            "name": "sy16051106",
            "technique": "technique1",
            "values": {
                "ambient": "texture_sy16051106_png",
                "diffuse": "texture_sy16051106_png",
                "emission": [
                    0,
                    0,
                    0,
                    1
                ],
                "shininess": 0,
                "specular": [
                    0.9,
                    0.9,
                    0.9,
                    1
                ]
            }
        }
    },
    "meshes": {
        "geom-test08": {
            "name": "test08",
            "primitives": [
                {
                    "attributes": {
                        "NORMAL": "accessor_125",
                        "POSITION": "accessor_123",
                        "TEXCOORD_0": "accessor_127"
                    },
                    "indices": "accessor_106",
                    "material": "sy16051104",
                    "mode": 4
                },
                {
                    "attributes": {
                        "NORMAL": "accessor_125",
                        "POSITION": "accessor_123",
                        "TEXCOORD_0": "accessor_127"
                    },
                    "indices": "accessor_109",
                    "material": "sy16051103",
                    "mode": 4
                },
                {
                    "attributes": {
                        "NORMAL": "accessor_125",
                        "POSITION": "accessor_123",
                        "TEXCOORD_0": "accessor_127"
                    },
                    "indices": "accessor_112",
                    "material": "sy16051106",
                    "mode": 4
                },
                {
                    "attributes": {
                        "NORMAL": "accessor_125",
                        "POSITION": "accessor_123",
                        "TEXCOORD_0": "accessor_127"
                    },
                    "indices": "accessor_115",
                    "material": "Standard_3",
                    "mode": 4
                },
                {
                    "attributes": {
                        "NORMAL": "accessor_125",
                        "POSITION": "accessor_123",
                        "TEXCOORD_0": "accessor_127"
                    },
                    "indices": "accessor_118",
                    "material": "Material__4144",
                    "mode": 4
                },
                {
                    "attributes": {
                        "NORMAL": "accessor_125",
                        "POSITION": "accessor_123",
                        "TEXCOORD_0": "accessor_127"
                    },
                    "indices": "accessor_121",
                    "material": "Material__4142",
                    "mode": 4
                }
            ]
        }
    },
    "nodes": {
        "node-test08": {
            "children": [
                "node_2"
            ],
            "matrix": [
                1,
                0,
                0,
                0,
                0,
                1,
                0,
                0,
                0,
                0,
                1,
                0,
                -84.4176,
                -0.299086,
                50.8561,
                1
            ],
            "name": "test08"
        },
        "node_0": {
            "children": [],
            "matrix": [
                1,
                0,
                0,
                0,
                0,
                1,
                0,
                0,
                0,
                0,
                1,
                0,
                0,
                0,
                0,
                1
            ],
            "name": "EnvironmentAmbientLight"
        },
        "node_2": {
            "children": [],
            "matrix": [
                1,
                0,
                0,
                0,
                0,
                1,
                0,
                0,
                0,
                0,
                1,
                0,
                -41.2802,
                28.6287,
                -50.8561,
                1
            ],
            "meshes": [
                "geom-test08"
            ],
            "name": ""
        },
        "node_3": {
            "children": [
                "node_0",
                "node-test08"
            ],
            "matrix": [
                1,
                0,
                0,
                0,
                0,
                0,
                -1,
                0,
                0,
                1,
                0,
                0,
                0,
                0,
                0,
                1
            ],
            "name": "Y_UP_Transform"
        }
    },
    "programs": {
        "program_0": {
            "attributes": [
                "a_normal",
                "a_position",
                "a_texcoord0"
            ],
            "fragmentShader": "test080FS",
            "vertexShader": "test080VS"
        },
        "program_1": {
            "attributes": [
                "a_normal",
                "a_position"
            ],
            "fragmentShader": "test081FS",
            "vertexShader": "test081VS"
        }
    },
    "samplers": {
        "sampler_0": {
            "magFilter": 9729,
            "minFilter": 9729,
            "wrapS": 10497,
            "wrapT": 10497
        }
    },
    "scene": "defaultScene",
    "scenes": {
        "defaultScene": {
            "nodes": [
                "node_3"
            ]
        }
    },
    "shaders": {
        "test080FS": {
            "type": 35632,
            "uri": "data:text/plain;base64,"
        },
        "test080VS": {
            "type": 35633,
            "uri": "data:text/plain;base64,"
        },
        "test081FS": {
            "type": 35632,
            "uri": "data:text/plain;base64,"
        },
        "test081VS": {
            "type": 35633,
            "uri": "data:text/plain;base64,"
        }
    },
    "skins": {},
    "techniques": {
        "technique1": {
            "attributes": {
                "a_normal": "normal",
                "a_position": "position",
                "a_texcoord0": "texcoord0"
            },
            "parameters": {
                "ambient": {
                    "type": 35678
                },
                "diffuse": {
                    "type": 35678
                },
                "emission": {
                    "type": 35666
                },
                "modelViewMatrix": {
                    "semantic": "MODELVIEW",
                    "type": 35676
                },
                "normal": {
                    "semantic": "NORMAL",
                    "type": 35665
                },
                "normalMatrix": {
                    "semantic": "MODELVIEWINVERSETRANSPOSE",
                    "type": 35675
                },
                "position": {
                    "semantic": "POSITION",
                    "type": 35665
                },
                "projectionMatrix": {
                    "semantic": "PROJECTION",
                    "type": 35676
                },
                "shininess": {
                    "type": 5126
                },
                "specular": {
                    "type": 35666
                },
                "texcoord0": {
                    "semantic": "TEXCOORD_0",
                    "type": 35664
                }
            },
            "program": "program_0",
            "states": {
                "enable": [
                    2929,
                    2884
                ]
            },
            "uniforms": {
                "u_ambient": "ambient",
                "u_diffuse": "diffuse",
                "u_emission": "emission",
                "u_modelViewMatrix": "modelViewMatrix",
                "u_normalMatrix": "normalMatrix",
                "u_projectionMatrix": "projectionMatrix",
                "u_shininess": "shininess",
                "u_specular": "specular"
            }
        },
        "technique2": {
            "attributes": {
                "a_normal": "normal",
                "a_position": "position"
            },
            "parameters": {
                "ambient": {
                    "type": 35666
                },
                "diffuse": {
                    "type": 35666
                },
                "emission": {
                    "type": 35666
                },
                "modelViewMatrix": {
                    "semantic": "MODELVIEW",
                    "type": 35676
                },
                "normal": {
                    "semantic": "NORMAL",
                    "type": 35665
                },
                "normalMatrix": {
                    "semantic": "MODELVIEWINVERSETRANSPOSE",
                    "type": 35675
                },
                "position": {
                    "semantic": "POSITION",
                    "type": 35665
                },
                "projectionMatrix": {
                    "semantic": "PROJECTION",
                    "type": 35676
                },
                "shininess": {
                    "type": 5126
                },
                "specular": {
                    "type": 35666
                }
            },
            "program": "program_1",
            "states": {
                "enable": [
                    2929,
                    2884
                ]
            },
            "uniforms": {
                "u_ambient": "ambient",
                "u_diffuse": "diffuse",
                "u_emission": "emission",
                "u_modelViewMatrix": "modelViewMatrix",
                "u_normalMatrix": "normalMatrix",
                "u_projectionMatrix": "projectionMatrix",
                "u_shininess": "shininess",
                "u_specular": "specular"
            }
        }
    },
    "textures": {
        "texture_sy16051101_png": {
            "format": 6408,
            "internalFormat": 6408,
            "sampler": "sampler_0",
            "source": "sy16051101_png",
            "target": 3553,
            "type": 5121
        },
        "texture_sy16051102_png": {
            "format": 6408,
            "internalFormat": 6408,
            "sampler": "sampler_0",
            "source": "sy16051102_png",
            "target": 3553,
            "type": 5121
        },
        "texture_sy16051103_png": {
            "format": 6408,
            "internalFormat": 6408,
            "sampler": "sampler_0",
            "source": "sy16051103_png",
            "target": 3553,
            "type": 5121
        },
        "texture_sy16051104_png": {
            "format": 6408,
            "internalFormat": 6408,
            "sampler": "sampler_0",
            "source": "sy16051104_png",
            "target": 3553,
            "type": 5121
        },
        "texture_sy16051106_png": {
            "format": 6408,
            "internalFormat": 6408,
            "sampler": "sampler_0",
            "source": "sy16051106_png",
            "target": 3553,
            "type": 5121
        }
    }
}