{
    "accessors": {
        "accessor_31": {
            "bufferView": "bufferView_43",
            "byteOffset": 0,
            "byteStride": 0,
            "componentType": 5123,
            "count": 2382,
            "type": "SCALAR"
        },
        "accessor_33": {
            "bufferView": "bufferView_44",
            "byteOffset": 0,
            "byteStride": 12,
            "componentType": 5126,
            "count": 2382,
            "max": [
                -0.0802579,
                2.25693,
                10.9935
            ],
            "min": [
                -6.73854,
                -5.3118,
                0
            ],
            "type": "VEC3"
        },
        "accessor_35": {
            "bufferView": "bufferView_44",
            "byteOffset": 28584,
            "byteStride": 12,
            "componentType": 5126,
            "count": 2382,
            "max": [
                1,
                0.965923,
                1
            ],
            "min": [
                -0.965918,
                -0.965925,
                -0.999933
            ],
            "type": "VEC3"
        },
        "accessor_37": {
            "bufferView": "bufferView_44",
            "byteOffset": 57168,
            "byteStride": 8,
            "componentType": 5126,
            "count": 2382,
            "max": [
                0.733418,
                0.98
            ],
            "min": [
                0.02,
                0.02
            ],
            "type": "VEC2"
        },
        "accessor_39": {
            "bufferView": "bufferView_44",
            "byteOffset": 76224,
            "byteStride": 12,
            "componentType": 5126,
            "count": 2382,
            "max": [
                0.999008,
                0.966659,
                0.999988
            ],
            "min": [
                -0.999228,
                -0.973354,
                -0.999989
            ],
            "type": "VEC3"
        },
        "accessor_41": {
            "bufferView": "bufferView_44",
            "byteOffset": 104808,
            "byteStride": 12,
            "componentType": 5126,
            "count": 2382,
            "max": [
                0.965921,
                1,
                0.999991
            ],
            "min": [
                -0.97178,
                -0.975911,
                -0.999991
            ],
            "type": "VEC3"
        }
    },
    "animations": {},
    "asset": {
        "generator": "collada2gltf@11bf28f97f1b5380fbefacf862ce7c597873d368",
        "premultipliedAlpha": true,
        "profile": {
            "api": "WebGL",
            "version": "1.0.2"
        },
        "version": 1
    },
    "bufferViews": {
        "bufferView_43": {
            "buffer": "tree1",
            "byteLength": 4764,
            "byteOffset": 0,
            "target": 34963
        },
        "bufferView_44": {
            "buffer": "tree1",
            "byteLength": 133392,
            "byteOffset": 4764,
            "target": 34962
        }
    },
    "buffers": {
        "tree1": {
            "byteLength": 138156,
            "type": "arraybuffer",
            "uri": "data:application/octet-stream;base64,"
        }
    },
    "images": {
        "tree001CompleteMap_png": {
            "name": "tree001CompleteMap_png",
            "uri": "data:image/png;base64,"
        }
    },
    "materials": {
        "Material__7725__tree001_": {
            "name": "Material__7725__tree001_",
            "technique": "technique1",
            "values": {
                "ambient": "texture_tree001CompleteMap_png",
                "diffuse": "texture_tree001CompleteMap_png",
                "emission": [
                    0,
                    0,
                    0,
                    1
                ],
                "shininess": 0,
                "specular": [
                    0.9,
                    0.9,
                    0.9,
                    1
                ]
            }
        }
    },
    "meshes": {
        "geom-tree01": {
            "name": "tree01",
            "primitives": [
                {
                    "attributes": {
                        "NORMAL": "accessor_35",
                        "POSITION": "accessor_33",
                        "TEXBINORMAL": "accessor_41",
                        "TEXCOORD_0": "accessor_37",
                        "TEXTANGENT": "accessor_39"
                    },
                    "indices": "accessor_31",
                    "material": "Material__7725__tree001_",
                    "mode": 4
                }
            ]
        }
    },
    "nodes": {
        "node-tree01": {
            "children": [
                "node_2"
            ],
            "matrix": [
                1,
                0,
                0,
                0,
                0,
                1,
                0,
                0,
                0,
                0,
                1,
                0,
                0,
                0,
                0,
                1
            ],
            "name": "tree01"
        },
        "node_0": {
            "children": [],
            "matrix": [
                1,
                0,
                0,
                0,
                0,
                1,
                0,
                0,
                0,
                0,
                1,
                0,
                0,
                0,
                0,
                1
            ],
            "name": "EnvironmentAmbientLight"
        },
        "node_2": {
            "children": [],
            "matrix": [
                1,
                0,
                0,
                0,
                0,
                1,
                0,
                0,
                0,
                0,
                1,
                0,
                4.22419,
                1.48166,
                0,
                1
            ],
            "meshes": [
                "geom-tree01"
            ],
            "name": ""
        },
        "node_3": {
            "children": [
                "node_0",
                "node-tree01"
            ],
            "matrix": [
                1,
                0,
                0,
                0,
                0,
                0,
                -1,
                0,
                0,
                1,
                0,
                0,
                0,
                0,
                0,
                1
            ],
            "name": "Y_UP_Transform"
        }
    },
    "programs": {
        "program_0": {
            "attributes": [
                "a_normal",
                "a_position",
                "a_texcoord0"
            ],
            "fragmentShader": "tree10FS",
            "vertexShader": "tree10VS"
        }
    },
    "samplers": {
        "sampler_0": {
            "magFilter": 9729,
            "minFilter": 9729,
            "wrapS": 10497,
            "wrapT": 10497
        }
    },
    "scene": "defaultScene",
    "scenes": {
        "defaultScene": {
            "nodes": [
                "node_3"
            ]
        }
    },
    "shaders": {
        "tree10FS": {
            "type": 35632,
            "uri": "data:text/plain;base64,"
        },
        "tree10VS": {
            "type": 35633,
            "uri": "data:text/plain;base64,"
        }
    },
    "skins": {},
    "techniques": {
        "technique1": {
            "attributes": {
                "a_normal": "normal",
                "a_position": "position",
                "a_texcoord0": "texcoord0"
            },
            "parameters": {
                "ambient": {
                    "type": 35678
                },
                "diffuse": {
                    "type": 35678
                },
                "emission": {
                    "type": 35666
                },
                "modelViewMatrix": {
                    "semantic": "MODELVIEW",
                    "type": 35676
                },
                "normal": {
                    "semantic": "NORMAL",
                    "type": 35665
                },
                "normalMatrix": {
                    "semantic": "MODELVIEWINVERSETRANSPOSE",
                    "type": 35675
                },
                "position": {
                    "semantic": "POSITION",
                    "type": 35665
                },
                "projectionMatrix": {
                    "semantic": "PROJECTION",
                    "type": 35676
                },
                "shininess": {
                    "type": 5126
                },
                "specular": {
                    "type": 35666
                },
                "texcoord0": {
                    "semantic": "TEXCOORD_0",
                    "type": 35664
                }
            },
            "program": "program_0",
            "states": {
                "enable": [
                    2929,
                    3042
                ],
                "functions": {
                    "blendEquationSeparate": [
                        32774,
                        32774
                    ],
                    "blendFuncSeparate": [
                        1,
                        771,
                        1,
                        771
                    ],
                    "depthMask": false
                }
            },
            "uniforms": {
                "u_ambient": "ambient",
                "u_diffuse": "diffuse",
                "u_emission": "emission",
                "u_modelViewMatrix": "modelViewMatrix",
                "u_normalMatrix": "normalMatrix",
                "u_projectionMatrix": "projectionMatrix",
                "u_shininess": "shininess",
                "u_specular": "specular"
            }
        }
    },
    "textures": {
        "texture_tree001CompleteMap_png": {
            "format": 6408,
            "internalFormat": 6408,
            "sampler": "sampler_0",
            "source": "tree001CompleteMap_png",
            "target": 3553,
            "type": 5121
        }
    }
}