{
    "accessors": {
        "accessor_31": {
            "bufferView": "bufferView_43",
            "byteOffset": 0,
            "byteStride": 0,
            "componentType": 5123,
            "count": 2970,
            "type": "SCALAR"
        },
        "accessor_33": {
            "bufferView": "bufferView_44",
            "byteOffset": 0,
            "byteStride": 12,
            "componentType": 5126,
            "count": 2970,
            "max": [
                7.90444,
                2.74823,
                3.64308
            ],
            "min": [
                2.66497,
                -2.36162,
                0.0623491
            ],
            "type": "VEC3"
        },
        "accessor_35": {
            "bufferView": "bufferView_44",
            "byteOffset": 35640,
            "byteStride": 12,
            "componentType": 5126,
            "count": 2970,
            "max": [
                0.992486,
                0.992881,
                0.995378
            ],
            "min": [
                -0.999372,
                -0.996137,
                -0.997257
            ],
            "type": "VEC3"
        },
        "accessor_37": {
            "bufferView": "bufferView_44",
            "byteOffset": 71280,
            "byteStride": 8,
            "componentType": 5126,
            "count": 2970,
            "max": [
                0.644803,
                0.98
            ],
            "min": [
                0.02,
                0.02
            ],
            "type": "VEC2"
        },
        "accessor_39": {
            "bufferView": "bufferView_44",
            "byteOffset": 95040,
            "byteStride": 12,
            "componentType": 5126,
            "count": 2970,
            "max": [
                0.998602,
                0.999292,
                0.998517
            ],
            "min": [
                -0.9985,
                -0.991904,
                -0.997787
            ],
            "type": "VEC3"
        },
        "accessor_41": {
            "bufferView": "bufferView_44",
            "byteOffset": 130680,
            "byteStride": 12,
            "componentType": 5126,
            "count": 2970,
            "max": [
                0.990704,
                0.995307,
                0.986608
            ],
            "min": [
                -0.997158,
                -0.999883,
                -0.991958
            ],
            "type": "VEC3"
        }
    },
    "animations": {},
    "asset": {
        "generator": "collada2gltf@11bf28f97f1b5380fbefacf862ce7c597873d368",
        "premultipliedAlpha": true,
        "profile": {
            "api": "WebGL",
            "version": "1.0.2"
        },
        "version": 1
    },
    "bufferViews": {
        "bufferView_43": {
            "buffer": "tree3",
            "byteLength": 5940,
            "byteOffset": 0,
            "target": 34963
        },
        "bufferView_44": {
            "buffer": "tree3",
            "byteLength": 166320,
            "byteOffset": 5940,
            "target": 34962
        }
    },
    "buffers": {
        "tree3": {
            "byteLength": 172260,
            "type": "arraybuffer",
            "uri": "data:application/octet-stream;base64,"
        }
    },
    "images": {
        "Sphere007CompleteMap_png": {
            "name": "Sphere007CompleteMap_png",
            "uri": "data:image/png;base64,"
        }
    },
    "materials": {
        "Material__8276__Sphere007_": {
            "name": "Material__8276__Sphere007_",
            "technique": "technique1",
            "values": {
                "ambient": "texture_Sphere007CompleteMap_png",
                "diffuse": "texture_Sphere007CompleteMap_png",
                "emission": [
                    0,
                    0,
                    0,
                    1
                ],
                "shininess": 0,
                "specular": [
                    0.9,
                    0.9,
                    0.9,
                    1
                ]
            }
        }
    },
    "meshes": {
        "geom-tree02": {
            "name": "tree02",
            "primitives": [
                {
                    "attributes": {
                        "NORMAL": "accessor_35",
                        "POSITION": "accessor_33",
                        "TEXBINORMAL": "accessor_41",
                        "TEXCOORD_0": "accessor_37",
                        "TEXTANGENT": "accessor_39"
                    },
                    "indices": "accessor_31",
                    "material": "Material__8276__Sphere007_",
                    "mode": 4
                }
            ]
        }
    },
    "nodes": {
        "node-tree02": {
            "children": [
                "node_2"
            ],
            "matrix": [
                1,
                0,
                0,
                0,
                0,
                1,
                0,
                0,
                0,
                0,
                1,
                0,
                -4.76837e-07,
                5.96046e-07,
                1.85271,
                1
            ],
            "name": "tree02"
        },
        "node_0": {
            "children": [],
            "matrix": [
                1,
                0,
                0,
                0,
                0,
                1,
                0,
                0,
                0,
                0,
                1,
                0,
                0,
                0,
                0,
                1
            ],
            "name": "EnvironmentAmbientLight"
        },
        "node_2": {
            "children": [],
            "matrix": [
                1,
                0,
                0,
                0,
                0,
                1,
                0,
                0,
                0,
                0,
                1,
                0,
                -5.2847,
                -0.193303,
                -1.85271,
                1
            ],
            "meshes": [
                "geom-tree02"
            ],
            "name": ""
        },
        "node_3": {
            "children": [
                "node_0",
                "node-tree02"
            ],
            "matrix": [
                1,
                0,
                0,
                0,
                0,
                0,
                -1,
                0,
                0,
                1,
                0,
                0,
                0,
                0,
                0,
                1
            ],
            "name": "Y_UP_Transform"
        }
    },
    "programs": {
        "program_0": {
            "attributes": [
                "a_normal",
                "a_position",
                "a_texcoord0"
            ],
            "fragmentShader": "tree30FS",
            "vertexShader": "tree30VS"
        }
    },
    "samplers": {
        "sampler_0": {
            "magFilter": 9729,
            "minFilter": 9729,
            "wrapS": 10497,
            "wrapT": 10497
        }
    },
    "scene": "defaultScene",
    "scenes": {
        "defaultScene": {
            "nodes": [
                "node_3"
            ]
        }
    },
    "shaders": {
        "tree30FS": {
            "type": 35632,
            "uri": "data:text/plain;base64,"
        },
        "tree30VS": {
            "type": 35633,
            "uri": "data:text/plain;base64,"
        }
    },
    "skins": {},
    "techniques": {
        "technique1": {
            "attributes": {
                "a_normal": "normal",
                "a_position": "position",
                "a_texcoord0": "texcoord0"
            },
            "parameters": {
                "ambient": {
                    "type": 35678
                },
                "diffuse": {
                    "type": 35678
                },
                "emission": {
                    "type": 35666
                },
                "modelViewMatrix": {
                    "semantic": "MODELVIEW",
                    "type": 35676
                },
                "normal": {
                    "semantic": "NORMAL",
                    "type": 35665
                },
                "normalMatrix": {
                    "semantic": "MODELVIEWINVERSETRANSPOSE",
                    "type": 35675
                },
                "position": {
                    "semantic": "POSITION",
                    "type": 35665
                },
                "projectionMatrix": {
                    "semantic": "PROJECTION",
                    "type": 35676
                },
                "shininess": {
                    "type": 5126
                },
                "specular": {
                    "type": 35666
                },
                "texcoord0": {
                    "semantic": "TEXCOORD_0",
                    "type": 35664
                }
            },
            "program": "program_0",
            "states": {
                "enable": [
                    2929,
                    3042
                ],
                "functions": {
                    "blendEquationSeparate": [
                        32774,
                        32774
                    ],
                    "blendFuncSeparate": [
                        1,
                        771,
                        1,
                        771
                    ],
                    "depthMask": false
                }
            },
            "uniforms": {
                "u_ambient": "ambient",
                "u_diffuse": "diffuse",
                "u_emission": "emission",
                "u_modelViewMatrix": "modelViewMatrix",
                "u_normalMatrix": "normalMatrix",
                "u_projectionMatrix": "projectionMatrix",
                "u_shininess": "shininess",
                "u_specular": "specular"
            }
        }
    },
    "textures": {
        "texture_Sphere007CompleteMap_png": {
            "format": 6408,
            "internalFormat": 6408,
            "sampler": "sampler_0",
            "source": "Sphere007CompleteMap_png",
            "target": 3553,
            "type": 5121
        }
    }
}