{
    "accessors": {
        "accessor_157": {
            "bufferView": "bufferView_189",
            "byteOffset": 0,
            "byteStride": 0,
            "componentType": 5123,
            "count": 2421,
            "type": "SCALAR"
        },
        "accessor_160": {
            "bufferView": "bufferView_189",
            "byteOffset": 4842,
            "byteStride": 0,
            "componentType": 5123,
            "count": 1914,
            "type": "SCALAR"
        },
        "accessor_163": {
            "bufferView": "bufferView_189",
            "byteOffset": 8670,
            "byteStride": 0,
            "componentType": 5123,
            "count": 3135,
            "type": "SCALAR"
        },
        "accessor_166": {
            "bufferView": "bufferView_189",
            "byteOffset": 14940,
            "byteStride": 0,
            "componentType": 5123,
            "count": 2244,
            "type": "SCALAR"
        },
        "accessor_169": {
            "bufferView": "bufferView_189",
            "byteOffset": 19428,
            "byteStride": 0,
            "componentType": 5123,
            "count": 2889,
            "type": "SCALAR"
        },
        "accessor_172": {
            "bufferView": "bufferView_189",
            "byteOffset": 25206,
            "byteStride": 0,
            "componentType": 5123,
            "count": 132,
            "type": "SCALAR"
        },
        "accessor_175": {
            "bufferView": "bufferView_189",
            "byteOffset": 25470,
            "byteStride": 0,
            "componentType": 5123,
            "count": 243,
            "type": "SCALAR"
        },
        "accessor_178": {
            "bufferView": "bufferView_189",
            "byteOffset": 25956,
            "byteStride": 0,
            "componentType": 5123,
            "count": 288,
            "type": "SCALAR"
        },
        "accessor_181": {
            "bufferView": "bufferView_189",
            "byteOffset": 26532,
            "byteStride": 0,
            "componentType": 5123,
            "count": 78,
            "type": "SCALAR"
        },
        "accessor_183": {
            "bufferView": "bufferView_190",
            "byteOffset": 0,
            "byteStride": 12,
            "componentType": 5126,
            "count": 6939,
            "max": [
                -123.164,
                359.723,
                0.00645906
            ],
            "min": [
                -944.598,
                -360.401,
                -1.34893
            ],
            "type": "VEC3"
        },
        "accessor_185": {
            "bufferView": "bufferView_190",
            "byteOffset": 83268,
            "byteStride": 12,
            "componentType": 5126,
            "count": 6939,
            "max": [
                1,
                1,
                1
            ],
            "min": [
                -1,
                -1,
                -1
            ],
            "type": "VEC3"
        },
        "accessor_187": {
            "bufferView": "bufferView_190",
            "byteOffset": 166536,
            "byteStride": 8,
            "componentType": 5126,
            "count": 6939,
            "max": [
                141.749,
                79.6165
            ],
            "min": [
                -73.8,
                -92.318
            ],
            "type": "VEC2"
        }
    },
    "animations": {},
    "asset": {
        "generator": "collada2gltf@11bf28f97f1b5380fbefacf862ce7c597873d368",
        "premultipliedAlpha": true,
        "profile": {
            "api": "WebGL",
            "version": "1.0.2"
        },
        "version": 1
    },
    "bufferViews": {
        "bufferView_189": {
            "buffer": "dimian",
            "byteLength": 26688,
            "byteOffset": 0,
            "target": 34963
        },
        "bufferView_190": {
            "buffer": "dimian",
            "byteLength": 222048,
            "byteOffset": 26688,
            "target": 34962
        }
    },
    "buffers": {
        "dimian": {
            "byteLength": 248736,
            "type": "arraybuffer",
            "uri": "data:application/octet-stream;base64,"
        }
    },
    "images": {
        "sy16051113_png": {
            "name": "sy16051113_png",
            "uri": "data:image/png;base64,"
        },
        "sy16051120_png": {
            "name": "sy16051120_png",
            "uri": "data:image/png;base64,"
        },
        "sy16051131_png": {
            "name": "sy16051131_png",
            "uri": "data:image/png;base64,"
        },
        "sy16051137_png": {
            "name": "sy16051137_png",
            "uri": "data:image/png;base64,"
        },
        "sy16051139_png": {
            "name": "sy16051139_png",
            "uri": "data:image/png;base64,"
        },
        "sy16051140_png": {
            "name": "sy16051140_png",
            "uri": "data:image/png;base64,"
        },
        "sy16051142_png": {
            "name": "sy16051142_png",
            "uri": "data:image/png;base64,"
        },
        "sy16051144_png": {
            "name": "sy16051144_png",
            "uri": "data:image/png;base64,"
        },
        "sy16051145_png": {
            "name": "sy16051145_png",
            "uri": "data:image/png;base64,"
        }
    },
    "materials": {
        "sy16051113": {
            "name": "sy16051113",
            "technique": "technique1",
            "values": {
                "ambient": "texture_sy16051113_png",
                "diffuse": "texture_sy16051113_png",
                "emission": [
                    0,
                    0,
                    0,
                    1
                ],
                "shininess": 0,
                "specular": [
                    0.9,
                    0.9,
                    0.9,
                    1
                ]
            }
        },
        "sy16051120": {
            "name": "sy16051120",
            "technique": "technique1",
            "values": {
                "ambient": "texture_sy16051120_png",
                "diffuse": "texture_sy16051120_png",
                "emission": [
                    0,
                    0,
                    0,
                    1
                ],
                "shininess": 0,
                "specular": [
                    0.9,
                    0.9,
                    0.9,
                    1
                ]
            }
        },
        "sy16051131": {
            "name": "sy16051131",
            "technique": "technique1",
            "values": {
                "ambient": "texture_sy16051131_png",
                "diffuse": "texture_sy16051131_png",
                "emission": [
                    0,
                    0,
                    0,
                    1
                ],
                "shininess": 0,
                "specular": [
                    0.9,
                    0.9,
                    0.9,
                    1
                ]
            }
        },
        "sy16051137": {
            "name": "sy16051137",
            "technique": "technique1",
            "values": {
                "ambient": "texture_sy16051137_png",
                "diffuse": "texture_sy16051137_png",
                "emission": [
                    0,
                    0,
                    0,
                    1
                ],
                "shininess": 0,
                "specular": [
                    0.9,
                    0.9,
                    0.9,
                    1
                ]
            }
        },
        "sy16051139": {
            "name": "sy16051139",
            "technique": "technique1",
            "values": {
                "ambient": "texture_sy16051139_png",
                "diffuse": "texture_sy16051139_png",
                "emission": [
                    0,
                    0,
                    0,
                    1
                ],
                "shininess": 0,
                "specular": [
                    0.9,
                    0.9,
                    0.9,
                    1
                ]
            }
        },
        "sy16051140": {
            "name": "sy16051140",
            "technique": "technique1",
            "values": {
                "ambient": "texture_sy16051140_png",
                "diffuse": "texture_sy16051140_png",
                "emission": [
                    0,
                    0,
                    0,
                    1
                ],
                "shininess": 0,
                "specular": [
                    0.9,
                    0.9,
                    0.9,
                    1
                ]
            }
        },
        "sy16051142": {
            "name": "sy16051142",
            "technique": "technique1",
            "values": {
                "ambient": "texture_sy16051142_png",
                "diffuse": "texture_sy16051142_png",
                "emission": [
                    0,
                    0,
                    0,
                    1
                ],
                "shininess": 0,
                "specular": [
                    0.9,
                    0.9,
                    0.9,
                    1
                ]
            }
        },
        "sy16051144": {
            "name": "sy16051144",
            "technique": "technique1",
            "values": {
                "ambient": "texture_sy16051144_png",
                "diffuse": "texture_sy16051144_png",
                "emission": [
                    0,
                    0,
                    0,
                    1
                ],
                "shininess": 0,
                "specular": [
                    0.9,
                    0.9,
                    0.9,
                    1
                ]
            }
        },
        "sy16051145": {
            "name": "sy16051145",
            "technique": "technique1",
            "values": {
                "ambient": "texture_sy16051145_png",
                "diffuse": "texture_sy16051145_png",
                "emission": [
                    0,
                    0,
                    0,
                    1
                ],
                "shininess": 0,
                "specular": [
                    0.9,
                    0.9,
                    0.9,
                    1
                ]
            }
        }
    },
    "meshes": {
        "geom-Box002": {
            "name": "Box002",
            "primitives": [
                {
                    "attributes": {
                        "NORMAL": "accessor_185",
                        "POSITION": "accessor_183",
                        "TEXCOORD_0": "accessor_187"
                    },
                    "indices": "accessor_157",
                    "material": "sy16051113",
                    "mode": 4
                },
                {
                    "attributes": {
                        "NORMAL": "accessor_185",
                        "POSITION": "accessor_183",
                        "TEXCOORD_0": "accessor_187"
                    },
                    "indices": "accessor_160",
                    "material": "sy16051142",
                    "mode": 4
                },
                {
                    "attributes": {
                        "NORMAL": "accessor_185",
                        "POSITION": "accessor_183",
                        "TEXCOORD_0": "accessor_187"
                    },
                    "indices": "accessor_163",
                    "material": "sy16051120",
                    "mode": 4
                },
                {
                    "attributes": {
                        "NORMAL": "accessor_185",
                        "POSITION": "accessor_183",
                        "TEXCOORD_0": "accessor_187"
                    },
                    "indices": "accessor_166",
                    "material": "sy16051137",
                    "mode": 4
                },
                {
                    "attributes": {
                        "NORMAL": "accessor_185",
                        "POSITION": "accessor_183",
                        "TEXCOORD_0": "accessor_187"
                    },
                    "indices": "accessor_169",
                    "material": "sy16051140",
                    "mode": 4
                },
                {
                    "attributes": {
                        "NORMAL": "accessor_185",
                        "POSITION": "accessor_183",
                        "TEXCOORD_0": "accessor_187"
                    },
                    "indices": "accessor_172",
                    "material": "sy16051139",
                    "mode": 4
                },
                {
                    "attributes": {
                        "NORMAL": "accessor_185",
                        "POSITION": "accessor_183",
                        "TEXCOORD_0": "accessor_187"
                    },
                    "indices": "accessor_175",
                    "material": "sy16051131",
                    "mode": 4
                },
                {
                    "attributes": {
                        "NORMAL": "accessor_185",
                        "POSITION": "accessor_183",
                        "TEXCOORD_0": "accessor_187"
                    },
                    "indices": "accessor_178",
                    "material": "sy16051144",
                    "mode": 4
                },
                {
                    "attributes": {
                        "NORMAL": "accessor_185",
                        "POSITION": "accessor_183",
                        "TEXCOORD_0": "accessor_187"
                    },
                    "indices": "accessor_181",
                    "material": "sy16051145",
                    "mode": 4
                }
            ]
        }
    },
    "nodes": {
        "node-Box002": {
            "children": [
                "node_2"
            ],
            "matrix": [
                1,
                0,
                0,
                0,
                0,
                1,
                0,
                0,
                0,
                0,
                1,
                0,
                0,
                3.8147e-06,
                -0.671236,
                1
            ],
            "name": "Box002"
        },
        "node_0": {
            "children": [],
            "matrix": [
                1,
                0,
                0,
                0,
                0,
                1,
                0,
                0,
                0,
                0,
                1,
                0,
                0,
                0,
                0,
                1
            ],
            "name": "EnvironmentAmbientLight"
        },
        "node_2": {
            "children": [],
            "matrix": [
                1,
                0,
                0,
                0,
                0,
                1,
                0,
                0,
                0,
                0,
                1,
                0,
                533.881,
                0.338928,
                0.671236,
                1
            ],
            "meshes": [
                "geom-Box002"
            ],
            "name": ""
        },
        "node_3": {
            "children": [
                "node_0",
                "node-Box002"
            ],
            "matrix": [
                1,
                0,
                0,
                0,
                0,
                0,
                -1,
                0,
                0,
                1,
                0,
                0,
                0,
                0,
                0,
                1
            ],
            "name": "Y_UP_Transform"
        }
    },
    "programs": {
        "program_0": {
            "attributes": [
                "a_normal",
                "a_position",
                "a_texcoord0"
            ],
            "fragmentShader": "dimian0FS",
            "vertexShader": "dimian0VS"
        }
    },
    "samplers": {
        "sampler_0": {
            "magFilter": 9729,
            "minFilter": 9729,
            "wrapS": 10497,
            "wrapT": 10497
        }
    },
    "scene": "defaultScene",
    "scenes": {
        "defaultScene": {
            "nodes": [
                "node_3"
            ]
        }
    },
    "shaders": {
        "dimian0FS": {
            "type": 35632,
            "uri": "data:text/plain;base64,"
        },
        "dimian0VS": {
            "type": 35633,
            "uri": "data:text/plain;base64,"
        }
    },
    "skins": {},
    "techniques": {
        "technique1": {
            "attributes": {
                "a_normal": "normal",
                "a_position": "position",
                "a_texcoord0": "texcoord0"
            },
            "parameters": {
                "ambient": {
                    "type": 35678
                },
                "diffuse": {
                    "type": 35678
                },
                "emission": {
                    "type": 35666
                },
                "modelViewMatrix": {
                    "semantic": "MODELVIEW",
                    "type": 35676
                },
                "normal": {
                    "semantic": "NORMAL",
                    "type": 35665
                },
                "normalMatrix": {
                    "semantic": "MODELVIEWINVERSETRANSPOSE",
                    "type": 35675
                },
                "position": {
                    "semantic": "POSITION",
                    "type": 35665
                },
                "projectionMatrix": {
                    "semantic": "PROJECTION",
                    "type": 35676
                },
                "shininess": {
                    "type": 5126
                },
                "specular": {
                    "type": 35666
                },
                "texcoord0": {
                    "semantic": "TEXCOORD_0",
                    "type": 35664
                }
            },
            "program": "program_0",
            "states": {
                "enable": [
                    2929,
                    2884
                ]
            },
            "uniforms": {
                "u_ambient": "ambient",
                "u_diffuse": "diffuse",
                "u_emission": "emission",
                "u_modelViewMatrix": "modelViewMatrix",
                "u_normalMatrix": "normalMatrix",
                "u_projectionMatrix": "projectionMatrix",
                "u_shininess": "shininess",
                "u_specular": "specular"
            }
        }
    },
    "textures": {
        "texture_sy16051113_png": {
            "format": 6408,
            "internalFormat": 6408,
            "sampler": "sampler_0",
            "source": "sy16051113_png",
            "target": 3553,
            "type": 5121
        },
        "texture_sy16051120_png": {
            "format": 6408,
            "internalFormat": 6408,
            "sampler": "sampler_0",
            "source": "sy16051120_png",
            "target": 3553,
            "type": 5121
        },
        "texture_sy16051131_png": {
            "format": 6408,
            "internalFormat": 6408,
            "sampler": "sampler_0",
            "source": "sy16051131_png",
            "target": 3553,
            "type": 5121
        },
        "texture_sy16051137_png": {
            "format": 6408,
            "internalFormat": 6408,
            "sampler": "sampler_0",
            "source": "sy16051137_png",
            "target": 3553,
            "type": 5121
        },
        "texture_sy16051139_png": {
            "format": 6408,
            "internalFormat": 6408,
            "sampler": "sampler_0",
            "source": "sy16051139_png",
            "target": 3553,
            "type": 5121
        },
        "texture_sy16051140_png": {
            "format": 6408,
            "internalFormat": 6408,
            "sampler": "sampler_0",
            "source": "sy16051140_png",
            "target": 3553,
            "type": 5121
        },
        "texture_sy16051142_png": {
            "format": 6408,
            "internalFormat": 6408,
            "sampler": "sampler_0",
            "source": "sy16051142_png",
            "target": 3553,
            "type": 5121
        },
        "texture_sy16051144_png": {
            "format": 6408,
            "internalFormat": 6408,
            "sampler": "sampler_0",
            "source": "sy16051144_png",
            "target": 3553,
            "type": 5121
        },
        "texture_sy16051145_png": {
            "format": 6408,
            "internalFormat": 6408,
            "sampler": "sampler_0",
            "source": "sy16051145_png",
            "target": 3553,
            "type": 5121
        }
    }
}