{
    "accessors": {
        "accessor_112": {
            "bufferView": "bufferView_133",
            "byteOffset": 0,
            "byteStride": 0,
            "componentType": 5123,
            "count": 225,
            "type": "SCALAR"
        },
        "accessor_115": {
            "bufferView": "bufferView_133",
            "byteOffset": 450,
            "byteStride": 0,
            "componentType": 5123,
            "count": 501,
            "type": "SCALAR"
        },
        "accessor_118": {
            "bufferView": "bufferView_133",
            "byteOffset": 1452,
            "byteStride": 0,
            "componentType": 5123,
            "count": 405,
            "type": "SCALAR"
        },
        "accessor_121": {
            "bufferView": "bufferView_133",
            "byteOffset": 2262,
            "byteStride": 0,
            "componentType": 5123,
            "count": 6,
            "type": "SCALAR"
        },
        "accessor_123": {
            "bufferView": "bufferView_134",
            "byteOffset": 0,
            "byteStride": 12,
            "componentType": 5126,
            "count": 1137,
            "max": [
                24.9765,
                164.366,
                6.07967e-06
            ],
            "min": [
                -121.248,
                -11.2778,
                -1.34893
            ],
            "type": "VEC3"
        },
        "accessor_125": {
            "bufferView": "bufferView_134",
            "byteOffset": 13644,
            "byteStride": 12,
            "componentType": 5126,
            "count": 1137,
            "max": [
                0.999361,
                0.991518,
                1
            ],
            "min": [
                -0.999987,
                -0.999524,
                -1
            ],
            "type": "VEC3"
        },
        "accessor_127": {
            "bufferView": "bufferView_134",
            "byteOffset": 27288,
            "byteStride": 8,
            "componentType": 5126,
            "count": 1137,
            "max": [
                2.09004,
                8.51512
            ],
            "min": [
                -8.03805,
                0.0138739
            ],
            "type": "VEC2"
        },
        "accessor_129": {
            "bufferView": "bufferView_134",
            "byteOffset": 36384,
            "byteStride": 12,
            "componentType": 5126,
            "count": 1137,
            "max": [
                1,
                0.999987,
                1
            ],
            "min": [
                -0.999524,
                -0.999987,
                -1
            ],
            "type": "VEC3"
        },
        "accessor_131": {
            "bufferView": "bufferView_134",
            "byteOffset": 50028,
            "byteStride": 12,
            "componentType": 5126,
            "count": 1137,
            "max": [
                0.99997,
                0.994581,
                1
            ],
            "min": [
                -0.990378,
                -1,
                -1
            ],
            "type": "VEC3"
        }
    },
    "animations": {},
    "asset": {
        "generator": "collada2gltf@11bf28f97f1b5380fbefacf862ce7c597873d368",
        "premultipliedAlpha": true,
        "profile": {
            "api": "WebGL",
            "version": "1.0.2"
        },
        "version": 1
    },
    "bufferViews": {
        "bufferView_133": {
            "buffer": "dm02",
            "byteLength": 2276,
            "byteOffset": 0,
            "target": 34963
        },
        "bufferView_134": {
            "buffer": "dm02",
            "byteLength": 63672,
            "byteOffset": 2276,
            "target": 34962
        }
    },
    "buffers": {
        "dm02": {
            "byteLength": 65948,
            "type": "arraybuffer",
            "uri": "data:application/octet-stream;base64,"
        }
    },
    "images": {
        "sy16051113_png": {
            "name": "sy16051113_png",
            "uri": "data:image/png;base64,"
        },
        "sy16051120_png": {
            "name": "sy16051120_png",
            "uri": "data:image/png;base64,"
        },
        "sy16051139_png": {
            "name": "sy16051139_png",
            "uri": "data:image/png;base64,"
        },
        "sy16062097_png": {
            "name": "sy16062097_png",
            "uri": "data:image/png;base64,"
        }
    },
    "materials": {
        "sy16051113": {
            "name": "sy16051113",
            "technique": "technique1",
            "values": {
                "ambient": "texture_sy16051113_png",
                "diffuse": "texture_sy16051113_png",
                "emission": [
                    0,
                    0,
                    0,
                    1
                ],
                "shininess": 0,
                "specular": [
                    0.9,
                    0.9,
                    0.9,
                    1
                ]
            }
        },
        "sy16051120": {
            "name": "sy16051120",
            "technique": "technique1",
            "values": {
                "ambient": "texture_sy16051120_png",
                "diffuse": "texture_sy16051120_png",
                "emission": [
                    0,
                    0,
                    0,
                    1
                ],
                "shininess": 0,
                "specular": [
                    0.9,
                    0.9,
                    0.9,
                    1
                ]
            }
        },
        "sy16051139": {
            "name": "sy16051139",
            "technique": "technique1",
            "values": {
                "ambient": "texture_sy16051139_png",
                "diffuse": "texture_sy16051139_png",
                "emission": [
                    0,
                    0,
                    0,
                    1
                ],
                "shininess": 0,
                "specular": [
                    0.9,
                    0.9,
                    0.9,
                    1
                ]
            }
        },
        "sy16062097": {
            "name": "sy16062097",
            "technique": "technique1",
            "values": {
                "ambient": "texture_sy16062097_png",
                "diffuse": "texture_sy16062097_png",
                "emission": [
                    0,
                    0,
                    0,
                    1
                ],
                "shininess": 0,
                "specular": [
                    0.9,
                    0.9,
                    0.9,
                    1
                ]
            }
        }
    },
    "meshes": {
        "geom-dimian02": {
            "name": "dimian02",
            "primitives": [
                {
                    "attributes": {
                        "NORMAL": "accessor_125",
                        "POSITION": "accessor_123",
                        "TEXBINORMAL": "accessor_131",
                        "TEXCOORD_0": "accessor_127",
                        "TEXTANGENT": "accessor_129"
                    },
                    "indices": "accessor_112",
                    "material": "sy16051113",
                    "mode": 4
                },
                {
                    "attributes": {
                        "NORMAL": "accessor_125",
                        "POSITION": "accessor_123",
                        "TEXBINORMAL": "accessor_131",
                        "TEXCOORD_0": "accessor_127",
                        "TEXTANGENT": "accessor_129"
                    },
                    "indices": "accessor_115",
                    "material": "sy16051120",
                    "mode": 4
                },
                {
                    "attributes": {
                        "NORMAL": "accessor_125",
                        "POSITION": "accessor_123",
                        "TEXBINORMAL": "accessor_131",
                        "TEXCOORD_0": "accessor_127",
                        "TEXTANGENT": "accessor_129"
                    },
                    "indices": "accessor_118",
                    "material": "sy16062097",
                    "mode": 4
                },
                {
                    "attributes": {
                        "NORMAL": "accessor_125",
                        "POSITION": "accessor_123",
                        "TEXBINORMAL": "accessor_131",
                        "TEXCOORD_0": "accessor_127",
                        "TEXTANGENT": "accessor_129"
                    },
                    "indices": "accessor_121",
                    "material": "sy16051139",
                    "mode": 4
                }
            ]
        }
    },
    "nodes": {
        "node-dimian02": {
            "children": [
                "node_2"
            ],
            "matrix": [
                1,
                0,
                0,
                0,
                0,
                1,
                0,
                0,
                0,
                0,
                1,
                0,
                0,
                0,
                -0.674462,
                1
            ],
            "name": "dimian02"
        },
        "node_0": {
            "children": [],
            "matrix": [
                1,
                0,
                0,
                0,
                0,
                1,
                0,
                0,
                0,
                0,
                1,
                0,
                0,
                0,
                0,
                1
            ],
            "name": "EnvironmentAmbientLight"
        },
        "node_2": {
            "children": [],
            "matrix": [
                1,
                0,
                0,
                0,
                0,
                1,
                0,
                0,
                0,
                0,
                1,
                0,
                48.1357,
                -76.5441,
                0.674462,
                1
            ],
            "meshes": [
                "geom-dimian02"
            ],
            "name": ""
        },
        "node_3": {
            "children": [
                "node_0",
                "node-dimian02"
            ],
            "matrix": [
                1,
                0,
                0,
                0,
                0,
                0,
                -1,
                0,
                0,
                1,
                0,
                0,
                0,
                0,
                0,
                1
            ],
            "name": "Y_UP_Transform"
        }
    },
    "programs": {
        "program_0": {
            "attributes": [
                "a_normal",
                "a_position",
                "a_texcoord0"
            ],
            "fragmentShader": "dm020FS",
            "vertexShader": "dm020VS"
        }
    },
    "samplers": {
        "sampler_0": {
            "magFilter": 9729,
            "minFilter": 9729,
            "wrapS": 10497,
            "wrapT": 10497
        }
    },
    "scene": "defaultScene",
    "scenes": {
        "defaultScene": {
            "nodes": [
                "node_3"
            ]
        }
    },
    "shaders": {
        "dm020FS": {
            "type": 35632,
            "uri": "data:text/plain;base64,"
        },
        "dm020VS": {
            "type": 35633,
            "uri": "data:text/plain;base64,"
        }
    },
    "skins": {},
    "techniques": {
        "technique1": {
            "attributes": {
                "a_normal": "normal",
                "a_position": "position",
                "a_texcoord0": "texcoord0"
            },
            "parameters": {
                "ambient": {
                    "type": 35678
                },
                "diffuse": {
                    "type": 35678
                },
                "emission": {
                    "type": 35666
                },
                "modelViewMatrix": {
                    "semantic": "MODELVIEW",
                    "type": 35676
                },
                "normal": {
                    "semantic": "NORMAL",
                    "type": 35665
                },
                "normalMatrix": {
                    "semantic": "MODELVIEWINVERSETRANSPOSE",
                    "type": 35675
                },
                "position": {
                    "semantic": "POSITION",
                    "type": 35665
                },
                "projectionMatrix": {
                    "semantic": "PROJECTION",
                    "type": 35676
                },
                "shininess": {
                    "type": 5126
                },
                "specular": {
                    "type": 35666
                },
                "texcoord0": {
                    "semantic": "TEXCOORD_0",
                    "type": 35664
                }
            },
            "program": "program_0",
            "states": {
                "enable": [
                    2929,
                    3042
                ],
                "functions": {
                    "blendEquationSeparate": [
                        32774,
                        32774
                    ],
                    "blendFuncSeparate": [
                        1,
                        771,
                        1,
                        771
                    ],
                    "depthMask": false
                }
            },
            "uniforms": {
                "u_ambient": "ambient",
                "u_diffuse": "diffuse",
                "u_emission": "emission",
                "u_modelViewMatrix": "modelViewMatrix",
                "u_normalMatrix": "normalMatrix",
                "u_projectionMatrix": "projectionMatrix",
                "u_shininess": "shininess",
                "u_specular": "specular"
            }
        }
    },
    "textures": {
        "texture_sy16051113_png": {
            "format": 6408,
            "internalFormat": 6408,
            "sampler": "sampler_0",
            "source": "sy16051113_png",
            "target": 3553,
            "type": 5121
        },
        "texture_sy16051120_png": {
            "format": 6408,
            "internalFormat": 6408,
            "sampler": "sampler_0",
            "source": "sy16051120_png",
            "target": 3553,
            "type": 5121
        },
        "texture_sy16051139_png": {
            "format": 6408,
            "internalFormat": 6408,
            "sampler": "sampler_0",
            "source": "sy16051139_png",
            "target": 3553,
            "type": 5121
        },
        "texture_sy16062097_png": {
            "format": 6408,
            "internalFormat": 6408,
            "sampler": "sampler_0",
            "source": "sy16062097_png",
            "target": 3553,
            "type": 5121
        }
    }
}