{
    "accessors": {
        "accessor_166": {
            "bufferView": "bufferView_193",
            "byteOffset": 0,
            "byteStride": 0,
            "componentType": 5123,
            "count": 1491,
            "type": "SCALAR"
        },
        "accessor_169": {
            "bufferView": "bufferView_193",
            "byteOffset": 2982,
            "byteStride": 0,
            "componentType": 5123,
            "count": 7587,
            "type": "SCALAR"
        },
        "accessor_172": {
            "bufferView": "bufferView_193",
            "byteOffset": 18156,
            "byteStride": 0,
            "componentType": 5123,
            "count": 5115,
            "type": "SCALAR"
        },
        "accessor_175": {
            "bufferView": "bufferView_193",
            "byteOffset": 28386,
            "byteStride": 0,
            "componentType": 5123,
            "count": 162,
            "type": "SCALAR"
        },
        "accessor_178": {
            "bufferView": "bufferView_193",
            "byteOffset": 28710,
            "byteStride": 0,
            "componentType": 5123,
            "count": 40185,
            "type": "SCALAR"
        },
        "accessor_181": {
            "bufferView": "bufferView_193",
            "byteOffset": 109080,
            "byteStride": 0,
            "componentType": 5123,
            "count": 213,
            "type": "SCALAR"
        },
        "accessor_183": {
            "bufferView": "bufferView_194",
            "byteOffset": 0,
            "byteStride": 12,
            "componentType": 5126,
            "count": 33999,
            "max": [
                53.2482,
                3.62427,
                11.4662
            ],
            "min": [
                36.014,
                -23.1433,
                -0.602418
            ],
            "type": "VEC3"
        },
        "accessor_185": {
            "bufferView": "bufferView_194",
            "byteOffset": 407988,
            "byteStride": 12,
            "componentType": 5126,
            "count": 33999,
            "max": [
                1,
                0.999995,
                1
            ],
            "min": [
                -0.999988,
                -1,
                -1
            ],
            "type": "VEC3"
        },
        "accessor_187": {
            "bufferView": "bufferView_194",
            "byteOffset": 815976,
            "byteStride": 8,
            "componentType": 5126,
            "count": 33999,
            "max": [
                275.595,
                275.374
            ],
            "min": [
                -275.678,
                -276.066
            ],
            "type": "VEC2"
        },
        "accessor_189": {
            "bufferView": "bufferView_194",
            "byteOffset": 1087968,
            "byteStride": 12,
            "componentType": 5126,
            "count": 33999,
            "max": [
                0.999978,
                0.999998,
                1
            ],
            "min": [
                -0.999995,
                -0.999988,
                -1
            ],
            "type": "VEC3"
        },
        "accessor_191": {
            "bufferView": "bufferView_194",
            "byteOffset": 1495956,
            "byteStride": 12,
            "componentType": 5126,
            "count": 33999,
            "max": [
                1,
                1,
                1
            ],
            "min": [
                -0.999779,
                -0.999767,
                -1
            ],
            "type": "VEC3"
        }
    },
    "animations": {},
    "asset": {
        "generator": "collada2gltf@11bf28f97f1b5380fbefacf862ce7c597873d368",
        "premultipliedAlpha": true,
        "profile": {
            "api": "WebGL",
            "version": "1.0.2"
        },
        "version": 1
    },
    "bufferViews": {
        "bufferView_193": {
            "buffer": "ht03",
            "byteLength": 109508,
            "byteOffset": 0,
            "target": 34963
        },
        "bufferView_194": {
            "buffer": "ht03",
            "byteLength": 1903944,
            "byteOffset": 109508,
            "target": 34962
        }
    },
    "buffers": {
        "ht03": {
            "byteLength": 2013452,
            "type": "arraybuffer",
            "uri": "data:application/octet-stream;base64,"
        }
    },
    "images": {
        "sy16051101_png": {
            "name": "sy16051101_png",
            "uri": "data:image/png;base64,"
        },
        "sy16051102_png": {
            "name": "sy16051102_png",
            "uri": "data:image/png;base64,"
        },
        "sy16051107_png": {
            "name": "sy16051107_png",
            "uri": "data:image/png;base64,"
        },
        "sy16051113_png": {
            "name": "sy16051113_png",
            "uri": "data:image/png;base64,"
        },
        "sy16051118_png": {
            "name": "sy16051118_png",
            "uri": "data:image/png;base64,"
        },
        "sy16051126_png": {
            "name": "sy16051126_png",
            "uri": "data:image/png;base64,"
        }
    },
    "materials": {
        "sy16051101": {
            "name": "sy16051101",
            "technique": "technique1",
            "values": {
                "ambient": "texture_sy16051101_png",
                "diffuse": "texture_sy16051101_png",
                "emission": [
                    0,
                    0,
                    0,
                    1
                ],
                "shininess": 0,
                "specular": [
                    0.9,
                    0.9,
                    0.9,
                    1
                ]
            }
        },
        "sy16051102": {
            "name": "sy16051102",
            "technique": "technique1",
            "values": {
                "ambient": "texture_sy16051102_png",
                "diffuse": "texture_sy16051102_png",
                "emission": [
                    0,
                    0,
                    0,
                    1
                ],
                "shininess": 0,
                "specular": [
                    0.9,
                    0.9,
                    0.9,
                    1
                ]
            }
        },
        "sy16051107": {
            "name": "sy16051107",
            "technique": "technique1",
            "values": {
                "ambient": "texture_sy16051107_png",
                "diffuse": "texture_sy16051107_png",
                "emission": [
                    0,
                    0,
                    0,
                    1
                ],
                "shininess": 0,
                "specular": [
                    0.9,
                    0.9,
                    0.9,
                    1
                ]
            }
        },
        "sy16051113": {
            "name": "sy16051113",
            "technique": "technique1",
            "values": {
                "ambient": "texture_sy16051113_png",
                "diffuse": "texture_sy16051113_png",
                "emission": [
                    0,
                    0,
                    0,
                    1
                ],
                "shininess": 0,
                "specular": [
                    0.9,
                    0.9,
                    0.9,
                    1
                ]
            }
        },
        "sy16051118": {
            "name": "sy16051118",
            "technique": "technique1",
            "values": {
                "ambient": "texture_sy16051118_png",
                "diffuse": "texture_sy16051118_png",
                "emission": [
                    0,
                    0,
                    0,
                    1
                ],
                "shininess": 0,
                "specular": [
                    0.9,
                    0.9,
                    0.9,
                    1
                ]
            }
        },
        "sy16051126": {
            "name": "sy16051126",
            "technique": "technique1",
            "values": {
                "ambient": "texture_sy16051126_png",
                "diffuse": "texture_sy16051126_png",
                "emission": [
                    0,
                    0,
                    0,
                    1
                ],
                "shininess": 0,
                "specular": [
                    0.9,
                    0.9,
                    0.9,
                    1
                ]
            }
        }
    },
    "meshes": {
        "geom-ht03": {
            "name": "ht03",
            "primitives": [
                {
                    "attributes": {
                        "NORMAL": "accessor_185",
                        "POSITION": "accessor_183",
                        "TEXBINORMAL": "accessor_191",
                        "TEXCOORD_0": "accessor_187",
                        "TEXTANGENT": "accessor_189"
                    },
                    "indices": "accessor_166",
                    "material": "sy16051101",
                    "mode": 4
                },
                {
                    "attributes": {
                        "NORMAL": "accessor_185",
                        "POSITION": "accessor_183",
                        "TEXBINORMAL": "accessor_191",
                        "TEXCOORD_0": "accessor_187",
                        "TEXTANGENT": "accessor_189"
                    },
                    "indices": "accessor_169",
                    "material": "sy16051118",
                    "mode": 4
                },
                {
                    "attributes": {
                        "NORMAL": "accessor_185",
                        "POSITION": "accessor_183",
                        "TEXBINORMAL": "accessor_191",
                        "TEXCOORD_0": "accessor_187",
                        "TEXTANGENT": "accessor_189"
                    },
                    "indices": "accessor_172",
                    "material": "sy16051102",
                    "mode": 4
                },
                {
                    "attributes": {
                        "NORMAL": "accessor_185",
                        "POSITION": "accessor_183",
                        "TEXBINORMAL": "accessor_191",
                        "TEXCOORD_0": "accessor_187",
                        "TEXTANGENT": "accessor_189"
                    },
                    "indices": "accessor_175",
                    "material": "sy16051107",
                    "mode": 4
                },
                {
                    "attributes": {
                        "NORMAL": "accessor_185",
                        "POSITION": "accessor_183",
                        "TEXBINORMAL": "accessor_191",
                        "TEXCOORD_0": "accessor_187",
                        "TEXTANGENT": "accessor_189"
                    },
                    "indices": "accessor_178",
                    "material": "sy16051113",
                    "mode": 4
                },
                {
                    "attributes": {
                        "NORMAL": "accessor_185",
                        "POSITION": "accessor_183",
                        "TEXBINORMAL": "accessor_191",
                        "TEXCOORD_0": "accessor_187",
                        "TEXTANGENT": "accessor_189"
                    },
                    "indices": "accessor_181",
                    "material": "sy16051126",
                    "mode": 4
                }
            ]
        }
    },
    "nodes": {
        "node-ht03": {
            "children": [
                "node_2"
            ],
            "matrix": [
                1,
                8.71919e-15,
                0.000247955,
                0,
                -5.01494e-08,
                1,
                0.000202252,
                0,
                -0.000247955,
                -0.000202252,
                1,
                0,
                0,
                0,
                5.33925,
                1
            ],
            "name": "ht03"
        },
        "node_0": {
            "children": [],
            "matrix": [
                1,
                0,
                0,
                0,
                0,
                1,
                0,
                0,
                0,
                0,
                1,
                0,
                0,
                0,
                0,
                1
            ],
            "name": "EnvironmentAmbientLight"
        },
        "node_2": {
            "children": [],
            "matrix": [
                1,
                0,
                0,
                0,
                0,
                1,
                0,
                0,
                0,
                0,
                1,
                0,
                -44.6311,
                9.75953,
                -5.4319,
                1
            ],
            "meshes": [
                "geom-ht03"
            ],
            "name": ""
        },
        "node_3": {
            "children": [
                "node_0",
                "node-ht03"
            ],
            "matrix": [
                1,
                0,
                0,
                0,
                0,
                0,
                -1,
                0,
                0,
                1,
                0,
                0,
                0,
                0,
                0,
                1
            ],
            "name": "Y_UP_Transform"
        }
    },
    "programs": {
        "program_0": {
            "attributes": [
                "a_normal",
                "a_position",
                "a_texcoord0"
            ],
            "fragmentShader": "ht030FS",
            "vertexShader": "ht030VS"
        }
    },
    "samplers": {
        "sampler_0": {
            "magFilter": 9729,
            "minFilter": 9729,
            "wrapS": 10497,
            "wrapT": 10497
        }
    },
    "scene": "defaultScene",
    "scenes": {
        "defaultScene": {
            "nodes": [
                "node_3"
            ]
        }
    },
    "shaders": {
        "ht030FS": {
            "type": 35632,
            "uri": "data:text/plain;base64,"
        },
        "ht030VS": {
            "type": 35633,
            "uri": "data:text/plain;base64,"
        }
    },
    "skins": {},
    "techniques": {
        "technique1": {
            "attributes": {
                "a_normal": "normal",
                "a_position": "position",
                "a_texcoord0": "texcoord0"
            },
            "parameters": {
                "ambient": {
                    "type": 35678
                },
                "diffuse": {
                    "type": 35678
                },
                "emission": {
                    "type": 35666
                },
                "modelViewMatrix": {
                    "semantic": "MODELVIEW",
                    "type": 35676
                },
                "normal": {
                    "semantic": "NORMAL",
                    "type": 35665
                },
                "normalMatrix": {
                    "semantic": "MODELVIEWINVERSETRANSPOSE",
                    "type": 35675
                },
                "position": {
                    "semantic": "POSITION",
                    "type": 35665
                },
                "projectionMatrix": {
                    "semantic": "PROJECTION",
                    "type": 35676
                },
                "shininess": {
                    "type": 5126
                },
                "specular": {
                    "type": 35666
                },
                "texcoord0": {
                    "semantic": "TEXCOORD_0",
                    "type": 35664
                }
            },
            "program": "program_0",
            "states": {
                "enable": [
                    2929,
                    3042
                ],
                "functions": {
                    "blendEquationSeparate": [
                        32774,
                        32774
                    ],
                    "blendFuncSeparate": [
                        1,
                        771,
                        1,
                        771
                    ],
                    "depthMask": false
                }
            },
            "uniforms": {
                "u_ambient": "ambient",
                "u_diffuse": "diffuse",
                "u_emission": "emission",
                "u_modelViewMatrix": "modelViewMatrix",
                "u_normalMatrix": "normalMatrix",
                "u_projectionMatrix": "projectionMatrix",
                "u_shininess": "shininess",
                "u_specular": "specular"
            }
        }
    },
    "textures": {
        "texture_sy16051101_png": {
            "format": 6408,
            "internalFormat": 6408,
            "sampler": "sampler_0",
            "source": "sy16051101_png",
            "target": 3553,
            "type": 5121
        },
        "texture_sy16051102_png": {
            "format": 6408,
            "internalFormat": 6408,
            "sampler": "sampler_0",
            "source": "sy16051102_png",
            "target": 3553,
            "type": 5121
        },
        "texture_sy16051107_png": {
            "format": 6408,
            "internalFormat": 6408,
            "sampler": "sampler_0",
            "source": "sy16051107_png",
            "target": 3553,
            "type": 5121
        },
        "texture_sy16051113_png": {
            "format": 6408,
            "internalFormat": 6408,
            "sampler": "sampler_0",
            "source": "sy16051113_png",
            "target": 3553,
            "type": 5121
        },
        "texture_sy16051118_png": {
            "format": 6408,
            "internalFormat": 6408,
            "sampler": "sampler_0",
            "source": "sy16051118_png",
            "target": 3553,
            "type": 5121
        },
        "texture_sy16051126_png": {
            "format": 6408,
            "internalFormat": 6408,
            "sampler": "sampler_0",
            "source": "sy16051126_png",
            "target": 3553,
            "type": 5121
        }
    }
}