{
    "accessors": {
        "accessor_72": {
            "bufferView": "bufferView_89",
            "byteOffset": 0,
            "byteStride": 0,
            "componentType": 5123,
            "count": 264,
            "type": "SCALAR"
        },
        "accessor_75": {
            "bufferView": "bufferView_89",
            "byteOffset": 528,
            "byteStride": 0,
            "componentType": 5123,
            "count": 126,
            "type": "SCALAR"
        },
        "accessor_78": {
            "bufferView": "bufferView_89",
            "byteOffset": 780,
            "byteStride": 0,
            "componentType": 5123,
            "count": 14112,
            "type": "SCALAR"
        },
        "accessor_81": {
            "bufferView": "bufferView_89",
            "byteOffset": 29004,
            "byteStride": 0,
            "componentType": 5123,
            "count": 288,
            "type": "SCALAR"
        },
        "accessor_83": {
            "bufferView": "bufferView_90",
            "byteOffset": 0,
            "byteStride": 12,
            "componentType": 5126,
            "count": 4966,
            "max": [
                -68.4766,
                72.9522,
                44.5999
            ],
            "min": [
                -151.983,
                -49.0318,
                0.199995
            ],
            "type": "VEC3"
        },
        "accessor_85": {
            "bufferView": "bufferView_90",
            "byteOffset": 59592,
            "byteStride": 12,
            "componentType": 5126,
            "count": 4966,
            "max": [
                1,
                1,
                1
            ],
            "min": [
                -1,
                -1,
                -1
            ],
            "type": "VEC3"
        },
        "accessor_87": {
            "bufferView": "bufferView_90",
            "byteOffset": 119184,
            "byteStride": 8,
            "componentType": 5126,
            "count": 4966,
            "max": [
                1.05,
                1
            ],
            "min": [
                0,
                0
            ],
            "type": "VEC2"
        }
    },
    "animations": {},
    "asset": {
        "generator": "collada2gltf@11bf28f97f1b5380fbefacf862ce7c597873d368",
        "premultipliedAlpha": true,
        "profile": {
            "api": "WebGL",
            "version": "1.0.2"
        },
        "version": 1
    },
    "bufferViews": {
        "bufferView_89": {
            "buffer": "jianzhu05",
            "byteLength": 29580,
            "byteOffset": 0,
            "target": 34963
        },
        "bufferView_90": {
            "buffer": "jianzhu05",
            "byteLength": 158912,
            "byteOffset": 29580,
            "target": 34962
        }
    },
    "buffers": {
        "jianzhu05": {
            "byteLength": 188492,
            "type": "arraybuffer",
            "uri": "data:application/octet-stream;base64,"
        }
    },
    "images": {
        "sy16051101_png": {
            "name": "sy16051101_png",
            "uri": "data:image/png;base64,"
        },
        "sy16051102_png": {
            "name": "sy16051102_png",
            "uri": "data:image/png;base64,"
        },
        "sy16051104_png": {
            "name": "sy16051104_png",
            "uri": "data:image/png;base64,"
        },
        "sy16051106_png": {
            "name": "sy16051106_png",
            "uri": "data:image/png;base64,"
        }
    },
    "materials": {
        "sy16051101": {
            "name": "sy16051101",
            "technique": "technique1",
            "values": {
                "ambient": "texture_sy16051101_png",
                "diffuse": "texture_sy16051101_png",
                "emission": [
                    0,
                    0,
                    0,
                    1
                ],
                "shininess": 0,
                "specular": [
                    0.9,
                    0.9,
                    0.9,
                    1
                ]
            }
        },
        "sy16051102": {
            "name": "sy16051102",
            "technique": "technique1",
            "values": {
                "ambient": "texture_sy16051102_png",
                "diffuse": "texture_sy16051102_png",
                "emission": [
                    0,
                    0,
                    0,
                    1
                ],
                "shininess": 0,
                "specular": [
                    0.9,
                    0.9,
                    0.9,
                    1
                ]
            }
        },
        "sy16051104": {
            "name": "sy16051104",
            "technique": "technique1",
            "values": {
                "ambient": "texture_sy16051104_png",
                "diffuse": "texture_sy16051104_png",
                "emission": [
                    0,
                    0,
                    0,
                    1
                ],
                "shininess": 0,
                "specular": [
                    0.9,
                    0.9,
                    0.9,
                    1
                ]
            }
        },
        "sy16051106": {
            "name": "sy16051106",
            "technique": "technique1",
            "values": {
                "ambient": "texture_sy16051106_png",
                "diffuse": "texture_sy16051106_png",
                "emission": [
                    0,
                    0,
                    0,
                    1
                ],
                "shininess": 0,
                "specular": [
                    0.9,
                    0.9,
                    0.9,
                    1
                ]
            }
        }
    },
    "meshes": {
        "geom-jianzhu05": {
            "name": "jianzhu05",
            "primitives": [
                {
                    "attributes": {
                        "NORMAL": "accessor_85",
                        "POSITION": "accessor_83",
                        "TEXCOORD_0": "accessor_87"
                    },
                    "indices": "accessor_72",
                    "material": "sy16051102",
                    "mode": 4
                },
                {
                    "attributes": {
                        "NORMAL": "accessor_85",
                        "POSITION": "accessor_83",
                        "TEXCOORD_0": "accessor_87"
                    },
                    "indices": "accessor_75",
                    "material": "sy16051104",
                    "mode": 4
                },
                {
                    "attributes": {
                        "NORMAL": "accessor_85",
                        "POSITION": "accessor_83",
                        "TEXCOORD_0": "accessor_87"
                    },
                    "indices": "accessor_78",
                    "material": "sy16051101",
                    "mode": 4
                },
                {
                    "attributes": {
                        "NORMAL": "accessor_85",
                        "POSITION": "accessor_83",
                        "TEXCOORD_0": "accessor_87"
                    },
                    "indices": "accessor_81",
                    "material": "sy16051106",
                    "mode": 4
                }
            ]
        }
    },
    "nodes": {
        "node-jianzhu05": {
            "children": [
                "node_2"
            ],
            "matrix": [
                1,
                0,
                0,
                0,
                0,
                1,
                0,
                0,
                0,
                0,
                1,
                0,
                0,
                -3.8147e-06,
                22.3999,
                1
            ],
            "name": "jianzhu05"
        },
        "node_0": {
            "children": [],
            "matrix": [
                1,
                0,
                0,
                0,
                0,
                1,
                0,
                0,
                0,
                0,
                1,
                0,
                0,
                0,
                0,
                1
            ],
            "name": "EnvironmentAmbientLight"
        },
        "node_2": {
            "children": [],
            "matrix": [
                1,
                0,
                0,
                0,
                0,
                1,
                0,
                0,
                0,
                0,
                1,
                0,
                110.23,
                -11.9602,
                -22.3999,
                1
            ],
            "meshes": [
                "geom-jianzhu05"
            ],
            "name": ""
        },
        "node_3": {
            "children": [
                "node_0",
                "node-jianzhu05"
            ],
            "matrix": [
                1,
                0,
                0,
                0,
                0,
                0,
                -1,
                0,
                0,
                1,
                0,
                0,
                0,
                0,
                0,
                1
            ],
            "name": "Y_UP_Transform"
        }
    },
    "programs": {
        "program_0": {
            "attributes": [
                "a_normal",
                "a_position",
                "a_texcoord0"
            ],
            "fragmentShader": "jianzhu050FS",
            "vertexShader": "jianzhu050VS"
        }
    },
    "samplers": {
        "sampler_0": {
            "magFilter": 9729,
            "minFilter": 9729,
            "wrapS": 10497,
            "wrapT": 10497
        }
    },
    "scene": "defaultScene",
    "scenes": {
        "defaultScene": {
            "nodes": [
                "node_3"
            ]
        }
    },
    "shaders": {
        "jianzhu050FS": {
            "type": 35632,
            "uri": "data:text/plain;base64,"
        },
        "jianzhu050VS": {
            "type": 35633,
            "uri": "data:text/plain;base64,"
        }
    },
    "skins": {},
    "techniques": {
        "technique1": {
            "attributes": {
                "a_normal": "normal",
                "a_position": "position",
                "a_texcoord0": "texcoord0"
            },
            "parameters": {
                "ambient": {
                    "type": 35678
                },
                "diffuse": {
                    "type": 35678
                },
                "emission": {
                    "type": 35666
                },
                "modelViewMatrix": {
                    "semantic": "MODELVIEW",
                    "type": 35676
                },
                "normal": {
                    "semantic": "NORMAL",
                    "type": 35665
                },
                "normalMatrix": {
                    "semantic": "MODELVIEWINVERSETRANSPOSE",
                    "type": 35675
                },
                "position": {
                    "semantic": "POSITION",
                    "type": 35665
                },
                "projectionMatrix": {
                    "semantic": "PROJECTION",
                    "type": 35676
                },
                "shininess": {
                    "type": 5126
                },
                "specular": {
                    "type": 35666
                },
                "texcoord0": {
                    "semantic": "TEXCOORD_0",
                    "type": 35664
                }
            },
            "program": "program_0",
            "states": {
                "enable": [
                    2929,
                    2884
                ]
            },
            "uniforms": {
                "u_ambient": "ambient",
                "u_diffuse": "diffuse",
                "u_emission": "emission",
                "u_modelViewMatrix": "modelViewMatrix",
                "u_normalMatrix": "normalMatrix",
                "u_projectionMatrix": "projectionMatrix",
                "u_shininess": "shininess",
                "u_specular": "specular"
            }
        }
    },
    "textures": {
        "texture_sy16051101_png": {
            "format": 6408,
            "internalFormat": 6408,
            "sampler": "sampler_0",
            "source": "sy16051101_png",
            "target": 3553,
            "type": 5121
        },
        "texture_sy16051102_png": {
            "format": 6408,
            "internalFormat": 6408,
            "sampler": "sampler_0",
            "source": "sy16051102_png",
            "target": 3553,
            "type": 5121
        },
        "texture_sy16051104_png": {
            "format": 6408,
            "internalFormat": 6408,
            "sampler": "sampler_0",
            "source": "sy16051104_png",
            "target": 3553,
            "type": 5121
        },
        "texture_sy16051106_png": {
            "format": 6408,
            "internalFormat": 6408,
            "sampler": "sampler_0",
            "source": "sy16051106_png",
            "target": 3553,
            "type": 5121
        }
    }
}