{
    "accessors": {
        "accessor_174": {
            "bufferView": "bufferView_209",
            "byteOffset": 0,
            "byteStride": 0,
            "componentType": 5123,
            "count": 3396,
            "type": "SCALAR"
        },
        "accessor_177": {
            "bufferView": "bufferView_209",
            "byteOffset": 6792,
            "byteStride": 0,
            "componentType": 5123,
            "count": 9876,
            "type": "SCALAR"
        },
        "accessor_180": {
            "bufferView": "bufferView_209",
            "byteOffset": 26544,
            "byteStride": 0,
            "componentType": 5123,
            "count": 2982,
            "type": "SCALAR"
        },
        "accessor_183": {
            "bufferView": "bufferView_209",
            "byteOffset": 32508,
            "byteStride": 0,
            "componentType": 5123,
            "count": 6675,
            "type": "SCALAR"
        },
        "accessor_186": {
            "bufferView": "bufferView_209",
            "byteOffset": 45858,
            "byteStride": 0,
            "componentType": 5123,
            "count": 909,
            "type": "SCALAR"
        },
        "accessor_189": {
            "bufferView": "bufferView_209",
            "byteOffset": 47676,
            "byteStride": 0,
            "componentType": 5123,
            "count": 282,
            "type": "SCALAR"
        },
        "accessor_192": {
            "bufferView": "bufferView_209",
            "byteOffset": 48240,
            "byteStride": 0,
            "componentType": 5123,
            "count": 186,
            "type": "SCALAR"
        },
        "accessor_195": {
            "bufferView": "bufferView_209",
            "byteOffset": 48612,
            "byteStride": 0,
            "componentType": 5123,
            "count": 168,
            "type": "SCALAR"
        },
        "accessor_198": {
            "bufferView": "bufferView_209",
            "byteOffset": 48948,
            "byteStride": 0,
            "componentType": 5123,
            "count": 222,
            "type": "SCALAR"
        },
        "accessor_201": {
            "bufferView": "bufferView_209",
            "byteOffset": 49392,
            "byteStride": 0,
            "componentType": 5123,
            "count": 63,
            "type": "SCALAR"
        },
        "accessor_203": {
            "bufferView": "bufferView_210",
            "byteOffset": 0,
            "byteStride": 12,
            "componentType": 5126,
            "count": 24367,
            "max": [
                -76.2526,
                161.224,
                101.486
            ],
            "min": [
                -236.245,
                -13.5646,
                -1.90735e-06
            ],
            "type": "VEC3"
        },
        "accessor_205": {
            "bufferView": "bufferView_210",
            "byteOffset": 292404,
            "byteStride": 12,
            "componentType": 5126,
            "count": 24367,
            "max": [
                0.988685,
                0.988614,
                1
            ],
            "min": [
                -1,
                -1,
                -1
            ],
            "type": "VEC3"
        },
        "accessor_207": {
            "bufferView": "bufferView_210",
            "byteOffset": 584808,
            "byteStride": 8,
            "componentType": 5126,
            "count": 24367,
            "max": [
                33.3947,
                76.2821
            ],
            "min": [
                -27.6441,
                -50.5896
            ],
            "type": "VEC2"
        }
    },
    "animations": {},
    "asset": {
        "generator": "collada2gltf@11bf28f97f1b5380fbefacf862ce7c597873d368",
        "premultipliedAlpha": true,
        "profile": {
            "api": "WebGL",
            "version": "1.0.2"
        },
        "version": 1
    },
    "bufferViews": {
        "bufferView_209": {
            "buffer": "jianzhu09",
            "byteLength": 49520,
            "byteOffset": 0,
            "target": 34963
        },
        "bufferView_210": {
            "buffer": "jianzhu09",
            "byteLength": 779744,
            "byteOffset": 49520,
            "target": 34962
        }
    },
    "buffers": {
        "jianzhu09": {
            "byteLength": 829264,
            "type": "arraybuffer",
            "uri": "data:application/octet-stream;base64,"
        }
    },
    "images": {
        "sy16050902_png": {
            "name": "sy16050902_png",
            "uri": "data:image/png;base64,"
        },
        "sy16051101_png": {
            "name": "sy16051101_png",
            "uri": "data:image/png;base64,"
        },
        "sy16051102_png": {
            "name": "sy16051102_png",
            "uri": "data:image/png;base64,"
        },
        "sy16051103_png": {
            "name": "sy16051103_png",
            "uri": "data:image/png;base64,"
        },
        "sy16051104_png": {
            "name": "sy16051104_png",
            "uri": "data:image/png;base64,"
        },
        "sy16051106_png": {
            "name": "sy16051106_png",
            "uri": "data:image/png;base64,"
        },
        "sy16051119_png": {
            "name": "sy16051119_png",
            "uri": "data:image/png;base64,"
        },
        "sy16051121_png": {
            "name": "sy16051121_png",
            "uri": "data:image/png;base64,"
        },
        "sy16051122_png": {
            "name": "sy16051122_png",
            "uri": "data:image/png;base64,"
        },
        "sy16051123_png": {
            "name": "sy16051123_png",
            "uri": "data:image/png;base64,"
        }
    },
    "materials": {
        "sy16050902": {
            "name": "sy16050902",
            "technique": "technique1",
            "values": {
                "ambient": "texture_sy16050902_png",
                "diffuse": "texture_sy16050902_png",
                "emission": [
                    0,
                    0,
                    0,
                    1
                ],
                "shininess": 0,
                "specular": [
                    0.9,
                    0.9,
                    0.9,
                    1
                ]
            }
        },
        "sy16051101": {
            "name": "sy16051101",
            "technique": "technique1",
            "values": {
                "ambient": "texture_sy16051101_png",
                "diffuse": "texture_sy16051101_png",
                "emission": [
                    0,
                    0,
                    0,
                    1
                ],
                "shininess": 0,
                "specular": [
                    0.9,
                    0.9,
                    0.9,
                    1
                ]
            }
        },
        "sy16051102": {
            "name": "sy16051102",
            "technique": "technique1",
            "values": {
                "ambient": "texture_sy16051102_png",
                "diffuse": "texture_sy16051102_png",
                "emission": [
                    0,
                    0,
                    0,
                    1
                ],
                "shininess": 0,
                "specular": [
                    0.9,
                    0.9,
                    0.9,
                    1
                ]
            }
        },
        "sy16051103": {
            "name": "sy16051103",
            "technique": "technique1",
            "values": {
                "ambient": "texture_sy16051103_png",
                "diffuse": "texture_sy16051103_png",
                "emission": [
                    0,
                    0,
                    0,
                    1
                ],
                "shininess": 0,
                "specular": [
                    0.9,
                    0.9,
                    0.9,
                    1
                ]
            }
        },
        "sy16051104": {
            "name": "sy16051104",
            "technique": "technique1",
            "values": {
                "ambient": "texture_sy16051104_png",
                "diffuse": "texture_sy16051104_png",
                "emission": [
                    0,
                    0,
                    0,
                    1
                ],
                "shininess": 0,
                "specular": [
                    0.9,
                    0.9,
                    0.9,
                    1
                ]
            }
        },
        "sy16051106": {
            "name": "sy16051106",
            "technique": "technique1",
            "values": {
                "ambient": "texture_sy16051106_png",
                "diffuse": "texture_sy16051106_png",
                "emission": [
                    0,
                    0,
                    0,
                    1
                ],
                "shininess": 0,
                "specular": [
                    0.9,
                    0.9,
                    0.9,
                    1
                ]
            }
        },
        "sy16051119": {
            "name": "sy16051119",
            "technique": "technique1",
            "values": {
                "ambient": "texture_sy16051119_png",
                "diffuse": "texture_sy16051119_png",
                "emission": [
                    0,
                    0,
                    0,
                    1
                ],
                "shininess": 0,
                "specular": [
                    0.9,
                    0.9,
                    0.9,
                    1
                ]
            }
        },
        "sy16051121": {
            "name": "sy16051121",
            "technique": "technique1",
            "values": {
                "ambient": "texture_sy16051121_png",
                "diffuse": "texture_sy16051121_png",
                "emission": [
                    0,
                    0,
                    0,
                    1
                ],
                "shininess": 0,
                "specular": [
                    0.9,
                    0.9,
                    0.9,
                    1
                ]
            }
        },
        "sy16051122": {
            "name": "sy16051122",
            "technique": "technique1",
            "values": {
                "ambient": "texture_sy16051122_png",
                "diffuse": "texture_sy16051122_png",
                "emission": [
                    0,
                    0,
                    0,
                    1
                ],
                "shininess": 0,
                "specular": [
                    0.9,
                    0.9,
                    0.9,
                    1
                ]
            }
        },
        "sy16051123": {
            "name": "sy16051123",
            "technique": "technique1",
            "values": {
                "ambient": "texture_sy16051123_png",
                "diffuse": "texture_sy16051123_png",
                "emission": [
                    0,
                    0,
                    0,
                    1
                ],
                "shininess": 0,
                "specular": [
                    0.9,
                    0.9,
                    0.9,
                    1
                ]
            }
        }
    },
    "meshes": {
        "geom-jianzhu09": {
            "name": "jianzhu09",
            "primitives": [
                {
                    "attributes": {
                        "NORMAL": "accessor_205",
                        "POSITION": "accessor_203",
                        "TEXCOORD_0": "accessor_207"
                    },
                    "indices": "accessor_174",
                    "material": "sy16051106",
                    "mode": 4
                },
                {
                    "attributes": {
                        "NORMAL": "accessor_205",
                        "POSITION": "accessor_203",
                        "TEXCOORD_0": "accessor_207"
                    },
                    "indices": "accessor_177",
                    "material": "sy16051103",
                    "mode": 4
                },
                {
                    "attributes": {
                        "NORMAL": "accessor_205",
                        "POSITION": "accessor_203",
                        "TEXCOORD_0": "accessor_207"
                    },
                    "indices": "accessor_180",
                    "material": "sy16051102",
                    "mode": 4
                },
                {
                    "attributes": {
                        "NORMAL": "accessor_205",
                        "POSITION": "accessor_203",
                        "TEXCOORD_0": "accessor_207"
                    },
                    "indices": "accessor_183",
                    "material": "sy16051104",
                    "mode": 4
                },
                {
                    "attributes": {
                        "NORMAL": "accessor_205",
                        "POSITION": "accessor_203",
                        "TEXCOORD_0": "accessor_207"
                    },
                    "indices": "accessor_186",
                    "material": "sy16051101",
                    "mode": 4
                },
                {
                    "attributes": {
                        "NORMAL": "accessor_205",
                        "POSITION": "accessor_203",
                        "TEXCOORD_0": "accessor_207"
                    },
                    "indices": "accessor_189",
                    "material": "sy16051123",
                    "mode": 4
                },
                {
                    "attributes": {
                        "NORMAL": "accessor_205",
                        "POSITION": "accessor_203",
                        "TEXCOORD_0": "accessor_207"
                    },
                    "indices": "accessor_192",
                    "material": "sy16051122",
                    "mode": 4
                },
                {
                    "attributes": {
                        "NORMAL": "accessor_205",
                        "POSITION": "accessor_203",
                        "TEXCOORD_0": "accessor_207"
                    },
                    "indices": "accessor_195",
                    "material": "sy16050902",
                    "mode": 4
                },
                {
                    "attributes": {
                        "NORMAL": "accessor_205",
                        "POSITION": "accessor_203",
                        "TEXCOORD_0": "accessor_207"
                    },
                    "indices": "accessor_198",
                    "material": "sy16051121",
                    "mode": 4
                },
                {
                    "attributes": {
                        "NORMAL": "accessor_205",
                        "POSITION": "accessor_203",
                        "TEXCOORD_0": "accessor_207"
                    },
                    "indices": "accessor_201",
                    "material": "sy16051119",
                    "mode": 4
                }
            ]
        }
    },
    "nodes": {
        "node-jianzhu09": {
            "children": [
                "node_2"
            ],
            "matrix": [
                1,
                0,
                0,
                0,
                0,
                1,
                0,
                0,
                0,
                0,
                1,
                0,
                -11.1114,
                10.976,
                50.7431,
                1
            ],
            "name": "jianzhu09"
        },
        "node_0": {
            "children": [],
            "matrix": [
                1,
                0,
                0,
                0,
                0,
                1,
                0,
                0,
                0,
                0,
                1,
                0,
                0,
                0,
                0,
                1
            ],
            "name": "EnvironmentAmbientLight"
        },
        "node_2": {
            "children": [],
            "matrix": [
                1,
                0,
                0,
                0,
                0,
                1,
                0,
                0,
                0,
                0,
                1,
                0,
                156.249,
                -73.8296,
                -50.7431,
                1
            ],
            "meshes": [
                "geom-jianzhu09"
            ],
            "name": ""
        },
        "node_3": {
            "children": [
                "node_0",
                "node-jianzhu09"
            ],
            "matrix": [
                1,
                0,
                0,
                0,
                0,
                0,
                -1,
                0,
                0,
                1,
                0,
                0,
                0,
                0,
                0,
                1
            ],
            "name": "Y_UP_Transform"
        }
    },
    "programs": {
        "program_0": {
            "attributes": [
                "a_normal",
                "a_position",
                "a_texcoord0"
            ],
            "fragmentShader": "jianzhu090FS",
            "vertexShader": "jianzhu090VS"
        }
    },
    "samplers": {
        "sampler_0": {
            "magFilter": 9729,
            "minFilter": 9729,
            "wrapS": 10497,
            "wrapT": 10497
        }
    },
    "scene": "defaultScene",
    "scenes": {
        "defaultScene": {
            "nodes": [
                "node_3"
            ]
        }
    },
    "shaders": {
        "jianzhu090FS": {
            "type": 35632,
            "uri": "data:text/plain;base64,"
        },
        "jianzhu090VS": {
            "type": 35633,
            "uri": "data:text/plain;base64,"
        }
    },
    "skins": {},
    "techniques": {
        "technique1": {
            "attributes": {
                "a_normal": "normal",
                "a_position": "position",
                "a_texcoord0": "texcoord0"
            },
            "parameters": {
                "ambient": {
                    "type": 35678
                },
                "diffuse": {
                    "type": 35678
                },
                "emission": {
                    "type": 35666
                },
                "modelViewMatrix": {
                    "semantic": "MODELVIEW",
                    "type": 35676
                },
                "normal": {
                    "semantic": "NORMAL",
                    "type": 35665
                },
                "normalMatrix": {
                    "semantic": "MODELVIEWINVERSETRANSPOSE",
                    "type": 35675
                },
                "position": {
                    "semantic": "POSITION",
                    "type": 35665
                },
                "projectionMatrix": {
                    "semantic": "PROJECTION",
                    "type": 35676
                },
                "shininess": {
                    "type": 5126
                },
                "specular": {
                    "type": 35666
                },
                "texcoord0": {
                    "semantic": "TEXCOORD_0",
                    "type": 35664
                }
            },
            "program": "program_0",
            "states": {
                "enable": [
                    2929,
                    2884
                ]
            },
            "uniforms": {
                "u_ambient": "ambient",
                "u_diffuse": "diffuse",
                "u_emission": "emission",
                "u_modelViewMatrix": "modelViewMatrix",
                "u_normalMatrix": "normalMatrix",
                "u_projectionMatrix": "projectionMatrix",
                "u_shininess": "shininess",
                "u_specular": "specular"
            }
        }
    },
    "textures": {
        "texture_sy16050902_png": {
            "format": 6408,
            "internalFormat": 6408,
            "sampler": "sampler_0",
            "source": "sy16050902_png",
            "target": 3553,
            "type": 5121
        },
        "texture_sy16051101_png": {
            "format": 6408,
            "internalFormat": 6408,
            "sampler": "sampler_0",
            "source": "sy16051101_png",
            "target": 3553,
            "type": 5121
        },
        "texture_sy16051102_png": {
            "format": 6408,
            "internalFormat": 6408,
            "sampler": "sampler_0",
            "source": "sy16051102_png",
            "target": 3553,
            "type": 5121
        },
        "texture_sy16051103_png": {
            "format": 6408,
            "internalFormat": 6408,
            "sampler": "sampler_0",
            "source": "sy16051103_png",
            "target": 3553,
            "type": 5121
        },
        "texture_sy16051104_png": {
            "format": 6408,
            "internalFormat": 6408,
            "sampler": "sampler_0",
            "source": "sy16051104_png",
            "target": 3553,
            "type": 5121
        },
        "texture_sy16051106_png": {
            "format": 6408,
            "internalFormat": 6408,
            "sampler": "sampler_0",
            "source": "sy16051106_png",
            "target": 3553,
            "type": 5121
        },
        "texture_sy16051119_png": {
            "format": 6408,
            "internalFormat": 6408,
            "sampler": "sampler_0",
            "source": "sy16051119_png",
            "target": 3553,
            "type": 5121
        },
        "texture_sy16051121_png": {
            "format": 6408,
            "internalFormat": 6408,
            "sampler": "sampler_0",
            "source": "sy16051121_png",
            "target": 3553,
            "type": 5121
        },
        "texture_sy16051122_png": {
            "format": 6408,
            "internalFormat": 6408,
            "sampler": "sampler_0",
            "source": "sy16051122_png",
            "target": 3553,
            "type": 5121
        },
        "texture_sy16051123_png": {
            "format": 6408,
            "internalFormat": 6408,
            "sampler": "sampler_0",
            "source": "sy16051123_png",
            "target": 3553,
            "type": 5121
        }
    }
}