{
    "accessors": {
        "accessor_101": {
            "bufferView": "bufferView_109",
            "byteOffset": 3894,
            "byteStride": 0,
            "componentType": 5123,
            "count": 54,
            "type": "SCALAR"
        },
        "accessor_103": {
            "bufferView": "bufferView_110",
            "byteOffset": 0,
            "byteStride": 12,
            "componentType": 5126,
            "count": 2001,
            "max": [
                17.4677,
                19.0048,
                13.4137
            ],
            "min": [
                -18.6233,
                -16.8298,
                -2.81574
            ],
            "type": "VEC3"
        },
        "accessor_105": {
            "bufferView": "bufferView_110",
            "byteOffset": 24012,
            "byteStride": 12,
            "componentType": 5126,
            "count": 2001,
            "max": [
                0.834282,
                0.834297,
                1
            ],
            "min": [
                -0.83429,
                -0.834284,
                -1
            ],
            "type": "VEC3"
        },
        "accessor_107": {
            "bufferView": "bufferView_110",
            "byteOffset": 48024,
            "byteStride": 8,
            "componentType": 5126,
            "count": 2001,
            "max": [
                331793,
                16.9073
            ],
            "min": [
                -17.4521,
                -17.0823
            ],
            "type": "VEC2"
        },
        "accessor_89": {
            "bufferView": "bufferView_109",
            "byteOffset": 0,
            "byteStride": 0,
            "componentType": 5123,
            "count": 42,
            "type": "SCALAR"
        },
        "accessor_92": {
            "bufferView": "bufferView_109",
            "byteOffset": 84,
            "byteStride": 0,
            "componentType": 5123,
            "count": 30,
            "type": "SCALAR"
        },
        "accessor_95": {
            "bufferView": "bufferView_109",
            "byteOffset": 144,
            "byteStride": 0,
            "componentType": 5123,
            "count": 1479,
            "type": "SCALAR"
        },
        "accessor_98": {
            "bufferView": "bufferView_109",
            "byteOffset": 3102,
            "byteStride": 0,
            "componentType": 5123,
            "count": 396,
            "type": "SCALAR"
        }
    },
    "animations": {},
    "asset": {
        "generator": "collada2gltf@11bf28f97f1b5380fbefacf862ce7c597873d368",
        "premultipliedAlpha": true,
        "profile": {
            "api": "WebGL",
            "version": "1.0.2"
        },
        "version": 1
    },
    "bufferViews": {
        "bufferView_109": {
            "buffer": "jianzhu15",
            "byteLength": 4004,
            "byteOffset": 0,
            "target": 34963
        },
        "bufferView_110": {
            "buffer": "jianzhu15",
            "byteLength": 64032,
            "byteOffset": 4004,
            "target": 34962
        }
    },
    "buffers": {
        "jianzhu15": {
            "byteLength": 68036,
            "type": "arraybuffer",
            "uri": "data:application/octet-stream;base64,"
        }
    },
    "images": {
        "sy16050902_png": {
            "name": "sy16050902_png",
            "uri": "data:image/png;base64,"
        },
        "sy16051101_png": {
            "name": "sy16051101_png",
            "uri": "data:image/png;base64,"
        },
        "sy16051102_png": {
            "name": "sy16051102_png",
            "uri": "data:image/png;base64,"
        },
        "sy16051104_png": {
            "name": "sy16051104_png",
            "uri": "data:image/png;base64,"
        },
        "sy16051106_png": {
            "name": "sy16051106_png",
            "uri": "data:image/png;base64,"
        }
    },
    "materials": {
        "sy16050902": {
            "name": "sy16050902",
            "technique": "technique1",
            "values": {
                "ambient": "texture_sy16050902_png",
                "diffuse": "texture_sy16050902_png",
                "emission": [
                    0,
                    0,
                    0,
                    1
                ],
                "shininess": 0,
                "specular": [
                    0.9,
                    0.9,
                    0.9,
                    1
                ]
            }
        },
        "sy16051101": {
            "name": "sy16051101",
            "technique": "technique1",
            "values": {
                "ambient": "texture_sy16051101_png",
                "diffuse": "texture_sy16051101_png",
                "emission": [
                    0,
                    0,
                    0,
                    1
                ],
                "shininess": 0,
                "specular": [
                    0.9,
                    0.9,
                    0.9,
                    1
                ]
            }
        },
        "sy16051102": {
            "name": "sy16051102",
            "technique": "technique1",
            "values": {
                "ambient": "texture_sy16051102_png",
                "diffuse": "texture_sy16051102_png",
                "emission": [
                    0,
                    0,
                    0,
                    1
                ],
                "shininess": 0,
                "specular": [
                    0.9,
                    0.9,
                    0.9,
                    1
                ]
            }
        },
        "sy16051104": {
            "name": "sy16051104",
            "technique": "technique1",
            "values": {
                "ambient": "texture_sy16051104_png",
                "diffuse": "texture_sy16051104_png",
                "emission": [
                    0,
                    0,
                    0,
                    1
                ],
                "shininess": 0,
                "specular": [
                    0.9,
                    0.9,
                    0.9,
                    1
                ]
            }
        },
        "sy16051106": {
            "name": "sy16051106",
            "technique": "technique1",
            "values": {
                "ambient": "texture_sy16051106_png",
                "diffuse": "texture_sy16051106_png",
                "emission": [
                    0,
                    0,
                    0,
                    1
                ],
                "shininess": 0,
                "specular": [
                    0.9,
                    0.9,
                    0.9,
                    1
                ]
            }
        }
    },
    "meshes": {
        "geom-jianzhu15": {
            "name": "jianzhu15",
            "primitives": [
                {
                    "attributes": {
                        "NORMAL": "accessor_105",
                        "POSITION": "accessor_103",
                        "TEXCOORD_0": "accessor_107"
                    },
                    "indices": "accessor_89",
                    "material": "sy16050902",
                    "mode": 4
                },
                {
                    "attributes": {
                        "NORMAL": "accessor_105",
                        "POSITION": "accessor_103",
                        "TEXCOORD_0": "accessor_107"
                    },
                    "indices": "accessor_92",
                    "material": "sy16051102",
                    "mode": 4
                },
                {
                    "attributes": {
                        "NORMAL": "accessor_105",
                        "POSITION": "accessor_103",
                        "TEXCOORD_0": "accessor_107"
                    },
                    "indices": "accessor_95",
                    "material": "sy16051104",
                    "mode": 4
                },
                {
                    "attributes": {
                        "NORMAL": "accessor_105",
                        "POSITION": "accessor_103",
                        "TEXCOORD_0": "accessor_107"
                    },
                    "indices": "accessor_98",
                    "material": "sy16051106",
                    "mode": 4
                },
                {
                    "attributes": {
                        "NORMAL": "accessor_105",
                        "POSITION": "accessor_103",
                        "TEXCOORD_0": "accessor_107"
                    },
                    "indices": "accessor_101",
                    "material": "sy16051101",
                    "mode": 4
                }
            ]
        }
    },
    "nodes": {
        "node-jianzhu15": {
            "children": [
                "node_2"
            ],
            "matrix": [
                0.17294,
                -1.00669,
                0,
                0,
                0.862518,
                -0.16792,
                0,
                0,
                0,
                0,
                1.11966,
                0,
                4.35114e-06,
                7.36117e-06,
                9.08572,
                1
            ],
            "name": "jianzhu15"
        },
        "node_0": {
            "children": [],
            "matrix": [
                1,
                0,
                0,
                0,
                0,
                1,
                0,
                0,
                0,
                0,
                1,
                0,
                0,
                0,
                0,
                1
            ],
            "name": "EnvironmentAmbientLight"
        },
        "node_2": {
            "children": [],
            "matrix": [
                1,
                0,
                0,
                0,
                0,
                1,
                0,
                0,
                0,
                0,
                1,
                0,
                0.577837,
                -1.08747,
                -5.299,
                1
            ],
            "meshes": [
                "geom-jianzhu15"
            ],
            "name": ""
        },
        "node_3": {
            "children": [
                "node_0",
                "node-jianzhu15"
            ],
            "matrix": [
                1,
                0,
                0,
                0,
                0,
                0,
                -1,
                0,
                0,
                1,
                0,
                0,
                0,
                0,
                0,
                1
            ],
            "name": "Y_UP_Transform"
        }
    },
    "programs": {
        "program_0": {
            "attributes": [
                "a_normal",
                "a_position",
                "a_texcoord0"
            ],
            "fragmentShader": "jianzhu150FS",
            "vertexShader": "jianzhu150VS"
        }
    },
    "samplers": {
        "sampler_0": {
            "magFilter": 9729,
            "minFilter": 9729,
            "wrapS": 10497,
            "wrapT": 10497
        }
    },
    "scene": "defaultScene",
    "scenes": {
        "defaultScene": {
            "nodes": [
                "node_3"
            ]
        }
    },
    "shaders": {
        "jianzhu150FS": {
            "type": 35632,
            "uri": "data:text/plain;base64,"
        },
        "jianzhu150VS": {
            "type": 35633,
            "uri": "data:text/plain;base64,"
        }
    },
    "skins": {},
    "techniques": {
        "technique1": {
            "attributes": {
                "a_normal": "normal",
                "a_position": "position",
                "a_texcoord0": "texcoord0"
            },
            "parameters": {
                "ambient": {
                    "type": 35678
                },
                "diffuse": {
                    "type": 35678
                },
                "emission": {
                    "type": 35666
                },
                "modelViewMatrix": {
                    "semantic": "MODELVIEW",
                    "type": 35676
                },
                "normal": {
                    "semantic": "NORMAL",
                    "type": 35665
                },
                "normalMatrix": {
                    "semantic": "MODELVIEWINVERSETRANSPOSE",
                    "type": 35675
                },
                "position": {
                    "semantic": "POSITION",
                    "type": 35665
                },
                "projectionMatrix": {
                    "semantic": "PROJECTION",
                    "type": 35676
                },
                "shininess": {
                    "type": 5126
                },
                "specular": {
                    "type": 35666
                },
                "texcoord0": {
                    "semantic": "TEXCOORD_0",
                    "type": 35664
                }
            },
            "program": "program_0",
            "states": {
                "enable": [
                    2929,
                    2884
                ]
            },
            "uniforms": {
                "u_ambient": "ambient",
                "u_diffuse": "diffuse",
                "u_emission": "emission",
                "u_modelViewMatrix": "modelViewMatrix",
                "u_normalMatrix": "normalMatrix",
                "u_projectionMatrix": "projectionMatrix",
                "u_shininess": "shininess",
                "u_specular": "specular"
            }
        }
    },
    "textures": {
        "texture_sy16050902_png": {
            "format": 6408,
            "internalFormat": 6408,
            "sampler": "sampler_0",
            "source": "sy16050902_png",
            "target": 3553,
            "type": 5121
        },
        "texture_sy16051101_png": {
            "format": 6408,
            "internalFormat": 6408,
            "sampler": "sampler_0",
            "source": "sy16051101_png",
            "target": 3553,
            "type": 5121
        },
        "texture_sy16051102_png": {
            "format": 6408,
            "internalFormat": 6408,
            "sampler": "sampler_0",
            "source": "sy16051102_png",
            "target": 3553,
            "type": 5121
        },
        "texture_sy16051104_png": {
            "format": 6408,
            "internalFormat": 6408,
            "sampler": "sampler_0",
            "source": "sy16051104_png",
            "target": 3553,
            "type": 5121
        },
        "texture_sy16051106_png": {
            "format": 6408,
            "internalFormat": 6408,
            "sampler": "sampler_0",
            "source": "sy16051106_png",
            "target": 3553,
            "type": 5121
        }
    }
}