{
    "accessors": {
        "accessor_38": {
            "bufferView": "bufferView_49",
            "byteOffset": 0,
            "byteStride": 0,
            "componentType": 5123,
            "count": 31044,
            "type": "SCALAR"
        },
        "accessor_41": {
            "bufferView": "bufferView_49",
            "byteOffset": 62088,
            "byteStride": 0,
            "componentType": 5123,
            "count": 6,
            "type": "SCALAR"
        },
        "accessor_43": {
            "bufferView": "bufferView_50",
            "byteOffset": 0,
            "byteStride": 12,
            "componentType": 5126,
            "count": 7184,
            "max": [
                5.42129,
                17.225,
                22.0262
            ],
            "min": [
                -8.53748,
                -18.2157,
                -4.6966
            ],
            "type": "VEC3"
        },
        "accessor_45": {
            "bufferView": "bufferView_50",
            "byteOffset": 86208,
            "byteStride": 12,
            "componentType": 5126,
            "count": 7184,
            "max": [
                1,
                1,
                1
            ],
            "min": [
                -0.999905,
                -1,
                -1
            ],
            "type": "VEC3"
        },
        "accessor_47": {
            "bufferView": "bufferView_50",
            "byteOffset": 172416,
            "byteStride": 8,
            "componentType": 5126,
            "count": 7184,
            "max": [
                1.7725,
                1.7725
            ],
            "min": [
                -0.772504,
                -0.772504
            ],
            "type": "VEC2"
        }
    },
    "animations": {},
    "asset": {
        "generator": "collada2gltf@11bf28f97f1b5380fbefacf862ce7c597873d368",
        "premultipliedAlpha": true,
        "profile": {
            "api": "WebGL",
            "version": "1.0.2"
        },
        "version": 1
    },
    "bufferViews": {
        "bufferView_49": {
            "buffer": "jiashan02",
            "byteLength": 62100,
            "byteOffset": 0,
            "target": 34963
        },
        "bufferView_50": {
            "buffer": "jiashan02",
            "byteLength": 229888,
            "byteOffset": 62100,
            "target": 34962
        }
    },
    "buffers": {
        "jiashan02": {
            "byteLength": 291988,
            "type": "arraybuffer",
            "uri": "data:application/octet-stream;base64,"
        }
    },
    "images": {
        "sy16051130_png": {
            "name": "sy16051130_png",
            "uri": "data:image/png;base64,"
        },
        "sy16051134_png": {
            "name": "sy16051134_png",
            "uri": "data:image/png;base64,"
        }
    },
    "materials": {
        "sy16051130": {
            "name": "sy16051130",
            "technique": "technique1",
            "values": {
                "ambient": "texture_sy16051130_png",
                "diffuse": "texture_sy16051130_png",
                "emission": [
                    0,
                    0,
                    0,
                    1
                ],
                "shininess": 0,
                "specular": [
                    0.9,
                    0.9,
                    0.9,
                    1
                ]
            }
        },
        "sy16051134": {
            "name": "sy16051134",
            "technique": "technique1",
            "values": {
                "ambient": "texture_sy16051134_png",
                "diffuse": "texture_sy16051134_png",
                "emission": [
                    0,
                    0,
                    0,
                    1
                ],
                "shininess": 0,
                "specular": [
                    0.9,
                    0.9,
                    0.9,
                    1
                ]
            }
        }
    },
    "meshes": {
        "geom-jiashan02": {
            "name": "jiashan02",
            "primitives": [
                {
                    "attributes": {
                        "NORMAL": "accessor_45",
                        "POSITION": "accessor_43",
                        "TEXCOORD_0": "accessor_47"
                    },
                    "indices": "accessor_38",
                    "material": "sy16051130",
                    "mode": 4
                },
                {
                    "attributes": {
                        "NORMAL": "accessor_45",
                        "POSITION": "accessor_43",
                        "TEXCOORD_0": "accessor_47"
                    },
                    "indices": "accessor_41",
                    "material": "sy16051134",
                    "mode": 4
                }
            ]
        }
    },
    "nodes": {
        "node-jiashan02": {
            "children": [
                "node_2"
            ],
            "matrix": [
                0.885244,
                0.465126,
                0,
                0,
                -0.465126,
                0.885244,
                0,
                0,
                0,
                0,
                1,
                0,
                0,
                0,
                8.66986,
                1
            ],
            "name": "jiashan02"
        },
        "node_0": {
            "children": [],
            "matrix": [
                1,
                0,
                0,
                0,
                0,
                1,
                0,
                0,
                0,
                0,
                1,
                0,
                0,
                0,
                0,
                1
            ],
            "name": "EnvironmentAmbientLight"
        },
        "node_2": {
            "children": [],
            "matrix": [
                1,
                0,
                0,
                0,
                0,
                1,
                0,
                0,
                0,
                0,
                1,
                0,
                1.5581,
                0.495374,
                -8.66482,
                1
            ],
            "meshes": [
                "geom-jiashan02"
            ],
            "name": ""
        },
        "node_3": {
            "children": [
                "node_0",
                "node-jiashan02"
            ],
            "matrix": [
                1,
                0,
                0,
                0,
                0,
                0,
                -1,
                0,
                0,
                1,
                0,
                0,
                0,
                0,
                0,
                1
            ],
            "name": "Y_UP_Transform"
        }
    },
    "programs": {
        "program_0": {
            "attributes": [
                "a_normal",
                "a_position",
                "a_texcoord0"
            ],
            "fragmentShader": "jiashan020FS",
            "vertexShader": "jiashan020VS"
        }
    },
    "samplers": {
        "sampler_0": {
            "magFilter": 9729,
            "minFilter": 9729,
            "wrapS": 10497,
            "wrapT": 10497
        }
    },
    "scene": "defaultScene",
    "scenes": {
        "defaultScene": {
            "nodes": [
                "node_3"
            ]
        }
    },
    "shaders": {
        "jiashan020FS": {
            "type": 35632,
            "uri": "data:text/plain;base64,"
        },
        "jiashan020VS": {
            "type": 35633,
            "uri": "data:text/plain;base64,"
        }
    },
    "skins": {},
    "techniques": {
        "technique1": {
            "attributes": {
                "a_normal": "normal",
                "a_position": "position",
                "a_texcoord0": "texcoord0"
            },
            "parameters": {
                "ambient": {
                    "type": 35678
                },
                "diffuse": {
                    "type": 35678
                },
                "emission": {
                    "type": 35666
                },
                "modelViewMatrix": {
                    "semantic": "MODELVIEW",
                    "type": 35676
                },
                "normal": {
                    "semantic": "NORMAL",
                    "type": 35665
                },
                "normalMatrix": {
                    "semantic": "MODELVIEWINVERSETRANSPOSE",
                    "type": 35675
                },
                "position": {
                    "semantic": "POSITION",
                    "type": 35665
                },
                "projectionMatrix": {
                    "semantic": "PROJECTION",
                    "type": 35676
                },
                "shininess": {
                    "type": 5126
                },
                "specular": {
                    "type": 35666
                },
                "texcoord0": {
                    "semantic": "TEXCOORD_0",
                    "type": 35664
                }
            },
            "program": "program_0",
            "states": {
                "enable": [
                    2929,
                    2884
                ]
            },
            "uniforms": {
                "u_ambient": "ambient",
                "u_diffuse": "diffuse",
                "u_emission": "emission",
                "u_modelViewMatrix": "modelViewMatrix",
                "u_normalMatrix": "normalMatrix",
                "u_projectionMatrix": "projectionMatrix",
                "u_shininess": "shininess",
                "u_specular": "specular"
            }
        }
    },
    "textures": {
        "texture_sy16051130_png": {
            "format": 6408,
            "internalFormat": 6408,
            "sampler": "sampler_0",
            "source": "sy16051130_png",
            "target": 3553,
            "type": 5121
        },
        "texture_sy16051134_png": {
            "format": 6408,
            "internalFormat": 6408,
            "sampler": "sampler_0",
            "source": "sy16051134_png",
            "target": 3553,
            "type": 5121
        }
    }
}