{
    "accessors": {
        "accessor_191": {
            "bufferView": "bufferView_229",
            "byteOffset": 0,
            "byteStride": 0,
            "componentType": 5123,
            "count": 3396,
            "type": "SCALAR"
        },
        "accessor_194": {
            "bufferView": "bufferView_229",
            "byteOffset": 6792,
            "byteStride": 0,
            "componentType": 5123,
            "count": 9876,
            "type": "SCALAR"
        },
        "accessor_197": {
            "bufferView": "bufferView_229",
            "byteOffset": 26544,
            "byteStride": 0,
            "componentType": 5123,
            "count": 3234,
            "type": "SCALAR"
        },
        "accessor_200": {
            "bufferView": "bufferView_229",
            "byteOffset": 33012,
            "byteStride": 0,
            "componentType": 5123,
            "count": 6675,
            "type": "SCALAR"
        },
        "accessor_203": {
            "bufferView": "bufferView_229",
            "byteOffset": 46362,
            "byteStride": 0,
            "componentType": 5123,
            "count": 501,
            "type": "SCALAR"
        },
        "accessor_206": {
            "bufferView": "bufferView_229",
            "byteOffset": 47364,
            "byteStride": 0,
            "componentType": 5123,
            "count": 282,
            "type": "SCALAR"
        },
        "accessor_209": {
            "bufferView": "bufferView_229",
            "byteOffset": 47928,
            "byteStride": 0,
            "componentType": 5123,
            "count": 156,
            "type": "SCALAR"
        },
        "accessor_212": {
            "bufferView": "bufferView_229",
            "byteOffset": 48240,
            "byteStride": 0,
            "componentType": 5123,
            "count": 186,
            "type": "SCALAR"
        },
        "accessor_215": {
            "bufferView": "bufferView_229",
            "byteOffset": 48612,
            "byteStride": 0,
            "componentType": 5123,
            "count": 168,
            "type": "SCALAR"
        },
        "accessor_218": {
            "bufferView": "bufferView_229",
            "byteOffset": 48948,
            "byteStride": 0,
            "componentType": 5123,
            "count": 222,
            "type": "SCALAR"
        },
        "accessor_221": {
            "bufferView": "bufferView_229",
            "byteOffset": 49392,
            "byteStride": 0,
            "componentType": 5123,
            "count": 63,
            "type": "SCALAR"
        },
        "accessor_223": {
            "bufferView": "bufferView_230",
            "byteOffset": 0,
            "byteStride": 12,
            "componentType": 5126,
            "count": 24367,
            "max": [
                167.504,
                -17.3599,
                99.5952
            ],
            "min": [
                -28.5335,
                -108.516,
                -0.0961723
            ],
            "type": "VEC3"
        },
        "accessor_225": {
            "bufferView": "bufferView_230",
            "byteOffset": 292404,
            "byteStride": 12,
            "componentType": 5126,
            "count": 24367,
            "max": [
                0.999996,
                0.999996,
                1
            ],
            "min": [
                -0.999997,
                -0.999996,
                -1
            ],
            "type": "VEC3"
        },
        "accessor_227": {
            "bufferView": "bufferView_230",
            "byteOffset": 584808,
            "byteStride": 8,
            "componentType": 5126,
            "count": 24367,
            "max": [
                33.3947,
                76.2821
            ],
            "min": [
                -27.6441,
                -50.5896
            ],
            "type": "VEC2"
        }
    },
    "animations": {},
    "asset": {
        "generator": "collada2gltf@11bf28f97f1b5380fbefacf862ce7c597873d368",
        "premultipliedAlpha": true,
        "profile": {
            "api": "WebGL",
            "version": "1.0.2"
        },
        "version": 1
    },
    "bufferViews": {
        "bufferView_229": {
            "buffer": "jz08",
            "byteLength": 49520,
            "byteOffset": 0,
            "target": 34963
        },
        "bufferView_230": {
            "buffer": "jz08",
            "byteLength": 779744,
            "byteOffset": 49520,
            "target": 34962
        }
    },
    "buffers": {
        "jz08": {
            "byteLength": 829264,
            "type": "arraybuffer",
            "uri": "data:application/octet-stream;base64,"
        }
    },
    "images": {
        "sy16050902_png": {
            "name": "sy16050902_png",
            "uri": "data:image/png;base64,"
        },
        "sy16051101_png": {
            "name": "sy16051101_png",
            "uri": "data:image/png;base64,"
        },
        "sy16051102_png": {
            "name": "sy16051102_png",
            "uri": "data:image/png;base64,"
        },
        "sy16051103_png": {
            "name": "sy16051103_png",
            "uri": "data:image/png;base64,"
        },
        "sy16051104_png": {
            "name": "sy16051104_png",
            "uri": "data:image/png;base64,"
        },
        "sy16051106_png": {
            "name": "sy16051106_png",
            "uri": "data:image/png;base64,"
        },
        "sy16051119_png": {
            "name": "sy16051119_png",
            "uri": "data:image/png;base64,"
        },
        "sy16051121_png": {
            "name": "sy16051121_png",
            "uri": "data:image/png;base64,"
        },
        "sy16051122_png": {
            "name": "sy16051122_png",
            "uri": "data:image/png;base64,"
        },
        "sy16051123_png": {
            "name": "sy16051123_png",
            "uri": "data:image/png;base64,"
        },
        "sy16051142_png": {
            "name": "sy16051142_png",
            "uri": "data:image/png;base64,"
        }
    },
    "materials": {
        "sy16050902": {
            "name": "sy16050902",
            "technique": "technique1",
            "values": {
                "ambient": "texture_sy16050902_png",
                "diffuse": "texture_sy16050902_png",
                "emission": [
                    0,
                    0,
                    0,
                    1
                ],
                "shininess": 0,
                "specular": [
                    0.9,
                    0.9,
                    0.9,
                    1
                ]
            }
        },
        "sy16051101": {
            "name": "sy16051101",
            "technique": "technique1",
            "values": {
                "ambient": "texture_sy16051101_png",
                "diffuse": "texture_sy16051101_png",
                "emission": [
                    0,
                    0,
                    0,
                    1
                ],
                "shininess": 0,
                "specular": [
                    0.9,
                    0.9,
                    0.9,
                    1
                ]
            }
        },
        "sy16051102": {
            "name": "sy16051102",
            "technique": "technique1",
            "values": {
                "ambient": "texture_sy16051102_png",
                "diffuse": "texture_sy16051102_png",
                "emission": [
                    0,
                    0,
                    0,
                    1
                ],
                "shininess": 0,
                "specular": [
                    0.9,
                    0.9,
                    0.9,
                    1
                ]
            }
        },
        "sy16051103": {
            "name": "sy16051103",
            "technique": "technique1",
            "values": {
                "ambient": "texture_sy16051103_png",
                "diffuse": "texture_sy16051103_png",
                "emission": [
                    0,
                    0,
                    0,
                    1
                ],
                "shininess": 0,
                "specular": [
                    0.9,
                    0.9,
                    0.9,
                    1
                ]
            }
        },
        "sy16051104": {
            "name": "sy16051104",
            "technique": "technique1",
            "values": {
                "ambient": "texture_sy16051104_png",
                "diffuse": "texture_sy16051104_png",
                "emission": [
                    0,
                    0,
                    0,
                    1
                ],
                "shininess": 0,
                "specular": [
                    0.9,
                    0.9,
                    0.9,
                    1
                ]
            }
        },
        "sy16051106": {
            "name": "sy16051106",
            "technique": "technique1",
            "values": {
                "ambient": "texture_sy16051106_png",
                "diffuse": "texture_sy16051106_png",
                "emission": [
                    0,
                    0,
                    0,
                    1
                ],
                "shininess": 0,
                "specular": [
                    0.9,
                    0.9,
                    0.9,
                    1
                ]
            }
        },
        "sy16051119": {
            "name": "sy16051119",
            "technique": "technique1",
            "values": {
                "ambient": "texture_sy16051119_png",
                "diffuse": "texture_sy16051119_png",
                "emission": [
                    0,
                    0,
                    0,
                    1
                ],
                "shininess": 0,
                "specular": [
                    0.9,
                    0.9,
                    0.9,
                    1
                ]
            }
        },
        "sy16051121": {
            "name": "sy16051121",
            "technique": "technique1",
            "values": {
                "ambient": "texture_sy16051121_png",
                "diffuse": "texture_sy16051121_png",
                "emission": [
                    0,
                    0,
                    0,
                    1
                ],
                "shininess": 0,
                "specular": [
                    0.9,
                    0.9,
                    0.9,
                    1
                ]
            }
        },
        "sy16051122": {
            "name": "sy16051122",
            "technique": "technique1",
            "values": {
                "ambient": "texture_sy16051122_png",
                "diffuse": "texture_sy16051122_png",
                "emission": [
                    0,
                    0,
                    0,
                    1
                ],
                "shininess": 0,
                "specular": [
                    0.9,
                    0.9,
                    0.9,
                    1
                ]
            }
        },
        "sy16051123": {
            "name": "sy16051123",
            "technique": "technique1",
            "values": {
                "ambient": "texture_sy16051123_png",
                "diffuse": "texture_sy16051123_png",
                "emission": [
                    0,
                    0,
                    0,
                    1
                ],
                "shininess": 0,
                "specular": [
                    0.9,
                    0.9,
                    0.9,
                    1
                ]
            }
        },
        "sy16051142": {
            "name": "sy16051142",
            "technique": "technique1",
            "values": {
                "ambient": "texture_sy16051142_png",
                "diffuse": "texture_sy16051142_png",
                "emission": [
                    0,
                    0,
                    0,
                    1
                ],
                "shininess": 0,
                "specular": [
                    0.9,
                    0.9,
                    0.9,
                    1
                ]
            }
        }
    },
    "meshes": {
        "geom-jz08": {
            "name": "jz08",
            "primitives": [
                {
                    "attributes": {
                        "NORMAL": "accessor_225",
                        "POSITION": "accessor_223",
                        "TEXCOORD_0": "accessor_227"
                    },
                    "indices": "accessor_191",
                    "material": "sy16051106",
                    "mode": 4
                },
                {
                    "attributes": {
                        "NORMAL": "accessor_225",
                        "POSITION": "accessor_223",
                        "TEXCOORD_0": "accessor_227"
                    },
                    "indices": "accessor_194",
                    "material": "sy16051103",
                    "mode": 4
                },
                {
                    "attributes": {
                        "NORMAL": "accessor_225",
                        "POSITION": "accessor_223",
                        "TEXCOORD_0": "accessor_227"
                    },
                    "indices": "accessor_197",
                    "material": "sy16051102",
                    "mode": 4
                },
                {
                    "attributes": {
                        "NORMAL": "accessor_225",
                        "POSITION": "accessor_223",
                        "TEXCOORD_0": "accessor_227"
                    },
                    "indices": "accessor_200",
                    "material": "sy16051104",
                    "mode": 4
                },
                {
                    "attributes": {
                        "NORMAL": "accessor_225",
                        "POSITION": "accessor_223",
                        "TEXCOORD_0": "accessor_227"
                    },
                    "indices": "accessor_203",
                    "material": "sy16051101",
                    "mode": 4
                },
                {
                    "attributes": {
                        "NORMAL": "accessor_225",
                        "POSITION": "accessor_223",
                        "TEXCOORD_0": "accessor_227"
                    },
                    "indices": "accessor_206",
                    "material": "sy16051123",
                    "mode": 4
                },
                {
                    "attributes": {
                        "NORMAL": "accessor_225",
                        "POSITION": "accessor_223",
                        "TEXCOORD_0": "accessor_227"
                    },
                    "indices": "accessor_209",
                    "material": "sy16051142",
                    "mode": 4
                },
                {
                    "attributes": {
                        "NORMAL": "accessor_225",
                        "POSITION": "accessor_223",
                        "TEXCOORD_0": "accessor_227"
                    },
                    "indices": "accessor_212",
                    "material": "sy16051122",
                    "mode": 4
                },
                {
                    "attributes": {
                        "NORMAL": "accessor_225",
                        "POSITION": "accessor_223",
                        "TEXCOORD_0": "accessor_227"
                    },
                    "indices": "accessor_215",
                    "material": "sy16050902",
                    "mode": 4
                },
                {
                    "attributes": {
                        "NORMAL": "accessor_225",
                        "POSITION": "accessor_223",
                        "TEXCOORD_0": "accessor_227"
                    },
                    "indices": "accessor_218",
                    "material": "sy16051121",
                    "mode": 4
                },
                {
                    "attributes": {
                        "NORMAL": "accessor_225",
                        "POSITION": "accessor_223",
                        "TEXCOORD_0": "accessor_227"
                    },
                    "indices": "accessor_221",
                    "material": "sy16051119",
                    "mode": 4
                }
            ]
        }
    },
    "nodes": {
        "node-jz08": {
            "children": [
                "node_2"
            ],
            "matrix": [
                1,
                -6.00579e-15,
                0.000192642,
                0,
                -3.03164e-08,
                1,
                0.000157371,
                0,
                -0.000192642,
                -0.000157371,
                1,
                0,
                -7.62939e-06,
                0,
                49.8268,
                1
            ],
            "name": "jz08"
        },
        "node_0": {
            "children": [],
            "matrix": [
                1,
                0,
                0,
                0,
                0,
                1,
                0,
                0,
                0,
                0,
                1,
                0,
                0,
                0,
                0,
                1
            ],
            "name": "EnvironmentAmbientLight"
        },
        "node_2": {
            "children": [],
            "matrix": [
                1,
                0,
                0,
                0,
                0,
                1,
                0,
                0,
                0,
                0,
                1,
                0,
                -69.4851,
                62.9379,
                -49.7495,
                1
            ],
            "meshes": [
                "geom-jz08"
            ],
            "name": ""
        },
        "node_3": {
            "children": [
                "node_0",
                "node-jz08"
            ],
            "matrix": [
                1,
                0,
                0,
                0,
                0,
                0,
                -1,
                0,
                0,
                1,
                0,
                0,
                0,
                0,
                0,
                1
            ],
            "name": "Y_UP_Transform"
        }
    },
    "programs": {
        "program_0": {
            "attributes": [
                "a_normal",
                "a_position",
                "a_texcoord0"
            ],
            "fragmentShader": "jz080FS",
            "vertexShader": "jz080VS"
        }
    },
    "samplers": {
        "sampler_0": {
            "magFilter": 9729,
            "minFilter": 9729,
            "wrapS": 10497,
            "wrapT": 10497
        }
    },
    "scene": "defaultScene",
    "scenes": {
        "defaultScene": {
            "nodes": [
                "node_3"
            ]
        }
    },
    "shaders": {
        "jz080FS": {
            "type": 35632,
            "uri": "data:text/plain;base64,"
        },
        "jz080VS": {
            "type": 35633,
            "uri": "data:text/plain;base64,"
        }
    },
    "skins": {},
    "techniques": {
        "technique1": {
            "attributes": {
                "a_normal": "normal",
                "a_position": "position",
                "a_texcoord0": "texcoord0"
            },
            "parameters": {
                "ambient": {
                    "type": 35678
                },
                "diffuse": {
                    "type": 35678
                },
                "emission": {
                    "type": 35666
                },
                "modelViewMatrix": {
                    "semantic": "MODELVIEW",
                    "type": 35676
                },
                "normal": {
                    "semantic": "NORMAL",
                    "type": 35665
                },
                "normalMatrix": {
                    "semantic": "MODELVIEWINVERSETRANSPOSE",
                    "type": 35675
                },
                "position": {
                    "semantic": "POSITION",
                    "type": 35665
                },
                "projectionMatrix": {
                    "semantic": "PROJECTION",
                    "type": 35676
                },
                "shininess": {
                    "type": 5126
                },
                "specular": {
                    "type": 35666
                },
                "texcoord0": {
                    "semantic": "TEXCOORD_0",
                    "type": 35664
                }
            },
            "program": "program_0",
            "states": {
                "enable": [
                    2929,
                    2884
                ]
            },
            "uniforms": {
                "u_ambient": "ambient",
                "u_diffuse": "diffuse",
                "u_emission": "emission",
                "u_modelViewMatrix": "modelViewMatrix",
                "u_normalMatrix": "normalMatrix",
                "u_projectionMatrix": "projectionMatrix",
                "u_shininess": "shininess",
                "u_specular": "specular"
            }
        }
    },
    "textures": {
        "texture_sy16050902_png": {
            "format": 6408,
            "internalFormat": 6408,
            "sampler": "sampler_0",
            "source": "sy16050902_png",
            "target": 3553,
            "type": 5121
        },
        "texture_sy16051101_png": {
            "format": 6408,
            "internalFormat": 6408,
            "sampler": "sampler_0",
            "source": "sy16051101_png",
            "target": 3553,
            "type": 5121
        },
        "texture_sy16051102_png": {
            "format": 6408,
            "internalFormat": 6408,
            "sampler": "sampler_0",
            "source": "sy16051102_png",
            "target": 3553,
            "type": 5121
        },
        "texture_sy16051103_png": {
            "format": 6408,
            "internalFormat": 6408,
            "sampler": "sampler_0",
            "source": "sy16051103_png",
            "target": 3553,
            "type": 5121
        },
        "texture_sy16051104_png": {
            "format": 6408,
            "internalFormat": 6408,
            "sampler": "sampler_0",
            "source": "sy16051104_png",
            "target": 3553,
            "type": 5121
        },
        "texture_sy16051106_png": {
            "format": 6408,
            "internalFormat": 6408,
            "sampler": "sampler_0",
            "source": "sy16051106_png",
            "target": 3553,
            "type": 5121
        },
        "texture_sy16051119_png": {
            "format": 6408,
            "internalFormat": 6408,
            "sampler": "sampler_0",
            "source": "sy16051119_png",
            "target": 3553,
            "type": 5121
        },
        "texture_sy16051121_png": {
            "format": 6408,
            "internalFormat": 6408,
            "sampler": "sampler_0",
            "source": "sy16051121_png",
            "target": 3553,
            "type": 5121
        },
        "texture_sy16051122_png": {
            "format": 6408,
            "internalFormat": 6408,
            "sampler": "sampler_0",
            "source": "sy16051122_png",
            "target": 3553,
            "type": 5121
        },
        "texture_sy16051123_png": {
            "format": 6408,
            "internalFormat": 6408,
            "sampler": "sampler_0",
            "source": "sy16051123_png",
            "target": 3553,
            "type": 5121
        },
        "texture_sy16051142_png": {
            "format": 6408,
            "internalFormat": 6408,
            "sampler": "sampler_0",
            "source": "sy16051142_png",
            "target": 3553,
            "type": 5121
        }
    }
}