{
    "accessors": {
        "accessor_193": {
            "bufferView": "bufferView_223",
            "byteOffset": 0,
            "byteStride": 0,
            "componentType": 5123,
            "count": 6294,
            "type": "SCALAR"
        },
        "accessor_196": {
            "bufferView": "bufferView_223",
            "byteOffset": 12588,
            "byteStride": 0,
            "componentType": 5123,
            "count": 4590,
            "type": "SCALAR"
        },
        "accessor_199": {
            "bufferView": "bufferView_223",
            "byteOffset": 21768,
            "byteStride": 0,
            "componentType": 5123,
            "count": 2076,
            "type": "SCALAR"
        },
        "accessor_202": {
            "bufferView": "bufferView_223",
            "byteOffset": 25920,
            "byteStride": 0,
            "componentType": 5123,
            "count": 882,
            "type": "SCALAR"
        },
        "accessor_205": {
            "bufferView": "bufferView_223",
            "byteOffset": 27684,
            "byteStride": 0,
            "componentType": 5123,
            "count": 294,
            "type": "SCALAR"
        },
        "accessor_208": {
            "bufferView": "bufferView_223",
            "byteOffset": 28272,
            "byteStride": 0,
            "componentType": 5123,
            "count": 54,
            "type": "SCALAR"
        },
        "accessor_211": {
            "bufferView": "bufferView_223",
            "byteOffset": 28380,
            "byteStride": 0,
            "componentType": 5123,
            "count": 6,
            "type": "SCALAR"
        },
        "accessor_213": {
            "bufferView": "bufferView_224",
            "byteOffset": 0,
            "byteStride": 12,
            "componentType": 5126,
            "count": 13744,
            "max": [
                14.4271,
                1.00709,
                116.253
            ],
            "min": [
                -121.713,
                -137.845,
                -3.77893e-05
            ],
            "type": "VEC3"
        },
        "accessor_215": {
            "bufferView": "bufferView_224",
            "byteOffset": 164928,
            "byteStride": 12,
            "componentType": 5126,
            "count": 13744,
            "max": [
                0.930567,
                0.974426,
                1
            ],
            "min": [
                -0.996734,
                -0.982206,
                -1
            ],
            "type": "VEC3"
        },
        "accessor_217": {
            "bufferView": "bufferView_224",
            "byteOffset": 329856,
            "byteStride": 8,
            "componentType": 5126,
            "count": 13744,
            "max": [
                34.0971,
                70.8989
            ],
            "min": [
                -102.048,
                -67.9573
            ],
            "type": "VEC2"
        },
        "accessor_219": {
            "bufferView": "bufferView_224",
            "byteOffset": 439808,
            "byteStride": 12,
            "componentType": 5126,
            "count": 13744,
            "max": [
                1,
                0.994186,
                1
            ],
            "min": [
                -0.994491,
                -0.994186,
                -1
            ],
            "type": "VEC3"
        },
        "accessor_221": {
            "bufferView": "bufferView_224",
            "byteOffset": 604736,
            "byteStride": 12,
            "componentType": 5126,
            "count": 13744,
            "max": [
                0.994186,
                1,
                1
            ],
            "min": [
                -0.994186,
                -1,
                -1
            ],
            "type": "VEC3"
        }
    },
    "animations": {},
    "asset": {
        "generator": "collada2gltf@11bf28f97f1b5380fbefacf862ce7c597873d368",
        "premultipliedAlpha": true,
        "profile": {
            "api": "WebGL",
            "version": "1.0.2"
        },
        "version": 1
    },
    "bufferViews": {
        "bufferView_223": {
            "buffer": "jz10",
            "byteLength": 28392,
            "byteOffset": 0,
            "target": 34963
        },
        "bufferView_224": {
            "buffer": "jz10",
            "byteLength": 769664,
            "byteOffset": 28392,
            "target": 34962
        }
    },
    "buffers": {
        "jz10": {
            "byteLength": 798056,
            "type": "arraybuffer",
            "uri": "data:application/octet-stream;base64,"
        }
    },
    "images": {
        "sy16051101_png": {
            "name": "sy16051101_png",
            "uri": "data:image/png;base64,"
        },
        "sy16051102_png": {
            "name": "sy16051102_png",
            "uri": "data:image/png;base64,"
        },
        "sy16051103_png": {
            "name": "sy16051103_png",
            "uri": "data:image/png;base64,"
        },
        "sy16051104_png": {
            "name": "sy16051104_png",
            "uri": "data:image/png;base64,"
        },
        "sy16051106_png": {
            "name": "sy16051106_png",
            "uri": "data:image/png;base64,"
        },
        "sy16051142_png": {
            "name": "sy16051142_png",
            "uri": "data:image/png;base64,"
        },
        "sy16062094_png": {
            "name": "sy16062094_png",
            "uri": "data:image/png;base64,"
        }
    },
    "materials": {
        "sy16051101": {
            "name": "sy16051101",
            "technique": "technique1",
            "values": {
                "ambient": "texture_sy16051101_png",
                "diffuse": "texture_sy16051101_png",
                "emission": [
                    0,
                    0,
                    0,
                    1
                ],
                "shininess": 0,
                "specular": [
                    0.9,
                    0.9,
                    0.9,
                    1
                ]
            }
        },
        "sy16051102": {
            "name": "sy16051102",
            "technique": "technique1",
            "values": {
                "ambient": "texture_sy16051102_png",
                "diffuse": "texture_sy16051102_png",
                "emission": [
                    0,
                    0,
                    0,
                    1
                ],
                "shininess": 0,
                "specular": [
                    0.9,
                    0.9,
                    0.9,
                    1
                ]
            }
        },
        "sy16051103": {
            "name": "sy16051103",
            "technique": "technique1",
            "values": {
                "ambient": "texture_sy16051103_png",
                "diffuse": "texture_sy16051103_png",
                "emission": [
                    0,
                    0,
                    0,
                    1
                ],
                "shininess": 0,
                "specular": [
                    0.9,
                    0.9,
                    0.9,
                    1
                ]
            }
        },
        "sy16051104": {
            "name": "sy16051104",
            "technique": "technique1",
            "values": {
                "ambient": "texture_sy16051104_png",
                "diffuse": "texture_sy16051104_png",
                "emission": [
                    0,
                    0,
                    0,
                    1
                ],
                "shininess": 0,
                "specular": [
                    0.9,
                    0.9,
                    0.9,
                    1
                ]
            }
        },
        "sy16051106": {
            "name": "sy16051106",
            "technique": "technique1",
            "values": {
                "ambient": "texture_sy16051106_png",
                "diffuse": "texture_sy16051106_png",
                "emission": [
                    0,
                    0,
                    0,
                    1
                ],
                "shininess": 0,
                "specular": [
                    0.9,
                    0.9,
                    0.9,
                    1
                ]
            }
        },
        "sy16051142": {
            "name": "sy16051142",
            "technique": "technique1",
            "values": {
                "ambient": "texture_sy16051142_png",
                "diffuse": "texture_sy16051142_png",
                "emission": [
                    0,
                    0,
                    0,
                    1
                ],
                "shininess": 0,
                "specular": [
                    0.9,
                    0.9,
                    0.9,
                    1
                ]
            }
        },
        "sy16062094": {
            "name": "sy16062094",
            "technique": "technique1",
            "values": {
                "ambient": "texture_sy16062094_png",
                "diffuse": "texture_sy16062094_png",
                "emission": [
                    0,
                    0,
                    0,
                    1
                ],
                "shininess": 0,
                "specular": [
                    0.9,
                    0.9,
                    0.9,
                    1
                ]
            }
        }
    },
    "meshes": {
        "geom-jz10": {
            "name": "jz10",
            "primitives": [
                {
                    "attributes": {
                        "NORMAL": "accessor_215",
                        "POSITION": "accessor_213",
                        "TEXBINORMAL": "accessor_221",
                        "TEXCOORD_0": "accessor_217",
                        "TEXTANGENT": "accessor_219"
                    },
                    "indices": "accessor_193",
                    "material": "sy16051104",
                    "mode": 4
                },
                {
                    "attributes": {
                        "NORMAL": "accessor_215",
                        "POSITION": "accessor_213",
                        "TEXBINORMAL": "accessor_221",
                        "TEXCOORD_0": "accessor_217",
                        "TEXTANGENT": "accessor_219"
                    },
                    "indices": "accessor_196",
                    "material": "sy16051103",
                    "mode": 4
                },
                {
                    "attributes": {
                        "NORMAL": "accessor_215",
                        "POSITION": "accessor_213",
                        "TEXBINORMAL": "accessor_221",
                        "TEXCOORD_0": "accessor_217",
                        "TEXTANGENT": "accessor_219"
                    },
                    "indices": "accessor_199",
                    "material": "sy16051106",
                    "mode": 4
                },
                {
                    "attributes": {
                        "NORMAL": "accessor_215",
                        "POSITION": "accessor_213",
                        "TEXBINORMAL": "accessor_221",
                        "TEXCOORD_0": "accessor_217",
                        "TEXTANGENT": "accessor_219"
                    },
                    "indices": "accessor_202",
                    "material": "sy16051102",
                    "mode": 4
                },
                {
                    "attributes": {
                        "NORMAL": "accessor_215",
                        "POSITION": "accessor_213",
                        "TEXBINORMAL": "accessor_221",
                        "TEXCOORD_0": "accessor_217",
                        "TEXTANGENT": "accessor_219"
                    },
                    "indices": "accessor_205",
                    "material": "sy16051101",
                    "mode": 4
                },
                {
                    "attributes": {
                        "NORMAL": "accessor_215",
                        "POSITION": "accessor_213",
                        "TEXBINORMAL": "accessor_221",
                        "TEXCOORD_0": "accessor_217",
                        "TEXTANGENT": "accessor_219"
                    },
                    "indices": "accessor_208",
                    "material": "sy16051142",
                    "mode": 4
                },
                {
                    "attributes": {
                        "NORMAL": "accessor_215",
                        "POSITION": "accessor_213",
                        "TEXBINORMAL": "accessor_221",
                        "TEXCOORD_0": "accessor_217",
                        "TEXTANGENT": "accessor_219"
                    },
                    "indices": "accessor_211",
                    "material": "sy16062094",
                    "mode": 4
                }
            ]
        }
    },
    "nodes": {
        "node-jz10": {
            "children": [
                "node_2"
            ],
            "matrix": [
                1,
                0,
                0,
                0,
                0,
                1,
                0,
                0,
                0,
                0,
                1,
                0,
                0,
                0,
                58.1266,
                1
            ],
            "name": "jz10"
        },
        "node_0": {
            "children": [],
            "matrix": [
                1,
                0,
                0,
                0,
                0,
                1,
                0,
                0,
                0,
                0,
                1,
                0,
                0,
                0,
                0,
                1
            ],
            "name": "EnvironmentAmbientLight"
        },
        "node_2": {
            "children": [],
            "matrix": [
                1,
                0,
                0,
                0,
                0,
                1,
                0,
                0,
                0,
                0,
                1,
                0,
                53.6429,
                68.4191,
                -58.1266,
                1
            ],
            "meshes": [
                "geom-jz10"
            ],
            "name": ""
        },
        "node_3": {
            "children": [
                "node_0",
                "node-jz10"
            ],
            "matrix": [
                1,
                0,
                0,
                0,
                0,
                0,
                -1,
                0,
                0,
                1,
                0,
                0,
                0,
                0,
                0,
                1
            ],
            "name": "Y_UP_Transform"
        }
    },
    "programs": {
        "program_0": {
            "attributes": [
                "a_normal",
                "a_position",
                "a_texcoord0"
            ],
            "fragmentShader": "jz100FS",
            "vertexShader": "jz100VS"
        }
    },
    "samplers": {
        "sampler_0": {
            "magFilter": 9729,
            "minFilter": 9729,
            "wrapS": 10497,
            "wrapT": 10497
        }
    },
    "scene": "defaultScene",
    "scenes": {
        "defaultScene": {
            "nodes": [
                "node_3"
            ]
        }
    },
    "shaders": {
        "jz100FS": {
            "type": 35632,
            "uri": "data:text/plain;base64,"
        },
        "jz100VS": {
            "type": 35633,
            "uri": "data:text/plain;base64,"
        }
    },
    "skins": {},
    "techniques": {
        "technique1": {
            "attributes": {
                "a_normal": "normal",
                "a_position": "position",
                "a_texcoord0": "texcoord0"
            },
            "parameters": {
                "ambient": {
                    "type": 35678
                },
                "diffuse": {
                    "type": 35678
                },
                "emission": {
                    "type": 35666
                },
                "modelViewMatrix": {
                    "semantic": "MODELVIEW",
                    "type": 35676
                },
                "normal": {
                    "semantic": "NORMAL",
                    "type": 35665
                },
                "normalMatrix": {
                    "semantic": "MODELVIEWINVERSETRANSPOSE",
                    "type": 35675
                },
                "position": {
                    "semantic": "POSITION",
                    "type": 35665
                },
                "projectionMatrix": {
                    "semantic": "PROJECTION",
                    "type": 35676
                },
                "shininess": {
                    "type": 5126
                },
                "specular": {
                    "type": 35666
                },
                "texcoord0": {
                    "semantic": "TEXCOORD_0",
                    "type": 35664
                }
            },
            "program": "program_0",
            "states": {
                "enable": [
                    2929,
                    3042
                ],
                "functions": {
                    "blendEquationSeparate": [
                        32774,
                        32774
                    ],
                    "blendFuncSeparate": [
                        1,
                        771,
                        1,
                        771
                    ],
                    "depthMask": false
                }
            },
            "uniforms": {
                "u_ambient": "ambient",
                "u_diffuse": "diffuse",
                "u_emission": "emission",
                "u_modelViewMatrix": "modelViewMatrix",
                "u_normalMatrix": "normalMatrix",
                "u_projectionMatrix": "projectionMatrix",
                "u_shininess": "shininess",
                "u_specular": "specular"
            }
        }
    },
    "textures": {
        "texture_sy16051101_png": {
            "format": 6408,
            "internalFormat": 6408,
            "sampler": "sampler_0",
            "source": "sy16051101_png",
            "target": 3553,
            "type": 5121
        },
        "texture_sy16051102_png": {
            "format": 6408,
            "internalFormat": 6408,
            "sampler": "sampler_0",
            "source": "sy16051102_png",
            "target": 3553,
            "type": 5121
        },
        "texture_sy16051103_png": {
            "format": 6408,
            "internalFormat": 6408,
            "sampler": "sampler_0",
            "source": "sy16051103_png",
            "target": 3553,
            "type": 5121
        },
        "texture_sy16051104_png": {
            "format": 6408,
            "internalFormat": 6408,
            "sampler": "sampler_0",
            "source": "sy16051104_png",
            "target": 3553,
            "type": 5121
        },
        "texture_sy16051106_png": {
            "format": 6408,
            "internalFormat": 6408,
            "sampler": "sampler_0",
            "source": "sy16051106_png",
            "target": 3553,
            "type": 5121
        },
        "texture_sy16051142_png": {
            "format": 6408,
            "internalFormat": 6408,
            "sampler": "sampler_0",
            "source": "sy16051142_png",
            "target": 3553,
            "type": 5121
        },
        "texture_sy16062094_png": {
            "format": 6408,
            "internalFormat": 6408,
            "sampler": "sampler_0",
            "source": "sy16062094_png",
            "target": 3553,
            "type": 5121
        }
    }
}