{
    "accessors": {
        "accessor_247": {
            "bufferView": "bufferView_283",
            "byteOffset": 0,
            "byteStride": 0,
            "componentType": 5123,
            "count": 7983,
            "type": "SCALAR"
        },
        "accessor_250": {
            "bufferView": "bufferView_283",
            "byteOffset": 15966,
            "byteStride": 0,
            "componentType": 5123,
            "count": 216,
            "type": "SCALAR"
        },
        "accessor_253": {
            "bufferView": "bufferView_283",
            "byteOffset": 16398,
            "byteStride": 0,
            "componentType": 5123,
            "count": 1332,
            "type": "SCALAR"
        },
        "accessor_256": {
            "bufferView": "bufferView_283",
            "byteOffset": 19062,
            "byteStride": 0,
            "componentType": 5123,
            "count": 909,
            "type": "SCALAR"
        },
        "accessor_259": {
            "bufferView": "bufferView_283",
            "byteOffset": 20880,
            "byteStride": 0,
            "componentType": 5123,
            "count": 72,
            "type": "SCALAR"
        },
        "accessor_262": {
            "bufferView": "bufferView_283",
            "byteOffset": 21024,
            "byteStride": 0,
            "componentType": 5123,
            "count": 138,
            "type": "SCALAR"
        },
        "accessor_265": {
            "bufferView": "bufferView_283",
            "byteOffset": 21300,
            "byteStride": 0,
            "componentType": 5123,
            "count": 1056,
            "type": "SCALAR"
        },
        "accessor_268": {
            "bufferView": "bufferView_283",
            "byteOffset": 23412,
            "byteStride": 0,
            "componentType": 5123,
            "count": 63,
            "type": "SCALAR"
        },
        "accessor_271": {
            "bufferView": "bufferView_283",
            "byteOffset": 23538,
            "byteStride": 0,
            "componentType": 5123,
            "count": 12,
            "type": "SCALAR"
        },
        "accessor_273": {
            "bufferView": "bufferView_284",
            "byteOffset": 0,
            "byteStride": 12,
            "componentType": 5126,
            "count": 11447,
            "max": [
                51.2622,
                -41.7109,
                125.034
            ],
            "min": [
                -49.1966,
                -139.299,
                -8.17701e-06
            ],
            "type": "VEC3"
        },
        "accessor_275": {
            "bufferView": "bufferView_284",
            "byteOffset": 137364,
            "byteStride": 12,
            "componentType": 5126,
            "count": 11447,
            "max": [
                1,
                1,
                1
            ],
            "min": [
                -1,
                -1,
                -1
            ],
            "type": "VEC3"
        },
        "accessor_277": {
            "bufferView": "bufferView_284",
            "byteOffset": 274728,
            "byteStride": 8,
            "componentType": 5126,
            "count": 11447,
            "max": [
                3.02233,
                3.2808
            ],
            "min": [
                -2.01499,
                -9.30486
            ],
            "type": "VEC2"
        },
        "accessor_279": {
            "bufferView": "bufferView_284",
            "byteOffset": 366304,
            "byteStride": 12,
            "componentType": 5126,
            "count": 11447,
            "max": [
                1,
                1,
                1
            ],
            "min": [
                -1,
                -1,
                -1
            ],
            "type": "VEC3"
        },
        "accessor_281": {
            "bufferView": "bufferView_284",
            "byteOffset": 503668,
            "byteStride": 12,
            "componentType": 5126,
            "count": 11447,
            "max": [
                1,
                1,
                1
            ],
            "min": [
                -1,
                -1,
                -1
            ],
            "type": "VEC3"
        }
    },
    "animations": {},
    "asset": {
        "generator": "collada2gltf@11bf28f97f1b5380fbefacf862ce7c597873d368",
        "premultipliedAlpha": true,
        "profile": {
            "api": "WebGL",
            "version": "1.0.2"
        },
        "version": 1
    },
    "bufferViews": {
        "bufferView_283": {
            "buffer": "jz11",
            "byteLength": 23564,
            "byteOffset": 0,
            "target": 34963
        },
        "bufferView_284": {
            "buffer": "jz11",
            "byteLength": 641032,
            "byteOffset": 23564,
            "target": 34962
        }
    },
    "buffers": {
        "jz11": {
            "byteLength": 664596,
            "type": "arraybuffer",
            "uri": "data:application/octet-stream;base64,"
        }
    },
    "images": {
        "sy16050902_png": {
            "name": "sy16050902_png",
            "uri": "data:image/png;base64,"
        },
        "sy16051101_png": {
            "name": "sy16051101_png",
            "uri": "data:image/png;base64,"
        },
        "sy16051102_png": {
            "name": "sy16051102_png",
            "uri": "data:image/png;base64,"
        },
        "sy16051103_png": {
            "name": "sy16051103_png",
            "uri": "data:image/png;base64,"
        },
        "sy16051104_png": {
            "name": "sy16051104_png",
            "uri": "data:image/png;base64,"
        },
        "sy16051106_png": {
            "name": "sy16051106_png",
            "uri": "data:image/png;base64,"
        },
        "sy16051122_png": {
            "name": "sy16051122_png",
            "uri": "data:image/png;base64,"
        },
        "sy16051142_png": {
            "name": "sy16051142_png",
            "uri": "data:image/png;base64,"
        },
        "sy16062091_png": {
            "name": "sy16062091_png",
            "uri": "data:image/png;base64,"
        }
    },
    "materials": {
        "Material__7979": {
            "name": "Material__7979",
            "technique": "technique1",
            "values": {
                "ambient": "texture_sy16062091_png",
                "diffuse": "texture_sy16062091_png",
                "emission": [
                    0,
                    0,
                    0,
                    1
                ],
                "shininess": 0,
                "specular": [
                    0.9,
                    0.9,
                    0.9,
                    1
                ]
            }
        },
        "sy16050902": {
            "name": "sy16050902",
            "technique": "technique1",
            "values": {
                "ambient": "texture_sy16050902_png",
                "diffuse": "texture_sy16050902_png",
                "emission": [
                    0,
                    0,
                    0,
                    1
                ],
                "shininess": 0,
                "specular": [
                    0.9,
                    0.9,
                    0.9,
                    1
                ]
            }
        },
        "sy16051101": {
            "name": "sy16051101",
            "technique": "technique1",
            "values": {
                "ambient": "texture_sy16051101_png",
                "diffuse": "texture_sy16051101_png",
                "emission": [
                    0,
                    0,
                    0,
                    1
                ],
                "shininess": 0,
                "specular": [
                    0.9,
                    0.9,
                    0.9,
                    1
                ]
            }
        },
        "sy16051102": {
            "name": "sy16051102",
            "technique": "technique1",
            "values": {
                "ambient": "texture_sy16051102_png",
                "diffuse": "texture_sy16051102_png",
                "emission": [
                    0,
                    0,
                    0,
                    1
                ],
                "shininess": 0,
                "specular": [
                    0.9,
                    0.9,
                    0.9,
                    1
                ]
            }
        },
        "sy16051103": {
            "name": "sy16051103",
            "technique": "technique1",
            "values": {
                "ambient": "texture_sy16051103_png",
                "diffuse": "texture_sy16051103_png",
                "emission": [
                    0,
                    0,
                    0,
                    1
                ],
                "shininess": 0,
                "specular": [
                    0.9,
                    0.9,
                    0.9,
                    1
                ]
            }
        },
        "sy16051104": {
            "name": "sy16051104",
            "technique": "technique1",
            "values": {
                "ambient": "texture_sy16051104_png",
                "diffuse": "texture_sy16051104_png",
                "emission": [
                    0,
                    0,
                    0,
                    1
                ],
                "shininess": 0,
                "specular": [
                    0.9,
                    0.9,
                    0.9,
                    1
                ]
            }
        },
        "sy16051106": {
            "name": "sy16051106",
            "technique": "technique1",
            "values": {
                "ambient": "texture_sy16051106_png",
                "diffuse": "texture_sy16051106_png",
                "emission": [
                    0,
                    0,
                    0,
                    1
                ],
                "shininess": 0,
                "specular": [
                    0.9,
                    0.9,
                    0.9,
                    1
                ]
            }
        },
        "sy16051122": {
            "name": "sy16051122",
            "technique": "technique1",
            "values": {
                "ambient": "texture_sy16051122_png",
                "diffuse": "texture_sy16051122_png",
                "emission": [
                    0,
                    0,
                    0,
                    1
                ],
                "shininess": 0,
                "specular": [
                    0.9,
                    0.9,
                    0.9,
                    1
                ]
            }
        },
        "sy16051142": {
            "name": "sy16051142",
            "technique": "technique1",
            "values": {
                "ambient": "texture_sy16051142_png",
                "diffuse": "texture_sy16051142_png",
                "emission": [
                    0,
                    0,
                    0,
                    1
                ],
                "shininess": 0,
                "specular": [
                    0.9,
                    0.9,
                    0.9,
                    1
                ]
            }
        }
    },
    "meshes": {
        "geom-jz11": {
            "name": "jz11",
            "primitives": [
                {
                    "attributes": {
                        "NORMAL": "accessor_275",
                        "POSITION": "accessor_273",
                        "TEXBINORMAL": "accessor_281",
                        "TEXCOORD_0": "accessor_277",
                        "TEXTANGENT": "accessor_279"
                    },
                    "indices": "accessor_247",
                    "material": "sy16051104",
                    "mode": 4
                },
                {
                    "attributes": {
                        "NORMAL": "accessor_275",
                        "POSITION": "accessor_273",
                        "TEXBINORMAL": "accessor_281",
                        "TEXCOORD_0": "accessor_277",
                        "TEXTANGENT": "accessor_279"
                    },
                    "indices": "accessor_250",
                    "material": "sy16051122",
                    "mode": 4
                },
                {
                    "attributes": {
                        "NORMAL": "accessor_275",
                        "POSITION": "accessor_273",
                        "TEXBINORMAL": "accessor_281",
                        "TEXCOORD_0": "accessor_277",
                        "TEXTANGENT": "accessor_279"
                    },
                    "indices": "accessor_253",
                    "material": "sy16051106",
                    "mode": 4
                },
                {
                    "attributes": {
                        "NORMAL": "accessor_275",
                        "POSITION": "accessor_273",
                        "TEXBINORMAL": "accessor_281",
                        "TEXCOORD_0": "accessor_277",
                        "TEXTANGENT": "accessor_279"
                    },
                    "indices": "accessor_256",
                    "material": "sy16051102",
                    "mode": 4
                },
                {
                    "attributes": {
                        "NORMAL": "accessor_275",
                        "POSITION": "accessor_273",
                        "TEXBINORMAL": "accessor_281",
                        "TEXCOORD_0": "accessor_277",
                        "TEXTANGENT": "accessor_279"
                    },
                    "indices": "accessor_259",
                    "material": "sy16051142",
                    "mode": 4
                },
                {
                    "attributes": {
                        "NORMAL": "accessor_275",
                        "POSITION": "accessor_273",
                        "TEXBINORMAL": "accessor_281",
                        "TEXCOORD_0": "accessor_277",
                        "TEXTANGENT": "accessor_279"
                    },
                    "indices": "accessor_262",
                    "material": "sy16050902",
                    "mode": 4
                },
                {
                    "attributes": {
                        "NORMAL": "accessor_275",
                        "POSITION": "accessor_273",
                        "TEXBINORMAL": "accessor_281",
                        "TEXCOORD_0": "accessor_277",
                        "TEXTANGENT": "accessor_279"
                    },
                    "indices": "accessor_265",
                    "material": "sy16051103",
                    "mode": 4
                },
                {
                    "attributes": {
                        "NORMAL": "accessor_275",
                        "POSITION": "accessor_273",
                        "TEXBINORMAL": "accessor_281",
                        "TEXCOORD_0": "accessor_277",
                        "TEXTANGENT": "accessor_279"
                    },
                    "indices": "accessor_268",
                    "material": "sy16051101",
                    "mode": 4
                },
                {
                    "attributes": {
                        "NORMAL": "accessor_275",
                        "POSITION": "accessor_273",
                        "TEXBINORMAL": "accessor_281",
                        "TEXCOORD_0": "accessor_277",
                        "TEXTANGENT": "accessor_279"
                    },
                    "indices": "accessor_271",
                    "material": "Material__7979",
                    "mode": 4
                }
            ]
        }
    },
    "nodes": {
        "node-jz11": {
            "children": [
                "node_2"
            ],
            "matrix": [
                1,
                0,
                0,
                0,
                0,
                1,
                0,
                0,
                0,
                0,
                1,
                0,
                0,
                0,
                62.517,
                1
            ],
            "name": "jz11"
        },
        "node_0": {
            "children": [],
            "matrix": [
                1,
                0,
                0,
                0,
                0,
                1,
                0,
                0,
                0,
                0,
                1,
                0,
                0,
                0,
                0,
                1
            ],
            "name": "EnvironmentAmbientLight"
        },
        "node_2": {
            "children": [],
            "matrix": [
                1,
                0,
                0,
                0,
                0,
                1,
                0,
                0,
                0,
                0,
                1,
                0,
                -1.0328,
                90.5051,
                -62.517,
                1
            ],
            "meshes": [
                "geom-jz11"
            ],
            "name": ""
        },
        "node_3": {
            "children": [
                "node_0",
                "node-jz11"
            ],
            "matrix": [
                1,
                0,
                0,
                0,
                0,
                0,
                -1,
                0,
                0,
                1,
                0,
                0,
                0,
                0,
                0,
                1
            ],
            "name": "Y_UP_Transform"
        }
    },
    "programs": {
        "program_0": {
            "attributes": [
                "a_normal",
                "a_position",
                "a_texcoord0"
            ],
            "fragmentShader": "jz110FS",
            "vertexShader": "jz110VS"
        }
    },
    "samplers": {
        "sampler_0": {
            "magFilter": 9729,
            "minFilter": 9729,
            "wrapS": 10497,
            "wrapT": 10497
        }
    },
    "scene": "defaultScene",
    "scenes": {
        "defaultScene": {
            "nodes": [
                "node_3"
            ]
        }
    },
    "shaders": {
        "jz110FS": {
            "type": 35632,
            "uri": "data:text/plain;base64,"
        },
        "jz110VS": {
            "type": 35633,
            "uri": "data:text/plain;base64,"
        }
    },
    "skins": {},
    "techniques": {
        "technique1": {
            "attributes": {
                "a_normal": "normal",
                "a_position": "position",
                "a_texcoord0": "texcoord0"
            },
            "parameters": {
                "ambient": {
                    "type": 35678
                },
                "diffuse": {
                    "type": 35678
                },
                "emission": {
                    "type": 35666
                },
                "modelViewMatrix": {
                    "semantic": "MODELVIEW",
                    "type": 35676
                },
                "normal": {
                    "semantic": "NORMAL",
                    "type": 35665
                },
                "normalMatrix": {
                    "semantic": "MODELVIEWINVERSETRANSPOSE",
                    "type": 35675
                },
                "position": {
                    "semantic": "POSITION",
                    "type": 35665
                },
                "projectionMatrix": {
                    "semantic": "PROJECTION",
                    "type": 35676
                },
                "shininess": {
                    "type": 5126
                },
                "specular": {
                    "type": 35666
                },
                "texcoord0": {
                    "semantic": "TEXCOORD_0",
                    "type": 35664
                }
            },
            "program": "program_0",
            "states": {
                "enable": [
                    2929,
                    3042
                ],
                "functions": {
                    "blendEquationSeparate": [
                        32774,
                        32774
                    ],
                    "blendFuncSeparate": [
                        1,
                        771,
                        1,
                        771
                    ],
                    "depthMask": false
                }
            },
            "uniforms": {
                "u_ambient": "ambient",
                "u_diffuse": "diffuse",
                "u_emission": "emission",
                "u_modelViewMatrix": "modelViewMatrix",
                "u_normalMatrix": "normalMatrix",
                "u_projectionMatrix": "projectionMatrix",
                "u_shininess": "shininess",
                "u_specular": "specular"
            }
        }
    },
    "textures": {
        "texture_sy16050902_png": {
            "format": 6408,
            "internalFormat": 6408,
            "sampler": "sampler_0",
            "source": "sy16050902_png",
            "target": 3553,
            "type": 5121
        },
        "texture_sy16051101_png": {
            "format": 6408,
            "internalFormat": 6408,
            "sampler": "sampler_0",
            "source": "sy16051101_png",
            "target": 3553,
            "type": 5121
        },
        "texture_sy16051102_png": {
            "format": 6408,
            "internalFormat": 6408,
            "sampler": "sampler_0",
            "source": "sy16051102_png",
            "target": 3553,
            "type": 5121
        },
        "texture_sy16051103_png": {
            "format": 6408,
            "internalFormat": 6408,
            "sampler": "sampler_0",
            "source": "sy16051103_png",
            "target": 3553,
            "type": 5121
        },
        "texture_sy16051104_png": {
            "format": 6408,
            "internalFormat": 6408,
            "sampler": "sampler_0",
            "source": "sy16051104_png",
            "target": 3553,
            "type": 5121
        },
        "texture_sy16051106_png": {
            "format": 6408,
            "internalFormat": 6408,
            "sampler": "sampler_0",
            "source": "sy16051106_png",
            "target": 3553,
            "type": 5121
        },
        "texture_sy16051122_png": {
            "format": 6408,
            "internalFormat": 6408,
            "sampler": "sampler_0",
            "source": "sy16051122_png",
            "target": 3553,
            "type": 5121
        },
        "texture_sy16051142_png": {
            "format": 6408,
            "internalFormat": 6408,
            "sampler": "sampler_0",
            "source": "sy16051142_png",
            "target": 3553,
            "type": 5121
        },
        "texture_sy16062091_png": {
            "format": 6408,
            "internalFormat": 6408,
            "sampler": "sampler_0",
            "source": "sy16062091_png",
            "target": 3553,
            "type": 5121
        }
    }
}