{
    "accessors": {
        "accessor_247": {
            "bufferView": "bufferView_283",
            "byteOffset": 0,
            "byteStride": 0,
            "componentType": 5123,
            "count": 330,
            "type": "SCALAR"
        },
        "accessor_250": {
            "bufferView": "bufferView_283",
            "byteOffset": 660,
            "byteStride": 0,
            "componentType": 5123,
            "count": 1005,
            "type": "SCALAR"
        },
        "accessor_253": {
            "bufferView": "bufferView_283",
            "byteOffset": 2670,
            "byteStride": 0,
            "componentType": 5123,
            "count": 48,
            "type": "SCALAR"
        },
        "accessor_256": {
            "bufferView": "bufferView_283",
            "byteOffset": 2766,
            "byteStride": 0,
            "componentType": 5123,
            "count": 57,
            "type": "SCALAR"
        },
        "accessor_259": {
            "bufferView": "bufferView_283",
            "byteOffset": 2880,
            "byteStride": 0,
            "componentType": 5123,
            "count": 228,
            "type": "SCALAR"
        },
        "accessor_262": {
            "bufferView": "bufferView_283",
            "byteOffset": 3336,
            "byteStride": 0,
            "componentType": 5123,
            "count": 24,
            "type": "SCALAR"
        },
        "accessor_265": {
            "bufferView": "bufferView_283",
            "byteOffset": 3384,
            "byteStride": 0,
            "componentType": 5123,
            "count": 42,
            "type": "SCALAR"
        },
        "accessor_268": {
            "bufferView": "bufferView_283",
            "byteOffset": 3468,
            "byteStride": 0,
            "componentType": 5123,
            "count": 264,
            "type": "SCALAR"
        },
        "accessor_271": {
            "bufferView": "bufferView_283",
            "byteOffset": 3996,
            "byteStride": 0,
            "componentType": 5123,
            "count": 60,
            "type": "SCALAR"
        },
        "accessor_273": {
            "bufferView": "bufferView_284",
            "byteOffset": 0,
            "byteStride": 12,
            "componentType": 5126,
            "count": 1968,
            "max": [
                3.50424,
                -16.7206,
                54.1969
            ],
            "min": [
                -108.848,
                -130.101,
                1.79981
            ],
            "type": "VEC3"
        },
        "accessor_275": {
            "bufferView": "bufferView_284",
            "byteOffset": 23616,
            "byteStride": 12,
            "componentType": 5126,
            "count": 1968,
            "max": [
                0.718866,
                0.715789,
                1
            ],
            "min": [
                -0.718811,
                -0.715788,
                -1
            ],
            "type": "VEC3"
        },
        "accessor_277": {
            "bufferView": "bufferView_284",
            "byteOffset": 47232,
            "byteStride": 8,
            "componentType": 5126,
            "count": 1968,
            "max": [
                19.99,
                11.325
            ],
            "min": [
                -14.2422,
                -10.325
            ],
            "type": "VEC2"
        },
        "accessor_279": {
            "bufferView": "bufferView_284",
            "byteOffset": 62976,
            "byteStride": 12,
            "componentType": 5126,
            "count": 1968,
            "max": [
                0.828803,
                0.999924,
                1
            ],
            "min": [
                -0.773479,
                -0.831065,
                -1
            ],
            "type": "VEC3"
        },
        "accessor_281": {
            "bufferView": "bufferView_284",
            "byteOffset": 86592,
            "byteStride": 12,
            "componentType": 5126,
            "count": 1968,
            "max": [
                0.999924,
                0.828803,
                1
            ],
            "min": [
                -0.831065,
                -0.718866,
                -1
            ],
            "type": "VEC3"
        }
    },
    "animations": {},
    "asset": {
        "generator": "collada2gltf@11bf28f97f1b5380fbefacf862ce7c597873d368",
        "premultipliedAlpha": true,
        "profile": {
            "api": "WebGL",
            "version": "1.0.2"
        },
        "version": 1
    },
    "bufferViews": {
        "bufferView_283": {
            "buffer": "jz13",
            "byteLength": 4116,
            "byteOffset": 0,
            "target": 34963
        },
        "bufferView_284": {
            "buffer": "jz13",
            "byteLength": 110208,
            "byteOffset": 4116,
            "target": 34962
        }
    },
    "buffers": {
        "jz13": {
            "byteLength": 114324,
            "type": "arraybuffer",
            "uri": "data:application/octet-stream;base64,"
        }
    },
    "images": {
        "sy16050902_png": {
            "name": "sy16050902_png",
            "uri": "data:image/png;base64,"
        },
        "sy16051101_png": {
            "name": "sy16051101_png",
            "uri": "data:image/png;base64,"
        },
        "sy16051102_png": {
            "name": "sy16051102_png",
            "uri": "data:image/png;base64,"
        },
        "sy16051103_png": {
            "name": "sy16051103_png",
            "uri": "data:image/png;base64,"
        },
        "sy16051104_png": {
            "name": "sy16051104_png",
            "uri": "data:image/png;base64,"
        },
        "sy16051106_png": {
            "name": "sy16051106_png",
            "uri": "data:image/png;base64,"
        },
        "sy16051115_png": {
            "name": "sy16051115_png",
            "uri": "data:image/png;base64,"
        },
        "sy16051116_png": {
            "name": "sy16051116_png",
            "uri": "data:image/png;base64,"
        },
        "sy16051117_png": {
            "name": "sy16051117_png",
            "uri": "data:image/png;base64,"
        }
    },
    "materials": {
        "sy16050902": {
            "name": "sy16050902",
            "technique": "technique1",
            "values": {
                "ambient": "texture_sy16050902_png",
                "diffuse": "texture_sy16050902_png",
                "emission": [
                    0,
                    0,
                    0,
                    1
                ],
                "shininess": 0,
                "specular": [
                    0.9,
                    0.9,
                    0.9,
                    1
                ]
            }
        },
        "sy16051101": {
            "name": "sy16051101",
            "technique": "technique1",
            "values": {
                "ambient": "texture_sy16051101_png",
                "diffuse": "texture_sy16051101_png",
                "emission": [
                    0,
                    0,
                    0,
                    1
                ],
                "shininess": 0,
                "specular": [
                    0.9,
                    0.9,
                    0.9,
                    1
                ]
            }
        },
        "sy16051102": {
            "name": "sy16051102",
            "technique": "technique1",
            "values": {
                "ambient": "texture_sy16051102_png",
                "diffuse": "texture_sy16051102_png",
                "emission": [
                    0,
                    0,
                    0,
                    1
                ],
                "shininess": 0,
                "specular": [
                    0.9,
                    0.9,
                    0.9,
                    1
                ]
            }
        },
        "sy16051103": {
            "name": "sy16051103",
            "technique": "technique1",
            "values": {
                "ambient": "texture_sy16051103_png",
                "diffuse": "texture_sy16051103_png",
                "emission": [
                    0,
                    0,
                    0,
                    1
                ],
                "shininess": 0,
                "specular": [
                    0.9,
                    0.9,
                    0.9,
                    1
                ]
            }
        },
        "sy16051104": {
            "name": "sy16051104",
            "technique": "technique1",
            "values": {
                "ambient": "texture_sy16051104_png",
                "diffuse": "texture_sy16051104_png",
                "emission": [
                    0,
                    0,
                    0,
                    1
                ],
                "shininess": 0,
                "specular": [
                    0.9,
                    0.9,
                    0.9,
                    1
                ]
            }
        },
        "sy16051106": {
            "name": "sy16051106",
            "technique": "technique1",
            "values": {
                "ambient": "texture_sy16051106_png",
                "diffuse": "texture_sy16051106_png",
                "emission": [
                    0,
                    0,
                    0,
                    1
                ],
                "shininess": 0,
                "specular": [
                    0.9,
                    0.9,
                    0.9,
                    1
                ]
            }
        },
        "sy16051115": {
            "name": "sy16051115",
            "technique": "technique1",
            "values": {
                "ambient": "texture_sy16051115_png",
                "diffuse": "texture_sy16051115_png",
                "emission": [
                    0,
                    0,
                    0,
                    1
                ],
                "shininess": 0,
                "specular": [
                    0.9,
                    0.9,
                    0.9,
                    1
                ]
            }
        },
        "sy16051116": {
            "name": "sy16051116",
            "technique": "technique1",
            "values": {
                "ambient": "texture_sy16051116_png",
                "diffuse": "texture_sy16051116_png",
                "emission": [
                    0,
                    0,
                    0,
                    1
                ],
                "shininess": 0,
                "specular": [
                    0.9,
                    0.9,
                    0.9,
                    1
                ]
            }
        },
        "sy16051117": {
            "name": "sy16051117",
            "technique": "technique1",
            "values": {
                "ambient": "texture_sy16051117_png",
                "diffuse": "texture_sy16051117_png",
                "emission": [
                    0,
                    0,
                    0,
                    1
                ],
                "shininess": 0,
                "specular": [
                    0.9,
                    0.9,
                    0.9,
                    1
                ]
            }
        }
    },
    "meshes": {
        "geom-jz13": {
            "name": "jz13",
            "primitives": [
                {
                    "attributes": {
                        "NORMAL": "accessor_275",
                        "POSITION": "accessor_273",
                        "TEXBINORMAL": "accessor_281",
                        "TEXCOORD_0": "accessor_277",
                        "TEXTANGENT": "accessor_279"
                    },
                    "indices": "accessor_247",
                    "material": "sy16051102",
                    "mode": 4
                },
                {
                    "attributes": {
                        "NORMAL": "accessor_275",
                        "POSITION": "accessor_273",
                        "TEXBINORMAL": "accessor_281",
                        "TEXCOORD_0": "accessor_277",
                        "TEXTANGENT": "accessor_279"
                    },
                    "indices": "accessor_250",
                    "material": "sy16051104",
                    "mode": 4
                },
                {
                    "attributes": {
                        "NORMAL": "accessor_275",
                        "POSITION": "accessor_273",
                        "TEXBINORMAL": "accessor_281",
                        "TEXCOORD_0": "accessor_277",
                        "TEXTANGENT": "accessor_279"
                    },
                    "indices": "accessor_253",
                    "material": "sy16051101",
                    "mode": 4
                },
                {
                    "attributes": {
                        "NORMAL": "accessor_275",
                        "POSITION": "accessor_273",
                        "TEXBINORMAL": "accessor_281",
                        "TEXCOORD_0": "accessor_277",
                        "TEXTANGENT": "accessor_279"
                    },
                    "indices": "accessor_256",
                    "material": "sy16051117",
                    "mode": 4
                },
                {
                    "attributes": {
                        "NORMAL": "accessor_275",
                        "POSITION": "accessor_273",
                        "TEXBINORMAL": "accessor_281",
                        "TEXCOORD_0": "accessor_277",
                        "TEXTANGENT": "accessor_279"
                    },
                    "indices": "accessor_259",
                    "material": "sy16051106",
                    "mode": 4
                },
                {
                    "attributes": {
                        "NORMAL": "accessor_275",
                        "POSITION": "accessor_273",
                        "TEXBINORMAL": "accessor_281",
                        "TEXCOORD_0": "accessor_277",
                        "TEXTANGENT": "accessor_279"
                    },
                    "indices": "accessor_262",
                    "material": "sy16051116",
                    "mode": 4
                },
                {
                    "attributes": {
                        "NORMAL": "accessor_275",
                        "POSITION": "accessor_273",
                        "TEXBINORMAL": "accessor_281",
                        "TEXCOORD_0": "accessor_277",
                        "TEXTANGENT": "accessor_279"
                    },
                    "indices": "accessor_265",
                    "material": "sy16051115",
                    "mode": 4
                },
                {
                    "attributes": {
                        "NORMAL": "accessor_275",
                        "POSITION": "accessor_273",
                        "TEXBINORMAL": "accessor_281",
                        "TEXCOORD_0": "accessor_277",
                        "TEXTANGENT": "accessor_279"
                    },
                    "indices": "accessor_268",
                    "material": "sy16051103",
                    "mode": 4
                },
                {
                    "attributes": {
                        "NORMAL": "accessor_275",
                        "POSITION": "accessor_273",
                        "TEXBINORMAL": "accessor_281",
                        "TEXCOORD_0": "accessor_277",
                        "TEXTANGENT": "accessor_279"
                    },
                    "indices": "accessor_271",
                    "material": "sy16050902",
                    "mode": 4
                }
            ]
        }
    },
    "nodes": {
        "node-jz13": {
            "children": [
                "node_2"
            ],
            "matrix": [
                1,
                0,
                0,
                0,
                0,
                1,
                0,
                0,
                0,
                0,
                1,
                0,
                0,
                0,
                27.9984,
                1
            ],
            "name": "jz13"
        },
        "node_0": {
            "children": [],
            "matrix": [
                1,
                0,
                0,
                0,
                0,
                1,
                0,
                0,
                0,
                0,
                1,
                0,
                0,
                0,
                0,
                1
            ],
            "name": "EnvironmentAmbientLight"
        },
        "node_2": {
            "children": [],
            "matrix": [
                1,
                0,
                0,
                0,
                0,
                1,
                0,
                0,
                0,
                0,
                1,
                0,
                52.6717,
                73.4107,
                -27.9984,
                1
            ],
            "meshes": [
                "geom-jz13"
            ],
            "name": ""
        },
        "node_3": {
            "children": [
                "node_0",
                "node-jz13"
            ],
            "matrix": [
                1,
                0,
                0,
                0,
                0,
                0,
                -1,
                0,
                0,
                1,
                0,
                0,
                0,
                0,
                0,
                1
            ],
            "name": "Y_UP_Transform"
        }
    },
    "programs": {
        "program_0": {
            "attributes": [
                "a_normal",
                "a_position",
                "a_texcoord0"
            ],
            "fragmentShader": "jz130FS",
            "vertexShader": "jz130VS"
        }
    },
    "samplers": {
        "sampler_0": {
            "magFilter": 9729,
            "minFilter": 9729,
            "wrapS": 10497,
            "wrapT": 10497
        }
    },
    "scene": "defaultScene",
    "scenes": {
        "defaultScene": {
            "nodes": [
                "node_3"
            ]
        }
    },
    "shaders": {
        "jz130FS": {
            "type": 35632,
            "uri": "data:text/plain;base64,"
        },
        "jz130VS": {
            "type": 35633,
            "uri": "data:text/plain;base64,"
        }
    },
    "skins": {},
    "techniques": {
        "technique1": {
            "attributes": {
                "a_normal": "normal",
                "a_position": "position",
                "a_texcoord0": "texcoord0"
            },
            "parameters": {
                "ambient": {
                    "type": 35678
                },
                "diffuse": {
                    "type": 35678
                },
                "emission": {
                    "type": 35666
                },
                "modelViewMatrix": {
                    "semantic": "MODELVIEW",
                    "type": 35676
                },
                "normal": {
                    "semantic": "NORMAL",
                    "type": 35665
                },
                "normalMatrix": {
                    "semantic": "MODELVIEWINVERSETRANSPOSE",
                    "type": 35675
                },
                "position": {
                    "semantic": "POSITION",
                    "type": 35665
                },
                "projectionMatrix": {
                    "semantic": "PROJECTION",
                    "type": 35676
                },
                "shininess": {
                    "type": 5126
                },
                "specular": {
                    "type": 35666
                },
                "texcoord0": {
                    "semantic": "TEXCOORD_0",
                    "type": 35664
                }
            },
            "program": "program_0",
            "states": {
                "enable": [
                    2929,
                    3042
                ],
                "functions": {
                    "blendEquationSeparate": [
                        32774,
                        32774
                    ],
                    "blendFuncSeparate": [
                        1,
                        771,
                        1,
                        771
                    ],
                    "depthMask": false
                }
            },
            "uniforms": {
                "u_ambient": "ambient",
                "u_diffuse": "diffuse",
                "u_emission": "emission",
                "u_modelViewMatrix": "modelViewMatrix",
                "u_normalMatrix": "normalMatrix",
                "u_projectionMatrix": "projectionMatrix",
                "u_shininess": "shininess",
                "u_specular": "specular"
            }
        }
    },
    "textures": {
        "texture_sy16050902_png": {
            "format": 6408,
            "internalFormat": 6408,
            "sampler": "sampler_0",
            "source": "sy16050902_png",
            "target": 3553,
            "type": 5121
        },
        "texture_sy16051101_png": {
            "format": 6408,
            "internalFormat": 6408,
            "sampler": "sampler_0",
            "source": "sy16051101_png",
            "target": 3553,
            "type": 5121
        },
        "texture_sy16051102_png": {
            "format": 6408,
            "internalFormat": 6408,
            "sampler": "sampler_0",
            "source": "sy16051102_png",
            "target": 3553,
            "type": 5121
        },
        "texture_sy16051103_png": {
            "format": 6408,
            "internalFormat": 6408,
            "sampler": "sampler_0",
            "source": "sy16051103_png",
            "target": 3553,
            "type": 5121
        },
        "texture_sy16051104_png": {
            "format": 6408,
            "internalFormat": 6408,
            "sampler": "sampler_0",
            "source": "sy16051104_png",
            "target": 3553,
            "type": 5121
        },
        "texture_sy16051106_png": {
            "format": 6408,
            "internalFormat": 6408,
            "sampler": "sampler_0",
            "source": "sy16051106_png",
            "target": 3553,
            "type": 5121
        },
        "texture_sy16051115_png": {
            "format": 6408,
            "internalFormat": 6408,
            "sampler": "sampler_0",
            "source": "sy16051115_png",
            "target": 3553,
            "type": 5121
        },
        "texture_sy16051116_png": {
            "format": 6408,
            "internalFormat": 6408,
            "sampler": "sampler_0",
            "source": "sy16051116_png",
            "target": 3553,
            "type": 5121
        },
        "texture_sy16051117_png": {
            "format": 6408,
            "internalFormat": 6408,
            "sampler": "sampler_0",
            "source": "sy16051117_png",
            "target": 3553,
            "type": 5121
        }
    }
}