{
    "accessors": {
        "accessor_220": {
            "bufferView": "bufferView_253",
            "byteOffset": 0,
            "byteStride": 0,
            "componentType": 5123,
            "count": 117,
            "type": "SCALAR"
        },
        "accessor_223": {
            "bufferView": "bufferView_253",
            "byteOffset": 234,
            "byteStride": 0,
            "componentType": 5123,
            "count": 9,
            "type": "SCALAR"
        },
        "accessor_226": {
            "bufferView": "bufferView_253",
            "byteOffset": 252,
            "byteStride": 0,
            "componentType": 5123,
            "count": 24,
            "type": "SCALAR"
        },
        "accessor_229": {
            "bufferView": "bufferView_253",
            "byteOffset": 300,
            "byteStride": 0,
            "componentType": 5123,
            "count": 108,
            "type": "SCALAR"
        },
        "accessor_232": {
            "bufferView": "bufferView_253",
            "byteOffset": 516,
            "byteStride": 0,
            "componentType": 5123,
            "count": 78,
            "type": "SCALAR"
        },
        "accessor_235": {
            "bufferView": "bufferView_253",
            "byteOffset": 672,
            "byteStride": 0,
            "componentType": 5123,
            "count": 36,
            "type": "SCALAR"
        },
        "accessor_238": {
            "bufferView": "bufferView_253",
            "byteOffset": 744,
            "byteStride": 0,
            "componentType": 5123,
            "count": 1656,
            "type": "SCALAR"
        },
        "accessor_241": {
            "bufferView": "bufferView_253",
            "byteOffset": 4056,
            "byteStride": 0,
            "componentType": 5123,
            "count": 108,
            "type": "SCALAR"
        },
        "accessor_243": {
            "bufferView": "bufferView_254",
            "byteOffset": 0,
            "byteStride": 12,
            "componentType": 5126,
            "count": 2118,
            "max": [
                -7.46842,
                15.2972,
                9.2383
            ],
            "min": [
                -24.937,
                -3.50246,
                -0.00483416
            ],
            "type": "VEC3"
        },
        "accessor_245": {
            "bufferView": "bufferView_254",
            "byteOffset": 25416,
            "byteStride": 12,
            "componentType": 5126,
            "count": 2118,
            "max": [
                0.797079,
                0.797233,
                1
            ],
            "min": [
                -0.797062,
                -0.797497,
                -1
            ],
            "type": "VEC3"
        },
        "accessor_247": {
            "bufferView": "bufferView_254",
            "byteOffset": 50832,
            "byteStride": 8,
            "componentType": 5126,
            "count": 2118,
            "max": [
                17.991,
                3.11501
            ],
            "min": [
                -8.12503,
                -2.11504
            ],
            "type": "VEC2"
        },
        "accessor_249": {
            "bufferView": "bufferView_254",
            "byteOffset": 67776,
            "byteStride": 12,
            "componentType": 5126,
            "count": 2118,
            "max": [
                0.80928,
                0.797089,
                1
            ],
            "min": [
                -0.799785,
                -0.797089,
                -1
            ],
            "type": "VEC3"
        },
        "accessor_251": {
            "bufferView": "bufferView_254",
            "byteOffset": 93192,
            "byteStride": 12,
            "componentType": 5126,
            "count": 2118,
            "max": [
                0.797077,
                0.789223,
                1
            ],
            "min": [
                -0.797285,
                -0.789224,
                -1
            ],
            "type": "VEC3"
        }
    },
    "animations": {},
    "asset": {
        "generator": "collada2gltf@11bf28f97f1b5380fbefacf862ce7c597873d368",
        "premultipliedAlpha": true,
        "profile": {
            "api": "WebGL",
            "version": "1.0.2"
        },
        "version": 1
    },
    "bufferViews": {
        "bufferView_253": {
            "buffer": "jz59",
            "byteLength": 4272,
            "byteOffset": 0,
            "target": 34963
        },
        "bufferView_254": {
            "buffer": "jz59",
            "byteLength": 118608,
            "byteOffset": 4272,
            "target": 34962
        }
    },
    "buffers": {
        "jz59": {
            "byteLength": 122880,
            "type": "arraybuffer",
            "uri": "data:application/octet-stream;base64,"
        }
    },
    "images": {
        "sy16062019_png": {
            "name": "sy16062019_png",
            "uri": "data:image/png;base64,"
        },
        "sy16062023_png": {
            "name": "sy16062023_png",
            "uri": "data:image/png;base64,"
        },
        "sy16062048_png": {
            "name": "sy16062048_png",
            "uri": "data:image/png;base64,"
        },
        "sy16062049_png": {
            "name": "sy16062049_png",
            "uri": "data:image/png;base64,"
        },
        "sy16062050_png": {
            "name": "sy16062050_png",
            "uri": "data:image/png;base64,"
        },
        "sy16062052_png": {
            "name": "sy16062052_png",
            "uri": "data:image/png;base64,"
        },
        "sy16062054_png": {
            "name": "sy16062054_png",
            "uri": "data:image/png;base64,"
        },
        "sy16062055_png": {
            "name": "sy16062055_png",
            "uri": "data:image/png;base64,"
        }
    },
    "materials": {
        "sy16062019": {
            "name": "sy16062019",
            "technique": "technique1",
            "values": {
                "ambient": "texture_sy16062019_png",
                "diffuse": "texture_sy16062019_png",
                "emission": [
                    0,
                    0,
                    0,
                    1
                ],
                "shininess": 0,
                "specular": [
                    0.9,
                    0.9,
                    0.9,
                    1
                ]
            }
        },
        "sy16062023": {
            "name": "sy16062023",
            "technique": "technique2",
            "values": {
                "ambient": "texture_sy16062023_png",
                "diffuse": "texture_sy16062023_png",
                "emission": [
                    0,
                    0,
                    0,
                    1
                ],
                "shininess": 0,
                "specular": [
                    0.9,
                    0.9,
                    0.9,
                    1
                ]
            }
        },
        "sy16062048": {
            "name": "sy16062048",
            "technique": "technique1",
            "values": {
                "ambient": "texture_sy16062048_png",
                "diffuse": "texture_sy16062048_png",
                "emission": [
                    0,
                    0,
                    0,
                    1
                ],
                "shininess": 0,
                "specular": [
                    0.9,
                    0.9,
                    0.9,
                    1
                ]
            }
        },
        "sy16062049": {
            "name": "sy16062049",
            "technique": "technique1",
            "values": {
                "ambient": "texture_sy16062049_png",
                "diffuse": "texture_sy16062049_png",
                "emission": [
                    0,
                    0,
                    0,
                    1
                ],
                "shininess": 0,
                "specular": [
                    0.9,
                    0.9,
                    0.9,
                    1
                ]
            }
        },
        "sy16062050": {
            "name": "sy16062050",
            "technique": "technique1",
            "values": {
                "ambient": "texture_sy16062050_png",
                "diffuse": "texture_sy16062050_png",
                "emission": [
                    0,
                    0,
                    0,
                    1
                ],
                "shininess": 0,
                "specular": [
                    0.9,
                    0.9,
                    0.9,
                    1
                ]
            }
        },
        "sy16062052": {
            "name": "sy16062052",
            "technique": "technique1",
            "values": {
                "ambient": "texture_sy16062052_png",
                "diffuse": "texture_sy16062052_png",
                "emission": [
                    0,
                    0,
                    0,
                    1
                ],
                "shininess": 0,
                "specular": [
                    0.9,
                    0.9,
                    0.9,
                    1
                ]
            }
        },
        "sy16062054": {
            "name": "sy16062054",
            "technique": "technique1",
            "values": {
                "ambient": "texture_sy16062054_png",
                "diffuse": "texture_sy16062054_png",
                "emission": [
                    0,
                    0,
                    0,
                    1
                ],
                "shininess": 0,
                "specular": [
                    0.9,
                    0.9,
                    0.9,
                    1
                ]
            }
        },
        "sy16062055": {
            "name": "sy16062055",
            "technique": "technique1",
            "values": {
                "ambient": "texture_sy16062055_png",
                "diffuse": "texture_sy16062055_png",
                "emission": [
                    0,
                    0,
                    0,
                    1
                ],
                "shininess": 0,
                "specular": [
                    0.9,
                    0.9,
                    0.9,
                    1
                ]
            }
        }
    },
    "meshes": {
        "geom-jz59": {
            "name": "jz59",
            "primitives": [
                {
                    "attributes": {
                        "NORMAL": "accessor_245",
                        "POSITION": "accessor_243",
                        "TEXBINORMAL": "accessor_251",
                        "TEXCOORD_0": "accessor_247",
                        "TEXTANGENT": "accessor_249"
                    },
                    "indices": "accessor_220",
                    "material": "sy16062052",
                    "mode": 4
                },
                {
                    "attributes": {
                        "NORMAL": "accessor_245",
                        "POSITION": "accessor_243",
                        "TEXBINORMAL": "accessor_251",
                        "TEXCOORD_0": "accessor_247",
                        "TEXTANGENT": "accessor_249"
                    },
                    "indices": "accessor_223",
                    "material": "sy16062055",
                    "mode": 4
                },
                {
                    "attributes": {
                        "NORMAL": "accessor_245",
                        "POSITION": "accessor_243",
                        "TEXBINORMAL": "accessor_251",
                        "TEXCOORD_0": "accessor_247",
                        "TEXTANGENT": "accessor_249"
                    },
                    "indices": "accessor_226",
                    "material": "sy16062054",
                    "mode": 4
                },
                {
                    "attributes": {
                        "NORMAL": "accessor_245",
                        "POSITION": "accessor_243",
                        "TEXBINORMAL": "accessor_251",
                        "TEXCOORD_0": "accessor_247",
                        "TEXTANGENT": "accessor_249"
                    },
                    "indices": "accessor_229",
                    "material": "sy16062019",
                    "mode": 4
                },
                {
                    "attributes": {
                        "NORMAL": "accessor_245",
                        "POSITION": "accessor_243",
                        "TEXBINORMAL": "accessor_251",
                        "TEXCOORD_0": "accessor_247",
                        "TEXTANGENT": "accessor_249"
                    },
                    "indices": "accessor_232",
                    "material": "sy16062049",
                    "mode": 4
                },
                {
                    "attributes": {
                        "NORMAL": "accessor_245",
                        "POSITION": "accessor_243",
                        "TEXBINORMAL": "accessor_251",
                        "TEXCOORD_0": "accessor_247",
                        "TEXTANGENT": "accessor_249"
                    },
                    "indices": "accessor_235",
                    "material": "sy16062023",
                    "mode": 4
                },
                {
                    "attributes": {
                        "NORMAL": "accessor_245",
                        "POSITION": "accessor_243",
                        "TEXBINORMAL": "accessor_251",
                        "TEXCOORD_0": "accessor_247",
                        "TEXTANGENT": "accessor_249"
                    },
                    "indices": "accessor_238",
                    "material": "sy16062050",
                    "mode": 4
                },
                {
                    "attributes": {
                        "NORMAL": "accessor_245",
                        "POSITION": "accessor_243",
                        "TEXBINORMAL": "accessor_251",
                        "TEXCOORD_0": "accessor_247",
                        "TEXTANGENT": "accessor_249"
                    },
                    "indices": "accessor_241",
                    "material": "sy16062048",
                    "mode": 4
                }
            ]
        }
    },
    "nodes": {
        "node-jz59": {
            "children": [
                "node_2"
            ],
            "matrix": [
                1,
                0,
                0,
                0,
                0,
                1,
                0,
                0,
                0,
                0,
                1,
                0,
                0,
                0,
                4.61673,
                1
            ],
            "name": "jz59"
        },
        "node_0": {
            "children": [],
            "matrix": [
                1,
                0,
                0,
                0,
                0,
                1,
                0,
                0,
                0,
                0,
                1,
                0,
                0,
                0,
                0,
                1
            ],
            "name": "EnvironmentAmbientLight"
        },
        "node_2": {
            "children": [],
            "matrix": [
                1,
                0,
                0,
                0,
                0,
                1,
                0,
                0,
                0,
                0,
                1,
                0,
                16.2027,
                -5.89739,
                -4.61673,
                1
            ],
            "meshes": [
                "geom-jz59"
            ],
            "name": ""
        },
        "node_3": {
            "children": [
                "node_0",
                "node-jz59"
            ],
            "matrix": [
                1,
                0,
                0,
                0,
                0,
                0,
                -1,
                0,
                0,
                1,
                0,
                0,
                0,
                0,
                0,
                1
            ],
            "name": "Y_UP_Transform"
        }
    },
    "programs": {
        "program_0": {
            "attributes": [
                "a_normal",
                "a_position",
                "a_texcoord0"
            ],
            "fragmentShader": "jz590FS",
            "vertexShader": "jz590VS"
        },
        "program_1": {
            "attributes": [
                "a_normal",
                "a_position",
                "a_texcoord0"
            ],
            "fragmentShader": "jz591FS",
            "vertexShader": "jz591VS"
        }
    },
    "samplers": {
        "sampler_0": {
            "magFilter": 9729,
            "minFilter": 9729,
            "wrapS": 10497,
            "wrapT": 10497
        }
    },
    "scene": "defaultScene",
    "scenes": {
        "defaultScene": {
            "nodes": [
                "node_3"
            ]
        }
    },
    "shaders": {
        "jz590FS": {
            "type": 35632,
            "uri": "data:text/plain;base64,"
        },
        "jz590VS": {
            "type": 35633,
            "uri": "data:text/plain;base64,"
        },
        "jz591FS": {
            "type": 35632,
            "uri": "data:text/plain;base64,"
        },
        "jz591VS": {
            "type": 35633,
            "uri": "data:text/plain;base64,"
        }
    },
    "skins": {},
    "techniques": {
        "technique1": {
            "attributes": {
                "a_normal": "normal",
                "a_position": "position",
                "a_texcoord0": "texcoord0"
            },
            "parameters": {
                "ambient": {
                    "type": 35678
                },
                "diffuse": {
                    "type": 35678
                },
                "emission": {
                    "type": 35666
                },
                "modelViewMatrix": {
                    "semantic": "MODELVIEW",
                    "type": 35676
                },
                "normal": {
                    "semantic": "NORMAL",
                    "type": 35665
                },
                "normalMatrix": {
                    "semantic": "MODELVIEWINVERSETRANSPOSE",
                    "type": 35675
                },
                "position": {
                    "semantic": "POSITION",
                    "type": 35665
                },
                "projectionMatrix": {
                    "semantic": "PROJECTION",
                    "type": 35676
                },
                "shininess": {
                    "type": 5126
                },
                "specular": {
                    "type": 35666
                },
                "texcoord0": {
                    "semantic": "TEXCOORD_0",
                    "type": 35664
                }
            },
            "program": "program_0",
            "states": {
                "enable": [
                    2929,
                    3042
                ],
                "functions": {
                    "blendEquationSeparate": [
                        32774,
                        32774
                    ],
                    "blendFuncSeparate": [
                        1,
                        771,
                        1,
                        771
                    ],
                    "depthMask": false
                }
            },
            "uniforms": {
                "u_ambient": "ambient",
                "u_diffuse": "diffuse",
                "u_emission": "emission",
                "u_modelViewMatrix": "modelViewMatrix",
                "u_normalMatrix": "normalMatrix",
                "u_projectionMatrix": "projectionMatrix",
                "u_shininess": "shininess",
                "u_specular": "specular"
            }
        },
        "technique2": {
            "attributes": {
                "a_normal": "normal",
                "a_position": "position",
                "a_texcoord0": "texcoord0"
            },
            "parameters": {
                "ambient": {
                    "type": 35678
                },
                "diffuse": {
                    "type": 35678
                },
                "emission": {
                    "type": 35666
                },
                "modelViewMatrix": {
                    "semantic": "MODELVIEW",
                    "type": 35676
                },
                "normal": {
                    "semantic": "NORMAL",
                    "type": 35665
                },
                "normalMatrix": {
                    "semantic": "MODELVIEWINVERSETRANSPOSE",
                    "type": 35675
                },
                "position": {
                    "semantic": "POSITION",
                    "type": 35665
                },
                "projectionMatrix": {
                    "semantic": "PROJECTION",
                    "type": 35676
                },
                "shininess": {
                    "type": 5126
                },
                "specular": {
                    "type": 35666
                },
                "texcoord0": {
                    "semantic": "TEXCOORD_0",
                    "type": 35664
                }
            },
            "program": "program_1",
            "states": {
                "enable": [
                    2929,
                    2884
                ]
            },
            "uniforms": {
                "u_ambient": "ambient",
                "u_diffuse": "diffuse",
                "u_emission": "emission",
                "u_modelViewMatrix": "modelViewMatrix",
                "u_normalMatrix": "normalMatrix",
                "u_projectionMatrix": "projectionMatrix",
                "u_shininess": "shininess",
                "u_specular": "specular"
            }
        }
    },
    "textures": {
        "texture_sy16062019_png": {
            "format": 6408,
            "internalFormat": 6408,
            "sampler": "sampler_0",
            "source": "sy16062019_png",
            "target": 3553,
            "type": 5121
        },
        "texture_sy16062023_png": {
            "format": 6408,
            "internalFormat": 6408,
            "sampler": "sampler_0",
            "source": "sy16062023_png",
            "target": 3553,
            "type": 5121
        },
        "texture_sy16062048_png": {
            "format": 6408,
            "internalFormat": 6408,
            "sampler": "sampler_0",
            "source": "sy16062048_png",
            "target": 3553,
            "type": 5121
        },
        "texture_sy16062049_png": {
            "format": 6408,
            "internalFormat": 6408,
            "sampler": "sampler_0",
            "source": "sy16062049_png",
            "target": 3553,
            "type": 5121
        },
        "texture_sy16062050_png": {
            "format": 6408,
            "internalFormat": 6408,
            "sampler": "sampler_0",
            "source": "sy16062050_png",
            "target": 3553,
            "type": 5121
        },
        "texture_sy16062052_png": {
            "format": 6408,
            "internalFormat": 6408,
            "sampler": "sampler_0",
            "source": "sy16062052_png",
            "target": 3553,
            "type": 5121
        },
        "texture_sy16062054_png": {
            "format": 6408,
            "internalFormat": 6408,
            "sampler": "sampler_0",
            "source": "sy16062054_png",
            "target": 3553,
            "type": 5121
        },
        "texture_sy16062055_png": {
            "format": 6408,
            "internalFormat": 6408,
            "sampler": "sampler_0",
            "source": "sy16062055_png",
            "target": 3553,
            "type": 5121
        }
    }
}