{
    "accessors": {
        "accessor_101": {
            "bufferView": "bufferView_109",
            "byteOffset": 29004,
            "byteStride": 0,
            "componentType": 5123,
            "count": 288,
            "type": "SCALAR"
        },
        "accessor_103": {
            "bufferView": "bufferView_110",
            "byteOffset": 0,
            "byteStride": 12,
            "componentType": 5126,
            "count": 4966,
            "max": [
                189.062,
                35.8721,
                43.8806
            ],
            "min": [
                105.556,
                -86.112,
                -0.519316
            ],
            "type": "VEC3"
        },
        "accessor_105": {
            "bufferView": "bufferView_110",
            "byteOffset": 59592,
            "byteStride": 12,
            "componentType": 5126,
            "count": 4966,
            "max": [
                1,
                1,
                1
            ],
            "min": [
                -1,
                -1,
                -1
            ],
            "type": "VEC3"
        },
        "accessor_107": {
            "bufferView": "bufferView_110",
            "byteOffset": 119184,
            "byteStride": 8,
            "componentType": 5126,
            "count": 4966,
            "max": [
                1.05,
                1
            ],
            "min": [
                0,
                0
            ],
            "type": "VEC2"
        },
        "accessor_89": {
            "bufferView": "bufferView_109",
            "byteOffset": 0,
            "byteStride": 0,
            "componentType": 5123,
            "count": 192,
            "type": "SCALAR"
        },
        "accessor_92": {
            "bufferView": "bufferView_109",
            "byteOffset": 384,
            "byteStride": 0,
            "componentType": 5123,
            "count": 72,
            "type": "SCALAR"
        },
        "accessor_95": {
            "bufferView": "bufferView_109",
            "byteOffset": 528,
            "byteStride": 0,
            "componentType": 5123,
            "count": 126,
            "type": "SCALAR"
        },
        "accessor_98": {
            "bufferView": "bufferView_109",
            "byteOffset": 780,
            "byteStride": 0,
            "componentType": 5123,
            "count": 14112,
            "type": "SCALAR"
        }
    },
    "animations": {},
    "asset": {
        "generator": "collada2gltf@11bf28f97f1b5380fbefacf862ce7c597873d368",
        "premultipliedAlpha": true,
        "profile": {
            "api": "WebGL",
            "version": "1.0.2"
        },
        "version": 1
    },
    "bufferViews": {
        "bufferView_109": {
            "buffer": "test01",
            "byteLength": 29580,
            "byteOffset": 0,
            "target": 34963
        },
        "bufferView_110": {
            "buffer": "test01",
            "byteLength": 158912,
            "byteOffset": 29580,
            "target": 34962
        }
    },
    "buffers": {
        "test01": {
            "byteLength": 188492,
            "type": "arraybuffer",
            "uri": "data:application/octet-stream;base64,"
        }
    },
    "images": {
        "sy16051101_png": {
            "name": "sy16051101_png",
            "uri": "data:image/png;base64,"
        },
        "sy16051102_png": {
            "name": "sy16051102_png",
            "uri": "data:image/png;base64,"
        },
        "sy16051104_png": {
            "name": "sy16051104_png",
            "uri": "data:image/png;base64,"
        },
        "sy16051106_png": {
            "name": "sy16051106_png",
            "uri": "data:image/png;base64,"
        }
    },
    "materials": {
        "Material__4031": {
            "name": "Material__4031",
            "technique": "technique1",
            "values": {
                "ambient": "texture_sy16051106_png",
                "diffuse": "texture_sy16051106_png",
                "emission": [
                    0,
                    0,
                    0,
                    1
                ],
                "shininess": 0,
                "specular": [
                    0.9,
                    0.9,
                    0.9,
                    1
                ]
            }
        },
        "Material__4044": {
            "name": "Material__4044",
            "technique": "technique1",
            "values": {
                "ambient": "texture_sy16051104_png",
                "diffuse": "texture_sy16051104_png",
                "emission": [
                    0,
                    0,
                    0,
                    1
                ],
                "shininess": 0,
                "specular": [
                    0.9,
                    0.9,
                    0.9,
                    1
                ]
            }
        },
        "Material__4130": {
            "name": "Material__4130",
            "technique": "technique1",
            "values": {
                "ambient": "texture_sy16051101_png",
                "diffuse": "texture_sy16051101_png",
                "emission": [
                    0,
                    0,
                    0,
                    1
                ],
                "shininess": 0,
                "specular": [
                    0.9,
                    0.9,
                    0.9,
                    1
                ]
            }
        },
        "Material__4142": {
            "name": "Material__4142",
            "technique": "technique1",
            "values": {
                "ambient": "texture_sy16051102_png",
                "diffuse": "texture_sy16051102_png",
                "emission": [
                    0,
                    0,
                    0,
                    1
                ],
                "shininess": 0,
                "specular": [
                    0.9,
                    0.9,
                    0.9,
                    1
                ]
            }
        },
        "Material__4892": {
            "name": "Material__4892",
            "technique": "technique2",
            "values": {
                "ambient": [
                    0.588,
                    0.588,
                    0.588,
                    1
                ],
                "diffuse": [
                    0.588,
                    0.588,
                    0.588,
                    1
                ],
                "emission": [
                    0,
                    0,
                    0,
                    1
                ],
                "shininess": 0,
                "specular": [
                    0.9,
                    0.9,
                    0.9,
                    1
                ]
            }
        }
    },
    "meshes": {
        "geom-test01": {
            "name": "test01",
            "primitives": [
                {
                    "attributes": {
                        "NORMAL": "accessor_105",
                        "POSITION": "accessor_103",
                        "TEXCOORD_0": "accessor_107"
                    },
                    "indices": "accessor_89",
                    "material": "Material__4142",
                    "mode": 4
                },
                {
                    "attributes": {
                        "NORMAL": "accessor_105",
                        "POSITION": "accessor_103",
                        "TEXCOORD_0": "accessor_107"
                    },
                    "indices": "accessor_92",
                    "material": "Material__4892",
                    "mode": 4
                },
                {
                    "attributes": {
                        "NORMAL": "accessor_105",
                        "POSITION": "accessor_103",
                        "TEXCOORD_0": "accessor_107"
                    },
                    "indices": "accessor_95",
                    "material": "Material__4044",
                    "mode": 4
                },
                {
                    "attributes": {
                        "NORMAL": "accessor_105",
                        "POSITION": "accessor_103",
                        "TEXCOORD_0": "accessor_107"
                    },
                    "indices": "accessor_98",
                    "material": "Material__4130",
                    "mode": 4
                },
                {
                    "attributes": {
                        "NORMAL": "accessor_105",
                        "POSITION": "accessor_103",
                        "TEXCOORD_0": "accessor_107"
                    },
                    "indices": "accessor_101",
                    "material": "Material__4031",
                    "mode": 4
                }
            ]
        }
    },
    "nodes": {
        "node-test01": {
            "children": [
                "node_2"
            ],
            "matrix": [
                1,
                0,
                0,
                0,
                0,
                1,
                0,
                0,
                0,
                0,
                1,
                0,
                39.5576,
                408.334,
                21.6806,
                1
            ],
            "name": "test01"
        },
        "node_0": {
            "children": [],
            "matrix": [
                1,
                0,
                0,
                0,
                0,
                1,
                0,
                0,
                0,
                0,
                1,
                0,
                0,
                0,
                0,
                1
            ],
            "name": "EnvironmentAmbientLight"
        },
        "node_2": {
            "children": [],
            "matrix": [
                1,
                0,
                0,
                0,
                0,
                1,
                0,
                0,
                0,
                0,
                1,
                0,
                -147.309,
                25.1199,
                -21.6806,
                1
            ],
            "meshes": [
                "geom-test01"
            ],
            "name": ""
        },
        "node_3": {
            "children": [
                "node_0",
                "node-test01"
            ],
            "matrix": [
                1,
                0,
                0,
                0,
                0,
                0,
                -1,
                0,
                0,
                1,
                0,
                0,
                0,
                0,
                0,
                1
            ],
            "name": "Y_UP_Transform"
        }
    },
    "programs": {
        "program_0": {
            "attributes": [
                "a_normal",
                "a_position",
                "a_texcoord0"
            ],
            "fragmentShader": "test010FS",
            "vertexShader": "test010VS"
        },
        "program_1": {
            "attributes": [
                "a_normal",
                "a_position"
            ],
            "fragmentShader": "test011FS",
            "vertexShader": "test011VS"
        }
    },
    "samplers": {
        "sampler_0": {
            "magFilter": 9729,
            "minFilter": 9729,
            "wrapS": 10497,
            "wrapT": 10497
        }
    },
    "scene": "defaultScene",
    "scenes": {
        "defaultScene": {
            "nodes": [
                "node_3"
            ]
        }
    },
    "shaders": {
        "test010FS": {
            "type": 35632,
            "uri": "data:text/plain;base64,"
        },
        "test010VS": {
            "type": 35633,
            "uri": "data:text/plain;base64,"
        },
        "test011FS": {
            "type": 35632,
            "uri": "data:text/plain;base64,"
        },
        "test011VS": {
            "type": 35633,
            "uri": "data:text/plain;base64,"
        }
    },
    "skins": {},
    "techniques": {
        "technique1": {
            "attributes": {
                "a_normal": "normal",
                "a_position": "position",
                "a_texcoord0": "texcoord0"
            },
            "parameters": {
                "ambient": {
                    "type": 35678
                },
                "diffuse": {
                    "type": 35678
                },
                "emission": {
                    "type": 35666
                },
                "modelViewMatrix": {
                    "semantic": "MODELVIEW",
                    "type": 35676
                },
                "normal": {
                    "semantic": "NORMAL",
                    "type": 35665
                },
                "normalMatrix": {
                    "semantic": "MODELVIEWINVERSETRANSPOSE",
                    "type": 35675
                },
                "position": {
                    "semantic": "POSITION",
                    "type": 35665
                },
                "projectionMatrix": {
                    "semantic": "PROJECTION",
                    "type": 35676
                },
                "shininess": {
                    "type": 5126
                },
                "specular": {
                    "type": 35666
                },
                "texcoord0": {
                    "semantic": "TEXCOORD_0",
                    "type": 35664
                }
            },
            "program": "program_0",
            "states": {
                "enable": [
                    2929,
                    2884
                ]
            },
            "uniforms": {
                "u_ambient": "ambient",
                "u_diffuse": "diffuse",
                "u_emission": "emission",
                "u_modelViewMatrix": "modelViewMatrix",
                "u_normalMatrix": "normalMatrix",
                "u_projectionMatrix": "projectionMatrix",
                "u_shininess": "shininess",
                "u_specular": "specular"
            }
        },
        "technique2": {
            "attributes": {
                "a_normal": "normal",
                "a_position": "position"
            },
            "parameters": {
                "ambient": {
                    "type": 35666
                },
                "diffuse": {
                    "type": 35666
                },
                "emission": {
                    "type": 35666
                },
                "modelViewMatrix": {
                    "semantic": "MODELVIEW",
                    "type": 35676
                },
                "normal": {
                    "semantic": "NORMAL",
                    "type": 35665
                },
                "normalMatrix": {
                    "semantic": "MODELVIEWINVERSETRANSPOSE",
                    "type": 35675
                },
                "position": {
                    "semantic": "POSITION",
                    "type": 35665
                },
                "projectionMatrix": {
                    "semantic": "PROJECTION",
                    "type": 35676
                },
                "shininess": {
                    "type": 5126
                },
                "specular": {
                    "type": 35666
                }
            },
            "program": "program_1",
            "states": {
                "enable": [
                    2929,
                    2884
                ]
            },
            "uniforms": {
                "u_ambient": "ambient",
                "u_diffuse": "diffuse",
                "u_emission": "emission",
                "u_modelViewMatrix": "modelViewMatrix",
                "u_normalMatrix": "normalMatrix",
                "u_projectionMatrix": "projectionMatrix",
                "u_shininess": "shininess",
                "u_specular": "specular"
            }
        }
    },
    "textures": {
        "texture_sy16051101_png": {
            "format": 6408,
            "internalFormat": 6408,
            "sampler": "sampler_0",
            "source": "sy16051101_png",
            "target": 3553,
            "type": 5121
        },
        "texture_sy16051102_png": {
            "format": 6408,
            "internalFormat": 6408,
            "sampler": "sampler_0",
            "source": "sy16051102_png",
            "target": 3553,
            "type": 5121
        },
        "texture_sy16051104_png": {
            "format": 6408,
            "internalFormat": 6408,
            "sampler": "sampler_0",
            "source": "sy16051104_png",
            "target": 3553,
            "type": 5121
        },
        "texture_sy16051106_png": {
            "format": 6408,
            "internalFormat": 6408,
            "sampler": "sampler_0",
            "source": "sy16051106_png",
            "target": 3553,
            "type": 5121
        }
    }
}