{
    "accessors": {
        "accessor_140": {
            "bufferView": "bufferView_169",
            "byteOffset": 0,
            "byteStride": 0,
            "componentType": 5123,
            "count": 3300,
            "type": "SCALAR"
        },
        "accessor_143": {
            "bufferView": "bufferView_169",
            "byteOffset": 6600,
            "byteStride": 0,
            "componentType": 5123,
            "count": 9738,
            "type": "SCALAR"
        },
        "accessor_146": {
            "bufferView": "bufferView_169",
            "byteOffset": 26076,
            "byteStride": 0,
            "componentType": 5123,
            "count": 1620,
            "type": "SCALAR"
        },
        "accessor_149": {
            "bufferView": "bufferView_169",
            "byteOffset": 29316,
            "byteStride": 0,
            "componentType": 5123,
            "count": 2421,
            "type": "SCALAR"
        },
        "accessor_152": {
            "bufferView": "bufferView_169",
            "byteOffset": 34158,
            "byteStride": 0,
            "componentType": 5123,
            "count": 849,
            "type": "SCALAR"
        },
        "accessor_155": {
            "bufferView": "bufferView_169",
            "byteOffset": 35856,
            "byteStride": 0,
            "componentType": 5123,
            "count": 762,
            "type": "SCALAR"
        },
        "accessor_158": {
            "bufferView": "bufferView_169",
            "byteOffset": 37380,
            "byteStride": 0,
            "componentType": 5123,
            "count": 6,
            "type": "SCALAR"
        },
        "accessor_161": {
            "bufferView": "bufferView_169",
            "byteOffset": 37392,
            "byteStride": 0,
            "componentType": 5123,
            "count": 36,
            "type": "SCALAR"
        },
        "accessor_163": {
            "bufferView": "bufferView_170",
            "byteOffset": 0,
            "byteStride": 12,
            "componentType": 5126,
            "count": 18340,
            "max": [
                107.771,
                94.3472,
                101.486
            ],
            "min": [
                12.2975,
                -80.441,
                -5.72205e-06
            ],
            "type": "VEC3"
        },
        "accessor_165": {
            "bufferView": "bufferView_170",
            "byteOffset": 220080,
            "byteStride": 12,
            "componentType": 5126,
            "count": 18340,
            "max": [
                0.988685,
                0.988615,
                1
            ],
            "min": [
                -0.991783,
                -0.988619,
                -1
            ],
            "type": "VEC3"
        },
        "accessor_167": {
            "bufferView": "bufferView_170",
            "byteOffset": 440160,
            "byteStride": 8,
            "componentType": 5126,
            "count": 18340,
            "max": [
                33.3947,
                76.2821
            ],
            "min": [
                -27.6441,
                -50.5896
            ],
            "type": "VEC2"
        }
    },
    "animations": {},
    "asset": {
        "generator": "collada2gltf@11bf28f97f1b5380fbefacf862ce7c597873d368",
        "premultipliedAlpha": true,
        "profile": {
            "api": "WebGL",
            "version": "1.0.2"
        },
        "version": 1
    },
    "bufferViews": {
        "bufferView_169": {
            "buffer": "test04",
            "byteLength": 37464,
            "byteOffset": 0,
            "target": 34963
        },
        "bufferView_170": {
            "buffer": "test04",
            "byteLength": 586880,
            "byteOffset": 37464,
            "target": 34962
        }
    },
    "buffers": {
        "test04": {
            "byteLength": 624344,
            "type": "arraybuffer",
            "uri": "data:application/octet-stream;base64,"
        }
    },
    "images": {
        "sy16051101_png": {
            "name": "sy16051101_png",
            "uri": "data:image/png;base64,"
        },
        "sy16051102_png": {
            "name": "sy16051102_png",
            "uri": "data:image/png;base64,"
        },
        "sy16051103_png": {
            "name": "sy16051103_png",
            "uri": "data:image/png;base64,"
        },
        "sy16051104_png": {
            "name": "sy16051104_png",
            "uri": "data:image/png;base64,"
        },
        "sy16051106_png": {
            "name": "sy16051106_png",
            "uri": "data:image/png;base64,"
        }
    },
    "materials": {
        "Material__4031": {
            "name": "Material__4031",
            "technique": "technique1",
            "values": {
                "ambient": "texture_sy16051106_png",
                "diffuse": "texture_sy16051106_png",
                "emission": [
                    0,
                    0,
                    0,
                    1
                ],
                "shininess": 0,
                "specular": [
                    0.9,
                    0.9,
                    0.9,
                    1
                ]
            }
        },
        "Material__4044": {
            "name": "Material__4044",
            "technique": "technique1",
            "values": {
                "ambient": "texture_sy16051104_png",
                "diffuse": "texture_sy16051104_png",
                "emission": [
                    0,
                    0,
                    0,
                    1
                ],
                "shininess": 0,
                "specular": [
                    0.9,
                    0.9,
                    0.9,
                    1
                ]
            }
        },
        "Material__4045": {
            "name": "Material__4045",
            "technique": "technique1",
            "values": {
                "ambient": "texture_sy16051103_png",
                "diffuse": "texture_sy16051103_png",
                "emission": [
                    0,
                    0,
                    0,
                    1
                ],
                "shininess": 0,
                "specular": [
                    0.9,
                    0.9,
                    0.9,
                    1
                ]
            }
        },
        "Material__4130": {
            "name": "Material__4130",
            "technique": "technique1",
            "values": {
                "ambient": "texture_sy16051101_png",
                "diffuse": "texture_sy16051101_png",
                "emission": [
                    0,
                    0,
                    0,
                    1
                ],
                "shininess": 0,
                "specular": [
                    0.9,
                    0.9,
                    0.9,
                    1
                ]
            }
        },
        "Material__4142": {
            "name": "Material__4142",
            "technique": "technique1",
            "values": {
                "ambient": "texture_sy16051102_png",
                "diffuse": "texture_sy16051102_png",
                "emission": [
                    0,
                    0,
                    0,
                    1
                ],
                "shininess": 0,
                "specular": [
                    0.9,
                    0.9,
                    0.9,
                    1
                ]
            }
        },
        "Standard_12": {
            "name": "Standard_12",
            "technique": "technique2",
            "values": {
                "ambient": [
                    0.588,
                    0.588,
                    0.588,
                    1
                ],
                "diffuse": [
                    0.588,
                    0.588,
                    0.588,
                    1
                ],
                "emission": [
                    0,
                    0,
                    0,
                    1
                ],
                "shininess": 0,
                "specular": [
                    0.9,
                    0.9,
                    0.9,
                    1
                ]
            }
        },
        "Standard_3": {
            "name": "Standard_3",
            "technique": "technique2",
            "values": {
                "ambient": [
                    0.588,
                    0.588,
                    0.588,
                    1
                ],
                "diffuse": [
                    0.588,
                    0.588,
                    0.588,
                    1
                ],
                "emission": [
                    0,
                    0,
                    0,
                    1
                ],
                "shininess": 0,
                "specular": [
                    0.9,
                    0.9,
                    0.9,
                    1
                ]
            }
        },
        "_1_-_Default": {
            "name": "_1_-_Default",
            "technique": "technique2",
            "values": {
                "ambient": [
                    0.690196,
                    0.690196,
                    0.690196,
                    1
                ],
                "diffuse": [
                    0.690196,
                    0.690196,
                    0.690196,
                    1
                ],
                "emission": [
                    0,
                    0,
                    0,
                    1
                ],
                "shininess": 0,
                "specular": [
                    0.9,
                    0.9,
                    0.9,
                    1
                ]
            }
        }
    },
    "meshes": {
        "geom-test04": {
            "name": "test04",
            "primitives": [
                {
                    "attributes": {
                        "NORMAL": "accessor_165",
                        "POSITION": "accessor_163",
                        "TEXCOORD_0": "accessor_167"
                    },
                    "indices": "accessor_140",
                    "material": "Material__4031",
                    "mode": 4
                },
                {
                    "attributes": {
                        "NORMAL": "accessor_165",
                        "POSITION": "accessor_163",
                        "TEXCOORD_0": "accessor_167"
                    },
                    "indices": "accessor_143",
                    "material": "Material__4045",
                    "mode": 4
                },
                {
                    "attributes": {
                        "NORMAL": "accessor_165",
                        "POSITION": "accessor_163",
                        "TEXCOORD_0": "accessor_167"
                    },
                    "indices": "accessor_146",
                    "material": "Standard_3",
                    "mode": 4
                },
                {
                    "attributes": {
                        "NORMAL": "accessor_165",
                        "POSITION": "accessor_163",
                        "TEXCOORD_0": "accessor_167"
                    },
                    "indices": "accessor_149",
                    "material": "Material__4044",
                    "mode": 4
                },
                {
                    "attributes": {
                        "NORMAL": "accessor_165",
                        "POSITION": "accessor_163",
                        "TEXCOORD_0": "accessor_167"
                    },
                    "indices": "accessor_152",
                    "material": "Material__4130",
                    "mode": 4
                },
                {
                    "attributes": {
                        "NORMAL": "accessor_165",
                        "POSITION": "accessor_163",
                        "TEXCOORD_0": "accessor_167"
                    },
                    "indices": "accessor_155",
                    "material": "Material__4142",
                    "mode": 4
                },
                {
                    "attributes": {
                        "NORMAL": "accessor_165",
                        "POSITION": "accessor_163",
                        "TEXCOORD_0": "accessor_167"
                    },
                    "indices": "accessor_158",
                    "material": "_1_-_Default",
                    "mode": 4
                },
                {
                    "attributes": {
                        "NORMAL": "accessor_165",
                        "POSITION": "accessor_163",
                        "TEXCOORD_0": "accessor_167"
                    },
                    "indices": "accessor_161",
                    "material": "Standard_12",
                    "mode": 4
                }
            ]
        }
    },
    "nodes": {
        "node-test04": {
            "children": [
                "node_2"
            ],
            "matrix": [
                1,
                0,
                0,
                0,
                0,
                1,
                0,
                0,
                0,
                0,
                1,
                0,
                295.125,
                217.819,
                50.7431,
                1
            ],
            "name": "test04"
        },
        "node_0": {
            "children": [],
            "matrix": [
                1,
                0,
                0,
                0,
                0,
                1,
                0,
                0,
                0,
                0,
                1,
                0,
                0,
                0,
                0,
                1
            ],
            "name": "EnvironmentAmbientLight"
        },
        "node_2": {
            "children": [],
            "matrix": [
                1,
                0,
                0,
                0,
                0,
                1,
                0,
                0,
                0,
                0,
                1,
                0,
                -60.034,
                -6.95311,
                -50.7431,
                1
            ],
            "meshes": [
                "geom-test04"
            ],
            "name": ""
        },
        "node_3": {
            "children": [
                "node_0",
                "node-test04"
            ],
            "matrix": [
                1,
                0,
                0,
                0,
                0,
                0,
                -1,
                0,
                0,
                1,
                0,
                0,
                0,
                0,
                0,
                1
            ],
            "name": "Y_UP_Transform"
        }
    },
    "programs": {
        "program_0": {
            "attributes": [
                "a_normal",
                "a_position",
                "a_texcoord0"
            ],
            "fragmentShader": "test040FS",
            "vertexShader": "test040VS"
        },
        "program_1": {
            "attributes": [
                "a_normal",
                "a_position"
            ],
            "fragmentShader": "test041FS",
            "vertexShader": "test041VS"
        }
    },
    "samplers": {
        "sampler_0": {
            "magFilter": 9729,
            "minFilter": 9729,
            "wrapS": 10497,
            "wrapT": 10497
        }
    },
    "scene": "defaultScene",
    "scenes": {
        "defaultScene": {
            "nodes": [
                "node_3"
            ]
        }
    },
    "shaders": {
        "test040FS": {
            "type": 35632,
            "uri": "data:text/plain;base64,"
        },
        "test040VS": {
            "type": 35633,
            "uri": "data:text/plain;base64,"
        },
        "test041FS": {
            "type": 35632,
            "uri": "data:text/plain;base64,"
        },
        "test041VS": {
            "type": 35633,
            "uri": "data:text/plain;base64,"
        }
    },
    "skins": {},
    "techniques": {
        "technique1": {
            "attributes": {
                "a_normal": "normal",
                "a_position": "position",
                "a_texcoord0": "texcoord0"
            },
            "parameters": {
                "ambient": {
                    "type": 35678
                },
                "diffuse": {
                    "type": 35678
                },
                "emission": {
                    "type": 35666
                },
                "modelViewMatrix": {
                    "semantic": "MODELVIEW",
                    "type": 35676
                },
                "normal": {
                    "semantic": "NORMAL",
                    "type": 35665
                },
                "normalMatrix": {
                    "semantic": "MODELVIEWINVERSETRANSPOSE",
                    "type": 35675
                },
                "position": {
                    "semantic": "POSITION",
                    "type": 35665
                },
                "projectionMatrix": {
                    "semantic": "PROJECTION",
                    "type": 35676
                },
                "shininess": {
                    "type": 5126
                },
                "specular": {
                    "type": 35666
                },
                "texcoord0": {
                    "semantic": "TEXCOORD_0",
                    "type": 35664
                }
            },
            "program": "program_0",
            "states": {
                "enable": [
                    2929,
                    2884
                ]
            },
            "uniforms": {
                "u_ambient": "ambient",
                "u_diffuse": "diffuse",
                "u_emission": "emission",
                "u_modelViewMatrix": "modelViewMatrix",
                "u_normalMatrix": "normalMatrix",
                "u_projectionMatrix": "projectionMatrix",
                "u_shininess": "shininess",
                "u_specular": "specular"
            }
        },
        "technique2": {
            "attributes": {
                "a_normal": "normal",
                "a_position": "position"
            },
            "parameters": {
                "ambient": {
                    "type": 35666
                },
                "diffuse": {
                    "type": 35666
                },
                "emission": {
                    "type": 35666
                },
                "modelViewMatrix": {
                    "semantic": "MODELVIEW",
                    "type": 35676
                },
                "normal": {
                    "semantic": "NORMAL",
                    "type": 35665
                },
                "normalMatrix": {
                    "semantic": "MODELVIEWINVERSETRANSPOSE",
                    "type": 35675
                },
                "position": {
                    "semantic": "POSITION",
                    "type": 35665
                },
                "projectionMatrix": {
                    "semantic": "PROJECTION",
                    "type": 35676
                },
                "shininess": {
                    "type": 5126
                },
                "specular": {
                    "type": 35666
                }
            },
            "program": "program_1",
            "states": {
                "enable": [
                    2929,
                    2884
                ]
            },
            "uniforms": {
                "u_ambient": "ambient",
                "u_diffuse": "diffuse",
                "u_emission": "emission",
                "u_modelViewMatrix": "modelViewMatrix",
                "u_normalMatrix": "normalMatrix",
                "u_projectionMatrix": "projectionMatrix",
                "u_shininess": "shininess",
                "u_specular": "specular"
            }
        }
    },
    "textures": {
        "texture_sy16051101_png": {
            "format": 6408,
            "internalFormat": 6408,
            "sampler": "sampler_0",
            "source": "sy16051101_png",
            "target": 3553,
            "type": 5121
        },
        "texture_sy16051102_png": {
            "format": 6408,
            "internalFormat": 6408,
            "sampler": "sampler_0",
            "source": "sy16051102_png",
            "target": 3553,
            "type": 5121
        },
        "texture_sy16051103_png": {
            "format": 6408,
            "internalFormat": 6408,
            "sampler": "sampler_0",
            "source": "sy16051103_png",
            "target": 3553,
            "type": 5121
        },
        "texture_sy16051104_png": {
            "format": 6408,
            "internalFormat": 6408,
            "sampler": "sampler_0",
            "source": "sy16051104_png",
            "target": 3553,
            "type": 5121
        },
        "texture_sy16051106_png": {
            "format": 6408,
            "internalFormat": 6408,
            "sampler": "sampler_0",
            "source": "sy16051106_png",
            "target": 3553,
            "type": 5121
        }
    }
}