{
    "accessors": {
        "accessor_38": {
            "bufferView": "bufferView_49",
            "byteOffset": 0,
            "byteStride": 0,
            "componentType": 5123,
            "count": 288,
            "type": "SCALAR"
        },
        "accessor_41": {
            "bufferView": "bufferView_49",
            "byteOffset": 576,
            "byteStride": 0,
            "componentType": 5123,
            "count": 48,
            "type": "SCALAR"
        },
        "accessor_43": {
            "bufferView": "bufferView_50",
            "byteOffset": 0,
            "byteStride": 12,
            "componentType": 5126,
            "count": 310,
            "max": [
                7.51596,
                7.2247,
                8.69967
            ],
            "min": [
                1.2058,
                0.385716,
                2.38419e-06
            ],
            "type": "VEC3"
        },
        "accessor_45": {
            "bufferView": "bufferView_50",
            "byteOffset": 3720,
            "byteStride": 12,
            "componentType": 5126,
            "count": 310,
            "max": [
                0.998574,
                0.997344,
                1
            ],
            "min": [
                -0.998574,
                -0.997344,
                -1
            ],
            "type": "VEC3"
        },
        "accessor_47": {
            "bufferView": "bufferView_50",
            "byteOffset": 7440,
            "byteStride": 8,
            "componentType": 5126,
            "count": 310,
            "max": [
                1.15,
                1
            ],
            "min": [
                0,
                0
            ],
            "type": "VEC2"
        }
    },
    "animations": {},
    "asset": {
        "generator": "collada2gltf@11bf28f97f1b5380fbefacf862ce7c597873d368",
        "premultipliedAlpha": true,
        "profile": {
            "api": "WebGL",
            "version": "1.0.2"
        },
        "version": 1
    },
    "bufferViews": {
        "bufferView_49": {
            "buffer": "tree85",
            "byteLength": 672,
            "byteOffset": 0,
            "target": 34963
        },
        "bufferView_50": {
            "buffer": "tree85",
            "byteLength": 9920,
            "byteOffset": 672,
            "target": 34962
        }
    },
    "buffers": {
        "tree85": {
            "byteLength": 10592,
            "type": "arraybuffer",
            "uri": "data:application/octet-stream;base64,"
        }
    },
    "images": {
        "sy16051103_png": {
            "name": "sy16051103_png",
            "uri": "data:image/png;base64,"
        },
        "sy16051113_png": {
            "name": "sy16051113_png",
            "uri": "data:image/png;base64,"
        }
    },
    "materials": {
        "sy16051103": {
            "name": "sy16051103",
            "technique": "technique1",
            "values": {
                "ambient": "texture_sy16051103_png",
                "diffuse": "texture_sy16051103_png",
                "emission": [
                    0,
                    0,
                    0,
                    1
                ],
                "shininess": 0,
                "specular": [
                    0.9,
                    0.9,
                    0.9,
                    1
                ]
            }
        },
        "sy16051113": {
            "name": "sy16051113",
            "technique": "technique1",
            "values": {
                "ambient": "texture_sy16051113_png",
                "diffuse": "texture_sy16051113_png",
                "emission": [
                    0,
                    0,
                    0,
                    1
                ],
                "shininess": 0,
                "specular": [
                    0.9,
                    0.9,
                    0.9,
                    1
                ]
            }
        }
    },
    "meshes": {
        "geom-tree85": {
            "name": "tree85",
            "primitives": [
                {
                    "attributes": {
                        "NORMAL": "accessor_45",
                        "POSITION": "accessor_43",
                        "TEXCOORD_0": "accessor_47"
                    },
                    "indices": "accessor_38",
                    "material": "sy16051113",
                    "mode": 4
                },
                {
                    "attributes": {
                        "NORMAL": "accessor_45",
                        "POSITION": "accessor_43",
                        "TEXCOORD_0": "accessor_47"
                    },
                    "indices": "accessor_41",
                    "material": "sy16051103",
                    "mode": 4
                }
            ]
        }
    },
    "nodes": {
        "node-tree85": {
            "children": [
                "node_2"
            ],
            "matrix": [
                1,
                0,
                0,
                0,
                0,
                1,
                0,
                0,
                0,
                0,
                1,
                0,
                0,
                0,
                4.34983,
                1
            ],
            "name": "tree85"
        },
        "node_0": {
            "children": [],
            "matrix": [
                1,
                0,
                0,
                0,
                0,
                1,
                0,
                0,
                0,
                0,
                1,
                0,
                0,
                0,
                0,
                1
            ],
            "name": "EnvironmentAmbientLight"
        },
        "node_2": {
            "children": [],
            "matrix": [
                1,
                0,
                0,
                0,
                0,
                1,
                0,
                0,
                0,
                0,
                1,
                0,
                -4.36089,
                -3.80521,
                -4.34983,
                1
            ],
            "meshes": [
                "geom-tree85"
            ],
            "name": ""
        },
        "node_3": {
            "children": [
                "node_0",
                "node-tree85"
            ],
            "matrix": [
                1,
                0,
                0,
                0,
                0,
                0,
                -1,
                0,
                0,
                1,
                0,
                0,
                0,
                0,
                0,
                1
            ],
            "name": "Y_UP_Transform"
        }
    },
    "programs": {
        "program_0": {
            "attributes": [
                "a_normal",
                "a_position",
                "a_texcoord0"
            ],
            "fragmentShader": "tree850FS",
            "vertexShader": "tree850VS"
        }
    },
    "samplers": {
        "sampler_0": {
            "magFilter": 9729,
            "minFilter": 9729,
            "wrapS": 10497,
            "wrapT": 10497
        }
    },
    "scene": "defaultScene",
    "scenes": {
        "defaultScene": {
            "nodes": [
                "node_3"
            ]
        }
    },
    "shaders": {
        "tree850FS": {
            "type": 35632,
            "uri": "data:text/plain;base64,"
        },
        "tree850VS": {
            "type": 35633,
            "uri": "data:text/plain;base64,"
        }
    },
    "skins": {},
    "techniques": {
        "technique1": {
            "attributes": {
                "a_normal": "normal",
                "a_position": "position",
                "a_texcoord0": "texcoord0"
            },
            "parameters": {
                "ambient": {
                    "type": 35678
                },
                "diffuse": {
                    "type": 35678
                },
                "emission": {
                    "type": 35666
                },
                "modelViewMatrix": {
                    "semantic": "MODELVIEW",
                    "type": 35676
                },
                "normal": {
                    "semantic": "NORMAL",
                    "type": 35665
                },
                "normalMatrix": {
                    "semantic": "MODELVIEWINVERSETRANSPOSE",
                    "type": 35675
                },
                "position": {
                    "semantic": "POSITION",
                    "type": 35665
                },
                "projectionMatrix": {
                    "semantic": "PROJECTION",
                    "type": 35676
                },
                "shininess": {
                    "type": 5126
                },
                "specular": {
                    "type": 35666
                },
                "texcoord0": {
                    "semantic": "TEXCOORD_0",
                    "type": 35664
                }
            },
            "program": "program_0",
            "states": {
                "enable": [
                    2929,
                    2884
                ]
            },
            "uniforms": {
                "u_ambient": "ambient",
                "u_diffuse": "diffuse",
                "u_emission": "emission",
                "u_modelViewMatrix": "modelViewMatrix",
                "u_normalMatrix": "normalMatrix",
                "u_projectionMatrix": "projectionMatrix",
                "u_shininess": "shininess",
                "u_specular": "specular"
            }
        }
    },
    "textures": {
        "texture_sy16051103_png": {
            "format": 6408,
            "internalFormat": 6408,
            "sampler": "sampler_0",
            "source": "sy16051103_png",
            "target": 3553,
            "type": 5121
        },
        "texture_sy16051113_png": {
            "format": 6408,
            "internalFormat": 6408,
            "sampler": "sampler_0",
            "source": "sy16051113_png",
            "target": 3553,
            "type": 5121
        }
    }
}