{
    "accessors": {
        "accessor_101": {
            "bufferView": "bufferView_104",
            "byteOffset": 104808,
            "byteStride": 12,
            "componentType": 5126,
            "count": 2382,
            "max": [
                0.999747,
                0.934977,
                0.967133
            ],
            "min": [
                -1,
                -0.999998,
                -1
            ],
            "type": "VEC3"
        },
        "accessor_85": {
            "bufferView": "bufferView_103",
            "byteOffset": 0,
            "byteStride": 0,
            "componentType": 5123,
            "count": 648,
            "type": "SCALAR"
        },
        "accessor_88": {
            "bufferView": "bufferView_103",
            "byteOffset": 1296,
            "byteStride": 0,
            "componentType": 5123,
            "count": 30,
            "type": "SCALAR"
        },
        "accessor_91": {
            "bufferView": "bufferView_103",
            "byteOffset": 1356,
            "byteStride": 0,
            "componentType": 5123,
            "count": 1704,
            "type": "SCALAR"
        },
        "accessor_93": {
            "bufferView": "bufferView_104",
            "byteOffset": 0,
            "byteStride": 12,
            "componentType": 5126,
            "count": 2382,
            "max": [
                -0.677373,
                7.87697,
                8.53113
            ],
            "min": [
                -7.33566,
                -3.11655,
                0.962403
            ],
            "type": "VEC3"
        },
        "accessor_95": {
            "bufferView": "bufferView_104",
            "byteOffset": 28584,
            "byteStride": 12,
            "componentType": 5126,
            "count": 2382,
            "max": [
                1,
                1,
                0.965925
            ],
            "min": [
                -0.965918,
                -0.999933,
                -0.965923
            ],
            "type": "VEC3"
        },
        "accessor_97": {
            "bufferView": "bufferView_104",
            "byteOffset": 57168,
            "byteStride": 8,
            "componentType": 5126,
            "count": 2382,
            "max": [
                1,
                1
            ],
            "min": [
                0,
                -14.0346
            ],
            "type": "VEC2"
        },
        "accessor_99": {
            "bufferView": "bufferView_104",
            "byteOffset": 76224,
            "byteStride": 12,
            "componentType": 5126,
            "count": 2382,
            "max": [
                0.975644,
                0.891947,
                1
            ],
            "min": [
                -0.965927,
                -0.267865,
                -0.999959
            ],
            "type": "VEC3"
        }
    },
    "animations": {},
    "asset": {
        "generator": "collada2gltf@11bf28f97f1b5380fbefacf862ce7c597873d368",
        "premultipliedAlpha": true,
        "profile": {
            "api": "WebGL",
            "version": "1.0.2"
        },
        "version": 1
    },
    "bufferViews": {
        "bufferView_103": {
            "buffer": "tree",
            "byteLength": 4764,
            "byteOffset": 0,
            "target": 34963
        },
        "bufferView_104": {
            "buffer": "tree",
            "byteLength": 133392,
            "byteOffset": 4764,
            "target": 34962
        }
    },
    "buffers": {
        "tree": {
            "byteLength": 138156,
            "type": "arraybuffer",
            "uri": "data:application/octet-stream;base64,"
        }
    },
    "images": {
        "sy16051146_png": {
            "name": "sy16051146_png",
            "uri": "data:image/png;base64,"
        },
        "sy16051147_png": {
            "name": "sy16051147_png",
            "uri": "data:image/png;base64,"
        }
    },
    "materials": {
        "Material__7674": {
            "name": "Material__7674",
            "technique": "technique1",
            "values": {
                "ambient": "texture_sy16051146_png",
                "diffuse": "texture_sy16051146_png",
                "emission": [
                    0,
                    0,
                    0,
                    1
                ],
                "shininess": 0,
                "specular": [
                    0.9,
                    0.9,
                    0.9,
                    1
                ]
            }
        },
        "Material__7699": {
            "name": "Material__7699",
            "technique": "technique2",
            "values": {
                "ambient": "texture_sy16051147_png",
                "diffuse": "texture_sy16051147_png",
                "emission": [
                    0,
                    0,
                    0,
                    1
                ],
                "shininess": 0,
                "specular": [
                    0.9,
                    0.9,
                    0.9,
                    1
                ]
            }
        },
        "Material__7700": {
            "name": "Material__7700",
            "technique": "technique3",
            "values": {
                "ambient": [
                    0.588,
                    0.588,
                    0.588,
                    1
                ],
                "diffuse": [
                    0.588,
                    0.588,
                    0.588,
                    1
                ],
                "emission": [
                    0,
                    0,
                    0,
                    1
                ],
                "shininess": 0,
                "specular": [
                    0.9,
                    0.9,
                    0.9,
                    1
                ]
            }
        }
    },
    "meshes": {
        "geom-tree": {
            "name": "tree",
            "primitives": [
                {
                    "attributes": {
                        "NORMAL": "accessor_95",
                        "POSITION": "accessor_93",
                        "TEXBINORMAL": "accessor_101",
                        "TEXCOORD_0": "accessor_97",
                        "TEXTANGENT": "accessor_99"
                    },
                    "indices": "accessor_85",
                    "material": "Material__7699",
                    "mode": 4
                },
                {
                    "attributes": {
                        "NORMAL": "accessor_95",
                        "POSITION": "accessor_93",
                        "TEXBINORMAL": "accessor_101",
                        "TEXCOORD_0": "accessor_97",
                        "TEXTANGENT": "accessor_99"
                    },
                    "indices": "accessor_88",
                    "material": "Material__7700",
                    "mode": 4
                },
                {
                    "attributes": {
                        "NORMAL": "accessor_95",
                        "POSITION": "accessor_93",
                        "TEXBINORMAL": "accessor_101",
                        "TEXCOORD_0": "accessor_97",
                        "TEXTANGENT": "accessor_99"
                    },
                    "indices": "accessor_91",
                    "material": "Material__7674",
                    "mode": 4
                }
            ]
        }
    },
    "nodes": {
        "node-tree": {
            "children": [
                "node_2"
            ],
            "matrix": [
                1,
                0,
                0,
                0,
                0,
                4.48966e-11,
                1,
                0,
                0,
                -1,
                4.48966e-11,
                0,
                0,
                0,
                5.49676,
                1
            ],
            "name": "tree"
        },
        "node_0": {
            "children": [],
            "matrix": [
                1,
                0,
                0,
                0,
                0,
                1,
                0,
                0,
                0,
                0,
                1,
                0,
                0,
                0,
                0,
                1
            ],
            "name": "EnvironmentAmbientLight"
        },
        "node_2": {
            "children": [],
            "matrix": [
                1,
                0,
                0,
                0,
                0,
                1,
                0,
                0,
                0,
                0,
                1,
                0,
                4.00652,
                -2.38021,
                -4.74677,
                1
            ],
            "meshes": [
                "geom-tree"
            ],
            "name": ""
        },
        "node_3": {
            "children": [
                "node_0",
                "node-tree"
            ],
            "matrix": [
                1,
                0,
                0,
                0,
                0,
                0,
                -1,
                0,
                0,
                1,
                0,
                0,
                0,
                0,
                0,
                1
            ],
            "name": "Y_UP_Transform"
        }
    },
    "programs": {
        "program_0": {
            "attributes": [
                "a_normal",
                "a_position",
                "a_texcoord0"
            ],
            "fragmentShader": "tree0FS",
            "vertexShader": "tree0VS"
        },
        "program_1": {
            "attributes": [
                "a_normal",
                "a_position",
                "a_texcoord0"
            ],
            "fragmentShader": "tree1FS",
            "vertexShader": "tree1VS"
        },
        "program_2": {
            "attributes": [
                "a_normal",
                "a_position"
            ],
            "fragmentShader": "tree2FS",
            "vertexShader": "tree2VS"
        }
    },
    "samplers": {
        "sampler_0": {
            "magFilter": 9729,
            "minFilter": 9729,
            "wrapS": 10497,
            "wrapT": 10497
        }
    },
    "scene": "defaultScene",
    "scenes": {
        "defaultScene": {
            "nodes": [
                "node_3"
            ]
        }
    },
    "shaders": {
        "tree0FS": {
            "type": 35632,
            "uri": "data:text/plain;base64,"
        },
        "tree0VS": {
            "type": 35633,
            "uri": "data:text/plain;base64,"
        },
        "tree1FS": {
            "type": 35632,
            "uri": "data:text/plain;base64,"
        },
        "tree1VS": {
            "type": 35633,
            "uri": "data:text/plain;base64,"
        },
        "tree2FS": {
            "type": 35632,
            "uri": "data:text/plain;base64,"
        },
        "tree2VS": {
            "type": 35633,
            "uri": "data:text/plain;base64,"
        }
    },
    "skins": {},
    "techniques": {
        "technique1": {
            "attributes": {
                "a_normal": "normal",
                "a_position": "position",
                "a_texcoord0": "texcoord0"
            },
            "parameters": {
                "ambient": {
                    "type": 35678
                },
                "diffuse": {
                    "type": 35678
                },
                "emission": {
                    "type": 35666
                },
                "modelViewMatrix": {
                    "semantic": "MODELVIEW",
                    "type": 35676
                },
                "normal": {
                    "semantic": "NORMAL",
                    "type": 35665
                },
                "normalMatrix": {
                    "semantic": "MODELVIEWINVERSETRANSPOSE",
                    "type": 35675
                },
                "position": {
                    "semantic": "POSITION",
                    "type": 35665
                },
                "projectionMatrix": {
                    "semantic": "PROJECTION",
                    "type": 35676
                },
                "shininess": {
                    "type": 5126
                },
                "specular": {
                    "type": 35666
                },
                "texcoord0": {
                    "semantic": "TEXCOORD_0",
                    "type": 35664
                }
            },
            "program": "program_0",
            "states": {
                "enable": [
                    2929,
                    3042
                ],
                "functions": {
                    "blendEquationSeparate": [
                        32774,
                        32774
                    ],
                    "blendFuncSeparate": [
                        1,
                        771,
                        1,
                        771
                    ],
                    "depthMask": false
                }
            },
            "uniforms": {
                "u_ambient": "ambient",
                "u_diffuse": "diffuse",
                "u_emission": "emission",
                "u_modelViewMatrix": "modelViewMatrix",
                "u_normalMatrix": "normalMatrix",
                "u_projectionMatrix": "projectionMatrix",
                "u_shininess": "shininess",
                "u_specular": "specular"
            }
        },
        "technique2": {
            "attributes": {
                "a_normal": "normal",
                "a_position": "position",
                "a_texcoord0": "texcoord0"
            },
            "parameters": {
                "ambient": {
                    "type": 35678
                },
                "diffuse": {
                    "type": 35678
                },
                "emission": {
                    "type": 35666
                },
                "modelViewMatrix": {
                    "semantic": "MODELVIEW",
                    "type": 35676
                },
                "normal": {
                    "semantic": "NORMAL",
                    "type": 35665
                },
                "normalMatrix": {
                    "semantic": "MODELVIEWINVERSETRANSPOSE",
                    "type": 35675
                },
                "position": {
                    "semantic": "POSITION",
                    "type": 35665
                },
                "projectionMatrix": {
                    "semantic": "PROJECTION",
                    "type": 35676
                },
                "shininess": {
                    "type": 5126
                },
                "specular": {
                    "type": 35666
                },
                "texcoord0": {
                    "semantic": "TEXCOORD_0",
                    "type": 35664
                }
            },
            "program": "program_1",
            "states": {
                "enable": [
                    2929,
                    2884
                ]
            },
            "uniforms": {
                "u_ambient": "ambient",
                "u_diffuse": "diffuse",
                "u_emission": "emission",
                "u_modelViewMatrix": "modelViewMatrix",
                "u_normalMatrix": "normalMatrix",
                "u_projectionMatrix": "projectionMatrix",
                "u_shininess": "shininess",
                "u_specular": "specular"
            }
        },
        "technique3": {
            "attributes": {
                "a_normal": "normal",
                "a_position": "position"
            },
            "parameters": {
                "ambient": {
                    "type": 35666
                },
                "diffuse": {
                    "type": 35666
                },
                "emission": {
                    "type": 35666
                },
                "modelViewMatrix": {
                    "semantic": "MODELVIEW",
                    "type": 35676
                },
                "normal": {
                    "semantic": "NORMAL",
                    "type": 35665
                },
                "normalMatrix": {
                    "semantic": "MODELVIEWINVERSETRANSPOSE",
                    "type": 35675
                },
                "position": {
                    "semantic": "POSITION",
                    "type": 35665
                },
                "projectionMatrix": {
                    "semantic": "PROJECTION",
                    "type": 35676
                },
                "shininess": {
                    "type": 5126
                },
                "specular": {
                    "type": 35666
                }
            },
            "program": "program_2",
            "states": {
                "enable": [
                    2929,
                    2884
                ]
            },
            "uniforms": {
                "u_ambient": "ambient",
                "u_diffuse": "diffuse",
                "u_emission": "emission",
                "u_modelViewMatrix": "modelViewMatrix",
                "u_normalMatrix": "normalMatrix",
                "u_projectionMatrix": "projectionMatrix",
                "u_shininess": "shininess",
                "u_specular": "specular"
            }
        }
    },
    "textures": {
        "texture_sy16051146_png": {
            "format": 6408,
            "internalFormat": 6408,
            "sampler": "sampler_0",
            "source": "sy16051146_png",
            "target": 3553,
            "type": 5121
        },
        "texture_sy16051147_png": {
            "format": 6408,
            "internalFormat": 6408,
            "sampler": "sampler_0",
            "source": "sy16051147_png",
            "target": 3553,
            "type": 5121
        }
    }
}